  0
SECTION
  2
HEADER
  9
$ANGBASE
  50
0.0
  9
$ANGDIR
  70
1
  9
$MEASUREMENT
  70
1
  0
ENDSEC
  0
SECTION
  2
TABLES
  0
TABLE
  2
LTYPE
  70
4
  0
LTYPE
  5
40F
  2
CONTINUOUS
  70
0
  3
Solid line
  72
65
  73
0
  40
0.0
  0
LTYPE
  5
410
  2
DASHDOT
 70
0
  3
Dash Dot ____ _ ____ _
 72
65
 73
4
 40
2.0
 49
1.25
 49
-0.25
 49
0.25
 49
-0.25
  0
LTYPE
  5
411
  2
DASHED
 70
0
  3
Dashed __ __ __ __ __
 72
65
 73
2
 40
0.75
 49
0.5
 49
-0.25
  0
LTYPE
  5
43B
  2
DOTTED
 70
0
  3
Dotted .  .  .  .
 72
65
 73
2
 40
0.2
 49
0.0
 49
-0.2
  0
ENDTAB
  0
TABLE
  2
STYLE
  70
4
  0
STYLE
  2
KICAD
  70
0
  40
0
  41
1
  42
1
  50
0
  71
0
  3
isocp.shx
  0
STYLE
  2
KICADB
  70
0
  40
0
  41
1
  42
1
  50
0
  71
0
  3
isocp.shx
  0
STYLE
  2
KICADI
  70
0
  40
0
  41
1
  42
1
  50
15
  71
0
  3
isocp.shx
  0
STYLE
  2
KICADBI
  70
0
  40
0
  41
1
  42
1
  50
15
  71
0
  3
isocp.shx
  0
ENDTAB
  0
TABLE
  2
LAYER
  70
1
  0
LAYER
  2
BLACK
  70
0
  62
7
  6
CONTINUOUS
  0
ENDTAB
  0
ENDSEC
  0
SECTION
  2
ENTITIES
0
LINE
8
BLACK
6
CONTINUOUS
10
4.03703
20
23.4444
11
4.35013
21
23.3952
0
LINE
8
BLACK
6
CONTINUOUS
10
4.35013
20
23.3952
11
4.65636
21
23.3136
0
LINE
8
BLACK
6
CONTINUOUS
10
4.65636
20
23.3136
11
4.95238
21
23.2004
0
LINE
8
BLACK
6
CONTINUOUS
10
4.95238
20
23.2004
11
5.23491
21
23.0568
0
LINE
8
BLACK
6
CONTINUOUS
10
5.23491
20
23.0568
11
5.50088
21
22.8844
0
LINE
8
BLACK
6
CONTINUOUS
10
5.50088
20
22.8844
11
5.74735
21
22.6852
0
LINE
8
BLACK
6
CONTINUOUS
10
5.74735
20
22.6852
11
5.97162
21
22.4612
0
LINE
8
BLACK
6
CONTINUOUS
10
5.97162
20
22.4612
11
6.17123
21
22.2151
0
LINE
8
BLACK
6
CONTINUOUS
10
6.17123
20
22.2151
11
6.34399
21
21.9493
0
LINE
8
BLACK
6
CONTINUOUS
10
6.34399
20
21.9493
11
6.488
21
21.667
0
LINE
8
BLACK
6
CONTINUOUS
10
6.488
20
21.667
11
6.60168
21
21.3712
0
LINE
8
BLACK
6
CONTINUOUS
10
6.60168
20
21.3712
11
6.68379
21
21.0651
0
LINE
8
BLACK
6
CONTINUOUS
10
6.68379
20
21.0651
11
6.73341
21
20.752
0
LINE
8
BLACK
6
CONTINUOUS
10
6.73341
20
20.752
11
6.75001
21
20.4355
0
LINE
8
BLACK
6
CONTINUOUS
10
6.75001
20
20.4355
11
6.75
21
20.4355
0
LINE
8
BLACK
6
CONTINUOUS
10
6.75
20
20.4355
11
6.75
21
13.58
0
LINE
8
BLACK
6
CONTINUOUS
10
6.75
20
13.58
11
6.74997
21
13.5799
0
LINE
8
BLACK
6
CONTINUOUS
10
6.74997
20
13.5799
11
6.74997
21
13.4947
0
LINE
8
BLACK
6
CONTINUOUS
10
6.74997
20
13.4947
11
6.77959
21
13.3267
0
LINE
8
BLACK
6
CONTINUOUS
10
6.77959
20
13.3267
11
6.83794
21
13.1664
0
LINE
8
BLACK
6
CONTINUOUS
10
6.83794
20
13.1664
11
6.92324
21
13.0186
0
LINE
8
BLACK
6
CONTINUOUS
10
6.92324
20
13.0186
11
7.03291
21
12.8879
0
LINE
8
BLACK
6
CONTINUOUS
10
7.03291
20
12.8879
11
7.1636
21
12.7783
0
LINE
8
BLACK
6
CONTINUOUS
10
7.1636
20
12.7783
11
7.31135
21
12.693
0
LINE
8
BLACK
6
CONTINUOUS
10
7.31135
20
12.693
11
7.47168
21
12.6346
0
LINE
8
BLACK
6
CONTINUOUS
10
7.47168
20
12.6346
11
7.63969
21
12.605
0
LINE
8
BLACK
6
CONTINUOUS
10
7.63969
20
12.605
11
7.725
21
12.605
0
LINE
8
BLACK
6
CONTINUOUS
10
7.725
20
12.605
11
7.725
21
12.605
0
LINE
8
BLACK
6
CONTINUOUS
10
7.725
20
12.605
11
7.725
21
12.605
0
LINE
8
BLACK
6
CONTINUOUS
10
7.725
20
12.605
11
13.725
21
12.605
0
LINE
8
BLACK
6
CONTINUOUS
10
13.725
20
12.605
11
13.725
21
12.605
0
LINE
8
BLACK
6
CONTINUOUS
10
13.725
20
12.605
11
13.725
21
12.605
0
LINE
8
BLACK
6
CONTINUOUS
10
13.725
20
12.605
11
13.8103
21
12.605
0
LINE
8
BLACK
6
CONTINUOUS
10
13.8103
20
12.605
11
13.9783
21
12.6346
0
LINE
8
BLACK
6
CONTINUOUS
10
13.9783
20
12.6346
11
14.1386
21
12.693
0
LINE
8
BLACK
6
CONTINUOUS
10
14.1386
20
12.693
11
14.2864
21
12.7783
0
LINE
8
BLACK
6
CONTINUOUS
10
14.2864
20
12.7783
11
14.4171
21
12.8879
0
LINE
8
BLACK
6
CONTINUOUS
10
14.4171
20
12.8879
11
14.5267
21
13.0186
0
LINE
8
BLACK
6
CONTINUOUS
10
14.5267
20
13.0186
11
14.612
21
13.1664
0
LINE
8
BLACK
6
CONTINUOUS
10
14.612
20
13.1664
11
14.6704
21
13.3267
0
LINE
8
BLACK
6
CONTINUOUS
10
14.6704
20
13.3267
11
14.7
21
13.4947
0
LINE
8
BLACK
6
CONTINUOUS
10
14.7
20
13.4947
11
14.7
21
13.58
0
LINE
8
BLACK
6
CONTINUOUS
10
14.7
20
13.58
11
14.7
21
13.58
0
LINE
8
BLACK
6
CONTINUOUS
10
14.7
20
13.58
11
14.7
21
14.2268
0
LINE
8
BLACK
6
CONTINUOUS
10
14.7
20
14.2268
11
14.7
21
14.2268
0
LINE
8
BLACK
6
CONTINUOUS
10
14.7
20
14.2268
11
14.7
21
14.2268
0
LINE
8
BLACK
6
CONTINUOUS
10
14.7
20
14.2268
11
14.7154
21
14.404
0
LINE
8
BLACK
6
CONTINUOUS
10
14.7154
20
14.404
11
14.7612
21
14.5757
0
LINE
8
BLACK
6
CONTINUOUS
10
14.7612
20
14.5757
11
14.836
21
14.737
0
LINE
8
BLACK
6
CONTINUOUS
10
14.836
20
14.737
11
14.9375
21
14.8829
0
LINE
8
BLACK
6
CONTINUOUS
10
14.9375
20
14.8829
11
15.0627
21
15.0091
0
LINE
8
BLACK
6
CONTINUOUS
10
15.0627
20
15.0091
11
15.2079
21
15.1118
0
LINE
8
BLACK
6
CONTINUOUS
10
15.2079
20
15.1118
11
15.3685
21
15.1879
0
LINE
8
BLACK
6
CONTINUOUS
10
15.3685
20
15.1879
11
15.5399
21
15.235
0
LINE
8
BLACK
6
CONTINUOUS
10
15.5399
20
15.235
11
15.5399
21
15.235
0
LINE
8
BLACK
6
CONTINUOUS
10
15.5399
20
15.235
11
15.5399
21
15.235
0
LINE
8
BLACK
6
CONTINUOUS
10
15.5399
20
15.235
11
15.5399
21
15.235
0
LINE
8
BLACK
6
CONTINUOUS
10
15.5399
20
15.235
11
43.6473
21
20.3942
0
LINE
8
BLACK
6
CONTINUOUS
10
43.6473
20
20.3942
11
43.6473
21
20.3942
0
LINE
8
BLACK
6
CONTINUOUS
10
43.6473
20
20.3942
11
43.6473
21
20.3942
0
LINE
8
BLACK
6
CONTINUOUS
10
43.6473
20
20.3942
11
43.6473
21
20.3942
0
LINE
8
BLACK
6
CONTINUOUS
10
43.6473
20
20.3942
11
45.3033
21
20.6843
0
LINE
8
BLACK
6
CONTINUOUS
10
45.3033
20
20.6843
11
46.9639
21
20.9465
0
LINE
8
BLACK
6
CONTINUOUS
10
46.9639
20
20.9465
11
48.6287
21
21.1808
0
LINE
8
BLACK
6
CONTINUOUS
10
48.6287
20
21.1808
11
50.2972
21
21.3871
0
LINE
8
BLACK
6
CONTINUOUS
10
50.2972
20
21.3871
11
51.969
21
21.5653
0
LINE
8
BLACK
6
CONTINUOUS
10
51.969
20
21.5653
11
53.6435
21
21.7154
0
LINE
8
BLACK
6
CONTINUOUS
10
53.6435
20
21.7154
11
55.3203
21
21.8373
0
LINE
8
BLACK
6
CONTINUOUS
10
55.3203
20
21.8373
11
56.9989
21
21.9311
0
LINE
8
BLACK
6
CONTINUOUS
10
56.9989
20
21.9311
11
58.6788
21
21.9965
0
LINE
8
BLACK
6
CONTINUOUS
10
58.6788
20
21.9965
11
58.6789
21
21.9966
0
LINE
8
BLACK
6
CONTINUOUS
10
58.6789
20
21.9966
11
83.7452
21
22.7629
0
LINE
8
BLACK
6
CONTINUOUS
10
83.7452
20
22.7629
11
84.2013
21
22.758
0
LINE
8
BLACK
6
CONTINUOUS
10
84.2013
20
22.758
11
84.6555
21
22.7155
0
LINE
8
BLACK
6
CONTINUOUS
10
84.6555
20
22.7155
11
85.1046
21
22.6356
0
LINE
8
BLACK
6
CONTINUOUS
10
85.1046
20
22.6356
11
85.5456
21
22.519
0
LINE
8
BLACK
6
CONTINUOUS
10
85.5456
20
22.519
11
85.9755
21
22.3665
0
LINE
8
BLACK
6
CONTINUOUS
10
85.9755
20
22.3665
11
86.3913
21
22.1789
0
LINE
8
BLACK
6
CONTINUOUS
10
86.3913
20
22.1789
11
86.7903
21
21.9577
0
LINE
8
BLACK
6
CONTINUOUS
10
86.7903
20
21.9577
11
87.1696
21
21.7044
0
LINE
8
BLACK
6
CONTINUOUS
10
87.1696
20
21.7044
11
87.5267
21
21.4206
0
LINE
8
BLACK
6
CONTINUOUS
10
87.5267
20
21.4206
11
87.8593
21
21.1083
0
LINE
8
BLACK
6
CONTINUOUS
10
87.8593
20
21.1083
11
88.1649
21
20.7697
0
LINE
8
BLACK
6
CONTINUOUS
10
88.1649
20
20.7697
11
88.4415
21
20.407
0
LINE
8
BLACK
6
CONTINUOUS
10
88.4415
20
20.407
11
88.6873
21
20.0227
0
LINE
8
BLACK
6
CONTINUOUS
10
88.6873
20
20.0227
11
88.9006
21
19.6195
0
LINE
8
BLACK
6
CONTINUOUS
10
88.9006
20
19.6195
11
89.0798
21
19.2
0
LINE
8
BLACK
6
CONTINUOUS
10
89.0798
20
19.2
11
89.2239
21
18.7672
0
LINE
8
BLACK
6
CONTINUOUS
10
89.2239
20
18.7672
11
89.3317
21
18.324
0
LINE
8
BLACK
6
CONTINUOUS
10
89.3317
20
18.324
11
89.3317
21
18.324
0
LINE
8
BLACK
6
CONTINUOUS
10
89.3317
20
18.324
11
89.3631
21
18.1672
0
LINE
8
BLACK
6
CONTINUOUS
10
89.3631
20
18.1672
11
89.3631
21
18.1671
0
LINE
8
BLACK
6
CONTINUOUS
10
89.3631
20
18.1671
11
89.3696
21
18.1347
0
LINE
8
BLACK
6
CONTINUOUS
10
89.3696
20
18.1347
11
89.4055
21
18.0789
0
LINE
8
BLACK
6
CONTINUOUS
10
89.4055
20
18.0789
11
89.4592
21
18.0402
0
LINE
8
BLACK
6
CONTINUOUS
10
89.4592
20
18.0402
11
89.5234
21
18.0238
0
LINE
8
BLACK
6
CONTINUOUS
10
89.5234
20
18.0238
11
89.5563
21
18.0278
0
LINE
8
BLACK
6
CONTINUOUS
10
89.5563
20
18.0278
11
89.5563
21
18.0278
0
LINE
8
BLACK
6
CONTINUOUS
10
89.5563
20
18.0278
11
89.5563
21
18.0278
0
LINE
8
BLACK
6
CONTINUOUS
10
89.5563
20
18.0278
11
103.431
21
19.7596
0
LINE
8
BLACK
6
CONTINUOUS
10
103.431
20
19.7596
11
103.431
21
19.7596
0
LINE
8
BLACK
6
CONTINUOUS
10
103.431
20
19.7596
11
103.873
21
19.7968
0
LINE
8
BLACK
6
CONTINUOUS
10
103.873
20
19.7968
11
104.317
21
19.7984
0
LINE
8
BLACK
6
CONTINUOUS
10
104.317
20
19.7984
11
104.759
21
19.7645
0
LINE
8
BLACK
6
CONTINUOUS
10
104.759
20
19.7645
11
105.197
21
19.6953
0
LINE
8
BLACK
6
CONTINUOUS
10
105.197
20
19.6953
11
105.628
21
19.5911
0
LINE
8
BLACK
6
CONTINUOUS
10
105.628
20
19.5911
11
106.049
21
19.4527
0
LINE
8
BLACK
6
CONTINUOUS
10
106.049
20
19.4527
11
106.458
21
19.281
0
LINE
8
BLACK
6
CONTINUOUS
10
106.458
20
19.281
11
106.851
21
19.0771
0
LINE
8
BLACK
6
CONTINUOUS
10
106.851
20
19.0771
11
107.228
21
18.8422
0
LINE
8
BLACK
6
CONTINUOUS
10
107.228
20
18.8422
11
107.584
21
18.578
0
LINE
8
BLACK
6
CONTINUOUS
10
107.584
20
18.578
11
107.917
21
18.286
0
LINE
8
BLACK
6
CONTINUOUS
10
107.917
20
18.286
11
108.227
21
17.9683
0
LINE
8
BLACK
6
CONTINUOUS
10
108.227
20
17.9683
11
108.509
21
17.6267
0
LINE
8
BLACK
6
CONTINUOUS
10
108.509
20
17.6267
11
108.764
21
17.2636
0
LINE
8
BLACK
6
CONTINUOUS
10
108.764
20
17.2636
11
108.988
21
16.8812
0
LINE
8
BLACK
6
CONTINUOUS
10
108.988
20
16.8812
11
109.181
21
16.4821
0
LINE
8
BLACK
6
CONTINUOUS
10
109.181
20
16.4821
11
109.342
21
16.0688
0
LINE
8
BLACK
6
CONTINUOUS
10
109.342
20
16.0688
11
109.469
21
15.6439
0
LINE
8
BLACK
6
CONTINUOUS
10
109.469
20
15.6439
11
109.561
21
15.2102
0
LINE
8
BLACK
6
CONTINUOUS
10
109.561
20
15.2102
11
109.618
21
14.7705
0
LINE
8
BLACK
6
CONTINUOUS
10
109.618
20
14.7705
11
109.618
21
14.7705
0
LINE
8
BLACK
6
CONTINUOUS
10
109.618
20
14.7705
11
113.67
21
-30.4187
0
LINE
8
BLACK
6
CONTINUOUS
10
113.67
20
-30.4187
11
113.67
21
-30.4187
0
LINE
8
BLACK
6
CONTINUOUS
10
113.67
20
-30.4187
11
113.692
21
-30.8608
0
LINE
8
BLACK
6
CONTINUOUS
10
113.692
20
-30.8608
11
113.679
21
-31.3032
0
LINE
8
BLACK
6
CONTINUOUS
10
113.679
20
-31.3032
11
113.63
21
-31.7431
0
LINE
8
BLACK
6
CONTINUOUS
10
113.63
20
-31.7431
11
113.545
21
-32.1777
0
LINE
8
BLACK
6
CONTINUOUS
10
113.545
20
-32.1777
11
113.427
21
-32.6041
0
LINE
8
BLACK
6
CONTINUOUS
10
113.427
20
-32.6041
11
113.275
21
-33.0197
0
LINE
8
BLACK
6
CONTINUOUS
10
113.275
20
-33.0197
11
113.089
21
-33.4218
0
LINE
8
BLACK
6
CONTINUOUS
10
113.089
20
-33.4218
11
112.873
21
-33.8077
0
LINE
8
BLACK
6
CONTINUOUS
10
112.873
20
-33.8077
11
112.626
21
-34.1751
0
LINE
8
BLACK
6
CONTINUOUS
10
112.626
20
-34.1751
11
112.35
21
-34.5215
0
LINE
8
BLACK
6
CONTINUOUS
10
112.35
20
-34.5215
11
112.048
21
-34.8448
0
LINE
8
BLACK
6
CONTINUOUS
10
112.048
20
-34.8448
11
111.721
21
-35.1428
0
LINE
8
BLACK
6
CONTINUOUS
10
111.721
20
-35.1428
11
111.371
21
-35.4137
0
LINE
8
BLACK
6
CONTINUOUS
10
111.371
20
-35.4137
11
111
21
-35.6557
0
LINE
8
BLACK
6
CONTINUOUS
10
111
20
-35.6557
11
110.611
21
-35.8672
0
LINE
8
BLACK
6
CONTINUOUS
10
110.611
20
-35.8672
11
110.207
21
-36.0469
0
LINE
8
BLACK
6
CONTINUOUS
10
110.207
20
-36.0469
11
109.789
21
-36.1937
0
LINE
8
BLACK
6
CONTINUOUS
10
109.789
20
-36.1937
11
109.361
21
-36.3065
0
LINE
8
BLACK
6
CONTINUOUS
10
109.361
20
-36.3065
11
108.925
21
-36.3848
0
LINE
8
BLACK
6
CONTINUOUS
10
108.925
20
-36.3848
11
108.485
21
-36.4279
0
LINE
8
BLACK
6
CONTINUOUS
10
108.485
20
-36.4279
11
108.043
21
-36.4356
0
LINE
8
BLACK
6
CONTINUOUS
10
108.043
20
-36.4356
11
108.042
21
-36.4357
0
LINE
8
BLACK
6
CONTINUOUS
10
108.042
20
-36.4357
11
81.1893
21
-35.8276
0
LINE
8
BLACK
6
CONTINUOUS
10
81.1893
20
-35.8276
11
81.1893
21
-35.8276
0
LINE
8
BLACK
6
CONTINUOUS
10
81.1893
20
-35.8276
11
81.1893
21
-35.8276
0
LINE
8
BLACK
6
CONTINUOUS
10
81.1893
20
-35.8276
11
81.1893
21
-35.8276
0
LINE
8
BLACK
6
CONTINUOUS
10
81.1893
20
-35.8276
11
81.1322
21
-35.8262
0
LINE
8
BLACK
6
CONTINUOUS
10
81.1322
20
-35.8262
11
81.0206
21
-35.8507
0
LINE
8
BLACK
6
CONTINUOUS
10
81.0206
20
-35.8507
11
80.9181
21
-35.901
0
LINE
8
BLACK
6
CONTINUOUS
10
80.9181
20
-35.901
11
80.8303
21
-35.9742
0
LINE
8
BLACK
6
CONTINUOUS
10
80.8303
20
-35.9742
11
80.7625
21
-36.066
0
LINE
8
BLACK
6
CONTINUOUS
10
80.7625
20
-36.066
11
80.7183
21
-36.1714
0
LINE
8
BLACK
6
CONTINUOUS
10
80.7183
20
-36.1714
11
80.7004
21
-36.2842
0
LINE
8
BLACK
6
CONTINUOUS
10
80.7004
20
-36.2842
11
80.7051
21
-36.3411
0
LINE
8
BLACK
6
CONTINUOUS
10
80.7051
20
-36.3411
11
80.7051
21
-36.3411
0
LINE
8
BLACK
6
CONTINUOUS
10
80.7051
20
-36.3411
11
80.7051
21
-36.3411
0
LINE
8
BLACK
6
CONTINUOUS
10
80.7051
20
-36.3411
11
81.8008
21
-49.755
0
LINE
8
BLACK
6
CONTINUOUS
10
81.8008
20
-49.755
11
81.8008
21
-49.755
0
LINE
8
BLACK
6
CONTINUOUS
10
81.8008
20
-49.755
11
81.8192
21
-50.1989
0
LINE
8
BLACK
6
CONTINUOUS
10
81.8192
20
-50.1989
11
81.8018
21
-50.6428
0
LINE
8
BLACK
6
CONTINUOUS
10
81.8018
20
-50.6428
11
81.7488
21
-51.0839
0
LINE
8
BLACK
6
CONTINUOUS
10
81.7488
20
-51.0839
11
81.6605
21
-51.5193
0
LINE
8
BLACK
6
CONTINUOUS
10
81.6605
20
-51.5193
11
81.5376
21
-51.9462
0
LINE
8
BLACK
6
CONTINUOUS
10
81.5376
20
-51.9462
11
81.3807
21
-52.3618
0
LINE
8
BLACK
6
CONTINUOUS
10
81.3807
20
-52.3618
11
81.191
21
-52.7635
0
LINE
8
BLACK
6
CONTINUOUS
10
81.191
20
-52.7635
11
80.9696
21
-53.1487
0
LINE
8
BLACK
6
CONTINUOUS
10
80.9696
20
-53.1487
11
80.7179
21
-53.5148
0
LINE
8
BLACK
6
CONTINUOUS
10
80.7179
20
-53.5148
11
80.4377
21
-53.8595
0
LINE
8
BLACK
6
CONTINUOUS
10
80.4377
20
-53.8595
11
80.1307
21
-54.1806
0
LINE
8
BLACK
6
CONTINUOUS
10
80.1307
20
-54.1806
11
79.7988
21
-54.476
0
LINE
8
BLACK
6
CONTINUOUS
10
79.7988
20
-54.476
11
79.4443
21
-54.7438
0
LINE
8
BLACK
6
CONTINUOUS
10
79.4443
20
-54.7438
11
79.0695
21
-54.9822
0
LINE
8
BLACK
6
CONTINUOUS
10
79.0695
20
-54.9822
11
78.6766
21
-55.1897
0
LINE
8
BLACK
6
CONTINUOUS
10
78.6766
20
-55.1897
11
78.2684
21
-55.365
0
LINE
8
BLACK
6
CONTINUOUS
10
78.2684
20
-55.365
11
77.8475
21
-55.507
0
LINE
8
BLACK
6
CONTINUOUS
10
77.8475
20
-55.507
11
77.4164
21
-55.6146
0
LINE
8
BLACK
6
CONTINUOUS
10
77.4164
20
-55.6146
11
76.9782
21
-55.6873
0
LINE
8
BLACK
6
CONTINUOUS
10
76.9782
20
-55.6873
11
76.9782
21
-55.6873
0
LINE
8
BLACK
6
CONTINUOUS
10
76.9782
20
-55.6873
11
36.1176
21
-60.7851
0
LINE
8
BLACK
6
CONTINUOUS
10
36.1176
20
-60.7851
11
36.1176
21
-60.7851
0
LINE
8
BLACK
6
CONTINUOUS
10
36.1176
20
-60.7851
11
34.3321
21
-60.9916
0
LINE
8
BLACK
6
CONTINUOUS
10
34.3321
20
-60.9916
11
32.5431
21
-61.166
0
LINE
8
BLACK
6
CONTINUOUS
10
32.5431
20
-61.166
11
30.7512
21
-61.3082
0
LINE
8
BLACK
6
CONTINUOUS
10
30.7512
20
-61.3082
11
28.9571
21
-61.4182
0
LINE
8
BLACK
6
CONTINUOUS
10
28.9571
20
-61.4182
11
27.1613
21
-61.4959
0
LINE
8
BLACK
6
CONTINUOUS
10
27.1613
20
-61.4959
11
25.3644
21
-61.5413
0
LINE
8
BLACK
6
CONTINUOUS
10
25.3644
20
-61.5413
11
23.567
21
-61.5545
0
LINE
8
BLACK
6
CONTINUOUS
10
23.567
20
-61.5545
11
23.567
21
-61.5545
0
LINE
8
BLACK
6
CONTINUOUS
10
23.567
20
-61.5545
11
-23.7498
21
-61.4753
0
LINE
8
BLACK
6
CONTINUOUS
10
-23.7498
20
-61.4753
11
-25.498
21
-61.457
0
LINE
8
BLACK
6
CONTINUOUS
10
-25.498
20
-61.457
11
-27.2456
21
-61.4083
0
LINE
8
BLACK
6
CONTINUOUS
10
-27.2456
20
-61.4083
11
-28.9921
21
-61.329
0
LINE
8
BLACK
6
CONTINUOUS
10
-28.9921
20
-61.329
11
-30.737
21
-61.2192
0
LINE
8
BLACK
6
CONTINUOUS
10
-30.737
20
-61.2192
11
-32.4796
21
-61.0789
0
LINE
8
BLACK
6
CONTINUOUS
10
-32.4796
20
-61.0789
11
-34.2196
21
-60.9082
0
LINE
8
BLACK
6
CONTINUOUS
10
-34.2196
20
-60.9082
11
-35.9563
21
-60.7071
0
LINE
8
BLACK
6
CONTINUOUS
10
-35.9563
20
-60.7071
11
-35.9563
21
-60.7071
0
LINE
8
BLACK
6
CONTINUOUS
10
-35.9563
20
-60.7071
11
-76.9214
21
-55.6001
0
LINE
8
BLACK
6
CONTINUOUS
10
-76.9214
20
-55.6001
11
-77.3612
21
-55.5272
0
LINE
8
BLACK
6
CONTINUOUS
10
-77.3612
20
-55.5272
11
-77.7936
21
-55.419
0
LINE
8
BLACK
6
CONTINUOUS
10
-77.7936
20
-55.419
11
-78.2159
21
-55.2764
0
LINE
8
BLACK
6
CONTINUOUS
10
-78.2159
20
-55.2764
11
-78.6253
21
-55.1001
0
LINE
8
BLACK
6
CONTINUOUS
10
-78.6253
20
-55.1001
11
-79.0192
21
-54.8915
0
LINE
8
BLACK
6
CONTINUOUS
10
-79.0192
20
-54.8915
11
-79.3949
21
-54.6518
0
LINE
8
BLACK
6
CONTINUOUS
10
-79.3949
20
-54.6518
11
-79.7502
21
-54.3825
0
LINE
8
BLACK
6
CONTINUOUS
10
-79.7502
20
-54.3825
11
-80.0826
21
-54.0855
0
LINE
8
BLACK
6
CONTINUOUS
10
-80.0826
20
-54.0855
11
-80.3899
21
-53.7627
0
LINE
8
BLACK
6
CONTINUOUS
10
-80.3899
20
-53.7627
11
-80.6702
21
-53.4161
0
LINE
8
BLACK
6
CONTINUOUS
10
-80.6702
20
-53.4161
11
-80.9217
21
-53.0481
0
LINE
8
BLACK
6
CONTINUOUS
10
-80.9217
20
-53.0481
11
-81.1427
21
-52.661
0
LINE
8
BLACK
6
CONTINUOUS
10
-81.1427
20
-52.661
11
-81.3318
21
-52.2574
0
LINE
8
BLACK
6
CONTINUOUS
10
-81.3318
20
-52.2574
11
-81.4877
21
-51.8398
0
LINE
8
BLACK
6
CONTINUOUS
10
-81.4877
20
-51.8398
11
-81.6094
21
-51.411
0
LINE
8
BLACK
6
CONTINUOUS
10
-81.6094
20
-51.411
11
-81.6962
21
-50.9738
0
LINE
8
BLACK
6
CONTINUOUS
10
-81.6962
20
-50.9738
11
-81.7475
21
-50.531
0
LINE
8
BLACK
6
CONTINUOUS
10
-81.7475
20
-50.531
11
-81.7629
21
-50.0856
0
LINE
8
BLACK
6
CONTINUOUS
10
-81.7629
20
-50.0856
11
-81.7424
21
-49.6403
0
LINE
8
BLACK
6
CONTINUOUS
10
-81.7424
20
-49.6403
11
-81.7423
21
-49.6403
0
LINE
8
BLACK
6
CONTINUOUS
10
-81.7423
20
-49.6403
11
-81.7423
21
-49.6403
0
LINE
8
BLACK
6
CONTINUOUS
10
-81.7423
20
-49.6403
11
-80.5781
21
-36.214
0
LINE
8
BLACK
6
CONTINUOUS
10
-80.5781
20
-36.214
11
-80.5782
21
-36.214
0
LINE
8
BLACK
6
CONTINUOUS
10
-80.5782
20
-36.214
11
-80.5732
21
-36.1569
0
LINE
8
BLACK
6
CONTINUOUS
10
-80.5732
20
-36.1569
11
-80.5907
21
-36.0436
0
LINE
8
BLACK
6
CONTINUOUS
10
-80.5907
20
-36.0436
11
-80.6347
21
-35.9378
0
LINE
8
BLACK
6
CONTINUOUS
10
-80.6347
20
-35.9378
11
-80.7025
21
-35.8454
0
LINE
8
BLACK
6
CONTINUOUS
10
-80.7025
20
-35.8454
11
-80.7904
21
-35.7719
0
LINE
8
BLACK
6
CONTINUOUS
10
-80.7904
20
-35.7719
11
-80.8933
21
-35.7213
0
LINE
8
BLACK
6
CONTINUOUS
10
-80.8933
20
-35.7213
11
-81.0052
21
-35.6967
0
LINE
8
BLACK
6
CONTINUOUS
10
-81.0052
20
-35.6967
11
-81.0625
21
-35.6981
0
LINE
8
BLACK
6
CONTINUOUS
10
-81.0625
20
-35.6981
11
-81.0625
21
-35.6981
0
LINE
8
BLACK
6
CONTINUOUS
10
-81.0625
20
-35.6981
11
-108.047
21
-36.3306
0
LINE
8
BLACK
6
CONTINUOUS
10
-108.047
20
-36.3306
11
-108.489
21
-36.3233
0
LINE
8
BLACK
6
CONTINUOUS
10
-108.489
20
-36.3233
11
-108.93
21
-36.2804
0
LINE
8
BLACK
6
CONTINUOUS
10
-108.93
20
-36.2804
11
-109.366
21
-36.2025
0
LINE
8
BLACK
6
CONTINUOUS
10
-109.366
20
-36.2025
11
-109.794
21
-36.0898
0
LINE
8
BLACK
6
CONTINUOUS
10
-109.794
20
-36.0898
11
-110.212
21
-35.9432
0
LINE
8
BLACK
6
CONTINUOUS
10
-110.212
20
-35.9432
11
-110.617
21
-35.7636
0
LINE
8
BLACK
6
CONTINUOUS
10
-110.617
20
-35.7636
11
-111.006
21
-35.5521
0
LINE
8
BLACK
6
CONTINUOUS
10
-111.006
20
-35.5521
11
-111.377
21
-35.3102
0
LINE
8
BLACK
6
CONTINUOUS
10
-111.377
20
-35.3102
11
-111.728
21
-35.0393
0
LINE
8
BLACK
6
CONTINUOUS
10
-111.728
20
-35.0393
11
-112.055
21
-34.7412
0
LINE
8
BLACK
6
CONTINUOUS
10
-112.055
20
-34.7412
11
-112.358
21
-34.4179
0
LINE
8
BLACK
6
CONTINUOUS
10
-112.358
20
-34.4179
11
-112.634
21
-34.0713
0
LINE
8
BLACK
6
CONTINUOUS
10
-112.634
20
-34.0713
11
-112.881
21
-33.7038
0
LINE
8
BLACK
6
CONTINUOUS
10
-112.881
20
-33.7038
11
-113.098
21
-33.3177
0
LINE
8
BLACK
6
CONTINUOUS
10
-113.098
20
-33.3177
11
-113.283
21
-32.9154
0
LINE
8
BLACK
6
CONTINUOUS
10
-113.283
20
-32.9154
11
-113.435
21
-32.4996
0
LINE
8
BLACK
6
CONTINUOUS
10
-113.435
20
-32.4996
11
-113.554
21
-32.0729
0
LINE
8
BLACK
6
CONTINUOUS
10
-113.554
20
-32.0729
11
-113.638
21
-31.6381
0
LINE
8
BLACK
6
CONTINUOUS
10
-113.638
20
-31.6381
11
-113.687
21
-31.1979
0
LINE
8
BLACK
6
CONTINUOUS
10
-113.687
20
-31.1979
11
-113.701
21
-30.7552
0
LINE
8
BLACK
6
CONTINUOUS
10
-113.701
20
-30.7552
11
-113.679
21
-30.3129
0
LINE
8
BLACK
6
CONTINUOUS
10
-113.679
20
-30.3129
11
-113.679
21
-30.3129
0
LINE
8
BLACK
6
CONTINUOUS
10
-113.679
20
-30.3129
11
-109.632
21
14.7392
0
LINE
8
BLACK
6
CONTINUOUS
10
-109.632
20
14.7392
11
-109.632
21
14.7392
0
LINE
8
BLACK
6
CONTINUOUS
10
-109.632
20
14.7392
11
-109.632
21
14.7392
0
LINE
8
BLACK
6
CONTINUOUS
10
-109.632
20
14.7392
11
-109.575
21
15.1804
0
LINE
8
BLACK
6
CONTINUOUS
10
-109.575
20
15.1804
11
-109.482
21
15.6155
0
LINE
8
BLACK
6
CONTINUOUS
10
-109.482
20
15.6155
11
-109.354
21
16.0418
0
LINE
8
BLACK
6
CONTINUOUS
10
-109.354
20
16.0418
11
-109.192
21
16.4563
0
LINE
8
BLACK
6
CONTINUOUS
10
-109.192
20
16.4563
11
-108.998
21
16.8566
0
LINE
8
BLACK
6
CONTINUOUS
10
-108.998
20
16.8566
11
-108.772
21
17.2399
0
LINE
8
BLACK
6
CONTINUOUS
10
-108.772
20
17.2399
11
-108.516
21
17.6038
0
LINE
8
BLACK
6
CONTINUOUS
10
-108.516
20
17.6038
11
-108.232
21
17.9459
0
LINE
8
BLACK
6
CONTINUOUS
10
-108.232
20
17.9459
11
-107.921
21
18.264
0
LINE
8
BLACK
6
CONTINUOUS
10
-107.921
20
18.264
11
-107.585
21
18.556
0
LINE
8
BLACK
6
CONTINUOUS
10
-107.585
20
18.556
11
-107.227
21
18.8201
0
LINE
8
BLACK
6
CONTINUOUS
10
-107.227
20
18.8201
11
-106.849
21
19.0545
0
LINE
8
BLACK
6
CONTINUOUS
10
-106.849
20
19.0545
11
-106.453
21
19.2577
0
LINE
8
BLACK
6
CONTINUOUS
10
-106.453
20
19.2577
11
-106.042
21
19.4284
0
LINE
8
BLACK
6
CONTINUOUS
10
-106.042
20
19.4284
11
-105.619
21
19.5655
0
LINE
8
BLACK
6
CONTINUOUS
10
-105.619
20
19.5655
11
-105.186
21
19.668
0
LINE
8
BLACK
6
CONTINUOUS
10
-105.186
20
19.668
11
-104.746
21
19.7355
0
LINE
8
BLACK
6
CONTINUOUS
10
-104.746
20
19.7355
11
-104.302
21
19.7673
0
LINE
8
BLACK
6
CONTINUOUS
10
-104.302
20
19.7673
11
-103.857
21
19.7632
0
LINE
8
BLACK
6
CONTINUOUS
10
-103.857
20
19.7632
11
-103.414
21
19.7235
0
LINE
8
BLACK
6
CONTINUOUS
10
-103.414
20
19.7235
11
-103.414
21
19.7235
0
LINE
8
BLACK
6
CONTINUOUS
10
-103.414
20
19.7235
11
-89.7521
21
17.9396
0
LINE
8
BLACK
6
CONTINUOUS
10
-89.7521
20
17.9396
11
-89.7521
21
17.9397
0
LINE
8
BLACK
6
CONTINUOUS
10
-89.7521
20
17.9397
11
-89.7185
21
17.9351
0
LINE
8
BLACK
6
CONTINUOUS
10
-89.7185
20
17.9351
11
-89.6528
21
17.9521
0
LINE
8
BLACK
6
CONTINUOUS
10
-89.6528
20
17.9521
11
-89.5982
21
17.9923
0
LINE
8
BLACK
6
CONTINUOUS
10
-89.5982
20
17.9923
11
-89.5626
21
18.05
0
LINE
8
BLACK
6
CONTINUOUS
10
-89.5626
20
18.05
11
-89.557
21
18.0834
0
LINE
8
BLACK
6
CONTINUOUS
10
-89.557
20
18.0834
11
-89.557
21
18.0834
0
LINE
8
BLACK
6
CONTINUOUS
10
-89.557
20
18.0834
11
-89.5221
21
18.2858
0
LINE
8
BLACK
6
CONTINUOUS
10
-89.5221
20
18.2858
11
-89.5221
21
18.2858
0
LINE
8
BLACK
6
CONTINUOUS
10
-89.5221
20
18.2858
11
-89.4303
21
18.7151
0
LINE
8
BLACK
6
CONTINUOUS
10
-89.4303
20
18.7151
11
-89.3047
21
19.1357
0
LINE
8
BLACK
6
CONTINUOUS
10
-89.3047
20
19.1357
11
-89.1462
21
19.5451
0
LINE
8
BLACK
6
CONTINUOUS
10
-89.1462
20
19.5451
11
-88.9556
21
19.9405
0
LINE
8
BLACK
6
CONTINUOUS
10
-88.9556
20
19.9405
11
-88.7343
21
20.3196
0
LINE
8
BLACK
6
CONTINUOUS
10
-88.7343
20
20.3196
11
-88.4835
21
20.6799
0
LINE
8
BLACK
6
CONTINUOUS
10
-88.4835
20
20.6799
11
-88.205
21
21.0192
0
LINE
8
BLACK
6
CONTINUOUS
10
-88.205
20
21.0192
11
-87.9003
21
21.3353
0
LINE
8
BLACK
6
CONTINUOUS
10
-87.9003
20
21.3353
11
-87.5716
21
21.6262
0
LINE
8
BLACK
6
CONTINUOUS
10
-87.5716
20
21.6262
11
-87.2208
21
21.8901
0
LINE
8
BLACK
6
CONTINUOUS
10
-87.2208
20
21.8901
11
-86.8501
21
22.1253
0
LINE
8
BLACK
6
CONTINUOUS
10
-86.8501
20
22.1253
11
-86.462
21
22.3303
0
LINE
8
BLACK
6
CONTINUOUS
10
-86.462
20
22.3303
11
-86.0588
21
22.5039
0
LINE
8
BLACK
6
CONTINUOUS
10
-86.0588
20
22.5039
11
-85.6431
21
22.6449
0
LINE
8
BLACK
6
CONTINUOUS
10
-85.6431
20
22.6449
11
-85.2175
21
22.7525
0
LINE
8
BLACK
6
CONTINUOUS
10
-85.2175
20
22.7525
11
-84.7847
21
22.8259
0
LINE
8
BLACK
6
CONTINUOUS
10
-84.7847
20
22.8259
11
-84.3474
21
22.8648
0
LINE
8
BLACK
6
CONTINUOUS
10
-84.3474
20
22.8648
11
-83.9084
21
22.8688
0
LINE
8
BLACK
6
CONTINUOUS
10
-83.9084
20
22.8688
11
-83.9084
21
22.8688
0
LINE
8
BLACK
6
CONTINUOUS
10
-83.9084
20
22.8688
11
-58.7951
21
22.0998
0
LINE
8
BLACK
6
CONTINUOUS
10
-58.7951
20
22.0998
11
-57.0939
21
22.0333
0
LINE
8
BLACK
6
CONTINUOUS
10
-57.0939
20
22.0333
11
-55.3941
21
21.9377
0
LINE
8
BLACK
6
CONTINUOUS
10
-55.3941
20
21.9377
11
-53.6961
21
21.8133
0
LINE
8
BLACK
6
CONTINUOUS
10
-53.6961
20
21.8133
11
-52.0005
21
21.66
0
LINE
8
BLACK
6
CONTINUOUS
10
-52.0005
20
21.66
11
-50.3078
21
21.4778
0
LINE
8
BLACK
6
CONTINUOUS
10
-50.3078
20
21.4778
11
-48.6184
21
21.2669
0
LINE
8
BLACK
6
CONTINUOUS
10
-48.6184
20
21.2669
11
-46.9329
21
21.0272
0
LINE
8
BLACK
6
CONTINUOUS
10
-46.9329
20
21.0272
11
-45.2517
21
20.7589
0
LINE
8
BLACK
6
CONTINUOUS
10
-45.2517
20
20.7589
11
-43.5753
21
20.462
0
LINE
8
BLACK
6
CONTINUOUS
10
-43.5753
20
20.462
11
-43.5753
21
20.462
0
LINE
8
BLACK
6
CONTINUOUS
10
-43.5753
20
20.462
11
-43.5753
21
20.462
0
LINE
8
BLACK
6
CONTINUOUS
10
-43.5753
20
20.462
11
-43.5752
21
20.462
0
LINE
8
BLACK
6
CONTINUOUS
10
-43.5752
20
20.462
11
-15.5574
21
15.2467
0
LINE
8
BLACK
6
CONTINUOUS
10
-15.5574
20
15.2467
11
-15.5574
21
15.2467
0
LINE
8
BLACK
6
CONTINUOUS
10
-15.5574
20
15.2467
11
-15.5574
21
15.2467
0
LINE
8
BLACK
6
CONTINUOUS
10
-15.5574
20
15.2467
11
-15.3864
21
15.1992
0
LINE
8
BLACK
6
CONTINUOUS
10
-15.3864
20
15.1992
11
-15.2262
21
15.1229
0
LINE
8
BLACK
6
CONTINUOUS
10
-15.2262
20
15.1229
11
-15.0815
21
15.0202
0
LINE
8
BLACK
6
CONTINUOUS
10
-15.0815
20
15.0202
11
-14.9567
21
14.8941
0
LINE
8
BLACK
6
CONTINUOUS
10
-14.9567
20
14.8941
11
-14.8555
21
14.7483
0
LINE
8
BLACK
6
CONTINUOUS
10
-14.8555
20
14.7483
11
-14.781
21
14.5872
0
LINE
8
BLACK
6
CONTINUOUS
10
-14.781
20
14.5872
11
-14.7354
21
14.4157
0
LINE
8
BLACK
6
CONTINUOUS
10
-14.7354
20
14.4157
11
-14.7201
21
14.2391
0
LINE
8
BLACK
6
CONTINUOUS
10
-14.7201
20
14.2391
11
-14.72
21
14.239
0
LINE
8
BLACK
6
CONTINUOUS
10
-14.72
20
14.239
11
-14.72
21
13.59
0
LINE
8
BLACK
6
CONTINUOUS
10
-14.72
20
13.59
11
-14.72
21
13.5899
0
LINE
8
BLACK
6
CONTINUOUS
10
-14.72
20
13.5899
11
-14.72
21
13.5047
0
LINE
8
BLACK
6
CONTINUOUS
10
-14.72
20
13.5047
11
-14.6904
21
13.3367
0
LINE
8
BLACK
6
CONTINUOUS
10
-14.6904
20
13.3367
11
-14.632
21
13.1764
0
LINE
8
BLACK
6
CONTINUOUS
10
-14.632
20
13.1764
11
-14.5467
21
13.0286
0
LINE
8
BLACK
6
CONTINUOUS
10
-14.5467
20
13.0286
11
-14.4371
21
12.8979
0
LINE
8
BLACK
6
CONTINUOUS
10
-14.4371
20
12.8979
11
-14.3064
21
12.7883
0
LINE
8
BLACK
6
CONTINUOUS
10
-14.3064
20
12.7883
11
-14.1586
21
12.703
0
LINE
8
BLACK
6
CONTINUOUS
10
-14.1586
20
12.703
11
-13.9983
21
12.6446
0
LINE
8
BLACK
6
CONTINUOUS
10
-13.9983
20
12.6446
11
-13.8303
21
12.615
0
LINE
8
BLACK
6
CONTINUOUS
10
-13.8303
20
12.615
11
-13.745
21
12.615
0
LINE
8
BLACK
6
CONTINUOUS
10
-13.745
20
12.615
11
-7.745
21
12.615
0
LINE
8
BLACK
6
CONTINUOUS
10
-7.745
20
12.615
11
-7.745
21
12.615
0
LINE
8
BLACK
6
CONTINUOUS
10
-7.745
20
12.615
11
-7.74496
21
12.615
0
LINE
8
BLACK
6
CONTINUOUS
10
-7.74496
20
12.615
11
-7.6597
21
12.615
0
LINE
8
BLACK
6
CONTINUOUS
10
-7.6597
20
12.615
11
-7.49168
21
12.6446
0
LINE
8
BLACK
6
CONTINUOUS
10
-7.49168
20
12.6446
11
-7.33136
21
12.703
0
LINE
8
BLACK
6
CONTINUOUS
10
-7.33136
20
12.703
11
-7.18361
21
12.7883
0
LINE
8
BLACK
6
CONTINUOUS
10
-7.18361
20
12.7883
11
-7.05292
21
12.8979
0
LINE
8
BLACK
6
CONTINUOUS
10
-7.05292
20
12.8979
11
-6.94326
21
13.0286
0
LINE
8
BLACK
6
CONTINUOUS
10
-6.94326
20
13.0286
11
-6.85796
21
13.1764
0
LINE
8
BLACK
6
CONTINUOUS
10
-6.85796
20
13.1764
11
-6.79962
21
13.3367
0
LINE
8
BLACK
6
CONTINUOUS
10
-6.79962
20
13.3367
11
-6.77
21
13.5047
0
LINE
8
BLACK
6
CONTINUOUS
10
-6.77
20
13.5047
11
-6.77
21
13.59
0
LINE
8
BLACK
6
CONTINUOUS
10
-6.77
20
13.59
11
-6.77
21
13.59
0
LINE
8
BLACK
6
CONTINUOUS
10
-6.77
20
13.59
11
-6.77
21
20.4245
0
LINE
8
BLACK
6
CONTINUOUS
10
-6.77
20
20.4245
11
-6.75346
21
20.7404
0
LINE
8
BLACK
6
CONTINUOUS
10
-6.75346
20
20.7404
11
-6.70402
21
21.0528
0
LINE
8
BLACK
6
CONTINUOUS
10
-6.70402
20
21.0528
11
-6.62222
21
21.3584
0
LINE
8
BLACK
6
CONTINUOUS
10
-6.62222
20
21.3584
11
-6.50896
21
21.6537
0
LINE
8
BLACK
6
CONTINUOUS
10
-6.50896
20
21.6537
11
-6.36548
21
21.9357
0
LINE
8
BLACK
6
CONTINUOUS
10
-6.36548
20
21.9357
11
-6.19333
21
22.2011
0
LINE
8
BLACK
6
CONTINUOUS
10
-6.19333
20
22.2011
11
-5.99442
21
22.447
0
LINE
8
BLACK
6
CONTINUOUS
10
-5.99442
20
22.447
11
-5.7709
21
22.6709
0
LINE
8
BLACK
6
CONTINUOUS
10
-5.7709
20
22.6709
11
-5.52523
21
22.8702
0
LINE
8
BLACK
6
CONTINUOUS
10
-5.52523
20
22.8702
11
-5.2601
21
23.0427
0
LINE
8
BLACK
6
CONTINUOUS
10
-5.2601
20
23.0427
11
-4.97839
21
23.1866
0
LINE
8
BLACK
6
CONTINUOUS
10
-4.97839
20
23.1866
11
-4.6832
21
23.3003
0
LINE
8
BLACK
6
CONTINUOUS
10
-4.6832
20
23.3003
11
-4.37774
21
23.3826
0
LINE
8
BLACK
6
CONTINUOUS
10
-4.37774
20
23.3826
11
-4.06537
21
23.4325
0
LINE
8
BLACK
6
CONTINUOUS
10
-4.06537
20
23.4325
11
-3.74949
21
23.4495
0
LINE
8
BLACK
6
CONTINUOUS
10
-3.74949
20
23.4495
11
-3.74949
21
23.4494
0
LINE
8
BLACK
6
CONTINUOUS
10
-3.74949
20
23.4494
11
3.72051
21
23.4605
0
LINE
8
BLACK
6
CONTINUOUS
10
3.72051
20
23.4605
11
4.03703
21
23.4444
0
LINE
8
BLACK
6
CONTINUOUS
10
3.72058
20
23.4105
11
-3.74942
21
23.3994
0
LINE
8
BLACK
6
CONTINUOUS
10
-3.74942
20
23.3994
11
-3.7495
21
23.3995
0
LINE
8
BLACK
6
CONTINUOUS
10
-3.7495
20
23.3995
11
-3.90518
21
23.3993
0
LINE
8
BLACK
6
CONTINUOUS
10
-3.90518
20
23.3993
11
-4.21496
21
23.3663
0
LINE
8
BLACK
6
CONTINUOUS
10
-4.21496
20
23.3663
11
-4.51961
21
23.3011
0
LINE
8
BLACK
6
CONTINUOUS
10
-4.51961
20
23.3011
11
-4.81578
21
23.2045
0
LINE
8
BLACK
6
CONTINUOUS
10
-4.81578
20
23.2045
11
-5.10024
21
23.0774
0
LINE
8
BLACK
6
CONTINUOUS
10
-5.10024
20
23.0774
11
-5.36988
21
22.9214
0
LINE
8
BLACK
6
CONTINUOUS
10
-5.36988
20
22.9214
11
-5.62175
21
22.7381
0
LINE
8
BLACK
6
CONTINUOUS
10
-5.62175
20
22.7381
11
-5.8531
21
22.5294
0
LINE
8
BLACK
6
CONTINUOUS
10
-5.8531
20
22.5294
11
-6.06139
21
22.2978
0
LINE
8
BLACK
6
CONTINUOUS
10
-6.06139
20
22.2978
11
-6.24435
21
22.0456
0
LINE
8
BLACK
6
CONTINUOUS
10
-6.24435
20
22.0456
11
-6.39999
21
21.7758
0
LINE
8
BLACK
6
CONTINUOUS
10
-6.39999
20
21.7758
11
-6.52658
21
21.4911
0
LINE
8
BLACK
6
CONTINUOUS
10
-6.52658
20
21.4911
11
-6.62276
21
21.1948
0
LINE
8
BLACK
6
CONTINUOUS
10
-6.62276
20
21.1948
11
-6.68748
21
20.89
0
LINE
8
BLACK
6
CONTINUOUS
10
-6.68748
20
20.89
11
-6.72001
21
20.5802
0
LINE
8
BLACK
6
CONTINUOUS
10
-6.72001
20
20.5802
11
-6.72
21
20.4245
0
LINE
8
BLACK
6
CONTINUOUS
10
-6.72
20
20.4245
11
-6.72
21
13.59
0
LINE
8
BLACK
6
CONTINUOUS
10
-6.72
20
13.59
11
-6.72
21
13.59
0
LINE
8
BLACK
6
CONTINUOUS
10
-6.72
20
13.59
11
-6.73556
21
13.412
0
LINE
8
BLACK
6
CONTINUOUS
10
-6.73556
20
13.412
11
-6.7818
21
13.2394
0
LINE
8
BLACK
6
CONTINUOUS
10
-6.7818
20
13.2394
11
-6.85731
21
13.0775
0
LINE
8
BLACK
6
CONTINUOUS
10
-6.85731
20
13.0775
11
-6.95979
21
12.9311
0
LINE
8
BLACK
6
CONTINUOUS
10
-6.95979
20
12.9311
11
-7.08613
21
12.8048
0
LINE
8
BLACK
6
CONTINUOUS
10
-7.08613
20
12.8048
11
-7.23249
21
12.7023
0
LINE
8
BLACK
6
CONTINUOUS
10
-7.23249
20
12.7023
11
-7.39442
21
12.6268
0
LINE
8
BLACK
6
CONTINUOUS
10
-7.39442
20
12.6268
11
-7.56701
21
12.5806
0
LINE
8
BLACK
6
CONTINUOUS
10
-7.56701
20
12.5806
11
-7.745
21
12.565
0
LINE
8
BLACK
6
CONTINUOUS
10
-7.745
20
12.565
11
-7.745
21
12.565
0
LINE
8
BLACK
6
CONTINUOUS
10
-7.745
20
12.565
11
-13.745
21
12.565
0
LINE
8
BLACK
6
CONTINUOUS
10
-13.745
20
12.565
11
-13.745
21
12.565
0
LINE
8
BLACK
6
CONTINUOUS
10
-13.745
20
12.565
11
-13.745
21
12.565
0
LINE
8
BLACK
6
CONTINUOUS
10
-13.745
20
12.565
11
-13.923
21
12.5806
0
LINE
8
BLACK
6
CONTINUOUS
10
-13.923
20
12.5806
11
-14.0956
21
12.6268
0
LINE
8
BLACK
6
CONTINUOUS
10
-14.0956
20
12.6268
11
-14.2575
21
12.7023
0
LINE
8
BLACK
6
CONTINUOUS
10
-14.2575
20
12.7023
11
-14.4039
21
12.8048
0
LINE
8
BLACK
6
CONTINUOUS
10
-14.4039
20
12.8048
11
-14.5302
21
12.9311
0
LINE
8
BLACK
6
CONTINUOUS
10
-14.5302
20
12.9311
11
-14.6327
21
13.0775
0
LINE
8
BLACK
6
CONTINUOUS
10
-14.6327
20
13.0775
11
-14.7082
21
13.2394
0
LINE
8
BLACK
6
CONTINUOUS
10
-14.7082
20
13.2394
11
-14.7544
21
13.412
0
LINE
8
BLACK
6
CONTINUOUS
10
-14.7544
20
13.412
11
-14.77
21
13.59
0
LINE
8
BLACK
6
CONTINUOUS
10
-14.77
20
13.59
11
-14.77
21
13.59
0
LINE
8
BLACK
6
CONTINUOUS
10
-14.77
20
13.59
11
-14.77
21
13.59
0
LINE
8
BLACK
6
CONTINUOUS
10
-14.77
20
13.59
11
-14.77
21
14.239
0
LINE
8
BLACK
6
CONTINUOUS
10
-14.77
20
14.239
11
-14.7701
21
14.239
0
LINE
8
BLACK
6
CONTINUOUS
10
-14.7701
20
14.239
11
-14.77
21
14.3237
0
LINE
8
BLACK
6
CONTINUOUS
10
-14.77
20
14.3237
11
-14.7992
21
14.4906
0
LINE
8
BLACK
6
CONTINUOUS
10
-14.7992
20
14.4906
11
-14.8568
21
14.6499
0
LINE
8
BLACK
6
CONTINUOUS
10
-14.8568
20
14.6499
11
-14.941
21
14.797
0
LINE
8
BLACK
6
CONTINUOUS
10
-14.941
20
14.797
11
-15.0493
21
14.9273
0
LINE
8
BLACK
6
CONTINUOUS
10
-15.0493
20
14.9273
11
-15.1784
21
15.037
0
LINE
8
BLACK
6
CONTINUOUS
10
-15.1784
20
15.037
11
-15.3246
21
15.1228
0
LINE
8
BLACK
6
CONTINUOUS
10
-15.3246
20
15.1228
11
-15.4833
21
15.182
0
LINE
8
BLACK
6
CONTINUOUS
10
-15.4833
20
15.182
11
-15.5666
21
15.1975
0
LINE
8
BLACK
6
CONTINUOUS
10
-15.5666
20
15.1975
11
-15.5666
21
15.1975
0
LINE
8
BLACK
6
CONTINUOUS
10
-15.5666
20
15.1975
11
-43.5844
21
20.4128
0
LINE
8
BLACK
6
CONTINUOUS
10
-43.5844
20
20.4128
11
-43.5844
21
20.4128
0
LINE
8
BLACK
6
CONTINUOUS
10
-43.5844
20
20.4128
11
-44.4209
21
20.5683
0
LINE
8
BLACK
6
CONTINUOUS
10
-44.4209
20
20.5683
11
-46.099
21
20.8508
0
LINE
8
BLACK
6
CONTINUOUS
10
-46.099
20
20.8508
11
-47.7817
21
21.1047
0
LINE
8
BLACK
6
CONTINUOUS
10
-47.7817
20
21.1047
11
-49.4684
21
21.3299
0
LINE
8
BLACK
6
CONTINUOUS
10
-49.4684
20
21.3299
11
-51.1587
21
21.5264
0
LINE
8
BLACK
6
CONTINUOUS
10
-51.1587
20
21.5264
11
-52.8522
21
21.694
0
LINE
8
BLACK
6
CONTINUOUS
10
-52.8522
20
21.694
11
-54.5482
21
21.8329
0
LINE
8
BLACK
6
CONTINUOUS
10
-54.5482
20
21.8329
11
-56.2464
21
21.9428
0
LINE
8
BLACK
6
CONTINUOUS
10
-56.2464
20
21.9428
11
-57.9462
21
22.0238
0
LINE
8
BLACK
6
CONTINUOUS
10
-57.9462
20
22.0238
11
-58.7966
21
22.0499
0
LINE
8
BLACK
6
CONTINUOUS
10
-58.7966
20
22.0499
11
-58.7966
21
22.0499
0
LINE
8
BLACK
6
CONTINUOUS
10
-58.7966
20
22.0499
11
-83.91
21
22.8188
0
LINE
8
BLACK
6
CONTINUOUS
10
-83.91
20
22.8188
11
-83.91
21
22.8188
0
LINE
8
BLACK
6
CONTINUOUS
10
-83.91
20
22.8188
11
-84.1275
21
22.8255
0
LINE
8
BLACK
6
CONTINUOUS
10
-84.1275
20
22.8255
11
-84.5624
21
22.8042
0
LINE
8
BLACK
6
CONTINUOUS
10
-84.5624
20
22.8042
11
-84.9942
21
22.7485
0
LINE
8
BLACK
6
CONTINUOUS
10
-84.9942
20
22.7485
11
-85.4201
21
22.6586
0
LINE
8
BLACK
6
CONTINUOUS
10
-85.4201
20
22.6586
11
-85.8376
21
22.5353
0
LINE
8
BLACK
6
CONTINUOUS
10
-85.8376
20
22.5353
11
-86.244
21
22.3792
0
LINE
8
BLACK
6
CONTINUOUS
10
-86.244
20
22.3792
11
-86.6368
21
22.1913
0
LINE
8
BLACK
6
CONTINUOUS
10
-86.6368
20
22.1913
11
-87.0133
21
21.9728
0
LINE
8
BLACK
6
CONTINUOUS
10
-87.0133
20
21.9728
11
-87.3714
21
21.7251
0
LINE
8
BLACK
6
CONTINUOUS
10
-87.3714
20
21.7251
11
-87.7086
21
21.4498
0
LINE
8
BLACK
6
CONTINUOUS
10
-87.7086
20
21.4498
11
-88.0229
21
21.1486
0
LINE
8
BLACK
6
CONTINUOUS
10
-88.0229
20
21.1486
11
-88.3123
21
20.8234
0
LINE
8
BLACK
6
CONTINUOUS
10
-88.3123
20
20.8234
11
-88.575
21
20.4762
0
LINE
8
BLACK
6
CONTINUOUS
10
-88.575
20
20.4762
11
-88.8093
21
20.1092
0
LINE
8
BLACK
6
CONTINUOUS
10
-88.8093
20
20.1092
11
-89.0137
21
19.7249
0
LINE
8
BLACK
6
CONTINUOUS
10
-89.0137
20
19.7249
11
-89.1869
21
19.3255
0
LINE
8
BLACK
6
CONTINUOUS
10
-89.1869
20
19.3255
11
-89.3279
21
18.9136
0
LINE
8
BLACK
6
CONTINUOUS
10
-89.3279
20
18.9136
11
-89.4358
21
18.4918
0
LINE
8
BLACK
6
CONTINUOUS
10
-89.4358
20
18.4918
11
-89.4728
21
18.2773
0
LINE
8
BLACK
6
CONTINUOUS
10
-89.4728
20
18.2773
11
-89.5077
21
18.0749
0
LINE
8
BLACK
6
CONTINUOUS
10
-89.5077
20
18.0749
11
-89.5077
21
18.0749
0
LINE
8
BLACK
6
CONTINUOUS
10
-89.5077
20
18.0749
11
-89.5077
21
18.0749
0
LINE
8
BLACK
6
CONTINUOUS
10
-89.5077
20
18.0749
11
-89.5296
21
18.0099
0
LINE
8
BLACK
6
CONTINUOUS
10
-89.5296
20
18.0099
11
-89.57
21
17.9545
0
LINE
8
BLACK
6
CONTINUOUS
10
-89.57
20
17.9545
11
-89.6252
21
17.9139
0
LINE
8
BLACK
6
CONTINUOUS
10
-89.6252
20
17.9139
11
-89.69
21
17.8917
0
LINE
8
BLACK
6
CONTINUOUS
10
-89.69
20
17.8917
11
-89.7584
21
17.8901
0
LINE
8
BLACK
6
CONTINUOUS
10
-89.7584
20
17.8901
11
-89.7586
21
17.8901
0
LINE
8
BLACK
6
CONTINUOUS
10
-89.7586
20
17.8901
11
-89.7586
21
17.8901
0
LINE
8
BLACK
6
CONTINUOUS
10
-89.7586
20
17.8901
11
-89.7586
21
17.8901
0
LINE
8
BLACK
6
CONTINUOUS
10
-89.7586
20
17.8901
11
-89.7586
21
17.8901
0
LINE
8
BLACK
6
CONTINUOUS
10
-89.7586
20
17.8901
11
-103.42
21
19.6739
0
LINE
8
BLACK
6
CONTINUOUS
10
-103.42
20
19.6739
11
-103.42
21
19.6739
0
LINE
8
BLACK
6
CONTINUOUS
10
-103.42
20
19.6739
11
-103.639
21
19.7024
0
LINE
8
BLACK
6
CONTINUOUS
10
-103.639
20
19.7024
11
-104.08
21
19.7242
0
LINE
8
BLACK
6
CONTINUOUS
10
-104.08
20
19.7242
11
-104.521
21
19.7104
0
LINE
8
BLACK
6
CONTINUOUS
10
-104.521
20
19.7104
11
-104.96
21
19.6611
0
LINE
8
BLACK
6
CONTINUOUS
10
-104.96
20
19.6611
11
-105.393
21
19.5768
0
LINE
8
BLACK
6
CONTINUOUS
10
-105.393
20
19.5768
11
-105.818
21
19.4578
0
LINE
8
BLACK
6
CONTINUOUS
10
-105.818
20
19.4578
11
-106.232
21
19.3051
0
LINE
8
BLACK
6
CONTINUOUS
10
-106.232
20
19.3051
11
-106.632
21
19.1195
0
LINE
8
BLACK
6
CONTINUOUS
10
-106.632
20
19.1195
11
-107.016
21
18.9023
0
LINE
8
BLACK
6
CONTINUOUS
10
-107.016
20
18.9023
11
-107.381
21
18.655
0
LINE
8
BLACK
6
CONTINUOUS
10
-107.381
20
18.655
11
-107.726
21
18.379
0
LINE
8
BLACK
6
CONTINUOUS
10
-107.726
20
18.379
11
-108.047
21
18.0762
0
LINE
8
BLACK
6
CONTINUOUS
10
-108.047
20
18.0762
11
-108.342
21
17.7485
0
LINE
8
BLACK
6
CONTINUOUS
10
-108.342
20
17.7485
11
-108.611
21
17.3982
0
LINE
8
BLACK
6
CONTINUOUS
10
-108.611
20
17.3982
11
-108.85
21
17.0274
0
LINE
8
BLACK
6
CONTINUOUS
10
-108.85
20
17.0274
11
-109.058
21
16.6385
0
LINE
8
BLACK
6
CONTINUOUS
10
-109.058
20
16.6385
11
-109.235
21
16.2341
0
LINE
8
BLACK
6
CONTINUOUS
10
-109.235
20
16.2341
11
-109.378
21
15.8169
0
LINE
8
BLACK
6
CONTINUOUS
10
-109.378
20
15.8169
11
-109.488
21
15.3894
0
LINE
8
BLACK
6
CONTINUOUS
10
-109.488
20
15.3894
11
-109.563
21
14.9545
0
LINE
8
BLACK
6
CONTINUOUS
10
-109.563
20
14.9545
11
-109.582
21
14.7348
0
LINE
8
BLACK
6
CONTINUOUS
10
-109.582
20
14.7348
11
-109.582
21
14.7348
0
LINE
8
BLACK
6
CONTINUOUS
10
-109.582
20
14.7348
11
-113.629
21
-30.3174
0
LINE
8
BLACK
6
CONTINUOUS
10
-113.629
20
-30.3174
11
-113.629
21
-30.3174
0
LINE
8
BLACK
6
CONTINUOUS
10
-113.629
20
-30.3174
11
-113.649
21
-30.5361
0
LINE
8
BLACK
6
CONTINUOUS
10
-113.649
20
-30.5361
11
-113.653
21
-30.9753
0
LINE
8
BLACK
6
CONTINUOUS
10
-113.653
20
-30.9753
11
-113.622
21
-31.4134
0
LINE
8
BLACK
6
CONTINUOUS
10
-113.622
20
-31.4134
11
-113.556
21
-31.8477
0
LINE
8
BLACK
6
CONTINUOUS
10
-113.556
20
-31.8477
11
-113.455
21
-32.2752
0
LINE
8
BLACK
6
CONTINUOUS
10
-113.455
20
-32.2752
11
-113.321
21
-32.6933
0
LINE
8
BLACK
6
CONTINUOUS
10
-113.321
20
-32.6933
11
-113.153
21
-33.0993
0
LINE
8
BLACK
6
CONTINUOUS
10
-113.153
20
-33.0993
11
-112.953
21
-33.4906
0
LINE
8
BLACK
6
CONTINUOUS
10
-112.953
20
-33.4906
11
-112.723
21
-33.8646
0
LINE
8
BLACK
6
CONTINUOUS
10
-112.723
20
-33.8646
11
-112.464
21
-34.219
0
LINE
8
BLACK
6
CONTINUOUS
10
-112.464
20
-34.219
11
-112.177
21
-34.5515
0
LINE
8
BLACK
6
CONTINUOUS
10
-112.177
20
-34.5515
11
-111.864
21
-34.8599
0
LINE
8
BLACK
6
CONTINUOUS
10
-111.864
20
-34.8599
11
-111.527
21
-35.1422
0
LINE
8
BLACK
6
CONTINUOUS
10
-111.527
20
-35.1422
11
-111.169
21
-35.3967
0
LINE
8
BLACK
6
CONTINUOUS
10
-111.169
20
-35.3967
11
-110.792
21
-35.6217
0
LINE
8
BLACK
6
CONTINUOUS
10
-110.792
20
-35.6217
11
-110.398
21
-35.8158
0
LINE
8
BLACK
6
CONTINUOUS
10
-110.398
20
-35.8158
11
-109.99
21
-35.9777
0
LINE
8
BLACK
6
CONTINUOUS
10
-109.99
20
-35.9777
11
-109.57
21
-36.1064
0
LINE
8
BLACK
6
CONTINUOUS
10
-109.57
20
-36.1064
11
-109.141
21
-36.201
0
LINE
8
BLACK
6
CONTINUOUS
10
-109.141
20
-36.201
11
-108.706
21
-36.2609
0
LINE
8
BLACK
6
CONTINUOUS
10
-108.706
20
-36.2609
11
-108.267
21
-36.2858
0
LINE
8
BLACK
6
CONTINUOUS
10
-108.267
20
-36.2858
11
-108.048
21
-36.2807
0
LINE
8
BLACK
6
CONTINUOUS
10
-108.048
20
-36.2807
11
-81.0637
21
-35.6481
0
LINE
8
BLACK
6
CONTINUOUS
10
-81.0637
20
-35.6481
11
-81.0637
21
-35.6481
0
LINE
8
BLACK
6
CONTINUOUS
10
-81.0637
20
-35.6481
11
-81.0637
21
-35.6481
0
LINE
8
BLACK
6
CONTINUOUS
10
-81.0637
20
-35.6481
11
-80.9385
21
-35.6602
0
LINE
8
BLACK
6
CONTINUOUS
10
-80.9385
20
-35.6602
11
-80.8198
21
-35.7018
0
LINE
8
BLACK
6
CONTINUOUS
10
-80.8198
20
-35.7018
11
-80.7144
21
-35.7704
0
LINE
8
BLACK
6
CONTINUOUS
10
-80.7144
20
-35.7704
11
-80.6283
21
-35.862
0
LINE
8
BLACK
6
CONTINUOUS
10
-80.6283
20
-35.862
11
-80.5665
21
-35.9715
0
LINE
8
BLACK
6
CONTINUOUS
10
-80.5665
20
-35.9715
11
-80.5326
21
-36.0926
0
LINE
8
BLACK
6
CONTINUOUS
10
-80.5326
20
-36.0926
11
-80.5283
21
-36.2182
0
LINE
8
BLACK
6
CONTINUOUS
10
-80.5283
20
-36.2182
11
-80.5283
21
-36.2183
0
LINE
8
BLACK
6
CONTINUOUS
10
-80.5283
20
-36.2183
11
-81.6925
21
-49.6446
0
LINE
8
BLACK
6
CONTINUOUS
10
-81.6925
20
-49.6446
11
-81.6926
21
-49.6448
0
LINE
8
BLACK
6
CONTINUOUS
10
-81.6926
20
-49.6448
11
-81.7116
21
-49.8648
0
LINE
8
BLACK
6
CONTINUOUS
10
-81.7116
20
-49.8648
11
-81.7142
21
-50.3069
0
LINE
8
BLACK
6
CONTINUOUS
10
-81.7142
20
-50.3069
11
-81.6811
21
-50.7477
0
LINE
8
BLACK
6
CONTINUOUS
10
-81.6811
20
-50.7477
11
-81.6126
21
-51.1844
0
LINE
8
BLACK
6
CONTINUOUS
10
-81.6126
20
-51.1844
11
-81.5091
21
-51.6142
0
LINE
8
BLACK
6
CONTINUOUS
10
-81.5091
20
-51.6142
11
-81.3713
21
-52.0342
0
LINE
8
BLACK
6
CONTINUOUS
10
-81.3713
20
-52.0342
11
-81.2001
21
-52.4418
0
LINE
8
BLACK
6
CONTINUOUS
10
-81.2001
20
-52.4418
11
-80.9965
21
-52.8342
0
LINE
8
BLACK
6
CONTINUOUS
10
-80.9965
20
-52.8342
11
-80.7621
21
-53.209
0
LINE
8
BLACK
6
CONTINUOUS
10
-80.7621
20
-53.209
11
-80.4981
21
-53.5636
0
LINE
8
BLACK
6
CONTINUOUS
10
-80.4981
20
-53.5636
11
-80.2065
21
-53.8958
0
LINE
8
BLACK
6
CONTINUOUS
10
-80.2065
20
-53.8958
11
-79.889
21
-54.2034
0
LINE
8
BLACK
6
CONTINUOUS
10
-79.889
20
-54.2034
11
-79.5478
21
-54.4844
0
LINE
8
BLACK
6
CONTINUOUS
10
-79.5478
20
-54.4844
11
-79.185
21
-54.737
0
LINE
8
BLACK
6
CONTINUOUS
10
-79.185
20
-54.737
11
-78.803
21
-54.9595
0
LINE
8
BLACK
6
CONTINUOUS
10
-78.803
20
-54.9595
11
-78.4043
21
-55.1506
0
LINE
8
BLACK
6
CONTINUOUS
10
-78.4043
20
-55.1506
11
-77.9916
21
-55.3088
0
LINE
8
BLACK
6
CONTINUOUS
10
-77.9916
20
-55.3088
11
-77.5674
21
-55.4333
0
LINE
8
BLACK
6
CONTINUOUS
10
-77.5674
20
-55.4333
11
-77.1346
21
-55.5232
0
LINE
8
BLACK
6
CONTINUOUS
10
-77.1346
20
-55.5232
11
-76.9153
21
-55.5505
0
LINE
8
BLACK
6
CONTINUOUS
10
-76.9153
20
-55.5505
11
-35.9501
21
-60.6575
0
LINE
8
BLACK
6
CONTINUOUS
10
-35.9501
20
-60.6575
11
-35.9501
21
-60.6575
0
LINE
8
BLACK
6
CONTINUOUS
10
-35.9501
20
-60.6575
11
-35.0831
21
-60.7655
0
LINE
8
BLACK
6
CONTINUOUS
10
-35.0831
20
-60.7655
11
-33.3455
21
-60.9514
0
LINE
8
BLACK
6
CONTINUOUS
10
-33.3455
20
-60.9514
11
-31.6049
21
-61.1068
0
LINE
8
BLACK
6
CONTINUOUS
10
-31.6049
20
-61.1068
11
-29.8619
21
-61.2318
0
LINE
8
BLACK
6
CONTINUOUS
10
-29.8619
20
-61.2318
11
-28.117
21
-61.3263
0
LINE
8
BLACK
6
CONTINUOUS
10
-28.117
20
-61.3263
11
-26.3707
21
-61.3903
0
LINE
8
BLACK
6
CONTINUOUS
10
-26.3707
20
-61.3903
11
-24.6235
21
-61.4238
0
LINE
8
BLACK
6
CONTINUOUS
10
-24.6235
20
-61.4238
11
-23.7497
21
-61.4253
0
LINE
8
BLACK
6
CONTINUOUS
10
-23.7497
20
-61.4253
11
23.5671
21
-61.5045
0
LINE
8
BLACK
6
CONTINUOUS
10
23.5671
20
-61.5045
11
23.5671
21
-61.5045
0
LINE
8
BLACK
6
CONTINUOUS
10
23.5671
20
-61.5045
11
24.4654
21
-61.506
0
LINE
8
BLACK
6
CONTINUOUS
10
24.4654
20
-61.506
11
26.2618
21
-61.4767
0
LINE
8
BLACK
6
CONTINUOUS
10
26.2618
20
-61.4767
11
28.0574
21
-61.4151
0
LINE
8
BLACK
6
CONTINUOUS
10
28.0574
20
-61.4151
11
29.8516
21
-61.3213
0
LINE
8
BLACK
6
CONTINUOUS
10
29.8516
20
-61.3213
11
31.6438
21
-61.1953
0
LINE
8
BLACK
6
CONTINUOUS
10
31.6438
20
-61.1953
11
33.4335
21
-61.0371
0
LINE
8
BLACK
6
CONTINUOUS
10
33.4335
20
-61.0371
11
35.22
21
-60.8467
0
LINE
8
BLACK
6
CONTINUOUS
10
35.22
20
-60.8467
11
36.1114
21
-60.7355
0
LINE
8
BLACK
6
CONTINUOUS
10
36.1114
20
-60.7355
11
36.1114
21
-60.7355
0
LINE
8
BLACK
6
CONTINUOUS
10
36.1114
20
-60.7355
11
76.972
21
-55.6377
0
LINE
8
BLACK
6
CONTINUOUS
10
76.972
20
-55.6377
11
76.972
21
-55.6377
0
LINE
8
BLACK
6
CONTINUOUS
10
76.972
20
-55.6377
11
76.972
21
-55.6377
0
LINE
8
BLACK
6
CONTINUOUS
10
76.972
20
-55.6377
11
77.1906
21
-55.6104
0
LINE
8
BLACK
6
CONTINUOUS
10
77.1906
20
-55.6104
11
77.622
21
-55.5209
0
LINE
8
BLACK
6
CONTINUOUS
10
77.622
20
-55.5209
11
78.0448
21
-55.3971
0
LINE
8
BLACK
6
CONTINUOUS
10
78.0448
20
-55.3971
11
78.4563
21
-55.2396
0
LINE
8
BLACK
6
CONTINUOUS
10
78.4563
20
-55.2396
11
78.8539
21
-55.0496
0
LINE
8
BLACK
6
CONTINUOUS
10
78.8539
20
-55.0496
11
79.2348
21
-54.8283
0
LINE
8
BLACK
6
CONTINUOUS
10
79.2348
20
-54.8283
11
79.5968
21
-54.5771
0
LINE
8
BLACK
6
CONTINUOUS
10
79.5968
20
-54.5771
11
79.9374
21
-54.2976
0
LINE
8
BLACK
6
CONTINUOUS
10
79.9374
20
-54.2976
11
80.2545
21
-53.9917
0
LINE
8
BLACK
6
CONTINUOUS
10
80.2545
20
-53.9917
11
80.5459
21
-53.6613
0
LINE
8
BLACK
6
CONTINUOUS
10
80.5459
20
-53.6613
11
80.8099
21
-53.3085
0
LINE
8
BLACK
6
CONTINUOUS
10
80.8099
20
-53.3085
11
81.0446
21
-52.9356
0
LINE
8
BLACK
6
CONTINUOUS
10
81.0446
20
-52.9356
11
81.2487
21
-52.5451
0
LINE
8
BLACK
6
CONTINUOUS
10
81.2487
20
-52.5451
11
81.4207
21
-52.1395
0
LINE
8
BLACK
6
CONTINUOUS
10
81.4207
20
-52.1395
11
81.5596
21
-51.7214
0
LINE
8
BLACK
6
CONTINUOUS
10
81.5596
20
-51.7214
11
81.6644
21
-51.2934
0
LINE
8
BLACK
6
CONTINUOUS
10
81.6644
20
-51.2934
11
81.7345
21
-50.8584
0
LINE
8
BLACK
6
CONTINUOUS
10
81.7345
20
-50.8584
11
81.7694
21
-50.4192
0
LINE
8
BLACK
6
CONTINUOUS
10
81.7694
20
-50.4192
11
81.7689
21
-49.9786
0
LINE
8
BLACK
6
CONTINUOUS
10
81.7689
20
-49.9786
11
81.751
21
-49.7591
0
LINE
8
BLACK
6
CONTINUOUS
10
81.751
20
-49.7591
11
81.751
21
-49.7591
0
LINE
8
BLACK
6
CONTINUOUS
10
81.751
20
-49.7591
11
81.751
21
-49.7591
0
LINE
8
BLACK
6
CONTINUOUS
10
81.751
20
-49.7591
11
80.6553
21
-36.3452
0
LINE
8
BLACK
6
CONTINUOUS
10
80.6553
20
-36.3452
11
80.6553
21
-36.3452
0
LINE
8
BLACK
6
CONTINUOUS
10
80.6553
20
-36.3452
11
80.66
21
-36.2199
0
LINE
8
BLACK
6
CONTINUOUS
10
80.66
20
-36.2199
11
80.6943
21
-36.0994
0
LINE
8
BLACK
6
CONTINUOUS
10
80.6943
20
-36.0994
11
80.7562
21
-35.9904
0
LINE
8
BLACK
6
CONTINUOUS
10
80.7562
20
-35.9904
11
80.8422
21
-35.8992
0
LINE
8
BLACK
6
CONTINUOUS
10
80.8422
20
-35.8992
11
80.9474
21
-35.831
0
LINE
8
BLACK
6
CONTINUOUS
10
80.9474
20
-35.831
11
81.0657
21
-35.7897
0
LINE
8
BLACK
6
CONTINUOUS
10
81.0657
20
-35.7897
11
81.1904
21
-35.7776
0
LINE
8
BLACK
6
CONTINUOUS
10
81.1904
20
-35.7776
11
81.1904
21
-35.7776
0
LINE
8
BLACK
6
CONTINUOUS
10
81.1904
20
-35.7776
11
108.043
21
-36.3857
0
LINE
8
BLACK
6
CONTINUOUS
10
108.043
20
-36.3857
11
108.043
21
-36.3856
0
LINE
8
BLACK
6
CONTINUOUS
10
108.043
20
-36.3856
11
108.263
21
-36.3906
0
LINE
8
BLACK
6
CONTINUOUS
10
108.263
20
-36.3906
11
108.701
21
-36.3654
0
LINE
8
BLACK
6
CONTINUOUS
10
108.701
20
-36.3654
11
109.136
21
-36.3052
0
LINE
8
BLACK
6
CONTINUOUS
10
109.136
20
-36.3052
11
109.565
21
-36.2103
0
LINE
8
BLACK
6
CONTINUOUS
10
109.565
20
-36.2103
11
109.984
21
-36.0815
0
LINE
8
BLACK
6
CONTINUOUS
10
109.984
20
-36.0815
11
110.392
21
-35.9195
0
LINE
8
BLACK
6
CONTINUOUS
10
110.392
20
-35.9195
11
110.786
21
-35.7253
0
LINE
8
BLACK
6
CONTINUOUS
10
110.786
20
-35.7253
11
111.163
21
-35.5002
0
LINE
8
BLACK
6
CONTINUOUS
10
111.163
20
-35.5002
11
111.521
21
-35.2457
0
LINE
8
BLACK
6
CONTINUOUS
10
111.521
20
-35.2457
11
111.857
21
-34.9634
0
LINE
8
BLACK
6
CONTINUOUS
10
111.857
20
-34.9634
11
112.169
21
-34.6551
0
LINE
8
BLACK
6
CONTINUOUS
10
112.169
20
-34.6551
11
112.456
21
-34.3227
0
LINE
8
BLACK
6
CONTINUOUS
10
112.456
20
-34.3227
11
112.715
21
-33.9685
0
LINE
8
BLACK
6
CONTINUOUS
10
112.715
20
-33.9685
11
112.945
21
-33.5946
0
LINE
8
BLACK
6
CONTINUOUS
10
112.945
20
-33.5946
11
113.145
21
-33.2036
0
LINE
8
BLACK
6
CONTINUOUS
10
113.145
20
-33.2036
11
113.312
21
-32.7978
0
LINE
8
BLACK
6
CONTINUOUS
10
113.312
20
-32.7978
11
113.447
21
-32.3799
0
LINE
8
BLACK
6
CONTINUOUS
10
113.447
20
-32.3799
11
113.547
21
-31.9526
0
LINE
8
BLACK
6
CONTINUOUS
10
113.547
20
-31.9526
11
113.613
21
-31.5186
0
LINE
8
BLACK
6
CONTINUOUS
10
113.613
20
-31.5186
11
113.644
21
-31.0807
0
LINE
8
BLACK
6
CONTINUOUS
10
113.644
20
-31.0807
11
113.64
21
-30.6417
0
LINE
8
BLACK
6
CONTINUOUS
10
113.64
20
-30.6417
11
113.621
21
-30.4231
0
LINE
8
BLACK
6
CONTINUOUS
10
113.621
20
-30.4231
11
113.621
21
-30.4231
0
LINE
8
BLACK
6
CONTINUOUS
10
113.621
20
-30.4231
11
113.621
21
-30.4231
0
LINE
8
BLACK
6
CONTINUOUS
10
113.621
20
-30.4231
11
109.569
21
14.766
0
LINE
8
BLACK
6
CONTINUOUS
10
109.569
20
14.766
11
109.569
21
14.766
0
LINE
8
BLACK
6
CONTINUOUS
10
109.569
20
14.766
11
109.549
21
14.985
0
LINE
8
BLACK
6
CONTINUOUS
10
109.549
20
14.985
11
109.475
21
15.4185
0
LINE
8
BLACK
6
CONTINUOUS
10
109.475
20
15.4185
11
109.366
21
15.8446
0
LINE
8
BLACK
6
CONTINUOUS
10
109.366
20
15.8446
11
109.223
21
16.2605
0
LINE
8
BLACK
6
CONTINUOUS
10
109.223
20
16.2605
11
109.048
21
16.6638
0
LINE
8
BLACK
6
CONTINUOUS
10
109.048
20
16.6638
11
108.841
21
17.0516
0
LINE
8
BLACK
6
CONTINUOUS
10
108.841
20
17.0516
11
108.603
21
17.4216
0
LINE
8
BLACK
6
CONTINUOUS
10
108.603
20
17.4216
11
108.336
21
17.7713
0
LINE
8
BLACK
6
CONTINUOUS
10
108.336
20
17.7713
11
108.042
21
18.0985
0
LINE
8
BLACK
6
CONTINUOUS
10
108.042
20
18.0985
11
107.723
21
18.4011
0
LINE
8
BLACK
6
CONTINUOUS
10
107.723
20
18.4011
11
107.381
21
18.6771
0
LINE
8
BLACK
6
CONTINUOUS
10
107.381
20
18.6771
11
107.018
21
18.9248
0
LINE
8
BLACK
6
CONTINUOUS
10
107.018
20
18.9248
11
106.636
21
19.1426
0
LINE
8
BLACK
6
CONTINUOUS
10
106.636
20
19.1426
11
106.237
21
19.329
0
LINE
8
BLACK
6
CONTINUOUS
10
106.237
20
19.329
11
105.825
21
19.4829
0
LINE
8
BLACK
6
CONTINUOUS
10
105.825
20
19.4829
11
105.402
21
19.6032
0
LINE
8
BLACK
6
CONTINUOUS
10
105.402
20
19.6032
11
104.971
21
19.6893
0
LINE
8
BLACK
6
CONTINUOUS
10
104.971
20
19.6893
11
104.534
21
19.7405
0
LINE
8
BLACK
6
CONTINUOUS
10
104.534
20
19.7405
11
104.095
21
19.7565
0
LINE
8
BLACK
6
CONTINUOUS
10
104.095
20
19.7565
11
103.656
21
19.7372
0
LINE
8
BLACK
6
CONTINUOUS
10
103.656
20
19.7372
11
103.437
21
19.7099
0
LINE
8
BLACK
6
CONTINUOUS
10
103.437
20
19.7099
11
103.437
21
19.7099
0
LINE
8
BLACK
6
CONTINUOUS
10
103.437
20
19.7099
11
89.5625
21
17.9782
0
LINE
8
BLACK
6
CONTINUOUS
10
89.5625
20
17.9782
11
89.5625
21
17.9782
0
LINE
8
BLACK
6
CONTINUOUS
10
89.5625
20
17.9782
11
89.4954
21
17.9799
0
LINE
8
BLACK
6
CONTINUOUS
10
89.4954
20
17.9799
11
89.4318
21
18.0014
0
LINE
8
BLACK
6
CONTINUOUS
10
89.4318
20
18.0014
11
89.3773
21
18.0406
0
LINE
8
BLACK
6
CONTINUOUS
10
89.3773
20
18.0406
11
89.3369
21
18.0942
0
LINE
8
BLACK
6
CONTINUOUS
10
89.3369
20
18.0942
11
89.314
21
18.1573
0
LINE
8
BLACK
6
CONTINUOUS
10
89.314
20
18.1573
11
89.314
21
18.1574
0
LINE
8
BLACK
6
CONTINUOUS
10
89.314
20
18.1574
11
89.314
21
18.1574
0
LINE
8
BLACK
6
CONTINUOUS
10
89.314
20
18.1574
11
89.2827
21
18.3142
0
LINE
8
BLACK
6
CONTINUOUS
10
89.2827
20
18.3142
11
89.2827
21
18.3142
0
LINE
8
BLACK
6
CONTINUOUS
10
89.2827
20
18.3142
11
89.2383
21
18.536
0
LINE
8
BLACK
6
CONTINUOUS
10
89.2383
20
18.536
11
89.1133
21
18.9708
0
LINE
8
BLACK
6
CONTINUOUS
10
89.1133
20
18.9708
11
88.9529
21
19.3938
0
LINE
8
BLACK
6
CONTINUOUS
10
88.9529
20
19.3938
11
88.7581
21
19.8021
0
LINE
8
BLACK
6
CONTINUOUS
10
88.7581
20
19.8021
11
88.5302
21
20.193
0
LINE
8
BLACK
6
CONTINUOUS
10
88.5302
20
20.193
11
88.2709
21
20.5637
0
LINE
8
BLACK
6
CONTINUOUS
10
88.2709
20
20.5637
11
87.9819
21
20.9118
0
LINE
8
BLACK
6
CONTINUOUS
10
87.9819
20
20.9118
11
87.6652
21
21.2349
0
LINE
8
BLACK
6
CONTINUOUS
10
87.6652
20
21.2349
11
87.3229
21
21.5307
0
LINE
8
BLACK
6
CONTINUOUS
10
87.3229
20
21.5307
11
86.9574
21
21.7973
0
LINE
8
BLACK
6
CONTINUOUS
10
86.9574
20
21.7973
11
86.5711
21
22.0328
0
LINE
8
BLACK
6
CONTINUOUS
10
86.5711
20
22.0328
11
86.1667
21
22.2357
0
LINE
8
BLACK
6
CONTINUOUS
10
86.1667
20
22.2357
11
85.747
21
22.4045
0
LINE
8
BLACK
6
CONTINUOUS
10
85.747
20
22.4045
11
85.3147
21
22.5381
0
LINE
8
BLACK
6
CONTINUOUS
10
85.3147
20
22.5381
11
84.8729
21
22.6356
0
LINE
8
BLACK
6
CONTINUOUS
10
84.8729
20
22.6356
11
84.4246
21
22.6963
0
LINE
8
BLACK
6
CONTINUOUS
10
84.4246
20
22.6963
11
83.9728
21
22.7198
0
LINE
8
BLACK
6
CONTINUOUS
10
83.9728
20
22.7198
11
83.7467
21
22.7129
0
LINE
8
BLACK
6
CONTINUOUS
10
83.7467
20
22.7129
11
83.7467
21
22.7129
0
LINE
8
BLACK
6
CONTINUOUS
10
83.7467
20
22.7129
11
58.6804
21
21.9466
0
LINE
8
BLACK
6
CONTINUOUS
10
58.6804
20
21.9466
11
58.6804
21
21.9466
0
LINE
8
BLACK
6
CONTINUOUS
10
58.6804
20
21.9466
11
57.8406
21
21.9209
0
LINE
8
BLACK
6
CONTINUOUS
10
57.8406
20
21.9209
11
56.162
21
21.8413
0
LINE
8
BLACK
6
CONTINUOUS
10
56.162
20
21.8413
11
54.485
21
21.7335
0
LINE
8
BLACK
6
CONTINUOUS
10
54.485
20
21.7335
11
52.8101
21
21.5976
0
LINE
8
BLACK
6
CONTINUOUS
10
52.8101
20
21.5976
11
51.1377
21
21.4335
0
LINE
8
BLACK
6
CONTINUOUS
10
51.1377
20
21.4335
11
49.4683
21
21.2414
0
LINE
8
BLACK
6
CONTINUOUS
10
49.4683
20
21.2414
11
47.8023
21
21.0212
0
LINE
8
BLACK
6
CONTINUOUS
10
47.8023
20
21.0212
11
46.1403
21
20.773
0
LINE
8
BLACK
6
CONTINUOUS
10
46.1403
20
20.773
11
44.4827
21
20.4969
0
LINE
8
BLACK
6
CONTINUOUS
10
44.4827
20
20.4969
11
43.6563
21
20.345
0
LINE
8
BLACK
6
CONTINUOUS
10
43.6563
20
20.345
11
43.6563
21
20.345
0
LINE
8
BLACK
6
CONTINUOUS
10
43.6563
20
20.345
11
43.6563
21
20.345
0
LINE
8
BLACK
6
CONTINUOUS
10
43.6563
20
20.345
11
15.549
21
15.1858
0
LINE
8
BLACK
6
CONTINUOUS
10
15.549
20
15.1858
11
15.549
21
15.1858
0
LINE
8
BLACK
6
CONTINUOUS
10
15.549
20
15.1858
11
15.549
21
15.1858
0
LINE
8
BLACK
6
CONTINUOUS
10
15.549
20
15.1858
11
15.549
21
15.1858
0
LINE
8
BLACK
6
CONTINUOUS
10
15.549
20
15.1858
11
15.5489
21
15.1858
0
LINE
8
BLACK
6
CONTINUOUS
10
15.5489
20
15.1858
11
15.4655
21
15.1705
0
LINE
8
BLACK
6
CONTINUOUS
10
15.4655
20
15.1705
11
15.3063
21
15.1115
0
LINE
8
BLACK
6
CONTINUOUS
10
15.3063
20
15.1115
11
15.1598
21
15.0258
0
LINE
8
BLACK
6
CONTINUOUS
10
15.1598
20
15.0258
11
15.0302
21
14.9162
0
LINE
8
BLACK
6
CONTINUOUS
10
15.0302
20
14.9162
11
14.9216
21
14.7857
0
LINE
8
BLACK
6
CONTINUOUS
10
14.9216
20
14.7857
11
14.8371
21
14.6385
0
LINE
8
BLACK
6
CONTINUOUS
10
14.8371
20
14.6385
11
14.7793
21
14.4789
0
LINE
8
BLACK
6
CONTINUOUS
10
14.7793
20
14.4789
11
14.75
21
14.3117
0
LINE
8
BLACK
6
CONTINUOUS
10
14.75
20
14.3117
11
14.75
21
14.2268
0
LINE
8
BLACK
6
CONTINUOUS
10
14.75
20
14.2268
11
14.75
21
14.2268
0
LINE
8
BLACK
6
CONTINUOUS
10
14.75
20
14.2268
11
14.75
21
13.58
0
LINE
8
BLACK
6
CONTINUOUS
10
14.75
20
13.58
11
14.75
21
13.58
0
LINE
8
BLACK
6
CONTINUOUS
10
14.75
20
13.58
11
14.7344
21
13.402
0
LINE
8
BLACK
6
CONTINUOUS
10
14.7344
20
13.402
11
14.6882
21
13.2294
0
LINE
8
BLACK
6
CONTINUOUS
10
14.6882
20
13.2294
11
14.6127
21
13.0675
0
LINE
8
BLACK
6
CONTINUOUS
10
14.6127
20
13.0675
11
14.5102
21
12.9211
0
LINE
8
BLACK
6
CONTINUOUS
10
14.5102
20
12.9211
11
14.3839
21
12.7948
0
LINE
8
BLACK
6
CONTINUOUS
10
14.3839
20
12.7948
11
14.2375
21
12.6923
0
LINE
8
BLACK
6
CONTINUOUS
10
14.2375
20
12.6923
11
14.0756
21
12.6168
0
LINE
8
BLACK
6
CONTINUOUS
10
14.0756
20
12.6168
11
13.903
21
12.5706
0
LINE
8
BLACK
6
CONTINUOUS
10
13.903
20
12.5706
11
13.725
21
12.555
0
LINE
8
BLACK
6
CONTINUOUS
10
13.725
20
12.555
11
13.725
21
12.555
0
LINE
8
BLACK
6
CONTINUOUS
10
13.725
20
12.555
11
7.725
21
12.555
0
LINE
8
BLACK
6
CONTINUOUS
10
7.725
20
12.555
11
7.725
21
12.555
0
LINE
8
BLACK
6
CONTINUOUS
10
7.725
20
12.555
11
7.725
21
12.555
0
LINE
8
BLACK
6
CONTINUOUS
10
7.725
20
12.555
11
7.54701
21
12.5706
0
LINE
8
BLACK
6
CONTINUOUS
10
7.54701
20
12.5706
11
7.37442
21
12.6168
0
LINE
8
BLACK
6
CONTINUOUS
10
7.37442
20
12.6168
11
7.21248
21
12.6923
0
LINE
8
BLACK
6
CONTINUOUS
10
7.21248
20
12.6923
11
7.06611
21
12.7948
0
LINE
8
BLACK
6
CONTINUOUS
10
7.06611
20
12.7948
11
6.93977
21
12.9211
0
LINE
8
BLACK
6
CONTINUOUS
10
6.93977
20
12.9211
11
6.83729
21
13.0675
0
LINE
8
BLACK
6
CONTINUOUS
10
6.83729
20
13.0675
11
6.76178
21
13.2294
0
LINE
8
BLACK
6
CONTINUOUS
10
6.76178
20
13.2294
11
6.71554
21
13.402
0
LINE
8
BLACK
6
CONTINUOUS
10
6.71554
20
13.402
11
6.69997
21
13.58
0
LINE
8
BLACK
6
CONTINUOUS
10
6.69997
20
13.58
11
6.7
21
13.58
0
LINE
8
BLACK
6
CONTINUOUS
10
6.7
20
13.58
11
6.7
21
20.4355
0
LINE
8
BLACK
6
CONTINUOUS
10
6.7
20
20.4355
11
6.70001
21
20.4356
0
LINE
8
BLACK
6
CONTINUOUS
10
6.70001
20
20.4356
11
6.7
21
20.5916
0
LINE
8
BLACK
6
CONTINUOUS
10
6.7
20
20.5916
11
6.66735
21
20.902
0
LINE
8
BLACK
6
CONTINUOUS
10
6.66735
20
20.902
11
6.6024
21
21.2073
0
LINE
8
BLACK
6
CONTINUOUS
10
6.6024
20
21.2073
11
6.50586
21
21.5041
0
LINE
8
BLACK
6
CONTINUOUS
10
6.50586
20
21.5041
11
6.37879
21
21.7892
0
LINE
8
BLACK
6
CONTINUOUS
10
6.37879
20
21.7892
11
6.2226
21
22.0594
0
LINE
8
BLACK
6
CONTINUOUS
10
6.2226
20
22.0594
11
6.03899
21
22.3118
0
LINE
8
BLACK
6
CONTINUOUS
10
6.03899
20
22.3118
11
5.82998
21
22.5436
0
LINE
8
BLACK
6
CONTINUOUS
10
5.82998
20
22.5436
11
5.59786
21
22.7523
0
LINE
8
BLACK
6
CONTINUOUS
10
5.59786
20
22.7523
11
5.34518
21
22.9355
0
LINE
8
BLACK
6
CONTINUOUS
10
5.34518
20
22.9355
11
5.07472
21
23.0913
0
LINE
8
BLACK
6
CONTINUOUS
10
5.07472
20
23.0913
11
4.78945
21
23.218
0
LINE
8
BLACK
6
CONTINUOUS
10
4.78945
20
23.218
11
4.49249
21
23.3141
0
LINE
8
BLACK
6
CONTINUOUS
10
4.49249
20
23.3141
11
4.1871
21
23.3786
0
LINE
8
BLACK
6
CONTINUOUS
10
4.1871
20
23.3786
11
3.87664
21
23.4108
0
LINE
8
BLACK
6
CONTINUOUS
10
3.87664
20
23.4108
11
3.72058
21
23.4105
  0
ENDSEC
  0
EOF
