  0
SECTION
  2
HEADER
  9
$ANGBASE
  50
0.0
  9
$ANGDIR
  70
1
  9
$MEASUREMENT
  70
1
  0
ENDSEC
  0
SECTION
  2
TABLES
  0
TABLE
  2
LTYPE
  70
4
  0
LTYPE
  5
40F
  2
CONTINUOUS
  70
0
  3
Solid line
  72
65
  73
0
  40
0.0
  0
LTYPE
  5
410
  2
DASHDOT
 70
0
  3
Dash Dot ____ _ ____ _
 72
65
 73
4
 40
2.0
 49
1.25
 49
-0.25
 49
0.25
 49
-0.25
  0
LTYPE
  5
411
  2
DASHED
 70
0
  3
Dashed __ __ __ __ __
 72
65
 73
2
 40
0.75
 49
0.5
 49
-0.25
  0
LTYPE
  5
43B
  2
DOTTED
 70
0
  3
Dotted .  .  .  .
 72
65
 73
2
 40
0.2
 49
0.0
 49
-0.2
  0
ENDTAB
  0
TABLE
  2
STYLE
  70
4
  0
STYLE
  2
KICAD
  70
0
  40
0
  41
1
  42
1
  50
0
  71
0
  3
isocp.shx
  0
STYLE
  2
KICADB
  70
0
  40
0
  41
1
  42
1
  50
0
  71
0
  3
isocp.shx
  0
STYLE
  2
KICADI
  70
0
  40
0
  41
1
  42
1
  50
15
  71
0
  3
isocp.shx
  0
STYLE
  2
KICADBI
  70
0
  40
0
  41
1
  42
1
  50
15
  71
0
  3
isocp.shx
  0
ENDTAB
  0
TABLE
  2
LAYER
  70
1
  0
LAYER
  2
BLACK
  70
0
  62
7
  6
CONTINUOUS
  0
ENDTAB
  0
ENDSEC
  0
SECTION
  2
ENTITIES
0
LINE
8
BLACK
6
CONTINUOUS
10
164.31
20
-58.7177
11
164.31
21
-104.204
0
ARC
8
BLACK
10
221.951
20
-61.459
40
0.500022
50
-89.9976
51
-0.00733354
0
ARC
8
BLACK
10
228.001
20
-104.322
40
0.499963
50
-180.004
51
-89.9976
0
LINE
8
BLACK
6
CONTINUOUS
10
221.951
20
-81.0091
11
208.951
21
-81.0091
0
LINE
8
BLACK
6
CONTINUOUS
10
127.21
20
-49.6704
11
145.99
21
-49.6704
0
CIRCLE
8
BLACK
10
167.31
20
-56.6177
40
0.15
0
ARC
8
BLACK
10
160.77
20
-70.9841
40
0.499978
50
-90.0024
51
0.00424007
0
LINE
8
BLACK
6
CONTINUOUS
10
219.569
20
-123.872
11
206.569
21
-123.872
0
CIRCLE
8
BLACK
10
164.31
20
-57.2177
40
0.15
0
LINE
8
BLACK
6
CONTINUOUS
10
228.001
20
-52.7216
11
241.001
21
-52.7216
0
ARC
8
BLACK
10
247.051
20
-53.2215
40
0.499978
50
-270.002
51
-179.993
0
LINE
8
BLACK
6
CONTINUOUS
10
183.851
20
-90.5341
11
170.851
21
-90.5341
0
ARC
8
BLACK
10
122.67
20
-67.509
40
0.499936
50
-0.00721957
51
90.0025
0
ARC
8
BLACK
10
202.901
20
-66.2215
40
0.500023
50
-89.9976
51
-0.00733352
0
CIRCLE
8
BLACK
10
182.272
20
-52.5536
40
1.05
0
ARC
8
BLACK
10
204.41
20
-48.4703
40
1.2
50
-90
51
-0.00300803
0
LINE
8
BLACK
6
CONTINUOUS
10
167.31
20
-104.204
11
167.311
21
-58.7177
0
CIRCLE
8
BLACK
10
167.31
20
-104.504
40
0.15
0
ARC
8
BLACK
10
109.67
20
-86.5591
40
0.500022
50
90.0024
51
179.996
0
ARC
8
BLACK
10
90.6203
20
-66.2215
40
0.500063
50
-179.993
51
-90.0024
0
ARC
8
BLACK
10
189.901
20
-104.322
40
0.499963
50
-180.004
51
-89.9977
0
LINE
8
BLACK
6
CONTINUOUS
10
167.31
20
-104.204
11
164.31
21
-104.204
0
ARC
8
BLACK
10
72.6573
20
-108.372
40
0.50002
50
90.0025
51
179.996
0
ARC
8
BLACK
10
162.982
20
-111.509
40
1.19984
50
-91.9852
51
-1.97077
0
LINE
8
BLACK
6
CONTINUOUS
10
168.222
20
-53.953
11
185.342
21
-49.7057
0
ARC
8
BLACK
10
160.77
20
-96.084
40
0.499937
50
-0.00721957
51
90.0024
0
ARC
8
BLACK
10
241.001
20
-72.2716
40
0.500038
50
0.0042397
51
89.9975
0
LINE
8
BLACK
6
CONTINUOUS
10
142.22
20
-85.2716
11
142.22
21
-72.2716
0
LINE
8
BLACK
6
CONTINUOUS
10
128.22
20
-104.322
11
128.22
21
-91.3216
0
ARC
8
BLACK
10
208.951
20
-48.459
40
0.499979
50
-270.003
51
-179.993
0
ARC
8
BLACK
10
109.67
20
-67.5091
40
0.500021
50
90.0025
51
179.996
0
LINE
8
BLACK
6
CONTINUOUS
10
227.501
20
-66.2216
11
227.501
21
-53.2216
0
ARC
8
BLACK
10
96.5333
20
-108.372
40
0.500021
50
90.0025
51
179.996
0
ARC
8
BLACK
10
81.0953
20
-110.372
40
0.500022
50
90.0025
51
179.996
0
LINE
8
BLACK
6
CONTINUOUS
10
237.526
20
-109.872
11
250.526
21
-109.872
0
LINE
8
BLACK
6
CONTINUOUS
10
90.6203
20
-52.7216
11
103.62
21
-52.7216
0
ARC
8
BLACK
10
103.62
20
-91.3215
40
0.499936
50
-0.00733418
51
90.0024
0
ARC
8
BLACK
10
202.901
20
-91.3216
40
0.500036
50
0.00423972
51
89.9976
0
LINE
8
BLACK
6
CONTINUOUS
10
68.0105
20
-53.2128
11
64.8423
21
-50.0341
0
LINE
8
BLACK
6
CONTINUOUS
10
123.17
20
-61.4591
11
123.17
21
-48.4591
0
ARC
8
BLACK
10
103.62
20
-72.2715
40
0.499936
50
-0.00733418
51
90.0024
0
LINE
8
BLACK
6
CONTINUOUS
10
103.62
20
-85.7716
11
90.6203
21
-85.7716
0
ARC
8
BLACK
10
67.0487
20
-128.714
40
2.50002
50
-220.095
51
-40.0948
0
ARC
8
BLACK
10
228.001
20
-91.3215
40
0.499978
50
-270.002
51
-179.993
0
LINE
8
BLACK
6
CONTINUOUS
10
260.551
20
-72.2716
11
260.551
21
-85.2716
0
LINE
8
BLACK
6
CONTINUOUS
10
203.401
20
-91.3216
11
203.401
21
-104.322
0
CIRCLE
8
BLACK
10
164.31
20
-58.4177
40
0.15
0
CIRCLE
8
BLACK
10
167.31
20
-106.304
40
0.15
0
ARC
8
BLACK
10
228.001
20
-85.2716
40
0.499964
50
-180.004
51
-89.9976
0
LINE
8
BLACK
6
CONTINUOUS
10
237.026
20
-123.372
11
237.026
21
-110.372
0
ARC
8
BLACK
10
219.569
20
-123.372
40
0.499971
50
-90.0032
51
0.00424013
0
LINE
8
BLACK
6
CONTINUOUS
10
72.6573
20
-107.872
11
78.6573
21
-107.872
0
LINE
8
BLACK
6
CONTINUOUS
10
252.464
20
-122.372
11
252.464
21
-108.372
0
LINE
8
BLACK
6
CONTINUOUS
10
258.964
20
-122.872
11
252.964
21
-122.872
0
LINE
8
BLACK
6
CONTINUOUS
10
203.401
20
-85.2716
11
203.401
21
-72.2716
0
LINE
8
BLACK
6
CONTINUOUS
10
205.611
20
-48.4704
11
205.611
21
-46.3579
0
LINE
8
BLACK
6
CONTINUOUS
10
122.67
20
-86.0591
11
109.67
21
-86.0591
0
LINE
8
BLACK
6
CONTINUOUS
10
226.71
20
-49.6704
11
260.077
21
-49.6704
0
LINE
8
BLACK
6
CONTINUOUS
10
78.6573
20
-122.872
11
72.6573
21
-122.872
0
ARC
8
BLACK
10
147.77
20
-77.0341
40
0.500021
50
90.0024
51
179.996
0
ARC
8
BLACK
10
228.001
20
-72.2715
40
0.499978
50
-270.002
51
-179.993
0
ARC
8
BLACK
10
189.901
20
-91.3215
40
0.49998
50
-270.002
51
-179.993
0
LINE
8
BLACK
6
CONTINUOUS
10
220.069
20
-110.372
11
220.069
21
-123.372
0
ARC
8
BLACK
10
78.6573
20
-108.371
40
0.499937
50
-0.00721957
51
90.0025
0
LINE
8
BLACK
6
CONTINUOUS
10
142.22
20
-53.2216
11
142.22
21
-66.2216
0
ARC
8
BLACK
10
189.901
20
-53.2215
40
0.499979
50
-270.003
51
-179.993
0
LINE
8
BLACK
6
CONTINUOUS
10
112.052
20
-109.872
11
125.052
21
-109.872
0
CIRCLE
8
BLACK
10
195.822
20
-111.147
40
1.05
0
LINE
8
BLACK
6
CONTINUOUS
10
208.951
20
-61.9591
11
221.951
21
-61.9591
0
LINE
8
BLACK
6
CONTINUOUS
10
208.451
20
-48.4591
11
208.451
21
-61.4591
0
LINE
8
BLACK
6
CONTINUOUS
10
125.552
20
-110.372
11
125.552
21
-123.372
0
ARC
8
BLACK
10
208.951
20
-99.5591
40
0.499963
50
-180.004
51
-89.9975
0
ARC
8
BLACK
10
147.77
20
-70.984
40
0.500063
50
-179.993
51
-90.0024
0
ARC
8
BLACK
10
112.051
20
-123.372
40
0.499963
50
-180.004
51
-89.9968
0
ARC
8
BLACK
10
147.77
20
-96.0841
40
0.500021
50
90.0023
51
179.996
0
LINE
8
BLACK
6
CONTINUOUS
10
208.451
20
-86.5591
11
208.451
21
-99.5591
0
LINE
8
BLACK
6
CONTINUOUS
10
189.901
20
-90.8216
11
202.901
21
-90.8216
0
ARC
8
BLACK
10
81.0953
20
-123.371
40
0.500063
50
-179.993
51
-90.0025
0
ARC
8
BLACK
10
170.851
20
-96.084
40
0.499979
50
-270.002
51
-179.993
0
CIRCLE
8
BLACK
10
164.31
20
-56.6177
40
0.15
0
ARC
8
BLACK
10
185.631
20
-50.8698
40
1.19944
50
89.998
51
103.938
0
LINE
8
BLACK
6
CONTINUOUS
10
80.5953
20
-123.372
11
80.5953
21
-110.372
0
ARC
8
BLACK
10
260.051
20
-104.322
40
0.500021
50
-89.9975
51
-0.00721896
0
ARC
8
BLACK
10
131.892
20
-125.721
40
1.19995
50
-90.0024
51
0.00654154
0
LINE
8
BLACK
6
CONTINUOUS
10
170.351
20
-70.9841
11
170.351
21
-57.9841
0
ARC
8
BLACK
10
247.051
20
-91.3215
40
0.499978
50
-270.002
51
-179.993
0
LINE
8
BLACK
6
CONTINUOUS
10
109.17
20
-48.4591
11
109.17
21
-61.4591
0
ARC
8
BLACK
10
127.21
20
-48.4703
40
1.20006
50
-179.997
51
-90
0
CIRCLE
8
BLACK
10
167.31
20
-55.4177
40
0.15
0
LINE
8
BLACK
6
CONTINUOUS
10
125.052
20
-123.872
11
112.052
21
-123.872
0
LINE
8
BLACK
6
CONTINUOUS
10
161.27
20
-57.9841
11
161.27
21
-70.9841
0
ARC
8
BLACK
10
252.964
20
-108.371
40
0.499979
50
-270.003
51
-179.993
0
CIRCLE
8
BLACK
10
167.31
20
-105.104
40
0.15
0
ARC
8
BLACK
10
102.533
20
-122.372
40
0.49998
50
-90.0024
51
0.00424006
0
LINE
8
BLACK
6
CONTINUOUS
10
260.051
20
-85.7716
11
247.051
21
-85.7716
0
ARC
8
BLACK
10
147.77
20
-57.9841
40
0.500021
50
90.0024
51
179.996
0
ARC
8
BLACK
10
107.311
20
-46.3579
40
1.2001
50
90.0047
51
179.998
0
LINE
8
BLACK
6
CONTINUOUS
10
206.069
20
-123.372
11
206.069
21
-110.372
0
LINE
8
BLACK
6
CONTINUOUS
10
160.76
20
-112.633
11
145.41
21
-112.633
0
ARC
8
BLACK
10
202.901
20
-85.2715
40
0.500022
50
-89.9976
51
-0.00733354
0
ARC
8
BLACK
10
104.911
20
-48.4704
40
1.1999
50
-90.0048
51
0.00176677
0
LINE
8
BLACK
6
CONTINUOUS
10
128.72
20
-52.7216
11
141.72
21
-52.7216
0
LINE
8
BLACK
6
CONTINUOUS
10
109.17
20
-86.5591
11
109.17
21
-99.5591
0
LINE
8
BLACK
6
CONTINUOUS
10
107.31
20
-45.1579
11
124.81
21
-45.1579
0
ARC
8
BLACK
10
199.729
20
-125.721
40
1.19986
50
-180.007
51
-89.9976
0
ARC
8
BLACK
10
109.67
20
-80.509
40
0.500063
50
-179.993
51
-90.0024
0
ARC
8
BLACK
10
258.964
20
-108.372
40
0.500037
50
0.00423972
51
89.9975
0
LINE
8
BLACK
6
CONTINUOUS
10
263.611
20
-53.2128
11
263.61
21
-123.685
0
ARC
8
BLACK
10
160.77
20
-109.084
40
0.499978
50
-90.0024
51
0.00424007
0
ARC
8
BLACK
10
84.5703
20
-66.2216
40
0.499979
50
-90.0024
51
0.00424007
0
ARC
8
BLACK
10
71.5703
20
-66.2215
40
0.500063
50
-179.993
51
-90.0025
0
ARC
8
BLACK
10
66.613
20
-48.2693
40
2.49999
50
-315.095
51
-135.095
0
LINE
8
BLACK
6
CONTINUOUS
10
147.27
20
-90.0341
11
147.27
21
-77.0341
0
LINE
8
BLACK
6
CONTINUOUS
10
84.5703
20
-66.7216
11
71.5703
21
-66.7216
0
ARC
8
BLACK
10
103.62
20
-85.2716
40
0.499979
50
-90.0024
51
0.00424007
0
ARC
8
BLACK
10
122.67
20
-48.459
40
0.499936
50
-0.00733417
51
90.0025
0
CIRCLE
8
BLACK
10
167.31
20
-57.8177
40
0.15
0
LINE
8
BLACK
6
CONTINUOUS
10
71.5703
20
-90.8216
11
84.5703
21
-90.8216
0
LINE
8
BLACK
6
CONTINUOUS
10
202.901
20
-66.7216
11
189.901
21
-66.7216
0
ARC
8
BLACK
10
228.001
20
-53.2215
40
0.499978
50
-270.002
51
-179.993
0
ARC
8
BLACK
10
258.964
20
-122.371
40
0.500021
50
-89.9976
51
-0.00733355
0
ARC
8
BLACK
10
141.72
20
-66.2216
40
0.499978
50
-90.0024
51
0.00424007
0
ARC
8
BLACK
10
168.639
20
-111.509
40
1.19986
50
-178.029
51
-88.0148
0
ARC
8
BLACK
10
103.62
20
-53.2215
40
0.499936
50
-0.00733418
51
90.0024
0
LINE
8
BLACK
6
CONTINUOUS
10
222.451
20
-61.4591
11
222.451
21
-48.4591
0
LINE
8
BLACK
6
CONTINUOUS
10
109.67
20
-67.0091
11
122.67
21
-67.0091
0
ARC
8
BLACK
10
221.951
20
-99.559
40
0.500023
50
-89.9976
51
-0.00721894
0
CIRCLE
8
BLACK
10
167.31
20
-56.0177
40
0.15
0
CIRCLE
8
BLACK
10
265.008
20
-48.2693
40
1.05
0
CIRCLE
8
BLACK
10
164.31
20
-105.704
40
0.15
0
ARC
8
BLACK
10
122.67
20
-61.4591
40
0.499978
50
-90.0024
51
0.00412548
0
ARC
8
BLACK
10
250.526
20
-123.371
40
0.500021
50
-89.9975
51
-0.00721896
0
LINE
8
BLACK
6
CONTINUOUS
10
81.0953
20
-109.872
11
94.0953
21
-109.872
0
ARC
8
BLACK
10
145.99
20
-50.8698
40
1.19944
50
76.0622
51
90.002
0
LINE
8
BLACK
6
CONTINUOUS
10
128.72
20
-90.8216
11
141.72
21
-90.8216
0
LINE
8
BLACK
6
CONTINUOUS
10
111.552
20
-123.372
11
111.552
21
-110.372
0
ARC
8
BLACK
10
260.051
20
-66.2215
40
0.500021
50
-89.9975
51
-0.00721896
0
LINE
8
BLACK
6
CONTINUOUS
10
241.501
20
-53.2216
11
241.501
21
-66.2216
0
ARC
8
BLACK
10
71.5703
20
-72.2716
40
0.500022
50
90.0025
51
179.996
0
LINE
8
BLACK
6
CONTINUOUS
10
103.62
20
-66.7216
11
90.6203
21
-66.7216
0
ARC
8
BLACK
10
219.569
20
-110.372
40
0.500037
50
0.00423929
51
89.9918
0
ARC
8
BLACK
10
241.001
20
-53.2216
40
0.500037
50
0.00412511
51
89.9975
0
ARC
8
BLACK
10
84.5703
20
-72.2715
40
0.499935
50
-0.00733418
51
90.0024
0
LINE
8
BLACK
6
CONTINUOUS
10
147.27
20
-109.084
11
147.27
21
-96.0841
0
LINE
8
BLACK
6
CONTINUOUS
10
164.31
20
-107.804
11
164.181
21
-111.55
0
LINE
8
BLACK
6
CONTINUOUS
10
96.0333
20
-122.372
11
96.0333
21
-108.372
0
LINE
8
BLACK
6
CONTINUOUS
10
170.851
20
-95.5841
11
183.851
21
-95.5841
0
LINE
8
BLACK
6
CONTINUOUS
10
167.44
20
-111.55
11
167.31
21
-107.804
0
LINE
8
BLACK
6
CONTINUOUS
10
96.5333
20
-107.872
11
102.533
21
-107.872
0
LINE
8
BLACK
6
CONTINUOUS
10
170.851
20
-76.5341
11
183.851
21
-76.5341
0
CIRCLE
8
BLACK
10
164.31
20
-107.504
40
0.15
0
ARC
8
BLACK
10
109.67
20
-99.559
40
0.500064
50
-179.993
51
-90.0024
0
LINE
8
BLACK
6
CONTINUOUS
10
208.451
20
-80.5091
11
208.451
21
-67.5091
0
LINE
8
BLACK
6
CONTINUOUS
10
206.569
20
-109.872
11
219.569
21
-109.872
0
LINE
8
BLACK
6
CONTINUOUS
10
161.27
20
-96.0841
11
161.27
21
-109.084
0
CIRCLE
8
BLACK
10
167.31
20
-57.2177
40
0.15
0
LINE
8
BLACK
6
CONTINUOUS
10
246.551
20
-85.2716
11
246.551
21
-72.2716
0
ARC
8
BLACK
10
170.851
20
-77.034
40
0.499979
50
-270.002
51
-179.993
0
LINE
8
BLACK
6
CONTINUOUS
10
145.41
20
-112.633
11
134.081
21
-114.656
0
LINE
8
BLACK
6
CONTINUOUS
10
128.72
20
-85.7716
11
141.72
21
-85.7716
0
LINE
8
BLACK
6
CONTINUOUS
10
106.111
20
-48.4704
11
106.111
21
-46.3579
0
LINE
8
BLACK
6
CONTINUOUS
10
247.051
20
-90.8216
11
260.051
21
-90.8216
0
ARC
8
BLACK
10
183.851
20
-57.9841
40
0.500037
50
0.00412512
51
89.9976
0
CIRCLE
8
BLACK
10
164.31
20
-105.104
40
0.15
0
LINE
8
BLACK
6
CONTINUOUS
10
123.17
20
-99.5591
11
123.17
21
-86.5591
0
ARC
8
BLACK
10
247.051
20
-104.322
40
0.499964
50
-180.004
51
-89.9976
0
ARC
8
BLACK
10
189.901
20
-72.2715
40
0.499979
50
-270.002
51
-179.993
0
ARC
8
BLACK
10
71.5703
20
-53.2216
40
0.500022
50
90.0025
51
179.996
0
ARC
8
BLACK
10
250.526
20
-110.372
40
0.500037
50
0.0042397
51
89.9975
0
ARC
8
BLACK
10
183.851
20
-77.0341
40
0.500037
50
0.00423971
51
89.9976
0
LINE
8
BLACK
6
CONTINUOUS
10
141.72
20
-104.822
11
128.72
21
-104.822
0
LINE
8
BLACK
6
CONTINUOUS
10
263.61
20
-123.685
11
264.893
21
-125.213
0
ARC
8
BLACK
10
221.951
20
-48.4591
40
0.500037
50
0.00412512
51
89.9975
0
LINE
8
BLACK
6
CONTINUOUS
10
241.001
20
-85.7716
11
228.001
21
-85.7716
0
LINE
8
BLACK
6
CONTINUOUS
10
241.501
20
-104.322
11
241.501
21
-91.3216
0
CIRCLE
8
BLACK
10
164.31
20
-55.4177
40
0.15
0
ARC
8
BLACK
10
141.72
20
-104.322
40
0.499978
50
-90.0023
51
0.00424007
0
CIRCLE
8
BLACK
10
167.31
20
-58.4177
40
0.15
0
CIRCLE
8
BLACK
10
164.31
20
-106.304
40
0.15
0
LINE
8
BLACK
6
CONTINUOUS
10
189.901
20
-85.7716
11
202.901
21
-85.7716
0
LINE
8
BLACK
6
CONTINUOUS
10
185.631
20
-49.6704
11
204.41
21
-49.6704
0
LINE
8
BLACK
6
CONTINUOUS
10
198.529
20
-125.72
11
198.529
21
-115.837
0
LINE
8
BLACK
6
CONTINUOUS
10
228.588
20
-122.372
11
228.588
21
-108.372
0
ARC
8
BLACK
10
208.951
20
-86.559
40
0.499979
50
-270.003
51
-179.993
0
LINE
8
BLACK
6
CONTINUOUS
10
170.851
20
-57.4841
11
183.851
21
-57.4841
0
LINE
8
BLACK
6
CONTINUOUS
10
71.8273
20
-126.92
11
68.9612
21
-130.325
0
LINE
8
BLACK
6
CONTINUOUS
10
90.6203
20
-104.822
11
103.62
21
-104.822
0
ARC
8
BLACK
10
221.951
20
-86.5591
40
0.500036
50
0.0042397
51
89.9976
0
LINE
8
BLACK
6
CONTINUOUS
10
247.051
20
-52.7216
11
260.051
21
-52.7216
0
ARC
8
BLACK
10
163.111
20
-55.1177
40
1.19999
50
-0.000286479
51
76.0667
0
LINE
8
BLACK
6
CONTINUOUS
10
184.351
20
-57.9841
11
184.351
21
-70.9841
0
LINE
8
BLACK
6
CONTINUOUS
10
94.5953
20
-110.372
11
94.5953
21
-123.372
0
LINE
8
BLACK
6
CONTINUOUS
10
222.451
20
-67.5091
11
222.451
21
-80.5091
0
LINE
8
BLACK
6
CONTINUOUS
10
71.5703
20
-52.7216
11
84.5703
21
-52.7216
0
LINE
8
BLACK
6
CONTINUOUS
10
202.901
20
-71.7716
11
189.901
21
-71.7716
0
ARC
8
BLACK
10
183.851
20
-109.084
40
0.500022
50
-89.9976
51
-0.00733354
0
LINE
8
BLACK
6
CONTINUOUS
10
68.3837
20
-46.5045
11
70.1286
21
-48.2552
0
ARC
8
BLACK
10
229.088
20
-108.371
40
0.499979
50
-270.003
51
-179.993
0
ARC
8
BLACK
10
237.526
20
-110.371
40
0.499977
50
-270.002
51
-179.993
0
LINE
8
BLACK
6
CONTINUOUS
10
228.001
20
-71.7716
11
241.001
21
-71.7716
0
LINE
8
BLACK
6
CONTINUOUS
10
189.401
20
-72.2716
11
189.401
21
-85.2716
0
ARC
8
BLACK
10
78.6573
20
-122.372
40
0.499979
50
-90.0024
51
0.00412547
0
ARC
8
BLACK
10
122.67
20
-80.5091
40
0.499979
50
-90.0024
51
0.00424007
0
LINE
8
BLACK
6
CONTINUOUS
10
206.81
20
-45.1579
11
224.31
21
-45.1579
0
LINE
8
BLACK
6
CONTINUOUS
10
122.67
20
-81.0091
11
109.67
21
-81.0091
0
ARC
8
BLACK
10
208.951
20
-67.509
40
0.499979
50
-270.003
51
-179.993
0
LINE
8
BLACK
6
CONTINUOUS
10
126.01
20
-46.3579
11
126.01
21
-48.4704
0
ARC
8
BLACK
10
141.72
20
-85.2716
40
0.499978
50
-90.0024
51
0.00424007
0
ARC
8
BLACK
10
141.72
20
-53.2215
40
0.499936
50
-0.00733417
51
90.0026
0
ARC
8
BLACK
10
226.71
20
-48.4704
40
1.19996
50
-180.002
51
-89.9952
0
LINE
8
BLACK
6
CONTINUOUS
10
133.092
20
-115.837
11
133.092
21
-125.72
0
ARC
8
BLACK
10
94.0953
20
-123.372
40
0.499979
50
-90.0024
51
0.00412547
0
LINE
8
BLACK
6
CONTINUOUS
10
225.51
20
-46.3579
11
225.51
21
-48.4704
0
LINE
8
BLACK
6
CONTINUOUS
10
104.12
20
-104.322
11
104.12
21
-91.3216
0
LINE
8
BLACK
6
CONTINUOUS
10
71.5703
20
-71.7716
11
84.5703
21
-71.7716
0
ARC
8
BLACK
10
170.851
20
-90.0341
40
0.499964
50
-180.004
51
-89.9976
0
ARC
8
BLACK
10
228.001
20
-66.2216
40
0.499964
50
-180.004
51
-89.9976
0
LINE
8
BLACK
6
CONTINUOUS
10
147.77
20
-57.4841
11
160.77
21
-57.4841
0
LINE
8
BLACK
6
CONTINUOUS
10
203.401
20
-53.2216
11
203.401
21
-66.2216
0
LINE
8
BLACK
6
CONTINUOUS
10
227.501
20
-85.2716
11
227.501
21
-72.2716
0
LINE
8
BLACK
6
CONTINUOUS
10
104.12
20
-72.2716
11
104.12
21
-85.2716
0
ARC
8
BLACK
10
125.052
20
-123.372
40
0.499929
50
-90.0081
51
0.00424049
0
LINE
8
BLACK
6
CONTINUOUS
10
235.588
20
-108.372
11
235.588
21
-122.372
0
LINE
8
BLACK
6
CONTINUOUS
10
251.026
20
-110.372
11
251.026
21
-123.372
0
LINE
8
BLACK
6
CONTINUOUS
10
65.1363
20
-127.104
11
66.7283
21
-125.213
0
ARC
8
BLACK
10
128.72
20
-104.322
40
0.500064
50
-179.993
51
-90.0024
0
ARC
8
BLACK
10
125.051
20
-110.372
40
0.500036
50
0.00423964
51
89.9968
0
LINE
8
BLACK
6
CONTINUOUS
10
90.1203
20
-91.3216
11
90.1203
21
-104.322
0
LINE
8
BLACK
6
CONTINUOUS
10
260.077
20
-49.6704
11
261.492
21
-48.2552
0
LINE
8
BLACK
6
CONTINUOUS
10
66.7283
20
-125.213
11
68.0105
21
-123.685
0
ARC
8
BLACK
10
189.901
20
-66.2216
40
0.499964
50
-180.004
51
-89.9976
0
LINE
8
BLACK
6
CONTINUOUS
10
103.62
20
-90.8216
11
90.6203
21
-90.8216
0
LINE
8
BLACK
6
CONTINUOUS
10
266.779
20
-50.0341
11
263.611
21
-53.2128
0
LINE
8
BLACK
6
CONTINUOUS
10
72.1573
20
-122.372
11
72.1573
21
-108.372
0
ARC
8
BLACK
10
90.6203
20
-85.2715
40
0.500063
50
-179.993
51
-90.0024
0
ARC
8
BLACK
10
183.851
20
-96.0841
40
0.500036
50
0.00423971
51
89.9977
0
ARC
8
BLACK
10
237.526
20
-123.372
40
0.499964
50
-180.004
51
-89.9976
0
LINE
8
BLACK
6
CONTINUOUS
10
102.533
20
-122.872
11
96.5333
21
-122.872
0
ARC
8
BLACK
10
247.051
20
-72.2715
40
0.499978
50
-270.002
51
-179.993
0
ARC
8
BLACK
10
247.051
20
-85.2716
40
0.499964
50
-180.004
51
-89.9977
0
LINE
8
BLACK
6
CONTINUOUS
10
71.0703
20
-66.2216
11
71.0703
21
-53.2216
0
LINE
8
BLACK
6
CONTINUOUS
10
85.0703
20
-91.3216
11
85.0703
21
-104.322
0
ARC
8
BLACK
10
170.851
20
-57.984
40
0.499979
50
-270.002
51
-179.993
0
ARC
8
BLACK
10
134.292
20
-115.837
40
1.20005
50
100.126
51
180
0
ARC
8
BLACK
10
109.67
20
-48.4591
40
0.500021
50
90.0025
51
179.996
0
LINE
8
BLACK
6
CONTINUOUS
10
142.22
20
-91.3216
11
142.22
21
-104.322
0
ARC
8
BLACK
10
202.901
20
-53.2216
40
0.500037
50
0.00412512
51
89.9976
0
CIRCLE
8
BLACK
10
164.31
20
-104.504
40
0.15
0
LINE
8
BLACK
6
CONTINUOUS
10
141.72
20
-66.7216
11
128.72
21
-66.7216
0
LINE
8
BLACK
6
CONTINUOUS
10
221.951
20
-47.9591
11
208.951
21
-47.9591
0
LINE
8
BLACK
6
CONTINUOUS
10
221.951
20
-86.0591
11
208.951
21
-86.0591
0
ARC
8
BLACK
10
160.77
20
-90.0341
40
0.499978
50
-90.0024
51
0.00424007
0
CIRCLE
8
BLACK
10
164.31
20
-56.0177
40
0.15
0
LINE
8
BLACK
6
CONTINUOUS
10
261.492
20
-48.2552
11
263.237
21
-46.5045
0
LINE
8
BLACK
6
CONTINUOUS
10
260.551
20
-53.2216
11
260.551
21
-66.2216
0
LINE
8
BLACK
6
CONTINUOUS
10
170.861
20
-112.633
11
168.681
21
-112.708
0
LINE
8
BLACK
6
CONTINUOUS
10
109.67
20
-100.059
11
122.67
21
-100.059
0
LINE
8
BLACK
6
CONTINUOUS
10
246.551
20
-104.322
11
246.551
21
-91.3216
0
LINE
8
BLACK
6
CONTINUOUS
10
122.67
20
-47.9591
11
109.67
21
-47.9591
0
LINE
8
BLACK
6
CONTINUOUS
10
189.401
20
-104.322
11
189.401
21
-91.3216
0
LINE
8
BLACK
6
CONTINUOUS
10
241.001
20
-90.8216
11
228.001
21
-90.8216
0
LINE
8
BLACK
6
CONTINUOUS
10
170.351
20
-109.084
11
170.351
21
-96.0841
0
LINE
8
BLACK
6
CONTINUOUS
10
183.851
20
-109.584
11
170.851
21
-109.584
0
LINE
8
BLACK
6
CONTINUOUS
10
167.31
20
-55.1177
11
164.31
21
-55.1177
0
ARC
8
BLACK
10
124.81
20
-46.3578
40
1.19994
50
-0.00300803
51
90
0
ARC
8
BLACK
10
265.008
20
-48.2693
40
2.50001
50
-44.9049
51
135.095
0
CIRCLE
8
BLACK
10
149.349
20
-52.5536
40
1.05
0
ARC
8
BLACK
10
247.051
20
-66.2216
40
0.499963
50
-180.004
51
-89.9976
0
ARC
8
BLACK
10
141.72
20
-91.3215
40
0.499936
50
-0.00721956
51
90.0024
0
LINE
8
BLACK
6
CONTINUOUS
10
104.12
20
-53.2216
11
104.12
21
-66.2216
0
ARC
8
BLACK
10
197.329
20
-115.837
40
1.20001
50
0.000334211
51
79.8737
0
ARC
8
BLACK
10
90.6203
20
-72.2716
40
0.500022
50
90.0025
51
179.996
0
ARC
8
BLACK
10
102.533
20
-108.371
40
0.499936
50
-0.00733417
51
90.0025
0
ARC
8
BLACK
10
84.5703
20
-85.2716
40
0.499979
50
-90.0023
51
0.00424007
0
LINE
8
BLACK
6
CONTINUOUS
10
241.501
20
-72.2716
11
241.501
21
-85.2716
0
ARC
8
BLACK
10
260.051
20
-53.2216
40
0.500037
50
0.00412511
51
89.9975
0
LINE
8
BLACK
6
CONTINUOUS
10
79.1573
20
-108.372
11
79.1573
21
-122.372
0
LINE
8
BLACK
6
CONTINUOUS
10
146.279
20
-49.7057
11
163.399
21
-53.953
0
ARC
8
BLACK
10
96.5333
20
-122.371
40
0.500063
50
-179.993
51
-90.0024
0
LINE
8
BLACK
6
CONTINUOUS
10
260.051
20
-104.822
11
247.051
21
-104.822
0
ARC
8
BLACK
10
109.67
20
-61.459
40
0.500063
50
-179.993
51
-90.0024
0
ARC
8
BLACK
10
147.77
20
-109.084
40
0.500064
50
-179.993
51
-90.0024
0
LINE
8
BLACK
6
CONTINUOUS
10
262.66
20
-130.325
11
259.794
21
-126.92
0
LINE
8
BLACK
6
CONTINUOUS
10
90.1203
20
-85.2716
11
90.1203
21
-72.2716
0
LINE
8
BLACK
6
CONTINUOUS
10
247.051
20
-71.7716
11
260.051
21
-71.7716
0
LINE
8
BLACK
6
CONTINUOUS
10
147.27
20
-70.9841
11
147.27
21
-57.9841
0
LINE
8
BLACK
6
CONTINUOUS
10
85.0703
20
-72.2716
11
85.0703
21
-85.2716
0
ARC
8
BLACK
10
241.001
20
-85.2715
40
0.500021
50
-89.9976
51
-0.00733355
0
LINE
8
BLACK
6
CONTINUOUS
10
222.451
20
-99.5591
11
222.451
21
-86.5591
0
LINE
8
BLACK
6
CONTINUOUS
10
202.901
20
-104.822
11
189.901
21
-104.822
0
ARC
8
BLACK
10
260.051
20
-72.2716
40
0.500037
50
0.00412511
51
89.9975
0
ARC
8
BLACK
10
206.569
20
-123.372
40
0.499963
50
-180.004
51
-89.9919
0
LINE
8
BLACK
6
CONTINUOUS
10
184.351
20
-77.0341
11
184.351
21
-90.0341
0
LINE
8
BLACK
6
CONTINUOUS
10
208.951
20
-100.059
11
221.951
21
-100.059
0
CIRCLE
8
BLACK
10
135.799
20
-111.147
40
1.05
0
ARC
8
BLACK
10
71.5703
20
-104.322
40
0.500064
50
-179.993
51
-90.0025
0
LINE
8
BLACK
6
CONTINUOUS
10
90.1203
20
-66.2216
11
90.1203
21
-53.2216
0
LINE
8
BLACK
6
CONTINUOUS
10
189.901
20
-52.7216
11
202.901
21
-52.7216
0
LINE
8
BLACK
6
CONTINUOUS
10
160.77
20
-71.4841
11
147.77
21
-71.4841
0
ARC
8
BLACK
10
224.31
20
-46.3579
40
1.20004
50
0.00181422
51
89.9953
0
ARC
8
BLACK
10
168.51
20
-55.1177
40
1.2
50
-256.067
51
-180
0
LINE
8
BLACK
6
CONTINUOUS
10
259.794
20
-126.92
11
199.729
21
-126.92
0
LINE
8
BLACK
6
CONTINUOUS
10
128.22
20
-66.2216
11
128.22
21
-53.2216
0
LINE
8
BLACK
6
CONTINUOUS
10
246.551
20
-66.2216
11
246.551
21
-53.2216
0
ARC
8
BLACK
10
235.088
20
-108.372
40
0.500036
50
0.00412512
51
89.9975
0
ARC
8
BLACK
10
241.001
20
-104.322
40
0.500021
50
-89.9976
51
-0.00733355
0
CIRCLE
8
BLACK
10
264.572
20
-128.715
40
1.05
0
LINE
8
BLACK
6
CONTINUOUS
10
85.0703
20
-53.2216
11
85.0703
21
-66.2216
0
ARC
8
BLACK
10
90.6203
20
-91.3216
40
0.500022
50
90.0024
51
179.996
0
CIRCLE
8
BLACK
10
66.613
20
-48.2693
40
1.05
0
ARC
8
BLACK
10
235.088
20
-122.371
40
0.500021
50
-89.9976
51
-0.00733355
0
LINE
8
BLACK
6
CONTINUOUS
10
147.77
20
-95.5841
11
160.77
21
-95.5841
0
CIRCLE
8
BLACK
10
167.31
20
-107.504
40
0.15
0
LINE
8
BLACK
6
CONTINUOUS
10
170.351
20
-90.0341
11
170.351
21
-77.0341
0
LINE
8
BLACK
6
CONTINUOUS
10
235.088
20
-122.872
11
229.088
21
-122.872
0
LINE
8
BLACK
6
CONTINUOUS
10
128.22
20
-72.2716
11
128.22
21
-85.2716
0
ARC
8
BLACK
10
260.051
20
-91.3216
40
0.500036
50
0.00423971
51
89.9976
0
LINE
8
BLACK
6
CONTINUOUS
10
103.033
20
-108.372
11
103.033
21
-122.372
0
ARC
8
BLACK
10
260.051
20
-85.2715
40
0.500021
50
-89.9975
51
-0.00721896
0
CIRCLE
8
BLACK
10
164.31
20
-57.8177
40
0.15
0
ARC
8
BLACK
10
241.001
20
-66.2215
40
0.500021
50
-89.9976
51
-0.00733355
0
ARC
8
BLACK
10
206.569
20
-110.372
40
0.500029
50
90.0032
51
179.996
0
ARC
8
BLACK
10
122.67
20
-99.5591
40
0.499979
50
-90.0025
51
0.00424007
0
ARC
8
BLACK
10
160.77
20
-57.984
40
0.499936
50
-0.00721957
51
90.0024
0
LINE
8
BLACK
6
CONTINUOUS
10
184.351
20
-96.0841
11
184.351
21
-109.084
0
LINE
8
BLACK
6
CONTINUOUS
10
260.551
20
-91.3216
11
260.551
21
-104.322
0
ARC
8
BLACK
10
229.088
20
-122.372
40
0.499963
50
-180.004
51
-89.9976
0
ARC
8
BLACK
10
208.951
20
-80.5091
40
0.499964
50
-180.004
51
-89.9976
0
LINE
8
BLACK
6
CONTINUOUS
10
264.893
20
-125.213
11
266.485
21
-127.104
0
ARC
8
BLACK
10
170.851
20
-70.9841
40
0.499964
50
-180.004
51
-89.9976
0
ARC
8
BLACK
10
252.964
20
-122.372
40
0.499964
50
-180.004
51
-89.9976
0
ARC
8
BLACK
10
112.052
20
-110.372
40
0.500071
50
90.0082
51
179.996
0
LINE
8
BLACK
6
CONTINUOUS
10
84.5703
20
-85.7716
11
71.5703
21
-85.7716
0
LINE
8
BLACK
6
CONTINUOUS
10
227.501
20
-91.3216
11
227.501
21
-104.322
0
LINE
8
BLACK
6
CONTINUOUS
10
186.21
20
-112.633
11
170.861
21
-112.633
0
ARC
8
BLACK
10
221.951
20
-80.509
40
0.500022
50
-89.9976
51
-0.00733354
0
ARC
8
BLACK
10
221.951
20
-67.5091
40
0.500038
50
0.00412512
51
89.9975
0
ARC
8
BLACK
10
94.0953
20
-110.371
40
0.499936
50
-0.0073342
51
90.0024
0
ARC
8
BLACK
10
183.851
20
-70.984
40
0.500021
50
-89.9976
51
-0.00733355
0
LINE
8
BLACK
6
CONTINUOUS
10
189.401
20
-66.2216
11
189.401
21
-53.2216
0
LINE
8
BLACK
6
CONTINUOUS
10
70.1286
20
-48.2552
11
71.5438
21
-49.6704
0
ARC
8
BLACK
10
90.6203
20
-104.322
40
0.500064
50
-179.993
51
-90.0024
0
ARC
8
BLACK
10
128.72
20
-72.2716
40
0.500021
50
90.0024
51
179.996
0
LINE
8
BLACK
6
CONTINUOUS
10
109.67
20
-61.9591
11
122.67
21
-61.9591
0
LINE
8
BLACK
6
CONTINUOUS
10
160.77
20
-90.5341
11
147.77
21
-90.5341
0
CIRCLE
8
BLACK
10
167.31
20
-106.904
40
0.15
0
LINE
8
BLACK
6
CONTINUOUS
10
241.001
20
-66.7216
11
228.001
21
-66.7216
0
ARC
8
BLACK
10
170.851
20
-109.084
40
0.499963
50
-180.004
51
-89.9976
0
LINE
8
BLACK
6
CONTINUOUS
10
84.5703
20
-104.822
11
71.5703
21
-104.822
0
LINE
8
BLACK
6
CONTINUOUS
10
183.851
20
-71.4841
11
170.851
21
-71.4841
0
LINE
8
BLACK
6
CONTINUOUS
10
90.6203
20
-71.7716
11
103.62
21
-71.7716
0
ARC
8
BLACK
10
202.901
20
-72.2716
40
0.500038
50
0.00412512
51
89.9976
0
LINE
8
BLACK
6
CONTINUOUS
10
71.0703
20
-104.322
11
71.0703
21
-91.3216
0
ARC
8
BLACK
10
208.951
20
-61.4591
40
0.499964
50
-180.004
51
-89.9976
0
LINE
8
BLACK
6
CONTINUOUS
10
259.464
20
-108.372
11
259.464
21
-122.372
0
ARC
8
BLACK
10
128.72
20
-85.2715
40
0.500063
50
-179.993
51
-90.0024
0
CIRCLE
8
BLACK
10
67.0487
20
-128.715
40
1.05
0
LINE
8
BLACK
6
CONTINUOUS
10
162.94
20
-112.708
11
160.76
21
-112.633
0
LINE
8
BLACK
6
CONTINUOUS
10
229.088
20
-107.872
11
235.088
21
-107.872
0
LINE
8
BLACK
6
CONTINUOUS
10
260.051
20
-66.7216
11
247.051
21
-66.7216
0
LINE
8
BLACK
6
CONTINUOUS
10
252.964
20
-107.872
11
258.964
21
-107.872
0
ARC
8
BLACK
10
160.77
20
-77.034
40
0.499936
50
-0.00721957
51
90.0024
0
CIRCLE
8
BLACK
10
167.31
20
-105.704
40
0.15
0
ARC
8
BLACK
10
147.77
20
-90.034
40
0.500063
50
-179.993
51
-90.0024
0
ARC
8
BLACK
10
90.6203
20
-53.2216
40
0.500022
50
90.0025
51
179.996
0
ARC
8
BLACK
10
84.5703
20
-91.3215
40
0.499936
50
-0.00733418
51
90.0024
0
LINE
8
BLACK
6
CONTINUOUS
10
228.001
20
-104.822
11
241.001
21
-104.822
0
LINE
8
BLACK
6
CONTINUOUS
10
167.31
20
-107.804
11
164.31
21
-107.804
0
LINE
8
BLACK
6
CONTINUOUS
10
197.54
20
-114.656
11
186.21
21
-112.633
0
LINE
8
BLACK
6
CONTINUOUS
10
147.77
20
-76.5341
11
160.77
21
-76.5341
0
LINE
8
BLACK
6
CONTINUOUS
10
123.17
20
-67.5091
11
123.17
21
-80.5091
0
LINE
8
BLACK
6
CONTINUOUS
10
109.17
20
-80.5091
11
109.17
21
-67.5091
0
ARC
8
BLACK
10
84.5703
20
-104.322
40
0.499979
50
-90.0024
51
0.00424007
0
ARC
8
BLACK
10
71.5703
20
-91.3216
40
0.500021
50
90.0024
51
179.996
0
ARC
8
BLACK
10
241.001
20
-91.3216
40
0.500036
50
0.00435429
51
89.9976
0
ARC
8
BLACK
10
84.5703
20
-53.2215
40
0.499936
50
-0.00733418
51
90.0023
0
ARC
8
BLACK
10
128.72
20
-66.2215
40
0.500063
50
-179.993
51
-90.0024
0
LINE
8
BLACK
6
CONTINUOUS
10
141.72
20
-71.7716
11
128.72
21
-71.7716
0
ARC
8
BLACK
10
189.901
20
-85.2716
40
0.499964
50
-180.004
51
-89.9976
0
ARC
8
BLACK
10
264.572
20
-128.714
40
2.49998
50
-139.905
51
40.0953
0
LINE
8
BLACK
6
CONTINUOUS
10
131.892
20
-126.92
11
71.8273
21
-126.92
0
LINE
8
BLACK
6
CONTINUOUS
10
94.0953
20
-123.872
11
81.0953
21
-123.872
0
LINE
8
BLACK
6
CONTINUOUS
10
161.27
20
-77.0341
11
161.27
21
-90.0341
0
LINE
8
BLACK
6
CONTINUOUS
10
68.0105
20
-123.685
11
68.0105
21
-53.2128
0
LINE
8
BLACK
6
CONTINUOUS
10
160.77
20
-109.584
11
147.77
21
-109.584
0
CIRCLE
8
BLACK
10
164.31
20
-106.904
40
0.15
0
ARC
8
BLACK
10
183.851
20
-90.034
40
0.500021
50
-89.9976
51
-0.00721896
0
LINE
8
BLACK
6
CONTINUOUS
10
167.31
20
-58.7177
11
164.31
21
-58.7177
0
ARC
8
BLACK
10
72.6573
20
-122.371
40
0.500064
50
-179.993
51
-90.0024
0
ARC
8
BLACK
10
128.72
20
-53.2216
40
0.500021
50
90.0024
51
179.996
0
LINE
8
BLACK
6
CONTINUOUS
10
208.951
20
-67.0091
11
221.951
21
-67.0091
0
ARC
8
BLACK
10
122.67
20
-86.559
40
0.499936
50
-0.00721957
51
90.0025
0
ARC
8
BLACK
10
103.62
20
-66.2216
40
0.499979
50
-90.0024
51
0.00412547
0
ARC
8
BLACK
10
103.62
20
-104.322
40
0.499979
50
-90.0024
51
0.00424007
0
LINE
8
BLACK
6
CONTINUOUS
10
71.5438
20
-49.6704
11
104.91
21
-49.6704
0
ARC
8
BLACK
10
141.72
20
-72.2715
40
0.499936
50
-0.00721957
51
90.0024
0
LINE
8
BLACK
6
CONTINUOUS
10
71.0703
20
-85.2716
11
71.0703
21
-72.2716
0
ARC
8
BLACK
10
128.72
20
-91.3216
40
0.50002
50
90.0024
51
179.996
0
ARC
8
BLACK
10
71.5703
20
-85.2715
40
0.500063
50
-179.993
51
-90.0025
0
ARC
8
BLACK
10
206.81
20
-46.3578
40
1.2
50
-270
51
-179.997
0
LINE
8
BLACK
6
CONTINUOUS
10
250.526
20
-123.872
11
237.526
21
-123.872
0
ARC
8
BLACK
10
202.901
20
-104.322
40
0.500022
50
-89.9976
51
-0.00733354
  0
ENDSEC
  0
EOF
