  0
SECTION
  2
HEADER
  9
$ANGBASE
  50
0.0
  9
$ANGDIR
  70
1
  9
$MEASUREMENT
  70
1
  0
ENDSEC
  0
SECTION
  2
TABLES
  0
TABLE
  2
LTYPE
  70
4
  0
LTYPE
  5
40F
  2
CONTINUOUS
  70
0
  3
Solid line
  72
65
  73
0
  40
0.0
  0
LTYPE
  5
410
  2
DASHDOT
 70
0
  3
Dash Dot ____ _ ____ _
 72
65
 73
4
 40
2.0
 49
1.25
 49
-0.25
 49
0.25
 49
-0.25
  0
LTYPE
  5
411
  2
DASHED
 70
0
  3
Dashed __ __ __ __ __
 72
65
 73
2
 40
0.75
 49
0.5
 49
-0.25
  0
LTYPE
  5
43B
  2
DOTTED
 70
0
  3
Dotted .  .  .  .
 72
65
 73
2
 40
0.2
 49
0.0
 49
-0.2
  0
ENDTAB
  0
TABLE
  2
STYLE
  70
4
  0
STYLE
  2
KICAD
  70
0
  40
0
  41
1
  42
1
  50
0
  71
0
  3
isocp.shx
  0
STYLE
  2
KICADB
  70
0
  40
0
  41
1
  42
1
  50
0
  71
0
  3
isocp.shx
  0
STYLE
  2
KICADI
  70
0
  40
0
  41
1
  42
1
  50
15
  71
0
  3
isocp.shx
  0
STYLE
  2
KICADBI
  70
0
  40
0
  41
1
  42
1
  50
15
  71
0
  3
isocp.shx
  0
ENDTAB
  0
TABLE
  2
LAYER
  70
1
  0
LAYER
  2
BLACK
  70
0
  62
7
  6
CONTINUOUS
  0
ENDTAB
  0
ENDSEC
  0
SECTION
  2
ENTITIES
0
LINE
8
BLACK
6
CONTINUOUS
10
164.310498999999993
20
-58.7177059999999997
11
164.3104999999999905
21
-104.203723999999994
0
ARC
8
BLACK
10
221.9506789999999796
20
-61.4590199999999953
40
0.5000425018481118
50
-89.99524486
51
-0.00498432
0
ARC
8
BLACK
10
228.0006919999999866
20
-104.3215919999999954
40
0.4999710008410487
50
-180.00332335
51
-89.99667665
0
LINE
8
BLACK
6
CONTINUOUS
10
221.9507209999999873
20
-81.0090629999999976
11
208.9507209999999873
21
-81.0090639999999951
0
LINE
8
BLACK
6
CONTINUOUS
10
127.2104999999999961
20
-49.6703619999999972
11
145.9903589999999838
21
-49.6703629999999947
0
CIRCLE
8
BLACK
10
167.310498999999993
20
-56.6177059999999983
40
0.15
0
ARC
8
BLACK
10
160.7703070000000025
20
-70.9840919999999898
40
0.4999710008560596
50
-90.00320875
51
0.00343794
0
LINE
8
BLACK
6
CONTINUOUS
10
219.5694719999999904
20
-123.8715629999999948
11
206.5694719999999904
21
-123.8715639999999922
0
CIRCLE
8
BLACK
10
164.310498999999993
20
-57.2177059999999997
40
0.15
0
LINE
8
BLACK
6
CONTINUOUS
10
228.0007209999999986
20
-52.7215640000000008
11
241.0007209999999986
21
-52.7215629999999962
0
ARC
8
BLACK
10
247.0506779999999765
20
-53.2215209999999956
40
0.4999570018071567
50
-270.00469866
51
-179.99507215
0
LINE
8
BLACK
6
CONTINUOUS
10
183.850720999999993
20
-90.5340629999999891
11
170.850720999999993
21
-90.5340640000000008
0
ARC
8
BLACK
10
122.6703210000000013
20
-67.50902099999999
40
0.4999575017644062
50
-0.00475597
51
90.00498515
0
ARC
8
BLACK
10
202.9006799999999942
20
-66.2215190000000007
40
0.5000430018683477
50
-89.99530216
51
-0.00504162
0
CIRCLE
8
BLACK
10
182.2720410000000015
20
-52.5536109999999965
40
1.050001
0
ARC
8
BLACK
10
204.4104689999999778
20
-48.470329999999997
40
1.2000310004264476
50
-89.99851990
51
-0.00152785
0
LINE
8
BLACK
6
CONTINUOUS
10
167.3104999999999905
20
-104.203723999999994
11
167.3105009999999879
21
-58.7177059999999997
0
CIRCLE
8
BLACK
10
167.3104999999999905
20
-104.5037239999999912
40
0.15
0
ARC
8
BLACK
10
109.6703059999999965
20
-86.5590929999999901
40
0.500029000855949
50
90.00320837
51
179.99656244
0
ARC
8
BLACK
10
90.6203199999999924
20
-66.2215199999999982
40
0.5000420018273514
50
-179.99507297
51
-90.00481244
0
ARC
8
BLACK
10
189.9006919999999923
20
-104.3215919999999954
40
0.4999705008282994
50
-180.00338064
51
-89.99684854
0
LINE
8
BLACK
6
CONTINUOUS
10
167.3104999999999905
20
-104.203723999999994
11
164.3104999999999905
21
-104.203723999999994
0
ARC
8
BLACK
10
72.6573080000000004
20
-108.3715909999999951
40
0.5000285008542057
50
90.00349485
51
179.99673434
0
ARC
8
BLACK
10
162.9819909999999936
20
-111.5090069999999969
40
1.1998489283089633
50
-91.98482325
51
-1.97037275
0
LINE
8
BLACK
6
CONTINUOUS
10
168.2215510000000052
20
-53.9530129999999986
11
185.3416909999999973
21
-49.7056709999999953
0
ARC
8
BLACK
10
160.7703209999999956
20
-96.0840209999999928
40
0.4999580017641482
50
-0.00481325
51
90.00481325
0
ARC
8
BLACK
10
241.0006909999999891
20
-72.2715910000000008
40
0.500030000862441
50
0.00332295
51
89.99656246
0
LINE
8
BLACK
6
CONTINUOUS
10
142.2202780000000075
20
-85.2715630000000004
11
142.220279000000005
21
-72.2715630000000004
0
LINE
8
BLACK
6
CONTINUOUS
10
128.2202780000000075
20
-104.3215629999999976
11
128.2202800000000025
21
-91.3215629999999976
0
ARC
8
BLACK
10
208.9506779999999821
20
-48.4590209999999999
40
0.4999575018278965
50
-270.00498515
51
-179.99512944
0
ARC
8
BLACK
10
109.6703079999999915
20
-67.509090999999998
40
0.5000295008176963
50
90.00349484
51
179.99684893
0
LINE
8
BLACK
6
CONTINUOUS
10
227.5007209999999986
20
-66.2215640000000008
11
227.5007209999999986
21
-53.2215640000000008
0
ARC
8
BLACK
10
96.5333069999999935
20
-108.3715919999999926
40
0.500028500833704
50
90.00338026
51
179.99673433
0
ARC
8
BLACK
10
81.0953069999999911
20
-110.3715919999999926
40
0.5000295008701986
50
90.00338025
51
179.99661975
0
LINE
8
BLACK
6
CONTINUOUS
10
237.5257209999999759
20
-109.8715639999999922
11
250.5257209999999759
21
-109.8715629999999948
0
LINE
8
BLACK
6
CONTINUOUS
10
90.6202789999999965
20
-52.7215629999999962
11
103.6202789999999965
21
-52.7215640000000008
0
ARC
8
BLACK
10
103.6203209999999899
20
-91.32152099999999
40
0.4999570018276473
50
-0.00492785
51
90.00481326
0
ARC
8
BLACK
10
202.9006919999999923
20
-91.3215919999999954
40
0.5000280008409529
50
0.00332297
51
89.99667703
0
LINE
8
BLACK
6
CONTINUOUS
10
68.0104999999999933
20
-53.2128389999999953
11
64.8423099999999977
21
-50.034123000000001
0
LINE
8
BLACK
6
CONTINUOUS
10
123.1702779999999962
20
-61.4590639999999979
11
123.1702789999999936
21
-48.4590639999999979
0
ARC
8
BLACK
10
103.6203209999999899
20
-72.2715209999999928
40
0.4999570018276473
50
-0.00492785
51
90.00481326
0
LINE
8
BLACK
6
CONTINUOUS
10
103.6202789999999965
20
-85.7715639999999979
11
90.6202789999999965
21
-85.7715630000000004
0
ARC
8
BLACK
10
67.0487150000000014
20
-128.7145129999999824
40
2.5000000033376111
50
-220.09533096
51
-40.09477746
0
ARC
8
BLACK
10
228.0006779999999935
20
-91.32152099999999
40
0.4999570018276661
50
-270.00481326
51
-179.99507215
0
LINE
8
BLACK
6
CONTINUOUS
10
260.5507220000000075
20
-72.2715639999999979
11
260.55072100000001
21
-85.2715639999999979
0
LINE
8
BLACK
6
CONTINUOUS
10
203.4007199999999784
20
-91.3215629999999976
11
203.4007220000000018
21
-104.3215629999999976
0
CIRCLE
8
BLACK
10
164.310498999999993
20
-58.4177059999999955
40
0.15
0
CIRCLE
8
BLACK
10
167.3104999999999905
20
-106.3037239999999883
40
0.15
0
ARC
8
BLACK
10
228.0006919999999866
20
-85.2715919999999983
40
0.4999715008487904
50
-180.00338064
51
-89.99673395
0
LINE
8
BLACK
6
CONTINUOUS
10
237.0257209999999759
20
-123.3715639999999922
11
237.0257220000000018
21
-110.3715629999999948
0
ARC
8
BLACK
10
219.5695039999999949
20
-123.3715949999999992
40
0.4999670010605785
50
-90.00366718
51
0.00378177
0
LINE
8
BLACK
6
CONTINUOUS
10
72.6572790000000026
20
-107.8715629999999948
11
78.6572779999999909
21
-107.8715629999999948
0
LINE
8
BLACK
6
CONTINUOUS
10
252.4637209999999925
20
-122.3715639999999922
11
252.46372199999999
21
-108.3715639999999922
0
LINE
8
BLACK
6
CONTINUOUS
10
258.9637209999999641
20
-122.8715639999999922
11
252.9637209999999925
21
-122.8715639999999922
0
LINE
8
BLACK
6
CONTINUOUS
10
203.4007220000000018
20
-85.2715639999999979
11
203.4007210000000043
21
-72.2715639999999979
0
LINE
8
BLACK
6
CONTINUOUS
10
205.6105000000000018
20
-48.470362999999999
11
205.6105000000000018
21
-46.3578619999999972
0
LINE
8
BLACK
6
CONTINUOUS
10
122.6702779999999962
20
-86.0590639999999922
11
109.6702789999999936
21
-86.0590629999999948
0
LINE
8
BLACK
6
CONTINUOUS
10
226.7104999999999961
20
-49.6703629999999947
11
260.0771889999999757
21
-49.6703629999999947
0
LINE
8
BLACK
6
CONTINUOUS
10
78.6572790000000026
20
-122.8715639999999922
11
72.6572790000000026
21
-122.8715639999999922
0
ARC
8
BLACK
10
147.770308
20
-77.0340920000000011
40
0.5000290008409513
50
90.00332296
51
179.99667704
0
ARC
8
BLACK
10
228.0006779999999935
20
-72.2715209999999928
40
0.4999570018276661
50
-270.00481326
51
-179.99507215
0
ARC
8
BLACK
10
189.9006779999999992
20
-91.32152099999999
40
0.4999580017211465
50
-270.00492785
51
-179.99530134
0
LINE
8
BLACK
6
CONTINUOUS
10
220.069470999999993
20
-110.3715629999999948
11
220.069470999999993
21
-123.3715629999999948
0
ARC
8
BLACK
10
78.6573199999999986
20
-108.3715199999999896
40
0.4999580017856596
50
-0.00481326
51
90.00492785
0
LINE
8
BLACK
6
CONTINUOUS
10
142.220279000000005
20
-53.2215640000000008
11
142.2202780000000075
21
-66.2215630000000033
0
ARC
8
BLACK
10
189.9006779999999992
20
-53.2215209999999956
40
0.4999575018504028
50
-270.00509975
51
-179.99512943
0
LINE
8
BLACK
6
CONTINUOUS
10
112.0515279999999905
20
-109.8715629999999948
11
125.0515279999999905
21
-109.8715639999999922
0
CIRCLE
8
BLACK
10
195.8219339999999988
20
-111.1465869999999967
40
1.050001
0
LINE
8
BLACK
6
CONTINUOUS
10
208.9507209999999873
20
-61.9590639999999979
11
221.9507209999999873
21
-61.9590630000000004
0
LINE
8
BLACK
6
CONTINUOUS
10
208.4507209999999873
20
-48.4590639999999979
11
208.4507219999999847
21
-61.4590639999999979
0
LINE
8
BLACK
6
CONTINUOUS
10
125.5515289999999879
20
-110.3715629999999948
11
125.5515289999999879
21
-123.3715629999999948
0
ARC
8
BLACK
10
208.9506920000000036
20
-99.5590919999999926
40
0.4999710008625446
50
-180.00332335
51
-89.99656206
0
ARC
8
BLACK
10
147.7703199999999981
20
-70.984020000000001
40
0.5000420018273438
50
-179.99507297
51
-90.00481244
0
ARC
8
BLACK
10
112.0514949999999885
20
-123.3715949999999992
40
0.4999670010605624
50
-180.00378177
51
-89.99633282
0
ARC
8
BLACK
10
147.7703070000000025
20
-96.0840919999999983
40
0.5000285008282132
50
90.00315108
51
179.99661973
0
LINE
8
BLACK
6
CONTINUOUS
10
208.4507209999999873
20
-86.5590629999999948
11
208.4507209999999873
21
-99.5590629999999948
0
LINE
8
BLACK
6
CONTINUOUS
10
189.9007210000000043
20
-90.8215639999999951
11
202.9007210000000043
21
-90.8215639999999951
0
ARC
8
BLACK
10
81.0953209999999984
20
-123.3715210000000013
40
0.5000420017853527
50
-179.99518757
51
-90.00492703
0
ARC
8
BLACK
10
170.8506789999999853
20
-96.0840209999999928
40
0.4999580017641482
50
-270.00481325
51
-179.99518675
0
CIRCLE
8
BLACK
10
164.310498999999993
20
-56.6177059999999983
40
0.15
0
ARC
8
BLACK
10
185.6305699999999774
20
-50.8698029999999974
40
1.1994406209215993
50
89.99662675
51
103.93637437
0
LINE
8
BLACK
6
CONTINUOUS
10
80.5952789999999908
20
-123.3715639999999922
11
80.5952779999999933
21
-110.3715629999999948
0
ARC
8
BLACK
10
260.0506780000000049
20
-104.32152099999999
40
0.5000425017640845
50
-89.99501569
51
-0.00475513
0
ARC
8
BLACK
10
131.8918429999999944
20
-125.7204559999999987
40
1.1999060036246598
50
-90.00448852
51
0.00444077
0
LINE
8
BLACK
6
CONTINUOUS
10
170.3507219999999904
20
-70.9840629999999919
11
170.350720999999993
21
-57.984062999999999
0
ARC
8
BLACK
10
247.0506779999999765
20
-91.32152099999999
40
0.4999570018276661
50
-270.00481326
51
-179.99507215
0
LINE
8
BLACK
6
CONTINUOUS
10
109.1702789999999936
20
-48.4590639999999979
11
109.1702779999999962
21
-61.4590639999999979
0
ARC
8
BLACK
10
127.2105299999999914
20
-48.470329999999997
40
1.2000310004264461
50
-179.99847215
51
-90.00148010
0
CIRCLE
8
BLACK
10
167.310498999999993
20
-55.4177059999999955
40
0.15
0
LINE
8
BLACK
6
CONTINUOUS
10
125.0515279999999905
20
-123.8715639999999922
11
112.0515279999999905
21
-123.8715629999999948
0
LINE
8
BLACK
6
CONTINUOUS
10
161.2702789999999879
20
-57.984062999999999
11
161.2702779999999905
21
-70.9840629999999919
0
ARC
8
BLACK
10
252.9636789999999849
20
-108.3715199999999896
40
0.499958001785641
50
-270.00492785
51
-179.99518674
0
CIRCLE
8
BLACK
10
167.3104999999999905
20
-105.1037239999999997
40
0.15
0
ARC
8
BLACK
10
102.533307999999991
20
-122.3715909999999951
40
0.4999715008328024
50
-90.00338064
51
0.00326605
0
LINE
8
BLACK
6
CONTINUOUS
10
260.0507220000000075
20
-85.7715630000000004
11
247.0507219999999791
21
-85.7715639999999979
0
ARC
8
BLACK
10
147.770308
20
-57.9840909999999994
40
0.5000290008044564
50
90.00332296
51
179.99679163
0
ARC
8
BLACK
10
107.3105679999999893
20
-46.3579310000000007
40
1.2000690019421816
50
90.00324657
51
179.99670568
0
LINE
8
BLACK
6
CONTINUOUS
10
206.069470999999993
20
-123.3715629999999948
11
206.069470999999993
21
-110.3715629999999948
0
LINE
8
BLACK
6
CONTINUOUS
10
160.7604999999999791
20
-112.6328630000000004
11
145.4104999999999848
21
-112.6328630000000004
0
ARC
8
BLACK
10
202.9006789999999967
20
-85.2715199999999953
40
0.5000425018481118
50
-89.99524486
51
-0.00498432
0
ARC
8
BLACK
10
104.9105679999999978
20
-48.4704309999999978
40
1.1999310019682334
50
-90.00329469
51
0.00324695
0
LINE
8
BLACK
6
CONTINUOUS
10
128.720279000000005
20
-52.7215629999999962
11
141.7202769999999816
21
-52.7215640000000008
0
LINE
8
BLACK
6
CONTINUOUS
10
109.1702779999999962
20
-86.5590629999999948
11
109.1702779999999962
21
-99.5590629999999948
0
LINE
8
BLACK
6
CONTINUOUS
10
107.3104999999999905
20
-45.157862999999999
11
124.8104999999999905
21
-45.157862999999999
0
ARC
8
BLACK
10
199.729155999999989
20
-125.7204559999999987
40
1.1999060036246585
50
-180.00444077
51
-89.99551148
0
ARC
8
BLACK
10
109.6703199999999896
20
-80.5090199999999925
40
0.5000425018481042
50
-179.99501568
51
-90.00475514
0
ARC
8
BLACK
10
258.963690999999983
20
-108.3715909999999951
40
0.5000285008542036
50
0.00326566
51
89.99650515
0
LINE
8
BLACK
6
CONTINUOUS
10
263.6105000000000018
20
-53.2128389999999953
11
263.6104990000000043
21
-123.685378
0
ARC
8
BLACK
10
160.7703070000000025
20
-109.0840919999999983
40
0.4999705008488117
50
-90.00326605
51
0.00338065
0
ARC
8
BLACK
10
84.5703079999999972
20
-66.2215920000000011
40
0.4999710008410487
50
-90.00332335
51
0.00332335
0
ARC
8
BLACK
10
71.5703209999999928
20
-66.2215209999999956
40
0.5000420017853452
50
-179.99518757
51
-90.00492703
0
ARC
8
BLACK
10
66.6130079999999936
20
-48.2692920000000001
40
2.499999969634616
50
-315.09498119
51
-135.09507928
0
LINE
8
BLACK
6
CONTINUOUS
10
147.2702789999999879
20
-90.0340629999999891
11
147.2702789999999879
21
-77.0340630000000033
0
LINE
8
BLACK
6
CONTINUOUS
10
84.5702780000000018
20
-66.7215640000000008
11
71.5702780000000018
21
-66.7215630000000033
0
ARC
8
BLACK
10
103.6203069999999968
20
-85.2715919999999983
40
0.499971500848795
50
-90.00326605
51
0.00338064
0
ARC
8
BLACK
10
122.6703210000000013
20
-48.4590209999999999
40
0.4999575018279093
50
-0.00487056
51
90.00498515
0
CIRCLE
8
BLACK
10
167.310498999999993
20
-57.817705999999994
40
0.15
0
LINE
8
BLACK
6
CONTINUOUS
10
71.5702789999999993
20
-90.8215629999999976
11
84.5702789999999993
21
-90.8215639999999951
0
LINE
8
BLACK
6
CONTINUOUS
10
202.9007210000000043
20
-66.7215630000000033
11
189.9007210000000043
21
-66.7215640000000008
0
ARC
8
BLACK
10
228.0006779999999935
20
-53.2215209999999956
40
0.4999570018276661
50
-270.00481326
51
-179.99507215
0
ARC
8
BLACK
10
258.9636780000000158
20
-122.3715210000000013
40
0.5000425018060964
50
-89.99513027
51
-0.00486973
0
ARC
8
BLACK
10
141.7203069999999911
20
-66.2215920000000011
40
0.4999710008560596
50
-90.00320875
51
0.00343794
0
ARC
8
BLACK
10
168.6390079999999898
20
-111.5090069999999969
40
1.1998489283089655
50
-178.02962725
51
-88.01517675
0
ARC
8
BLACK
10
103.6203209999999899
20
-53.2215209999999956
40
0.4999570018276548
50
-0.00492785
51
90.00481326
0
LINE
8
BLACK
6
CONTINUOUS
10
222.4507219999999847
20
-61.4590639999999979
11
222.4507209999999873
21
-48.4590639999999979
0
LINE
8
BLACK
6
CONTINUOUS
10
109.6702779999999962
20
-67.0090620000000001
11
122.6702779999999962
21
-67.0090639999999951
0
ARC
8
BLACK
10
221.9506789999999796
20
-99.5590199999999896
40
0.5000435017846107
50
-89.99524487
51
-0.00486972
0
CIRCLE
8
BLACK
10
167.310498999999993
20
-56.0177059999999969
40
0.15
0
CIRCLE
8
BLACK
10
265.007992999999999
20
-48.269289999999998
40
1.05
0
CIRCLE
8
BLACK
10
164.3104999999999905
20
-105.703723999999994
40
0.15
0
ARC
8
BLACK
10
122.670306999999994
20
-61.4590919999999983
40
0.4999710008195443
50
-90.00320875
51
0.00332334
0
ARC
8
BLACK
10
250.5256779999999992
20
-123.3715210000000013
40
0.500042001785334
50
-89.99507297
51
-0.00481243
0
LINE
8
BLACK
6
CONTINUOUS
10
81.0952789999999908
20
-109.8715629999999948
11
94.0952789999999908
21
-109.8715639999999922
0
ARC
8
BLACK
10
145.990429000000006
20
-50.8698029999999974
40
1.1994406209215969
50
76.06362563
51
90.00337325
0
LINE
8
BLACK
6
CONTINUOUS
10
128.720279000000005
20
-90.8215639999999951
11
141.720279000000005
21
-90.8215639999999951
0
LINE
8
BLACK
6
CONTINUOUS
10
111.5515289999999879
20
-123.3715629999999948
11
111.5515289999999879
21
-110.3715629999999948
0
ARC
8
BLACK
10
260.0506780000000049
20
-66.2215209999999956
40
0.500042001785334
50
-89.99507297
51
-0.00481243
0
LINE
8
BLACK
6
CONTINUOUS
10
241.5007219999999961
20
-53.2215640000000008
11
241.5007209999999986
21
-66.2215640000000008
0
ARC
8
BLACK
10
71.5703069999999997
20
-72.2715919999999983
40
0.5000295008337023
50
90.00338025
51
179.99673434
0
LINE
8
BLACK
6
CONTINUOUS
10
103.6202789999999965
20
-66.7215640000000008
11
90.6202789999999965
21
-66.7215630000000033
0
ARC
8
BLACK
10
219.5694159999999897
20
-110.3716159999999888
40
0.500054002987175
50
0.00618727
51
89.99369814
0
ARC
8
BLACK
10
241.0006919999999866
20
-53.2215920000000011
40
0.5000295008336996
50
0.00326566
51
89.99661975
0
ARC
8
BLACK
10
84.5703209999999928
20
-72.2715209999999928
40
0.4999565018064072
50
-0.00487056
51
90.00487056
0
LINE
8
BLACK
6
CONTINUOUS
10
147.2702789999999879
20
-109.0840630000000004
11
147.2702789999999879
21
-96.0840630000000004
0
LINE
8
BLACK
6
CONTINUOUS
10
164.3104999999999905
20
-107.8037239999999883
11
164.1811309999999935
21
-111.5502619999999894
0
LINE
8
BLACK
6
CONTINUOUS
10
96.0332789999999932
20
-122.3715639999999922
11
96.0332789999999932
21
-108.3715639999999922
0
LINE
8
BLACK
6
CONTINUOUS
10
170.850720999999993
20
-95.5840630000000004
11
183.850720999999993
21
-95.5840639999999979
0
LINE
8
BLACK
6
CONTINUOUS
10
167.4398689999999874
20
-111.5502619999999894
11
167.3104999999999905
21
-107.8037239999999883
0
LINE
8
BLACK
6
CONTINUOUS
10
96.5332779999999957
20
-107.8715639999999922
11
102.5332779999999957
21
-107.8715639999999922
0
LINE
8
BLACK
6
CONTINUOUS
10
170.850720999999993
20
-76.5340640000000008
11
183.850720999999993
21
-76.5340630000000033
0
CIRCLE
8
BLACK
10
164.3104999999999905
20
-107.5037239999999912
40
0.15
0
ARC
8
BLACK
10
109.6703199999999896
20
-99.5590199999999896
40
0.5000435017845938
50
-179.99513028
51
-90.00475513
0
LINE
8
BLACK
6
CONTINUOUS
10
208.4507209999999873
20
-80.5090629999999976
11
208.4507209999999873
21
-67.5090629999999976
0
LINE
8
BLACK
6
CONTINUOUS
10
206.5694719999999904
20
-109.8715639999999922
11
219.5694719999999904
21
-109.8715629999999948
0
LINE
8
BLACK
6
CONTINUOUS
10
161.2702789999999879
20
-96.0840630000000004
11
161.2702779999999905
21
-109.0840630000000004
0
CIRCLE
8
BLACK
10
167.310498999999993
20
-57.2177059999999997
40
0.15
0
LINE
8
BLACK
6
CONTINUOUS
10
246.5507209999999816
20
-85.2715630000000004
11
246.5507219999999791
21
-72.2715630000000004
0
ARC
8
BLACK
10
170.8506779999999878
20
-77.0340209999999956
40
0.4999575017429057
50
-270.00487055
51
-179.99524404
0
LINE
8
BLACK
6
CONTINUOUS
10
145.4104999999999848
20
-112.6328630000000004
11
134.0808159999999987
21
-114.6558780000000013
0
LINE
8
BLACK
6
CONTINUOUS
10
128.720279000000005
20
-85.7715630000000004
11
141.720279000000005
21
-85.7715639999999979
0
LINE
8
BLACK
6
CONTINUOUS
10
106.1105000000000018
20
-48.470362999999999
11
106.1105000000000018
21
-46.3578619999999972
0
LINE
8
BLACK
6
CONTINUOUS
10
247.0507209999999816
20
-90.8215639999999951
11
260.05072100000001
21
-90.8215629999999976
0
ARC
8
BLACK
10
183.8506909999999834
20
-57.9840909999999994
40
0.500029000804452
50
0.00320837
51
89.99667704
0
CIRCLE
8
BLACK
10
164.3104999999999905
20
-105.1037239999999997
40
0.15
0
LINE
8
BLACK
6
CONTINUOUS
10
123.1702789999999936
20
-99.5590629999999948
11
123.1702789999999936
21
-86.5590629999999948
0
ARC
8
BLACK
10
247.050691999999998
20
-104.3215919999999954
40
0.4999715008487904
50
-180.00338064
51
-89.99673395
0
ARC
8
BLACK
10
189.9006779999999992
20
-72.2715209999999928
40
0.4999575017429057
50
-270.00487055
51
-179.99524404
0
ARC
8
BLACK
10
71.5703069999999997
20
-53.2215920000000011
40
0.5000295008337023
50
90.00338025
51
179.99673434
0
ARC
8
BLACK
10
250.5256919999999923
20
-110.3715919999999926
40
0.5000295008701986
50
0.00338025
51
89.99661975
0
ARC
8
BLACK
10
183.8506919999999809
20
-77.0340920000000011
40
0.5000290008409513
50
0.00332296
51
89.99667704
0
LINE
8
BLACK
6
CONTINUOUS
10
141.7202800000000025
20
-104.8215629999999976
11
128.720279000000005
21
-104.8215639999999951
0
LINE
8
BLACK
6
CONTINUOUS
10
263.6104990000000043
20
-123.685378
11
264.8927410000000009
21
-125.2134929999999997
0
ARC
8
BLACK
10
221.9506909999999777
20
-48.4590910000000008
40
0.5000290008259511
50
0.00320837
51
89.99656245
0
LINE
8
BLACK
6
CONTINUOUS
10
241.0007209999999986
20
-85.7715630000000004
11
228.0007209999999986
21
-85.7715639999999979
0
LINE
8
BLACK
6
CONTINUOUS
10
241.5007209999999986
20
-104.3215629999999976
11
241.5007219999999961
21
-91.3215620000000001
0
CIRCLE
8
BLACK
10
164.310498999999993
20
-55.4177059999999955
40
0.15
0
ARC
8
BLACK
10
141.7203069999999911
20
-104.3215919999999954
40
0.4999705008283056
50
-90.00315146
51
0.00338064
0
CIRCLE
8
BLACK
10
167.310498999999993
20
-58.4177059999999955
40
0.15
0
CIRCLE
8
BLACK
10
164.3104999999999905
20
-106.3037239999999883
40
0.15
0
LINE
8
BLACK
6
CONTINUOUS
10
189.9007210000000043
20
-85.7715639999999979
11
202.9007210000000043
21
-85.7715630000000004
0
LINE
8
BLACK
6
CONTINUOUS
10
185.6306409999999971
20
-49.6703629999999947
11
204.4104999999999848
21
-49.6703619999999972
0
LINE
8
BLACK
6
CONTINUOUS
10
198.5292499999999905
20
-125.7203629999999919
11
198.5292499999999905
21
-115.8371929999999992
0
LINE
8
BLACK
6
CONTINUOUS
10
228.5877199999999903
20
-122.3715629999999948
11
228.5877209999999877
21
-108.3715639999999922
0
ARC
8
BLACK
10
208.9506779999999821
20
-86.5590210000000013
40
0.4999575017643985
50
-270.00498515
51
-179.99524403
0
LINE
8
BLACK
6
CONTINUOUS
10
170.850720999999993
20
-57.4840639999999965
11
183.850720999999993
21
-57.484062999999999
0
LINE
8
BLACK
6
CONTINUOUS
10
71.8273360000000025
20
-126.9203619999999972
11
68.9611659999999915
21
-130.3246479999999963
0
LINE
8
BLACK
6
CONTINUOUS
10
90.6202789999999965
20
-104.8215639999999951
11
103.6202789999999965
21
-104.8215629999999976
0
ARC
8
BLACK
10
221.9506930000000011
20
-86.5590929999999901
40
0.5000290008559545
50
0.00343756
51
89.99679163
0
LINE
8
BLACK
6
CONTINUOUS
10
247.0507199999999841
20
-52.7215640000000008
11
260.05072100000001
21
-52.7215629999999962
0
ARC
8
BLACK
10
163.1105019999999968
20
-55.1177019999999942
40
1.1999968609506619
50
-0.00015591
51
76.06684737
0
LINE
8
BLACK
6
CONTINUOUS
10
184.350720999999993
20
-57.9840639999999965
11
184.350720999999993
21
-70.9840640000000036
0
LINE
8
BLACK
6
CONTINUOUS
10
94.5952779999999933
20
-110.3715629999999948
11
94.5952789999999908
21
-123.3715639999999922
0
LINE
8
BLACK
6
CONTINUOUS
10
222.4507209999999873
20
-67.5090639999999951
11
222.4507219999999847
21
-80.5090639999999951
0
LINE
8
BLACK
6
CONTINUOUS
10
71.5702789999999993
20
-52.7215629999999962
11
84.5702799999999968
21
-52.7215640000000008
0
LINE
8
BLACK
6
CONTINUOUS
10
202.9007210000000043
20
-71.771562000000003
11
189.9007210000000043
21
-71.7715639999999979
0
ARC
8
BLACK
10
183.8506789999999853
20
-109.0840199999999953
40
0.5000430018273589
50
-89.99518757
51
-0.00492702
0
LINE
8
BLACK
6
CONTINUOUS
10
68.383702999999997
20
-46.5044559999999976
11
70.128627999999992
21
-48.2551789999999983
0
ARC
8
BLACK
10
229.0876779999999826
20
-108.3715210000000013
40
0.4999575018278965
50
-270.00498515
51
-179.99512944
0
ARC
8
BLACK
10
237.5256789999999967
20
-110.3715199999999896
40
0.4999565018484154
50
-270.00475597
51
-179.99501485
0
LINE
8
BLACK
6
CONTINUOUS
10
228.0007209999999986
20
-71.7715639999999979
11
241.0007209999999986
21
-71.7715630000000004
0
LINE
8
BLACK
6
CONTINUOUS
10
189.4007210000000043
20
-72.2715630000000004
11
189.4007220000000018
21
-85.2715630000000004
0
ARC
8
BLACK
10
78.657307000000003
20
-122.3715919999999926
40
0.4999715008122962
50
-90.00326605
51
0.00326605
0
ARC
8
BLACK
10
122.670306999999994
20
-80.5090919999999954
40
0.499971500848795
50
-90.00326605
51
0.00338064
0
LINE
8
BLACK
6
CONTINUOUS
10
206.8104999999999905
20
-45.157862999999999
11
224.3104999999999905
21
-45.157862999999999
0
LINE
8
BLACK
6
CONTINUOUS
10
122.6702789999999936
20
-81.0090639999999951
11
109.6702789999999936
21
-81.0090629999999976
0
ARC
8
BLACK
10
208.9506779999999821
20
-67.50902099999999
40
0.4999575017643985
50
-270.00498515
51
-179.99524403
0
LINE
8
BLACK
6
CONTINUOUS
10
126.0104999999999933
20
-46.3578619999999972
11
126.0104999999999933
21
-48.470362999999999
0
ARC
8
BLACK
10
141.7203069999999911
20
-85.2715919999999983
40
0.4999710008560596
50
-90.00320875
51
0.00343794
0
ARC
8
BLACK
10
141.7203209999999842
20
-53.2215209999999956
40
0.4999575018504167
50
-0.00487057
51
90.00509975
0
ARC
8
BLACK
10
226.7104309999999998
20
-48.4704309999999978
40
1.1999310019682377
50
-180.00324695
51
-89.99670531
0
LINE
8
BLACK
6
CONTINUOUS
10
133.0917499999999905
20
-115.8371929999999992
11
133.0917499999999905
21
-125.7203629999999919
0
ARC
8
BLACK
10
94.0953069999999911
20
-123.3715919999999926
40
0.4999715008122962
50
-90.00326605
51
0.00326605
0
LINE
8
BLACK
6
CONTINUOUS
10
225.5104999999999791
20
-46.3578619999999972
11
225.5104999999999791
21
-48.470362999999999
0
LINE
8
BLACK
6
CONTINUOUS
10
104.1202789999999965
20
-104.3215629999999976
11
104.1202789999999965
21
-91.3215629999999976
0
LINE
8
BLACK
6
CONTINUOUS
10
71.5702789999999993
20
-71.7715630000000004
11
84.5702789999999993
21
-71.7715649999999954
0
ARC
8
BLACK
10
170.8506919999999809
20
-90.0340920000000011
40
0.4999710008560503
50
-180.00343794
51
-89.99679125
0
ARC
8
BLACK
10
228.0006919999999866
20
-66.2215920000000011
40
0.4999715008122962
50
-180.00326605
51
-89.99673395
0
LINE
8
BLACK
6
CONTINUOUS
10
147.7702789999999879
20
-57.484062999999999
11
160.7702789999999879
21
-57.4840639999999965
0
LINE
8
BLACK
6
CONTINUOUS
10
203.4007210000000043
20
-53.2215640000000008
11
203.4007229999999993
21
-66.2215640000000008
0
LINE
8
BLACK
6
CONTINUOUS
10
227.5007209999999986
20
-85.2715630000000004
11
227.5007209999999986
21
-72.2715630000000004
0
LINE
8
BLACK
6
CONTINUOUS
10
104.1202789999999965
20
-72.2715630000000004
11
104.1202789999999965
21
-85.2715630000000004
0
ARC
8
BLACK
10
125.0515829999999937
20
-123.3716170000000005
40
0.4999460029163149
50
-90.00618861
51
0.00618861
0
LINE
8
BLACK
6
CONTINUOUS
10
235.5877209999999877
20
-108.3715639999999922
11
235.5877209999999877
21
-122.3715639999999922
0
LINE
8
BLACK
6
CONTINUOUS
10
251.0257220000000018
20
-110.3715629999999948
11
251.0257209999999759
21
-123.3715639999999922
0
LINE
8
BLACK
6
CONTINUOUS
10
65.1362799999999993
20
-127.1043609999999973
11
66.7282589999999942
21
-125.2134929999999997
0
ARC
8
BLACK
10
128.7203199999999867
20
-104.3215199999999925
40
0.5000430018273403
50
-179.99507298
51
-90.00481243
0
ARC
8
BLACK
10
125.0514960000000002
20
-110.3715959999999967
40
0.5000325010641842
50
0.00383858
51
89.99639061
0
LINE
8
BLACK
6
CONTINUOUS
10
90.120277999999999
20
-91.3215620000000001
11
90.1202789999999965
21
-104.3215629999999976
0
LINE
8
BLACK
6
CONTINUOUS
10
260.0771889999999757
20
-49.6703629999999947
11
261.4923719999999889
21
-48.2551789999999983
0
LINE
8
BLACK
6
CONTINUOUS
10
66.7282589999999942
20
-125.2134929999999997
11
68.0105009999999908
21
-123.685378
0
ARC
8
BLACK
10
189.9006919999999923
20
-66.2215920000000011
40
0.4999710008560503
50
-180.00343794
51
-89.99679125
0
LINE
8
BLACK
6
CONTINUOUS
10
103.6202789999999965
20
-90.8215639999999951
11
90.6202789999999965
21
-90.8215629999999976
0
LINE
8
BLACK
6
CONTINUOUS
10
266.7786899999999832
20
-50.034123000000001
11
263.6105000000000018
21
-53.2128389999999953
0
LINE
8
BLACK
6
CONTINUOUS
10
72.1572800000000001
20
-122.3715629999999948
11
72.1572800000000001
21
-108.3715629999999948
0
ARC
8
BLACK
10
90.6203199999999924
20
-85.2715199999999953
40
0.5000420018273438
50
-179.99507297
51
-90.00481244
0
ARC
8
BLACK
10
183.8506919999999809
20
-96.0840919999999983
40
0.5000285008282069
50
0.00338027
51
89.99684892
0
ARC
8
BLACK
10
237.5256919999999923
20
-123.3715919999999926
40
0.4999715008122962
50
-180.00326605
51
-89.99673395
0
LINE
8
BLACK
6
CONTINUOUS
10
102.5332789999999932
20
-122.8715629999999948
11
96.5332789999999932
21
-122.8715629999999948
0
ARC
8
BLACK
10
247.0506779999999765
20
-72.2715209999999928
40
0.4999565018064072
50
-270.00487056
51
-179.99512944
0
ARC
8
BLACK
10
247.050691999999998
20
-85.2715919999999983
40
0.4999715008282978
50
-180.00338064
51
-89.99684855
0
LINE
8
BLACK
6
CONTINUOUS
10
71.0702799999999968
20
-66.2215640000000008
11
71.0702780000000018
21
-53.2215640000000008
0
LINE
8
BLACK
6
CONTINUOUS
10
85.0702780000000018
20
-91.3215629999999976
11
85.0702789999999993
21
-104.3215629999999976
0
ARC
8
BLACK
10
170.8506779999999878
20
-57.9840209999999985
40
0.4999575017429057
50
-270.00487055
51
-179.99524404
0
ARC
8
BLACK
10
134.2917819999999836
20
-115.8372199999999879
40
1.2000324822686523
50
100.12525394
51
179.99866681
0
ARC
8
BLACK
10
109.6703079999999915
20
-48.4590910000000008
40
0.5000290008259567
50
90.00343755
51
179.99679163
0
LINE
8
BLACK
6
CONTINUOUS
10
142.2202800000000025
20
-91.3215629999999976
11
142.2202780000000075
21
-104.3215629999999976
0
ARC
8
BLACK
10
202.9006909999999948
20
-53.2215909999999965
40
0.500029000804452
50
0.00320837
51
89.99667704
0
CIRCLE
8
BLACK
10
164.3104999999999905
20
-104.5037239999999912
40
0.15
0
LINE
8
BLACK
6
CONTINUOUS
10
141.720279000000005
20
-66.7215640000000008
11
128.720279000000005
21
-66.7215630000000033
0
LINE
8
BLACK
6
CONTINUOUS
10
221.9507219999999847
20
-47.9590630000000004
11
208.9507219999999847
21
-47.9590639999999979
0
LINE
8
BLACK
6
CONTINUOUS
10
221.9507209999999873
20
-86.0590629999999948
11
208.9507219999999847
21
-86.0590639999999922
0
ARC
8
BLACK
10
160.7703070000000025
20
-90.0340920000000011
40
0.4999710008560596
50
-90.00320875
51
0.00343794
0
CIRCLE
8
BLACK
10
164.310498999999993
20
-56.0177059999999969
40
0.15
0
LINE
8
BLACK
6
CONTINUOUS
10
261.4923719999999889
20
-48.2551789999999983
11
263.2372970000000123
21
-46.5044559999999976
0
LINE
8
BLACK
6
CONTINUOUS
10
260.5507220000000075
20
-53.2215640000000008
11
260.5507200000000125
21
-66.2215640000000008
0
LINE
8
BLACK
6
CONTINUOUS
10
170.8605000000000018
20
-112.6328630000000004
11
168.6805659999999989
21
-112.7081359999999961
0
LINE
8
BLACK
6
CONTINUOUS
10
109.6702789999999936
20
-100.0590639999999922
11
122.6702779999999962
21
-100.0590629999999948
0
LINE
8
BLACK
6
CONTINUOUS
10
246.5507209999999816
20
-104.3215629999999976
11
246.5507219999999791
21
-91.3215629999999976
0
LINE
8
BLACK
6
CONTINUOUS
10
122.6702779999999962
20
-47.9590639999999979
11
109.6702779999999962
21
-47.9590630000000004
0
LINE
8
BLACK
6
CONTINUOUS
10
189.4007220000000018
20
-104.3215629999999976
11
189.4007199999999784
21
-91.3215629999999976
0
LINE
8
BLACK
6
CONTINUOUS
10
241.0007209999999986
20
-90.8215629999999976
11
228.0007209999999986
21
-90.8215639999999951
0
LINE
8
BLACK
6
CONTINUOUS
10
170.3507219999999904
20
-109.0840630000000004
11
170.350720999999993
21
-96.0840630000000004
0
LINE
8
BLACK
6
CONTINUOUS
10
183.850720999999993
20
-109.5840639999999979
11
170.850720999999993
21
-109.5840630000000004
0
LINE
8
BLACK
6
CONTINUOUS
10
167.310498999999993
20
-55.1177059999999983
11
164.310498999999993
21
-55.1177059999999983
0
ARC
8
BLACK
10
124.8105309999999974
20
-46.3578309999999973
40
1.1999685004134482
50
-0.00150405
51
90.00150405
0
ARC
8
BLACK
10
265.0079910000000041
20
-48.2692920000000001
40
2.4999999696346209
50
-44.90492072
51
135.09498119
0
CIRCLE
8
BLACK
10
149.3489589999999794
20
-52.5536109999999965
40
1.050001
0
ARC
8
BLACK
10
247.050691999999998
20
-66.2215920000000011
40
0.4999710008410487
50
-180.00332335
51
-89.99667665
0
ARC
8
BLACK
10
141.7203209999999842
20
-91.32152099999999
40
0.4999580017211508
50
-0.00469866
51
90.00492785
0
LINE
8
BLACK
6
CONTINUOUS
10
104.1202789999999965
20
-53.2215640000000008
11
104.1202789999999965
21
-66.2215640000000008
0
ARC
8
BLACK
10
197.3292169999999999
20
-115.8372199999999879
40
1.2000324822686463
50
0.00133319
51
79.87474606
0
ARC
8
BLACK
10
90.6203079999999943
20
-72.2715910000000008
40
0.5000300008624498
50
90.00343754
51
179.99667705
0
ARC
8
BLACK
10
102.5333210000000008
20
-108.3715210000000013
40
0.4999575018279018
50
-0.00487056
51
90.00498515
0
ARC
8
BLACK
10
84.5703069999999997
20
-85.2715919999999983
40
0.499971500828289
50
-90.00315145
51
0.00338064
0
LINE
8
BLACK
6
CONTINUOUS
10
241.5007219999999961
20
-72.2715630000000004
11
241.5007209999999986
21
-85.2715639999999979
0
ARC
8
BLACK
10
260.0506919999999695
20
-53.2215920000000011
40
0.5000295008336996
50
0.00326566
51
89.99661975
0
LINE
8
BLACK
6
CONTINUOUS
10
79.1572779999999909
20
-108.3715639999999922
11
79.1572790000000026
21
-122.3715639999999922
0
LINE
8
BLACK
6
CONTINUOUS
10
146.2793089999999836
20
-49.7056709999999953
11
163.3994490000000042
21
-53.9530129999999986
0
ARC
8
BLACK
10
96.5333199999999891
20
-122.3715199999999896
40
0.5000420018273438
50
-179.99507297
51
-90.00481244
0
LINE
8
BLACK
6
CONTINUOUS
10
260.0507220000000075
20
-104.8215639999999951
11
247.0507229999999765
21
-104.8215629999999976
0
ARC
8
BLACK
10
109.6703199999999896
20
-61.4590199999999953
40
0.5000425018480967
50
-179.99501568
51
-90.00475514
0
ARC
8
BLACK
10
147.7703199999999981
20
-109.0840199999999953
40
0.5000430018273403
50
-179.99507298
51
-90.00481243
0
LINE
8
BLACK
6
CONTINUOUS
10
262.6598339999999894
20
-130.3246479999999963
11
259.7936639999999784
21
-126.9203619999999972
0
LINE
8
BLACK
6
CONTINUOUS
10
90.1202789999999965
20
-85.2715639999999979
11
90.120277999999999
21
-72.2715630000000004
0
LINE
8
BLACK
6
CONTINUOUS
10
247.0507209999999816
20
-71.7715649999999954
11
260.05072100000001
21
-71.7715630000000004
0
LINE
8
BLACK
6
CONTINUOUS
10
147.2702789999999879
20
-70.9840640000000036
11
147.2702789999999879
21
-57.9840639999999965
0
LINE
8
BLACK
6
CONTINUOUS
10
85.0702780000000018
20
-72.2715630000000004
11
85.0702789999999993
21
-85.2715630000000004
0
ARC
8
BLACK
10
241.000678999999991
20
-85.2715199999999953
40
0.5000420018273627
50
-89.99518756
51
-0.00492703
0
LINE
8
BLACK
6
CONTINUOUS
10
222.4507219999999847
20
-99.5590629999999948
11
222.4507219999999847
21
-86.5590629999999948
0
LINE
8
BLACK
6
CONTINUOUS
10
202.9007210000000043
20
-104.8215639999999951
11
189.9007199999999784
21
-104.8215629999999976
0
ARC
8
BLACK
10
260.0506919999999695
20
-72.2715919999999983
40
0.500029500833707
50
0.00326566
51
89.99661975
0
ARC
8
BLACK
10
206.5694169999999872
20
-123.3716170000000005
40
0.4999460029163149
50
-180.00618861
51
-89.99381139
0
LINE
8
BLACK
6
CONTINUOUS
10
184.350720999999993
20
-77.0340630000000033
11
184.350720999999993
21
-90.0340629999999891
0
LINE
8
BLACK
6
CONTINUOUS
10
208.9507219999999847
20
-100.0590629999999948
11
221.9507209999999873
21
-100.0590639999999922
0
CIRCLE
8
BLACK
10
135.7990659999999821
20
-111.1465869999999967
40
1.050001
0
ARC
8
BLACK
10
71.5703209999999928
20
-104.32152099999999
40
0.5000425017640918
50
-179.99524487
51
-90.00498431
0
LINE
8
BLACK
6
CONTINUOUS
10
90.1202789999999965
20
-66.2215640000000008
11
90.120277999999999
21
-53.2215640000000008
0
LINE
8
BLACK
6
CONTINUOUS
10
189.9007229999999993
20
-52.7215640000000008
11
202.9007210000000043
21
-52.7215629999999962
0
LINE
8
BLACK
6
CONTINUOUS
10
160.7702789999999879
20
-71.4840640000000036
11
147.7702789999999879
21
-71.4840629999999919
0
ARC
8
BLACK
10
224.3104309999999941
20
-46.3579310000000007
40
1.2000690019421776
50
0.00329432
51
89.99675343
0
ARC
8
BLACK
10
168.5104969999999867
20
-55.1177019999999942
40
1.1999968609506511
50
-256.06684737
51
-179.99984409
0
LINE
8
BLACK
6
CONTINUOUS
10
259.7936639999999784
20
-126.9203619999999972
11
199.7292499999999791
21
-126.9203619999999972
0
LINE
8
BLACK
6
CONTINUOUS
10
128.2202769999999816
20
-66.2215640000000008
11
128.220279000000005
21
-53.2215640000000008
0
LINE
8
BLACK
6
CONTINUOUS
10
246.5507209999999816
20
-66.2215630000000033
11
246.5507219999999791
21
-53.2215629999999962
0
ARC
8
BLACK
10
235.0876919999999757
20
-108.3715919999999926
40
0.5000285008337088
50
0.00326567
51
89.99661974
0
ARC
8
BLACK
10
241.0006779999999935
20
-104.32152099999999
40
0.5000425018060964
50
-89.99513027
51
-0.00486973
0
CIRCLE
8
BLACK
10
264.5722769999999855
20
-128.7145050000000026
40
1.05
0
LINE
8
BLACK
6
CONTINUOUS
10
85.0702780000000018
20
-53.2215629999999962
11
85.0702789999999993
21
-66.2215630000000033
0
ARC
8
BLACK
10
90.6203059999999994
20
-91.3215929999999929
40
0.5000290008934487
50
90.00320837
51
179.99644786
0
CIRCLE
8
BLACK
10
66.6130069999999961
20
-48.269289999999998
40
1.05
0
ARC
8
BLACK
10
235.0876789999999801
20
-122.3715199999999896
40
0.5000420018273627
50
-89.99518756
51
-0.00492703
0
LINE
8
BLACK
6
CONTINUOUS
10
147.7702789999999879
20
-95.5840639999999979
11
160.7702789999999879
21
-95.5840630000000004
0
CIRCLE
8
BLACK
10
167.3104999999999905
20
-107.5037239999999912
40
0.15
0
LINE
8
BLACK
6
CONTINUOUS
10
170.3507219999999904
20
-90.0340629999999891
11
170.350720999999993
21
-77.0340630000000033
0
LINE
8
BLACK
6
CONTINUOUS
10
235.0877209999999877
20
-122.8715629999999948
11
229.0877209999999877
21
-122.8715629999999948
0
LINE
8
BLACK
6
CONTINUOUS
10
128.220279000000005
20
-72.2715639999999979
11
128.2202780000000075
21
-85.2715639999999979
0
ARC
8
BLACK
10
260.0506919999999695
20
-91.3215919999999954
40
0.5000285008486954
50
0.00338026
51
89.99673433
0
LINE
8
BLACK
6
CONTINUOUS
10
103.0332789999999932
20
-108.3715639999999922
11
103.0332799999999907
21
-122.3715629999999948
0
ARC
8
BLACK
10
260.0506780000000049
20
-85.2715209999999928
40
0.500042001785334
50
-89.99507297
51
-0.00481243
0
CIRCLE
8
BLACK
10
164.310498999999993
20
-57.817705999999994
40
0.15
0
ARC
8
BLACK
10
241.000678999999991
20
-66.2215199999999982
40
0.5000420018273627
50
-89.99518756
51
-0.00492703
0
ARC
8
BLACK
10
206.5695029999999974
20
-110.3715959999999967
40
0.5000325010641865
50
90.00360939
51
179.99616142
0
ARC
8
BLACK
10
122.670306999999994
20
-99.5590919999999926
40
0.4999710008625533
50
-90.00343794
51
0.00332335
0
ARC
8
BLACK
10
160.7703209999999956
20
-57.9840209999999985
40
0.4999575017429004
50
-0.00475596
51
90.00487055
0
LINE
8
BLACK
6
CONTINUOUS
10
184.350720999999993
20
-96.0840630000000004
11
184.350720999999993
21
-109.0840630000000004
0
LINE
8
BLACK
6
CONTINUOUS
10
260.55072100000001
20
-91.3215629999999976
11
260.55072100000001
21
-104.3215629999999976
0
ARC
8
BLACK
10
229.0876909999999782
20
-122.3715909999999951
40
0.4999715008327921
50
-180.00326605
51
-89.99661936
0
ARC
8
BLACK
10
208.9506920000000036
20
-80.5090919999999954
40
0.4999715008487904
50
-180.00338064
51
-89.99673395
0
LINE
8
BLACK
6
CONTINUOUS
10
264.8927410000000009
20
-125.2134929999999997
11
266.4847199999999816
21
-127.1043609999999973
0
ARC
8
BLACK
10
170.8506919999999809
20
-70.9840919999999898
40
0.4999710008560503
50
-180.00343794
51
-89.99679125
0
ARC
8
BLACK
10
252.9636919999999805
20
-122.3715919999999926
40
0.4999715008122962
50
-180.00326605
51
-89.99673395
0
ARC
8
BLACK
10
112.0515829999999937
20
-110.3716159999999888
40
0.5000540029871768
50
90.00630186
51
179.99381273
0
LINE
8
BLACK
6
CONTINUOUS
10
84.5702780000000018
20
-85.7715639999999979
11
71.5702780000000018
21
-85.7715630000000004
0
LINE
8
BLACK
6
CONTINUOUS
10
227.5007209999999986
20
-91.3215629999999976
11
227.5007209999999986
21
-104.3215629999999976
0
LINE
8
BLACK
6
CONTINUOUS
10
186.2104999999999961
20
-112.6328630000000004
11
170.8605000000000018
21
-112.6328630000000004
0
ARC
8
BLACK
10
221.9506789999999796
20
-80.5090199999999925
40
0.5000425018481118
50
-89.99524486
51
-0.00498432
0
ARC
8
BLACK
10
221.9506909999999777
20
-67.509090999999998
40
0.500029500817695
50
0.00315107
51
89.99650516
0
ARC
8
BLACK
10
94.095320000000001
20
-110.3715199999999896
40
0.4999565018484077
50
-0.00498515
51
90.00475597
0
ARC
8
BLACK
10
183.8506789999999853
20
-70.984020000000001
40
0.5000420018273627
50
-89.99518756
51
-0.00492703
0
LINE
8
BLACK
6
CONTINUOUS
10
189.4007220000000018
20
-66.2215630000000033
11
189.4007210000000043
21
-53.2215640000000008
0
LINE
8
BLACK
6
CONTINUOUS
10
70.128627999999992
20
-48.2551789999999983
11
71.5438109999999909
21
-49.6703629999999947
0
ARC
8
BLACK
10
90.6203209999999899
20
-104.32152099999999
40
0.5000425018060964
50
-179.99513027
51
-90.00486973
0
ARC
8
BLACK
10
128.7203079999999886
20
-72.2715910000000008
40
0.500029500796196
50
90.00338026
51
179.99684893
0
LINE
8
BLACK
6
CONTINUOUS
10
109.6702789999999936
20
-61.9590630000000004
11
122.6702789999999936
21
-61.9590639999999979
0
LINE
8
BLACK
6
CONTINUOUS
10
160.7702789999999879
20
-90.5340640000000008
11
147.7702789999999879
21
-90.5340629999999891
0
CIRCLE
8
BLACK
10
167.3104999999999905
20
-106.9037239999999969
40
0.15
0
LINE
8
BLACK
6
CONTINUOUS
10
241.0007209999999986
20
-66.7215630000000033
11
228.0007209999999986
21
-66.7215640000000008
0
ARC
8
BLACK
10
170.8506919999999809
20
-109.0840919999999983
40
0.4999705008487921
50
-180.00338065
51
-89.99673395
0
LINE
8
BLACK
6
CONTINUOUS
10
84.5702769999999902
20
-104.8215629999999976
11
71.5702780000000018
21
-104.8215639999999951
0
LINE
8
BLACK
6
CONTINUOUS
10
183.850720999999993
20
-71.4840629999999919
11
170.850720999999993
21
-71.4840640000000036
0
LINE
8
BLACK
6
CONTINUOUS
10
90.6202789999999965
20
-71.7715630000000004
11
103.6202789999999965
21
-71.7715639999999979
0
ARC
8
BLACK
10
202.9006909999999948
20
-72.2715910000000008
40
0.5000295007962018
50
0.00315107
51
89.99661974
0
LINE
8
BLACK
6
CONTINUOUS
10
71.0702789999999993
20
-104.3215629999999976
11
71.0702789999999993
21
-91.3215629999999976
0
ARC
8
BLACK
10
208.9506920000000036
20
-61.4590919999999983
40
0.4999710008195486
50
-180.00332334
51
-89.99679125
0
LINE
8
BLACK
6
CONTINUOUS
10
259.4637199999999666
20
-108.3715629999999948
11
259.4637199999999666
21
-122.3715629999999948
0
ARC
8
BLACK
10
128.7203199999999867
20
-85.2715199999999953
40
0.5000425018481042
50
-179.99501568
51
-90.00475514
0
CIRCLE
8
BLACK
10
67.0487229999999954
20
-128.7145050000000026
40
1.05
0
LINE
8
BLACK
6
CONTINUOUS
10
162.940433999999982
20
-112.7081359999999961
11
160.7604999999999791
21
-112.6328630000000004
0
LINE
8
BLACK
6
CONTINUOUS
10
229.0877219999999852
20
-107.8715639999999922
11
235.0877219999999852
21
-107.8715639999999922
0
LINE
8
BLACK
6
CONTINUOUS
10
260.0507220000000075
20
-66.7215630000000033
11
247.0507219999999791
21
-66.7215640000000008
0
LINE
8
BLACK
6
CONTINUOUS
10
252.96372199999999
20
-107.8715629999999948
11
258.9637209999999641
21
-107.8715629999999948
0
ARC
8
BLACK
10
160.7703209999999956
20
-77.0340209999999956
40
0.4999575017429079
50
-0.00475596
51
90.00487055
0
CIRCLE
8
BLACK
10
167.3104999999999905
20
-105.703723999999994
40
0.15
0
ARC
8
BLACK
10
147.7703209999999956
20
-90.0340209999999956
40
0.5000420017638518
50
-179.99518756
51
-90.00481244
0
ARC
8
BLACK
10
90.6203069999999968
20
-53.2215920000000011
40
0.5000295008337023
50
90.00338025
51
179.99673434
0
ARC
8
BLACK
10
84.5703209999999928
20
-91.32152099999999
40
0.4999570018276473
50
-0.00492785
51
90.00481326
0
LINE
8
BLACK
6
CONTINUOUS
10
228.0007209999999986
20
-104.8215629999999976
11
241.0007209999999986
21
-104.8215639999999951
0
LINE
8
BLACK
6
CONTINUOUS
10
167.3104999999999905
20
-107.8037239999999883
11
164.3104999999999905
21
-107.8037239999999883
0
LINE
8
BLACK
6
CONTINUOUS
10
197.5401839999999822
20
-114.6558780000000013
11
186.2104999999999961
21
-112.6328630000000004
0
LINE
8
BLACK
6
CONTINUOUS
10
147.7702789999999879
20
-76.5340630000000033
11
160.7702789999999879
21
-76.5340640000000008
0
LINE
8
BLACK
6
CONTINUOUS
10
123.1702789999999936
20
-67.5090629999999976
11
123.1702789999999936
21
-80.5090629999999976
0
LINE
8
BLACK
6
CONTINUOUS
10
109.1702779999999962
20
-80.5090639999999951
11
109.1702789999999936
21
-67.5090639999999951
0
ARC
8
BLACK
10
84.5703069999999997
20
-104.3215919999999954
40
0.499971500848795
50
-90.00326605
51
0.00338064
0
ARC
8
BLACK
10
71.5703069999999997
20
-91.3215919999999954
40
0.5000285008487002
50
90.00326567
51
179.99661974
0
ARC
8
BLACK
10
241.0006929999999841
20
-91.3215929999999929
40
0.5000290008934445
50
0.00355214
51
89.99679163
0
ARC
8
BLACK
10
84.5703209999999928
20
-53.2215209999999956
40
0.4999570018071448
50
-0.00492785
51
90.00469866
0
ARC
8
BLACK
10
128.7203189999999893
20
-66.2215190000000007
40
0.5000430018683513
50
-179.99495838
51
-90.00469784
0
LINE
8
BLACK
6
CONTINUOUS
10
141.720279000000005
20
-71.7715639999999979
11
128.720279000000005
21
-71.771562000000003
0
ARC
8
BLACK
10
189.9006919999999923
20
-85.2715919999999983
40
0.4999710008560503
50
-180.00343794
51
-89.99679125
0
ARC
8
BLACK
10
264.5722839999999678
20
-128.7145129999999824
40
2.5000000033376266
50
-139.90522254
51
40.09533096
0
LINE
8
BLACK
6
CONTINUOUS
10
131.8917500000000018
20
-126.9203619999999972
11
71.8273360000000025
21
-126.9203619999999972
0
LINE
8
BLACK
6
CONTINUOUS
10
94.0952779999999933
20
-123.8715629999999948
11
81.0952779999999933
21
-123.8715629999999948
0
LINE
8
BLACK
6
CONTINUOUS
10
161.2702789999999879
20
-77.0340630000000033
11
161.2702779999999905
21
-90.0340629999999891
0
LINE
8
BLACK
6
CONTINUOUS
10
68.0105009999999908
20
-123.685378
11
68.0104999999999933
21
-53.2128389999999953
0
LINE
8
BLACK
6
CONTINUOUS
10
160.7702789999999879
20
-109.5840630000000004
11
147.7702789999999879
21
-109.5840639999999979
0
CIRCLE
8
BLACK
10
164.3104999999999905
20
-106.9037239999999969
40
0.15
0
ARC
8
BLACK
10
183.8506789999999853
20
-90.0340209999999956
40
0.5000420017638518
50
-89.99518756
51
-0.00481244
0
LINE
8
BLACK
6
CONTINUOUS
10
167.310498999999993
20
-58.7177059999999997
11
164.310498999999993
21
-58.7177059999999997
0
ARC
8
BLACK
10
72.657320999999996
20
-122.3715210000000013
40
0.5000425018060964
50
-179.99513027
51
-90.00486973
0
ARC
8
BLACK
10
128.7203079999999886
20
-53.2215909999999965
40
0.5000290008044564
50
90.00332296
51
179.99679163
0
LINE
8
BLACK
6
CONTINUOUS
10
208.9507219999999847
20
-67.0090639999999951
11
221.9507219999999847
21
-67.0090620000000001
0
ARC
8
BLACK
10
122.6703210000000013
20
-86.5590210000000013
40
0.4999575017644062
50
-0.00475597
51
90.00498515
0
ARC
8
BLACK
10
103.6203069999999968
20
-66.2215920000000011
40
0.4999715008122962
50
-90.00326605
51
0.00326605
0
ARC
8
BLACK
10
103.6203079999999943
20
-104.3215919999999954
40
0.4999710008410487
50
-90.00332335
51
0.00332335
0
LINE
8
BLACK
6
CONTINUOUS
10
71.5438109999999909
20
-49.6703629999999947
11
104.910499999999999
21
-49.6703629999999947
0
ARC
8
BLACK
10
141.7203209999999842
20
-72.2715209999999928
40
0.4999575017429079
50
-0.00475596
51
90.00487055
0
LINE
8
BLACK
6
CONTINUOUS
10
71.0702789999999993
20
-85.2715639999999979
11
71.0702780000000018
21
-72.2715639999999979
0
ARC
8
BLACK
10
128.7203079999999886
20
-91.3215919999999954
40
0.5000280008409529
50
90.00332297
51
179.99667703
0
ARC
8
BLACK
10
71.5703209999999928
20
-85.2715209999999928
40
0.5000420017853527
50
-179.99518757
51
-90.00492703
0
ARC
8
BLACK
10
206.810467999999986
20
-46.3578309999999973
40
1.1999685004134482
50
-270.00150405
51
-179.99849595
0
LINE
8
BLACK
6
CONTINUOUS
10
250.5257220000000018
20
-123.8715629999999948
11
237.5257220000000018
21
-123.8715629999999948
0
ARC
8
BLACK
10
202.9006789999999967
20
-104.3215199999999925
40
0.5000430018273589
50
-89.99518757
51
-0.00492702
  0
ENDSEC
  0
EOF
