G04 #@! TF.GenerationSoftware,KiCad,Pcbnew,7.0.5.1-1-g8f565ef7f0-dirty-deb11*
G04 #@! TF.CreationDate,2023-08-03T14:41:36+00:00*
G04 #@! TF.ProjectId,plate_alps,706c6174-655f-4616-9c70-732e6b696361,v0.1*
G04 #@! TF.SameCoordinates,PX8bd8a70PY50733a9*
G04 #@! TF.FileFunction,Profile,NP*
%FSLAX46Y46*%
G04 Gerber Fmt 4.6, Leading zero omitted, Abs format (unit mm)*
G04 Created by KiCad (PCBNEW 7.0.5.1-1-g8f565ef7f0-dirty-deb11) date 2023-08-03 14:41:36*
%MOMM*%
%LPD*%
G01*
G04 APERTURE LIST*
G04 #@! TA.AperFunction,Profile*
%ADD10C,0.200000*%
G04 #@! TD*
G04 #@! TA.AperFunction,Profile*
%ADD11C,0.100000*%
G04 #@! TD*
G04 APERTURE END LIST*
D10*
X156649543Y-76358057D02*
G75*
G03*
X154649464Y-74358057I-2000043J-43D01*
G01*
X77682917Y-58995632D02*
X95052477Y-61128345D01*
X130002631Y-69966074D02*
X131579733Y-68733905D01*
X243493502Y-122541636D02*
G75*
G03*
X244607885Y-123412317I992598J121936D01*
G01*
X173443954Y-146544944D02*
X230025537Y-139597600D01*
X50197233Y-119273574D02*
X49795467Y-122545699D01*
X30863549Y-116191113D02*
G75*
G03*
X35216943Y-121763192I4962551J-609487D01*
G01*
X136609867Y-71143852D02*
G75*
G03*
X133525011Y-67208887I-1542467J1967452D01*
G01*
X166363422Y-147599714D02*
G75*
G03*
X170552210Y-150329837I2094378J-1365086D01*
G01*
X136117430Y-69176357D02*
G75*
G03*
X136117430Y-69176357I-1050000J0D01*
G01*
X56941164Y-64263313D02*
X57214602Y-62036336D01*
X51311653Y-118402862D02*
G75*
G03*
X50197234Y-119273574I-121953J-992438D01*
G01*
X133145981Y-73850042D02*
G75*
G03*
X132392239Y-75182360I1231119J-1575858D01*
G01*
X61558128Y-120668517D02*
X61215624Y-123457990D01*
X134018938Y-90502660D02*
G75*
G03*
X136639472Y-88601446I620562J1901260D01*
G01*
X122736741Y-150333918D02*
X120560880Y-146995520D01*
X55746721Y-65124164D02*
X55826748Y-65133990D01*
X258071990Y-121759108D02*
G75*
G03*
X262425377Y-116187055I-609190J4962608D01*
G01*
X96097289Y-62465643D02*
X95839839Y-64562398D01*
X230025536Y-139597589D02*
G75*
G03*
X231766889Y-137368768I-243736J1985089D01*
G01*
X127205790Y-139149902D02*
X166082638Y-139146364D01*
X243493469Y-122541640D02*
X243091703Y-119269515D01*
X54876034Y-64009747D02*
G75*
G03*
X55746721Y-65124163I992566J-121853D01*
G01*
X61522046Y-137372827D02*
X63543155Y-120912212D01*
X56595463Y-120059178D02*
G75*
G03*
X55724720Y-118944754I-992663J121778D01*
G01*
X56252893Y-122848643D02*
X56595397Y-120059170D01*
X217200710Y-62133147D02*
G75*
G03*
X218538067Y-63177949I1191290J146547D01*
G01*
X63263399Y-139601659D02*
X119844982Y-146549003D01*
X243356838Y-63035489D02*
G75*
G03*
X238368964Y-63647923I-2493938J-306211D01*
G01*
X232073312Y-123453931D02*
X231730808Y-120664458D01*
X196404283Y-65895631D02*
G75*
G03*
X197449097Y-64558339I-146083J1190931D01*
G01*
X161874004Y-87910742D02*
G75*
G03*
X162279494Y-86440288I-1579304J1226642D01*
G01*
X232073347Y-123453927D02*
G75*
G03*
X237036042Y-122844584I2481353J304627D01*
G01*
X160896714Y-75178299D02*
G75*
G03*
X160142927Y-73846019I-1984814J-243601D01*
G01*
X76088172Y-62137199D02*
X76345621Y-60040443D01*
X74750864Y-63182053D02*
G75*
G03*
X76088171Y-62137199I145936J1191453D01*
G01*
X95839848Y-64562399D02*
G75*
G03*
X96884652Y-65899695I1190852J-146401D01*
G01*
X96097284Y-62465642D02*
G75*
G03*
X95052475Y-61128345I-1191184J146142D01*
G01*
X159483049Y-90429149D02*
X159270023Y-90498678D01*
X256488493Y-67835015D02*
X262425377Y-116187055D01*
X159271506Y-69172298D02*
G75*
G03*
X159271506Y-69172298I-1050000J0D01*
G01*
X154640692Y-94348132D02*
X154640691Y-135348130D01*
X58329023Y-61165622D02*
G75*
G03*
X57214602Y-62036336I-121923J-992478D01*
G01*
X138639472Y-74358057D02*
X154649464Y-74358057D01*
X243523049Y-64389422D02*
X250916415Y-63481631D01*
X156649524Y-88597387D02*
G75*
G03*
X159270023Y-90498677I1999976J-13D01*
G01*
X153640692Y-136348133D02*
X139640692Y-136348133D01*
X54919971Y-63651982D02*
G75*
G03*
X49932129Y-63039552I-2493921J306212D01*
G01*
X132846859Y-89758620D02*
G75*
G03*
X133805887Y-90433207I1579441J1226420D01*
G01*
X218538067Y-63177950D02*
X234959918Y-61161600D01*
X56252895Y-122848643D02*
G75*
G03*
X61215624Y-123457990I2481365J-304667D01*
G01*
X131579733Y-68733905D02*
X133525011Y-67208884D01*
X138639472Y-74358072D02*
G75*
G03*
X136639472Y-76358057I28J-2000028D01*
G01*
X161709203Y-68729846D02*
X163286305Y-69962015D01*
X42372521Y-63485690D02*
X49765887Y-64393481D01*
X132846839Y-89758636D02*
X131414926Y-87914806D01*
X127205790Y-139149882D02*
G75*
G03*
X126214751Y-140017014I110J-1000018D01*
G01*
X237564220Y-118940724D02*
G75*
G03*
X236693540Y-120055111I121780J-992476D01*
G01*
X159763925Y-67204825D02*
X161709203Y-68729846D01*
X42372519Y-63485705D02*
G75*
G03*
X36800443Y-67839074I-609219J-4962895D01*
G01*
X58329018Y-61165659D02*
X74750869Y-63182009D01*
X138640767Y-135348132D02*
G75*
G03*
X139640692Y-136348133I1000233J232D01*
G01*
X197449097Y-64558339D02*
X197191647Y-62461584D01*
X236693539Y-120055111D02*
X237036043Y-122844584D01*
X235604679Y-123149257D02*
G75*
G03*
X235604679Y-123149257I-1050001J0D01*
G01*
X131009457Y-86444349D02*
G75*
G03*
X131414926Y-87914806I1984743J-243851D01*
G01*
X136609849Y-71143829D02*
X133146009Y-73850078D01*
X136639472Y-76358057D02*
X136639472Y-88601446D01*
X258071993Y-121759133D02*
X244607885Y-123412317D01*
X236074307Y-62032280D02*
G75*
G03*
X234959918Y-61161601I-992507J-121820D01*
G01*
X172728056Y-146991461D02*
X170552195Y-150329859D01*
X134018913Y-90502737D02*
X133805887Y-90433208D01*
X48681051Y-123416373D02*
G75*
G03*
X49795467Y-122545699I121849J992573D01*
G01*
X55826750Y-65133972D02*
G75*
G03*
X56941164Y-64263313I121850J992572D01*
G01*
X156649464Y-88597387D02*
X156649464Y-76358057D01*
X167073850Y-140013399D02*
X167747194Y-145032513D01*
X236347789Y-64259252D02*
G75*
G03*
X237462188Y-65129931I992611J121952D01*
G01*
X139640692Y-93348132D02*
X153640692Y-93348132D01*
X167073852Y-140013399D02*
G75*
G03*
X166082638Y-139146364I-991152J-133001D01*
G01*
X198236459Y-61124286D02*
X215606019Y-58991573D01*
X125881141Y-148968822D02*
G75*
G03*
X125881141Y-148968822I-1050001J0D01*
G01*
X241912885Y-63341708D02*
G75*
G03*
X241912885Y-63341708I-1050000J0D01*
G01*
X238368963Y-63647923D02*
X238412891Y-64005689D01*
X236074334Y-62032277D02*
X236347772Y-64259254D01*
X139640692Y-93348092D02*
G75*
G03*
X138640692Y-94348132I8J-1000008D01*
G01*
X256488543Y-67835009D02*
G75*
G03*
X250916415Y-63481632I-4962843J-609491D01*
G01*
X122736732Y-150333891D02*
G75*
G03*
X126925554Y-147603747I2094438J1365031D01*
G01*
X96884652Y-65899696D02*
X130002631Y-69966074D01*
X163286305Y-69962015D02*
X196404284Y-65895637D01*
X160896697Y-75178301D02*
X162279495Y-86440288D01*
X243091677Y-119269518D02*
G75*
G03*
X241977287Y-118398839I-992477J-121782D01*
G01*
X154640668Y-94348132D02*
G75*
G03*
X153640692Y-93348132I-999968J32D01*
G01*
X166363381Y-147599689D02*
X167593882Y-145711350D01*
X131009441Y-86444347D02*
X132392239Y-75182360D01*
X159763919Y-67204835D02*
G75*
G03*
X156679087Y-71139770I-1542419J-1967465D01*
G01*
X169507797Y-148964763D02*
G75*
G03*
X169507797Y-148964763I-1050001J0D01*
G01*
X48681051Y-123416376D02*
X35216943Y-121763192D01*
X237564216Y-118940695D02*
X241977287Y-118398838D01*
X51311649Y-118402897D02*
X55724720Y-118944754D01*
X125541773Y-145036576D02*
G75*
G03*
X125695054Y-145715409I991127J-132924D01*
G01*
X125695054Y-145715409D02*
X126925555Y-147603748D01*
X54876045Y-64009748D02*
X54919973Y-63651982D01*
X173443957Y-146544965D02*
G75*
G03*
X172728057Y-146991461I121843J-992535D01*
G01*
X216943315Y-60036384D02*
X217200764Y-62133140D01*
X231730816Y-120664421D02*
G75*
G03*
X229745781Y-120908153I-992516J-121879D01*
G01*
X243522605Y-64385805D02*
X243356807Y-63035493D01*
X167593876Y-145711346D02*
G75*
G03*
X167747194Y-145032513I-837776J545946D01*
G01*
X61522050Y-137372828D02*
G75*
G03*
X63263399Y-139601659I1985050J-243772D01*
G01*
X138640692Y-135348132D02*
X138640692Y-94348132D01*
X198236459Y-61124267D02*
G75*
G03*
X197191648Y-62461584I146341J-1191133D01*
G01*
X237462188Y-65129931D02*
X237542215Y-65120105D01*
X59784259Y-123153316D02*
G75*
G03*
X59784259Y-123153316I-1050001J0D01*
G01*
X125541742Y-145036572D02*
X126214750Y-140017014D01*
X161874010Y-87910747D02*
X160442097Y-89754577D01*
X120560891Y-146995513D02*
G75*
G03*
X119844982Y-146549003I-837791J-546087D01*
G01*
X160142927Y-73846019D02*
X156679087Y-71139770D01*
X53476051Y-63345767D02*
G75*
G03*
X53476051Y-63345767I-1050000J0D01*
G01*
X153640692Y-136348191D02*
G75*
G03*
X154640691Y-135348130I-92J1000091D01*
G01*
X30863559Y-116191114D02*
X36800443Y-67839074D01*
X49932129Y-63039552D02*
X49766331Y-64389864D01*
X216943396Y-60036375D02*
G75*
G03*
X215606019Y-58991574I-1191196J-146425D01*
G01*
X159483047Y-90429143D02*
G75*
G03*
X160442097Y-89754577I-620447J1901143D01*
G01*
X237542212Y-65120078D02*
G75*
G03*
X238412891Y-64005689I-121912J992578D01*
G01*
X229745781Y-120908153D02*
X231766890Y-137368768D01*
X63543082Y-120912203D02*
G75*
G03*
X61558132Y-120668481I-992482J121803D01*
G01*
X77682925Y-58995569D02*
G75*
G03*
X76345622Y-60040444I-146025J-1191331D01*
G01*
D11*
X78102360Y-62473854D02*
X93586080Y-64375016D01*
X93586080Y-64375016D02*
X92026152Y-77079606D01*
X92026152Y-77079606D02*
X76542432Y-75178444D01*
X76542432Y-75178444D02*
X78102360Y-62473854D01*
X94108348Y-88430472D02*
X109592068Y-90331634D01*
X109592068Y-90331634D02*
X108032140Y-103036224D01*
X108032140Y-103036224D02*
X92548420Y-101135062D01*
X92548420Y-101135062D02*
X94108348Y-88430472D01*
X236234897Y-77579798D02*
X220751177Y-79480960D01*
X220751177Y-79480960D02*
X219191249Y-66776370D01*
X219191249Y-66776370D02*
X234674969Y-64875208D01*
X234674969Y-64875208D02*
X236234897Y-77579798D01*
X226655226Y-136335224D02*
X211171506Y-138236386D01*
X211171506Y-138236386D02*
X209611578Y-125531796D01*
X209611578Y-125531796D02*
X225095298Y-123630634D01*
X225095298Y-123630634D02*
X226655226Y-136335224D01*
X58613951Y-64879242D02*
X74097671Y-66780404D01*
X74097671Y-66780404D02*
X72537743Y-79484994D01*
X72537743Y-79484994D02*
X57054023Y-77583832D01*
X57054023Y-77583832D02*
X58613951Y-64879242D01*
X219068100Y-94082410D02*
X203584380Y-95983572D01*
X203584380Y-95983572D02*
X202024452Y-83278982D01*
X202024452Y-83278982D02*
X217508172Y-81377820D01*
X217508172Y-81377820D02*
X219068100Y-94082410D01*
X260366526Y-117801198D02*
X244882806Y-119702360D01*
X244882806Y-119702360D02*
X243322878Y-106997770D01*
X243322878Y-106997770D02*
X258806598Y-105096608D01*
X258806598Y-105096608D02*
X260366526Y-117801198D01*
X34482322Y-105100642D02*
X49966042Y-107001804D01*
X49966042Y-107001804D02*
X48406114Y-119706394D01*
X48406114Y-119706394D02*
X32922394Y-117805232D01*
X32922394Y-117805232D02*
X34482322Y-105100642D01*
X36803938Y-86192639D02*
X52287658Y-88093801D01*
X52287658Y-88093801D02*
X50727730Y-100798391D01*
X50727730Y-100798391D02*
X35244010Y-98897229D01*
X35244010Y-98897229D02*
X36803938Y-86192639D01*
X39125544Y-67284633D02*
X54609264Y-69185795D01*
X54609264Y-69185795D02*
X53049336Y-81890385D01*
X53049336Y-81890385D02*
X37565616Y-79989223D01*
X37565616Y-79989223D02*
X39125544Y-67284633D01*
X91786737Y-107338476D02*
X107270457Y-109239638D01*
X107270457Y-109239638D02*
X105710529Y-121944228D01*
X105710529Y-121944228D02*
X90226809Y-120043066D01*
X90226809Y-120043066D02*
X91786737Y-107338476D01*
X181832493Y-103452638D02*
X166348773Y-105353800D01*
X166348773Y-105353800D02*
X164788845Y-92649210D01*
X164788845Y-92649210D02*
X180272565Y-90748048D01*
X180272565Y-90748048D02*
X181832493Y-103452638D01*
X203062111Y-120039032D02*
X187578391Y-121940194D01*
X187578391Y-121940194D02*
X186018463Y-109235604D01*
X186018463Y-109235604D02*
X201502183Y-107334442D01*
X201502183Y-107334442D02*
X203062111Y-120039032D01*
X238556506Y-96487806D02*
X223072786Y-98388968D01*
X223072786Y-98388968D02*
X221512858Y-85684378D01*
X221512858Y-85684378D02*
X236996578Y-83783216D01*
X236996578Y-83783216D02*
X238556506Y-96487806D01*
X113016355Y-90752082D02*
X128500075Y-92653244D01*
X128500075Y-92653244D02*
X126940147Y-105357834D01*
X126940147Y-105357834D02*
X111456427Y-103456672D01*
X111456427Y-103456672D02*
X113016355Y-90752082D01*
X73459138Y-100289863D02*
X88942858Y-102191025D01*
X88942858Y-102191025D02*
X87382930Y-114895615D01*
X87382930Y-114895615D02*
X71899210Y-112994453D01*
X71899210Y-112994453D02*
X73459138Y-100289863D01*
X110694742Y-109660087D02*
X126178462Y-111561249D01*
X126178462Y-111561249D02*
X124618534Y-124265839D01*
X124618534Y-124265839D02*
X109134814Y-122364677D01*
X109134814Y-122364677D02*
X110694742Y-109660087D01*
X53970731Y-102695255D02*
X69454451Y-104596417D01*
X69454451Y-104596417D02*
X67894523Y-117301007D01*
X67894523Y-117301007D02*
X52410803Y-115399845D01*
X52410803Y-115399845D02*
X53970731Y-102695255D01*
X96429959Y-69522466D02*
X111913679Y-71423628D01*
X111913679Y-71423628D02*
X110353751Y-84128218D01*
X110353751Y-84128218D02*
X94870031Y-82227056D01*
X94870031Y-82227056D02*
X96429959Y-69522466D01*
X75780748Y-81381854D02*
X91264468Y-83283016D01*
X91264468Y-83283016D02*
X89704540Y-95987606D01*
X89704540Y-95987606D02*
X74220820Y-94086444D01*
X74220820Y-94086444D02*
X75780748Y-81381854D01*
X255723304Y-79985189D02*
X240239584Y-81886351D01*
X240239584Y-81886351D02*
X238679656Y-69181761D01*
X238679656Y-69181761D02*
X254163376Y-67280599D01*
X254163376Y-67280599D02*
X255723304Y-79985189D01*
X240878117Y-115395812D02*
X225394397Y-117296974D01*
X225394397Y-117296974D02*
X223834469Y-104592384D01*
X223834469Y-104592384D02*
X239318189Y-102691222D01*
X239318189Y-102691222D02*
X240878117Y-115395812D01*
X68193622Y-123634668D02*
X83677342Y-125535830D01*
X83677342Y-125535830D02*
X82117414Y-138240420D01*
X82117414Y-138240420D02*
X66633694Y-136339258D01*
X66633694Y-136339258D02*
X68193622Y-123634668D01*
X195929721Y-140107839D02*
X180446001Y-142009001D01*
X180446001Y-142009001D02*
X178886073Y-129304411D01*
X178886073Y-129304411D02*
X194369793Y-127403249D01*
X194369793Y-127403249D02*
X195929721Y-140107839D01*
X198418889Y-82223022D02*
X182935169Y-84124184D01*
X182935169Y-84124184D02*
X181375241Y-71419594D01*
X181375241Y-71419594D02*
X196858961Y-69518432D01*
X196858961Y-69518432D02*
X198418889Y-82223022D01*
X56292342Y-83787250D02*
X71776062Y-85688412D01*
X71776062Y-85688412D02*
X70216134Y-98393002D01*
X70216134Y-98393002D02*
X54732414Y-96491840D01*
X54732414Y-96491840D02*
X56292342Y-83787250D01*
X216746488Y-75174410D02*
X201262768Y-77075572D01*
X201262768Y-77075572D02*
X199702840Y-64370982D01*
X199702840Y-64370982D02*
X215186560Y-62469820D01*
X215186560Y-62469820D02*
X216746488Y-75174410D01*
X115337963Y-71844076D02*
X130821683Y-73745238D01*
X130821683Y-73745238D02*
X129261755Y-86449828D01*
X129261755Y-86449828D02*
X113778035Y-84548666D01*
X113778035Y-84548666D02*
X115337963Y-71844076D01*
X179510885Y-84544632D02*
X164027165Y-86445794D01*
X164027165Y-86445794D02*
X162467237Y-73741204D01*
X162467237Y-73741204D02*
X177950957Y-71840042D01*
X177950957Y-71840042D02*
X179510885Y-84544632D01*
X200740500Y-101131028D02*
X185256780Y-103032190D01*
X185256780Y-103032190D02*
X183696852Y-90327600D01*
X183696852Y-90327600D02*
X199180572Y-88426438D01*
X199180572Y-88426438D02*
X200740500Y-101131028D01*
X258044910Y-98893195D02*
X242561190Y-100794357D01*
X242561190Y-100794357D02*
X241001262Y-88089767D01*
X241001262Y-88089767D02*
X256484982Y-86188605D01*
X256484982Y-86188605D02*
X258044910Y-98893195D01*
X221389710Y-112990419D02*
X205905990Y-114891581D01*
X205905990Y-114891581D02*
X204346062Y-102186991D01*
X204346062Y-102186991D02*
X219829782Y-100285829D01*
X219829782Y-100285829D02*
X221389710Y-112990419D01*
X184154106Y-122360643D02*
X168670386Y-124261805D01*
X168670386Y-124261805D02*
X167110458Y-111557215D01*
X167110458Y-111557215D02*
X182594178Y-109656053D01*
X182594178Y-109656053D02*
X184154106Y-122360643D01*
X138839472Y-77958057D02*
X154439472Y-77958057D01*
X154439472Y-77958057D02*
X154439472Y-90758057D01*
X154439472Y-90758057D02*
X138839472Y-90758057D01*
X138839472Y-90758057D02*
X138839472Y-77958057D01*
X98919127Y-127407283D02*
X114402847Y-129308445D01*
X114402847Y-129308445D02*
X112842919Y-142013035D01*
X112842919Y-142013035D02*
X97359199Y-140111873D01*
X97359199Y-140111873D02*
X98919127Y-127407283D01*
M02*
