%TF.GenerationSoftware,KiCad,Pcbnew,7.0.7-7.0.7~ubuntu23.04.1*%
%TF.CreationDate,Date%
%TF.ProjectId,LeChiffre_Plate,4c654368-6966-4667-9265-5f506c617465,rev?*%
%TF.SameCoordinates,Original*%
%TF.FileFunction,Drillmap*%
%TF.FilePolarity,Positive*%
%FSLAX45Y45*%
G04 Gerber Fmt 4.5, Leading zero omitted, Abs format (unit mm)*
G04 Created by KiCad*
%MOMM*%
%LPD*%
G01*
G04 APERTURE LIST*
%ADD10C,0.200000*%
%ADD11C,0.010000*%
G04 APERTURE END LIST*
D10*
X16431050Y-5871771D02*
X16431050Y-10420372D01*
X22195072Y-6195902D02*
G75*
G03*
X22245072Y-6145906I-2J50002D01*
G01*
X22750074Y-10432156D02*
G75*
G03*
X22800072Y-10482156I49996J-4D01*
G01*
X22195072Y-8100906D02*
X20895072Y-8100906D01*
X12721050Y-4967036D02*
X14599036Y-4967036D01*
D11*
X16746050Y-5661771D02*
G75*
G03*
X16746050Y-5661771I-15000J0D01*
G01*
D10*
X16077028Y-7148408D02*
G75*
G03*
X16127028Y-7098406I2J49998D01*
G01*
X21956947Y-12387156D02*
X20656947Y-12387156D01*
D11*
X16446050Y-5721771D02*
G75*
G03*
X16446050Y-5721771I-15000J0D01*
G01*
D10*
X22800072Y-5272156D02*
X24100072Y-5272156D01*
X24705072Y-5272152D02*
G75*
G03*
X24655072Y-5322156I-2J-49998D01*
G01*
X18385072Y-9053406D02*
X17085072Y-9053406D01*
X12317024Y-6750906D02*
G75*
G03*
X12267028Y-6700906I-49994J6D01*
G01*
X20290072Y-6672152D02*
G75*
G03*
X20340072Y-6622156I-2J50002D01*
G01*
X18332204Y-5255361D02*
G75*
G03*
X18332204Y-5255361I-105000J0D01*
G01*
X20441050Y-4967030D02*
G75*
G03*
X20561050Y-4847036I0J120000D01*
G01*
X16731050Y-10420372D02*
X16731050Y-5871771D01*
D11*
X16746050Y-10450372D02*
G75*
G03*
X16746050Y-10450372I-15000J0D01*
G01*
D10*
X10967028Y-8605908D02*
G75*
G03*
X10917028Y-8655906I2J-50002D01*
G01*
X9012024Y-6622156D02*
G75*
G03*
X9062028Y-6672156I50006J6D01*
G01*
X18940074Y-10432156D02*
G75*
G03*
X18990072Y-10482156I49996J-4D01*
G01*
X16731050Y-10420372D02*
X16431050Y-10420372D01*
X7265728Y-10787158D02*
G75*
G03*
X7215728Y-10837156I2J-50002D01*
G01*
X16294044Y-11270812D02*
G75*
G03*
X16418113Y-11155026I4156J119912D01*
G01*
X16822155Y-5395301D02*
X18534169Y-4970567D01*
X16127024Y-9608406D02*
G75*
G03*
X16077028Y-9558406I-49994J6D01*
G01*
X24150074Y-7227156D02*
G75*
G03*
X24100072Y-7177156I-50004J-4D01*
G01*
X14222028Y-8527156D02*
X14222028Y-7227156D01*
X12822028Y-10432156D02*
X12822028Y-9132156D01*
X20895072Y-4795902D02*
G75*
G03*
X20845072Y-4845906I-2J-49998D01*
G01*
X10967028Y-6700908D02*
G75*
G03*
X10917028Y-6750906I2J-50002D01*
G01*
X22750072Y-6622156D02*
X22750072Y-5322156D01*
X9653328Y-10787158D02*
G75*
G03*
X9603328Y-10837156I2J-50002D01*
G01*
X8109528Y-10987158D02*
G75*
G03*
X8059528Y-11037156I2J-50002D01*
G01*
X23752572Y-10987156D02*
X25052572Y-10987156D01*
X9062028Y-5272156D02*
X10362028Y-5272156D01*
X10412024Y-9132156D02*
G75*
G03*
X10362028Y-9082156I-49994J6D01*
G01*
X20340074Y-9132156D02*
G75*
G03*
X20290072Y-9082156I-50004J-4D01*
G01*
X6801050Y-5321284D02*
X6484231Y-5003412D01*
X12317028Y-6145906D02*
X12317028Y-4845906D01*
X10412024Y-7227156D02*
G75*
G03*
X10362028Y-7177156I-49994J6D01*
G01*
X10362028Y-8577156D02*
X9062028Y-8577156D01*
X6513625Y-12710433D02*
G75*
G03*
X6896117Y-13032465I191245J-161017D01*
G01*
X22800072Y-9082152D02*
G75*
G03*
X22750072Y-9132156I-2J-49998D01*
G01*
X26055072Y-7227156D02*
X26055072Y-8527156D01*
X20340072Y-9132156D02*
X20340072Y-10432156D01*
D11*
X16446050Y-5841771D02*
G75*
G03*
X16446050Y-5841771I-15000J0D01*
G01*
X16746050Y-10630372D02*
G75*
G03*
X16746050Y-10630372I-15000J0D01*
G01*
D10*
X22750074Y-8527156D02*
G75*
G03*
X22800072Y-8577156I49996J-4D01*
G01*
X23702572Y-12337156D02*
X23702572Y-11037156D01*
X21956947Y-12387157D02*
G75*
G03*
X22006947Y-12337156I3J49997D01*
G01*
X7265728Y-10787156D02*
X7865728Y-10787156D01*
X25246372Y-12237156D02*
X25246372Y-10837156D01*
X25896372Y-12287156D02*
X25296372Y-12287156D01*
X20340072Y-8527156D02*
X20340072Y-7227156D01*
X20561050Y-4847036D02*
X20561050Y-4635786D01*
X12267028Y-8605906D02*
X10967028Y-8605906D01*
X22671050Y-4967036D02*
X26007719Y-4967036D01*
X7865728Y-12287156D02*
X7265728Y-12287156D01*
X14777028Y-7653408D02*
G75*
G03*
X14727028Y-7703406I2J-50002D01*
G01*
X22800072Y-7177152D02*
G75*
G03*
X22750072Y-7227156I-2J-49998D01*
G01*
X18990072Y-9082152D02*
G75*
G03*
X18940072Y-9132156I-2J-49998D01*
G01*
X22006947Y-11037156D02*
X22006947Y-12337156D01*
X7915724Y-10837156D02*
G75*
G03*
X7865728Y-10787156I-49994J6D01*
G01*
X14222028Y-5322156D02*
X14222028Y-6622156D01*
X18990072Y-5272152D02*
G75*
G03*
X18940072Y-5322156I-2J-49998D01*
G01*
X11205153Y-10987156D02*
X12505153Y-10987156D01*
X19687194Y-11114659D02*
G75*
G03*
X19687194Y-11114659I-105000J0D01*
G01*
X20895072Y-6195906D02*
X22195072Y-6195906D01*
X20845072Y-4845906D02*
X20845072Y-6145906D01*
X12555153Y-11037156D02*
X12555153Y-12337156D01*
X20845074Y-9955906D02*
G75*
G03*
X20895072Y-10005906I49996J-4D01*
G01*
X14727024Y-7098406D02*
G75*
G03*
X14777028Y-7148406I50006J6D01*
G01*
X11155154Y-12337156D02*
G75*
G03*
X11205153Y-12387156I49996J-4D01*
G01*
X14777028Y-9558408D02*
G75*
G03*
X14727028Y-9608406I2J-50002D01*
G01*
X20845072Y-8655906D02*
X20845072Y-9955906D01*
X18990072Y-9082156D02*
X20290072Y-9082156D01*
X8059524Y-12337156D02*
G75*
G03*
X8109528Y-12387156I50006J6D01*
G01*
X17085072Y-9558402D02*
G75*
G03*
X17035072Y-9608406I-2J-49998D01*
G01*
D11*
X16446050Y-5661771D02*
G75*
G03*
X16446050Y-5661771I-15000J0D01*
G01*
D10*
X18563064Y-4967036D02*
G75*
G03*
X18534169Y-4970567I-4J-119944D01*
G01*
X8059528Y-12337156D02*
X8059528Y-11037156D01*
X26005072Y-10482152D02*
G75*
G03*
X26055072Y-10432156I-2J50002D01*
G01*
X13189175Y-12692045D02*
G75*
G03*
X13309175Y-12572036I5J119995D01*
G01*
X17035072Y-7098406D02*
X17035072Y-5798406D01*
X24705072Y-9082152D02*
G75*
G03*
X24655072Y-9132156I-2J-49998D01*
G01*
X10917028Y-4845906D02*
X10917028Y-6145906D01*
X12601044Y-4847036D02*
G75*
G03*
X12721050Y-4967036I120006J6D01*
G01*
D11*
X16746050Y-5541771D02*
G75*
G03*
X16746050Y-5541771I-15000J0D01*
G01*
D10*
X12505153Y-12387156D02*
X11205153Y-12387156D01*
X16127028Y-5798406D02*
X16127028Y-7098406D01*
X25296372Y-10787152D02*
G75*
G03*
X25246372Y-10837156I-2J-49998D01*
G01*
D11*
X16746050Y-10510372D02*
G75*
G03*
X16746050Y-10510372I-15000J0D01*
G01*
D10*
X10253328Y-12287158D02*
G75*
G03*
X10303328Y-12237156I2J49998D01*
G01*
X26005072Y-8577156D02*
X24705072Y-8577156D01*
X14777028Y-5748408D02*
G75*
G03*
X14727028Y-5798406I2J-50002D01*
G01*
X10731050Y-4515780D02*
G75*
G03*
X10611050Y-4635786I10J-120010D01*
G01*
X20606947Y-12337156D02*
X20606947Y-11037156D01*
X16076050Y-11263286D02*
X14541050Y-11263286D01*
X20290072Y-8577152D02*
G75*
G03*
X20340072Y-8527156I-2J50002D01*
G01*
X10491050Y-4967030D02*
G75*
G03*
X10611050Y-4847036I10J119990D01*
G01*
X12872028Y-5272156D02*
X14172028Y-5272156D01*
X10917028Y-8655906D02*
X10917028Y-9955906D01*
X10731050Y-4515786D02*
X12481050Y-4515786D01*
X19852934Y-12572036D02*
G75*
G03*
X19972925Y-12692036I119986J-14D01*
G01*
X10917024Y-8050906D02*
G75*
G03*
X10967028Y-8100906I50006J6D01*
G01*
X25946374Y-10837156D02*
G75*
G03*
X25896372Y-10787156I-50004J-4D01*
G01*
X26361050Y-5321284D02*
X26361050Y-12368538D01*
X16077028Y-10958408D02*
G75*
G03*
X16127028Y-10908406I2J49998D01*
G01*
X8457028Y-6672158D02*
G75*
G03*
X8507028Y-6622156I2J49998D01*
G01*
X7107024Y-6622156D02*
G75*
G03*
X7157028Y-6672156I50006J6D01*
G01*
X6838369Y-4650447D02*
G75*
G03*
X6484231Y-5003412I-177069J-176483D01*
G01*
X14727028Y-9003406D02*
X14727028Y-7703406D01*
X8457028Y-6672156D02*
X7157028Y-6672156D01*
X10362028Y-8577158D02*
G75*
G03*
X10412028Y-8527156I2J49998D01*
G01*
X12317024Y-4845906D02*
G75*
G03*
X12267028Y-4795906I-49994J6D01*
G01*
D11*
X16746050Y-5781771D02*
G75*
G03*
X16746050Y-5781771I-15000J0D01*
G01*
D10*
X7157028Y-9082156D02*
X8457028Y-9082156D01*
X20290072Y-6672156D02*
X18990072Y-6672156D01*
X22800072Y-5272152D02*
G75*
G03*
X22750072Y-5322156I-2J-49998D01*
G01*
X25896372Y-12287152D02*
G75*
G03*
X25946372Y-12237156I-2J50002D01*
G01*
X14172028Y-6672158D02*
G75*
G03*
X14222028Y-6622156I2J49998D01*
G01*
X16743985Y-11155026D02*
G75*
G03*
X16868057Y-11270814I119915J4126D01*
G01*
X10412024Y-5322156D02*
G75*
G03*
X10362028Y-5272156I-49994J6D01*
G01*
X22245072Y-6145906D02*
X22245072Y-4845906D01*
X10967028Y-6700906D02*
X12267028Y-6700906D01*
X22195072Y-10005902D02*
G75*
G03*
X22245072Y-9955906I-2J50002D01*
G01*
D11*
X16746050Y-5601771D02*
G75*
G03*
X16746050Y-5601771I-15000J0D01*
G01*
D10*
X26605799Y-4826929D02*
G75*
G03*
X26605799Y-4826929I-105000J0D01*
G01*
D11*
X16446050Y-10570372D02*
G75*
G03*
X16446050Y-10570372I-15000J0D01*
G01*
D10*
X12267028Y-6195908D02*
G75*
G03*
X12317028Y-6145906I2J49998D01*
G01*
X25052572Y-12387152D02*
G75*
G03*
X25102572Y-12337156I-2J50002D01*
G01*
X8109528Y-10987156D02*
X9409528Y-10987156D01*
X14627931Y-4970568D02*
G75*
G03*
X14599036Y-4967036I-28891J-116412D01*
G01*
X12872028Y-9082156D02*
X14172028Y-9082156D01*
X11155153Y-12337156D02*
X11155153Y-11037156D01*
X26005072Y-6672152D02*
G75*
G03*
X26055072Y-6622156I-2J50002D01*
G01*
X24150072Y-5322156D02*
X24150072Y-6622156D01*
X7157028Y-7177158D02*
G75*
G03*
X7107028Y-7227156I2J-50002D01*
G01*
X10362028Y-6672156D02*
X9062028Y-6672156D01*
X22006944Y-11037156D02*
G75*
G03*
X21956947Y-10987156I-50004J-4D01*
G01*
X24150074Y-5322156D02*
G75*
G03*
X24100072Y-5272156I-50004J-4D01*
G01*
X8507024Y-7227156D02*
G75*
G03*
X8457028Y-7177156I-49994J6D01*
G01*
X14727028Y-10908406D02*
X14727028Y-9608406D01*
X16431050Y-10780372D02*
X16418113Y-11155026D01*
X9603328Y-12237156D02*
X9603328Y-10837156D01*
X17085072Y-9558406D02*
X18385072Y-9558406D01*
X16743987Y-11155026D02*
X16731050Y-10780372D01*
X9653328Y-10787156D02*
X10253328Y-10787156D01*
X17085072Y-7653406D02*
X18385072Y-7653406D01*
D11*
X16446050Y-10750372D02*
G75*
G03*
X16446050Y-10750372I-15000J0D01*
G01*
D10*
X10917024Y-9955906D02*
G75*
G03*
X10967028Y-10005906I50006J6D01*
G01*
X20845072Y-8050906D02*
X20845072Y-6750906D01*
X20656947Y-10987156D02*
X21956947Y-10987156D01*
X16127028Y-9608406D02*
X16127028Y-10908406D01*
D11*
X16746050Y-5721771D02*
G75*
G03*
X16746050Y-5721771I-15000J0D01*
G01*
D10*
X24655072Y-8527156D02*
X24655072Y-7227156D01*
X17085072Y-7653402D02*
G75*
G03*
X17035072Y-7703406I-2J-49998D01*
G01*
X14541050Y-11263286D02*
X13408082Y-11465588D01*
X12872028Y-8577156D02*
X14172028Y-8577156D01*
X10611050Y-4847036D02*
X10611050Y-4635786D01*
X24705072Y-9082156D02*
X26005072Y-9082156D01*
X18435074Y-5798406D02*
G75*
G03*
X18385072Y-5748406I-50004J-4D01*
G01*
D11*
X16446050Y-10510372D02*
G75*
G03*
X16446050Y-10510372I-15000J0D01*
G01*
D10*
X12317028Y-9955906D02*
X12317028Y-8655906D01*
X24655074Y-10432156D02*
G75*
G03*
X24705072Y-10482156I49996J-4D01*
G01*
X18990072Y-7177152D02*
G75*
G03*
X18940072Y-7227156I-2J-49998D01*
G01*
X7157028Y-5272158D02*
G75*
G03*
X7107028Y-5322156I2J-50002D01*
G01*
X25102574Y-11037156D02*
G75*
G03*
X25052572Y-10987156I-50004J-4D01*
G01*
X18435074Y-7703406D02*
G75*
G03*
X18385072Y-7653406I-50004J-4D01*
G01*
X14172028Y-10482156D02*
X12872028Y-10482156D01*
X26361050Y-12368538D02*
X26489274Y-12521349D01*
X22245074Y-4845906D02*
G75*
G03*
X22195072Y-4795906I-50004J-4D01*
G01*
X24100072Y-8577156D02*
X22800072Y-8577156D01*
X24150072Y-10432156D02*
X24150072Y-9132156D01*
D11*
X16446050Y-5541771D02*
G75*
G03*
X16446050Y-5541771I-15000J0D01*
G01*
D10*
X14172028Y-10482158D02*
G75*
G03*
X14222028Y-10432156I2J49998D01*
G01*
D11*
X16746050Y-5841771D02*
G75*
G03*
X16746050Y-5841771I-15000J0D01*
G01*
X16446050Y-10630372D02*
G75*
G03*
X16446050Y-10630372I-15000J0D01*
G01*
D10*
X18990072Y-8577156D02*
X20290072Y-8577156D01*
X18563064Y-4967036D02*
X20441050Y-4967036D01*
X19852925Y-12572036D02*
X19852925Y-11583719D01*
X22858772Y-12237156D02*
X22858772Y-10837156D01*
X20895072Y-8605902D02*
G75*
G03*
X20845072Y-8655906I-2J-49998D01*
G01*
X17085072Y-5748406D02*
X18385072Y-5748406D01*
X7182734Y-12692036D02*
X6896117Y-13032465D01*
X9062028Y-10482156D02*
X10362028Y-10482156D01*
X22245074Y-8655906D02*
G75*
G03*
X22195072Y-8605906I-50004J-4D01*
G01*
X24705072Y-5272156D02*
X26005072Y-5272156D01*
X16431049Y-5511771D02*
G75*
G03*
X16339945Y-5395301I-119999J1D01*
G01*
X18435072Y-5798406D02*
X18435072Y-7098406D01*
X9459528Y-11037156D02*
X9459528Y-12337156D01*
X22245072Y-6750906D02*
X22245072Y-8050906D01*
X7157028Y-5272156D02*
X8457028Y-5272156D01*
X20290072Y-7177156D02*
X18990072Y-7177156D01*
X18385072Y-10958402D02*
G75*
G03*
X18435072Y-10908406I-2J50002D01*
G01*
X6838370Y-4650446D02*
X7012863Y-4825518D01*
X22908772Y-10787152D02*
G75*
G03*
X22858772Y-10837156I-2J-49998D01*
G01*
X23752572Y-10987152D02*
G75*
G03*
X23702572Y-11037156I-2J-49998D01*
G01*
X22800072Y-7177156D02*
X24100072Y-7177156D01*
X18940072Y-7227156D02*
X18940072Y-8527156D01*
X7865728Y-12287158D02*
G75*
G03*
X7915728Y-12237156I2J49998D01*
G01*
X12267028Y-8100908D02*
G75*
G03*
X12317028Y-8050906I2J49998D01*
G01*
X20681050Y-4515786D02*
X22431050Y-4515786D01*
X12267028Y-8100906D02*
X10967028Y-8100906D01*
X20895072Y-6700902D02*
G75*
G03*
X20845072Y-6750906I-2J-49998D01*
G01*
X12601050Y-4635786D02*
X12601050Y-4847036D01*
X14172028Y-8577158D02*
G75*
G03*
X14222028Y-8527156I2J49998D01*
G01*
X14222024Y-5322156D02*
G75*
G03*
X14172028Y-5272156I-49994J6D01*
G01*
X22551044Y-4847036D02*
G75*
G03*
X22671050Y-4967036I119996J-4D01*
G01*
X13309175Y-11583719D02*
X13309175Y-12572036D01*
X9409528Y-12387158D02*
G75*
G03*
X9459528Y-12337156I2J49998D01*
G01*
X22551050Y-4635786D02*
X22551050Y-4847036D01*
X10412028Y-10432156D02*
X10412028Y-9132156D01*
X7157028Y-7177156D02*
X8457028Y-7177156D01*
X17035074Y-9003406D02*
G75*
G03*
X17085072Y-9053406I49996J-4D01*
G01*
X22750074Y-6622156D02*
G75*
G03*
X22800072Y-6672156I49996J-4D01*
G01*
X14777028Y-5748406D02*
X16077028Y-5748406D01*
X20340072Y-5322156D02*
X20340072Y-6622156D01*
X22750072Y-8527156D02*
X22750072Y-7227156D01*
X10412028Y-7227156D02*
X10412028Y-8527156D01*
X12505153Y-12387153D02*
G75*
G03*
X12555153Y-12337156I7J49993D01*
G01*
X23558772Y-10837156D02*
X23558772Y-12237156D01*
X25102572Y-11037156D02*
X25102572Y-12337156D01*
X6513628Y-12710436D02*
X6672826Y-12521349D01*
X12822024Y-10432156D02*
G75*
G03*
X12872028Y-10482156I50006J6D01*
G01*
X12555154Y-11037156D02*
G75*
G03*
X12505153Y-10987156I-50004J-4D01*
G01*
X9012028Y-9132156D02*
X9012028Y-10432156D01*
X26007719Y-4967036D02*
X26149237Y-4825518D01*
X6672826Y-12521349D02*
X6801050Y-12368538D01*
X18940074Y-6622156D02*
G75*
G03*
X18990072Y-6672156I49996J-4D01*
G01*
X10362028Y-9082156D02*
X9062028Y-9082156D01*
X26677869Y-5003412D02*
X26361050Y-5321284D01*
X7215728Y-12237156D02*
X7215728Y-10837156D01*
X9012024Y-8527156D02*
G75*
G03*
X9062028Y-8577156I50006J6D01*
G01*
X18435074Y-9608406D02*
G75*
G03*
X18385072Y-9558406I-50004J-4D01*
G01*
X23702574Y-12337156D02*
G75*
G03*
X23752572Y-12387156I49996J-4D01*
G01*
X10253328Y-12287156D02*
X9653328Y-12287156D01*
X24705072Y-7177152D02*
G75*
G03*
X24655072Y-7227156I-2J-49998D01*
G01*
X24655074Y-8527156D02*
G75*
G03*
X24705072Y-8577156I49996J-4D01*
G01*
X7107028Y-6622156D02*
X7107028Y-5322156D01*
X8507028Y-9132156D02*
X8507028Y-10432156D01*
X17085072Y-5748402D02*
G75*
G03*
X17035072Y-5798406I-2J-49998D01*
G01*
X13408081Y-11465584D02*
G75*
G03*
X13309175Y-11583719I21099J-118136D01*
G01*
X10967028Y-4795908D02*
G75*
G03*
X10917028Y-4845906I2J-50002D01*
G01*
X14222028Y-9132156D02*
X14222028Y-10432156D01*
X20340074Y-5322156D02*
G75*
G03*
X20290072Y-5272156I-50004J-4D01*
G01*
D11*
X16446050Y-10450372D02*
G75*
G03*
X16446050Y-10450372I-15000J0D01*
G01*
D10*
X14172028Y-6672156D02*
X12872028Y-6672156D01*
X22195072Y-4795906D02*
X20895072Y-4795906D01*
X22195072Y-8605906D02*
X20895072Y-8605906D01*
X16077028Y-9053408D02*
G75*
G03*
X16127028Y-9003406I2J49998D01*
G01*
D11*
X16446050Y-5601771D02*
G75*
G03*
X16446050Y-5601771I-15000J0D01*
G01*
D10*
X26149237Y-4825518D02*
X26323730Y-4650446D01*
X26055072Y-5322156D02*
X26055072Y-6622156D01*
X17086050Y-11263286D02*
X16868057Y-11270814D01*
X10967028Y-10005906D02*
X12267028Y-10005906D01*
X24655072Y-10432156D02*
X24655072Y-9132156D01*
X12267028Y-4795906D02*
X10967028Y-4795906D01*
X18940072Y-10432156D02*
X18940072Y-9132156D01*
X24100072Y-9082156D02*
X22800072Y-9082156D01*
X17035072Y-10908406D02*
X17035072Y-9608406D01*
X18385072Y-10958406D02*
X17085072Y-10958406D01*
X16731050Y-5511771D02*
X16431050Y-5511771D01*
X12601044Y-4635786D02*
G75*
G03*
X12481050Y-4515786I-119994J6D01*
G01*
X26677871Y-5003414D02*
G75*
G03*
X26323730Y-4650446I-177071J176484D01*
G01*
X15039896Y-5255361D02*
G75*
G03*
X15039896Y-5255361I-105000J0D01*
G01*
X24655074Y-6622156D02*
G75*
G03*
X24705072Y-6672156I49996J-4D01*
G01*
X14222024Y-9132156D02*
G75*
G03*
X14172028Y-9082156I-49994J6D01*
G01*
X10412028Y-5322156D02*
X10412028Y-6622156D01*
X19852921Y-11583719D02*
G75*
G03*
X19754018Y-11465588I-120001J-1D01*
G01*
X9062028Y-7177158D02*
G75*
G03*
X9012028Y-7227156I2J-50002D01*
G01*
X10303324Y-10837156D02*
G75*
G03*
X10253328Y-10787156I-49994J6D01*
G01*
X8457028Y-8577158D02*
G75*
G03*
X8507028Y-8527156I2J49998D01*
G01*
X24150072Y-7227156D02*
X24150072Y-8527156D01*
X26055074Y-5322156D02*
G75*
G03*
X26005072Y-5272156I-50004J-4D01*
G01*
X7915728Y-10837156D02*
X7915728Y-12237156D01*
X14627931Y-4970567D02*
X16339945Y-5395301D01*
X9603324Y-12237156D02*
G75*
G03*
X9653328Y-12287156I50006J6D01*
G01*
X26005072Y-10482156D02*
X24705072Y-10482156D01*
X10917024Y-6145906D02*
G75*
G03*
X10967028Y-6195906I50006J6D01*
G01*
X14727024Y-10908406D02*
G75*
G03*
X14777028Y-10958406I50006J6D01*
G01*
X26265983Y-13032465D02*
X25979366Y-12692036D01*
X9012028Y-8527156D02*
X9012028Y-7227156D01*
X24705072Y-7177156D02*
X26005072Y-7177156D01*
X14727028Y-7098406D02*
X14727028Y-5798406D01*
X8507028Y-7227156D02*
X8507028Y-8527156D01*
X24100072Y-8577152D02*
G75*
G03*
X24150072Y-8527156I-2J50002D01*
G01*
X22245072Y-9955906D02*
X22245072Y-8655906D01*
X20290072Y-10482156D02*
X18990072Y-10482156D01*
X26055074Y-7227156D02*
G75*
G03*
X26005072Y-7177156I-50004J-4D01*
G01*
X20606944Y-12337156D02*
G75*
G03*
X20656947Y-12387156I49996J-4D01*
G01*
X18435072Y-7703406D02*
X18435072Y-9003406D01*
X20895072Y-10005906D02*
X22195072Y-10005906D01*
X13684907Y-11114659D02*
G75*
G03*
X13684907Y-11114659I-105000J0D01*
G01*
X7107024Y-10432156D02*
G75*
G03*
X7157028Y-10482156I50006J6D01*
G01*
X9012028Y-6622156D02*
X9012028Y-5322156D01*
X18990072Y-5272156D02*
X20290072Y-5272156D01*
X16077028Y-7148406D02*
X14777028Y-7148406D01*
X22551044Y-4635786D02*
G75*
G03*
X22431050Y-4515786I-120004J-4D01*
G01*
X16822155Y-5395301D02*
G75*
G03*
X16731050Y-5511771I28895J-116469D01*
G01*
X25979366Y-12692036D02*
X19972925Y-12692036D01*
X12822028Y-6622156D02*
X12822028Y-5322156D01*
X24655072Y-6622156D02*
X24655072Y-5322156D01*
X23558774Y-10837156D02*
G75*
G03*
X23508772Y-10787156I-50004J-4D01*
G01*
X24100072Y-10482152D02*
G75*
G03*
X24150072Y-10432156I-2J50002D01*
G01*
X26562228Y-12871450D02*
G75*
G03*
X26562228Y-12871450I-105000J0D01*
G01*
X8507028Y-5322156D02*
X8507028Y-6622156D01*
X9062028Y-9082158D02*
G75*
G03*
X9012028Y-9132156I2J-50002D01*
G01*
X6766301Y-4826929D02*
G75*
G03*
X6766301Y-4826929I-105000J0D01*
G01*
X23508772Y-12287152D02*
G75*
G03*
X23558772Y-12237156I-2J50002D01*
G01*
X14777028Y-9558406D02*
X16077028Y-9558406D01*
D11*
X16746050Y-10750372D02*
G75*
G03*
X16746050Y-10750372I-15000J0D01*
G01*
D10*
X17035072Y-9003406D02*
X17035072Y-7703406D01*
X23508772Y-12287156D02*
X22908772Y-12287156D01*
X12822028Y-7227156D02*
X12822028Y-8527156D01*
X26055074Y-9132156D02*
G75*
G03*
X26005072Y-9082156I-50004J-4D01*
G01*
X10303328Y-10837156D02*
X10303328Y-12237156D01*
X26005072Y-8577152D02*
G75*
G03*
X26055072Y-8527156I-2J50002D01*
G01*
D11*
X16446050Y-5781771D02*
G75*
G03*
X16446050Y-5781771I-15000J0D01*
G01*
D10*
X24100072Y-6672152D02*
G75*
G03*
X24150072Y-6622156I-2J50002D01*
G01*
X20656947Y-10987157D02*
G75*
G03*
X20606947Y-11037156I3J-50003D01*
G01*
X12267028Y-10005908D02*
G75*
G03*
X12317028Y-9955906I2J49998D01*
G01*
X16127024Y-5798406D02*
G75*
G03*
X16077028Y-5748406I-49994J6D01*
G01*
X18435072Y-9608406D02*
X18435072Y-10908406D01*
X26055072Y-9132156D02*
X26055072Y-10432156D01*
X22858774Y-12237156D02*
G75*
G03*
X22908772Y-12287156I49996J-4D01*
G01*
X20845074Y-8050906D02*
G75*
G03*
X20895072Y-8100906I49996J-4D01*
G01*
X26489274Y-12521349D02*
X26648472Y-12710436D01*
X17035074Y-7098406D02*
G75*
G03*
X17085072Y-7148406I49996J-4D01*
G01*
X25246374Y-12237156D02*
G75*
G03*
X25296372Y-12287156I49996J-4D01*
G01*
X11205153Y-10987153D02*
G75*
G03*
X11155153Y-11037156I7J-50007D01*
G01*
X8457028Y-8577156D02*
X7157028Y-8577156D01*
X22750072Y-9132156D02*
X22750072Y-10432156D01*
X18621050Y-11263286D02*
X17086050Y-11263286D01*
X22195072Y-8100902D02*
G75*
G03*
X22245072Y-8050906I-2J50002D01*
G01*
X22245074Y-6750906D02*
G75*
G03*
X22195072Y-6700906I-50004J-4D01*
G01*
X9459524Y-11037156D02*
G75*
G03*
X9409528Y-10987156I-49994J6D01*
G01*
X18385072Y-7148402D02*
G75*
G03*
X18435072Y-7098406I-2J50002D01*
G01*
X18940072Y-6622156D02*
X18940072Y-5322156D01*
X7012863Y-4825518D02*
X7154381Y-4967036D01*
X9012024Y-10432156D02*
G75*
G03*
X9062028Y-10482156I50006J6D01*
G01*
X12872028Y-7177158D02*
G75*
G03*
X12822028Y-7227156I2J-50002D01*
G01*
X10967028Y-6195906D02*
X12267028Y-6195906D01*
X16077028Y-9053406D02*
X14777028Y-9053406D01*
D11*
X16746050Y-10690372D02*
G75*
G03*
X16746050Y-10690372I-15000J0D01*
G01*
D10*
X24100072Y-6672156D02*
X22800072Y-6672156D01*
X17035074Y-10908406D02*
G75*
G03*
X17085072Y-10958406I49996J-4D01*
G01*
X8457028Y-10482156D02*
X7157028Y-10482156D01*
X18385072Y-7148406D02*
X17085072Y-7148406D01*
X9062028Y-7177156D02*
X10362028Y-7177156D01*
X20340074Y-7227156D02*
G75*
G03*
X20290072Y-7177156I-50004J-4D01*
G01*
X7107028Y-10432156D02*
X7107028Y-9132156D01*
X20845074Y-6145906D02*
G75*
G03*
X20895072Y-6195906I49996J-4D01*
G01*
X25946372Y-10837156D02*
X25946372Y-12237156D01*
X12822024Y-8527156D02*
G75*
G03*
X12872028Y-8577156I50006J6D01*
G01*
X6809872Y-12871450D02*
G75*
G03*
X6809872Y-12871450I-105000J0D01*
G01*
X16294043Y-11270814D02*
X16076050Y-11263286D01*
X22908772Y-10787156D02*
X23508772Y-10787156D01*
X26005072Y-6672156D02*
X24705072Y-6672156D01*
X25296372Y-10787156D02*
X25896372Y-10787156D01*
X16127024Y-7703406D02*
G75*
G03*
X16077028Y-7653406I-49994J6D01*
G01*
D11*
X16746050Y-10570372D02*
G75*
G03*
X16746050Y-10570372I-15000J0D01*
G01*
D10*
X14727024Y-9003406D02*
G75*
G03*
X14777028Y-9053406I50006J6D01*
G01*
X9062028Y-5272158D02*
G75*
G03*
X9012028Y-5322156I2J-50002D01*
G01*
X8507024Y-9132156D02*
G75*
G03*
X8457028Y-9082156I-49994J6D01*
G01*
X22800072Y-10482156D02*
X24100072Y-10482156D01*
X16731050Y-10780372D02*
X16431050Y-10780372D01*
X19754018Y-11465588D02*
X18621050Y-11263286D01*
X14777028Y-7653406D02*
X16077028Y-7653406D01*
X12317028Y-6750906D02*
X12317028Y-8050906D01*
X10917028Y-8050906D02*
X10917028Y-6750906D01*
X8457028Y-10482158D02*
G75*
G03*
X8507028Y-10432156I2J49998D01*
G01*
X7157028Y-9082158D02*
G75*
G03*
X7107028Y-9132156I2J-50002D01*
G01*
X24150074Y-9132156D02*
G75*
G03*
X24100072Y-9082156I-50004J-4D01*
G01*
X8507024Y-5322156D02*
G75*
G03*
X8457028Y-5272156I-49994J6D01*
G01*
X12822024Y-6622156D02*
G75*
G03*
X12872028Y-6672156I50006J6D01*
G01*
X14172028Y-7177156D02*
X12872028Y-7177156D01*
X18940074Y-8527156D02*
G75*
G03*
X18990072Y-8577156I49996J-4D01*
G01*
X26265987Y-13032462D02*
G75*
G03*
X26648472Y-12710436I191243J161012D01*
G01*
X13189175Y-12692036D02*
X7182734Y-12692036D01*
X9409528Y-12387156D02*
X8109528Y-12387156D01*
X16127028Y-7703406D02*
X16127028Y-9003406D01*
X6801050Y-12368538D02*
X6801050Y-5321284D01*
X16077028Y-10958406D02*
X14777028Y-10958406D01*
D11*
X16446050Y-10690372D02*
G75*
G03*
X16446050Y-10690372I-15000J0D01*
G01*
D10*
X18385072Y-9053402D02*
G75*
G03*
X18435072Y-9003406I-2J50002D01*
G01*
X16731050Y-5871771D02*
X16431050Y-5871771D01*
X7215724Y-12237156D02*
G75*
G03*
X7265728Y-12287156I50006J6D01*
G01*
X12872028Y-5272158D02*
G75*
G03*
X12822028Y-5322156I2J-50002D01*
G01*
X20895072Y-6700906D02*
X22195072Y-6700906D01*
X12317024Y-8655906D02*
G75*
G03*
X12267028Y-8605906I-49994J6D01*
G01*
X10362028Y-6672158D02*
G75*
G03*
X10412028Y-6622156I2J49998D01*
G01*
X10362028Y-10482158D02*
G75*
G03*
X10412028Y-10432156I2J49998D01*
G01*
X7154381Y-4967036D02*
X10491050Y-4967036D01*
X14222024Y-7227156D02*
G75*
G03*
X14172028Y-7177156I-49994J6D01*
G01*
X7107028Y-8527156D02*
X7107028Y-7227156D01*
X12872028Y-9082158D02*
G75*
G03*
X12822028Y-9132156I2J-50002D01*
G01*
X7107024Y-8527156D02*
G75*
G03*
X7157028Y-8577156I50006J6D01*
G01*
X20681050Y-4515780D02*
G75*
G03*
X20561050Y-4635786I0J-120000D01*
G01*
X25052572Y-12387156D02*
X23752572Y-12387156D01*
X20290072Y-10482152D02*
G75*
G03*
X20340072Y-10432156I-2J50002D01*
G01*
X6662078Y-13442936D02*
X6662078Y-13242936D01*
X6662078Y-13242936D02*
X6709697Y-13242936D01*
X6709697Y-13242936D02*
X6738268Y-13252460D01*
X6738268Y-13252460D02*
X6757316Y-13271507D01*
X6757316Y-13271507D02*
X6766840Y-13290555D01*
X6766840Y-13290555D02*
X6776364Y-13328650D01*
X6776364Y-13328650D02*
X6776364Y-13357222D01*
X6776364Y-13357222D02*
X6766840Y-13395317D01*
X6766840Y-13395317D02*
X6757316Y-13414364D01*
X6757316Y-13414364D02*
X6738268Y-13433412D01*
X6738268Y-13433412D02*
X6709697Y-13442936D01*
X6709697Y-13442936D02*
X6662078Y-13442936D01*
X6862078Y-13442936D02*
X6862078Y-13309602D01*
X6862078Y-13347698D02*
X6871602Y-13328650D01*
X6871602Y-13328650D02*
X6881125Y-13319126D01*
X6881125Y-13319126D02*
X6900173Y-13309602D01*
X6900173Y-13309602D02*
X6919221Y-13309602D01*
X6985887Y-13442936D02*
X6985887Y-13309602D01*
X6985887Y-13242936D02*
X6976364Y-13252460D01*
X6976364Y-13252460D02*
X6985887Y-13261983D01*
X6985887Y-13261983D02*
X6995411Y-13252460D01*
X6995411Y-13252460D02*
X6985887Y-13242936D01*
X6985887Y-13242936D02*
X6985887Y-13261983D01*
X7109697Y-13442936D02*
X7090649Y-13433412D01*
X7090649Y-13433412D02*
X7081125Y-13414364D01*
X7081125Y-13414364D02*
X7081125Y-13242936D01*
X7214459Y-13442936D02*
X7195411Y-13433412D01*
X7195411Y-13433412D02*
X7185887Y-13414364D01*
X7185887Y-13414364D02*
X7185887Y-13242936D01*
X7443030Y-13442936D02*
X7443030Y-13242936D01*
X7443030Y-13242936D02*
X7509697Y-13385793D01*
X7509697Y-13385793D02*
X7576364Y-13242936D01*
X7576364Y-13242936D02*
X7576364Y-13442936D01*
X7757316Y-13442936D02*
X7757316Y-13338174D01*
X7757316Y-13338174D02*
X7747792Y-13319126D01*
X7747792Y-13319126D02*
X7728745Y-13309602D01*
X7728745Y-13309602D02*
X7690649Y-13309602D01*
X7690649Y-13309602D02*
X7671602Y-13319126D01*
X7757316Y-13433412D02*
X7738268Y-13442936D01*
X7738268Y-13442936D02*
X7690649Y-13442936D01*
X7690649Y-13442936D02*
X7671602Y-13433412D01*
X7671602Y-13433412D02*
X7662078Y-13414364D01*
X7662078Y-13414364D02*
X7662078Y-13395317D01*
X7662078Y-13395317D02*
X7671602Y-13376269D01*
X7671602Y-13376269D02*
X7690649Y-13366745D01*
X7690649Y-13366745D02*
X7738268Y-13366745D01*
X7738268Y-13366745D02*
X7757316Y-13357222D01*
X7852554Y-13309602D02*
X7852554Y-13509602D01*
X7852554Y-13319126D02*
X7871602Y-13309602D01*
X7871602Y-13309602D02*
X7909697Y-13309602D01*
X7909697Y-13309602D02*
X7928745Y-13319126D01*
X7928745Y-13319126D02*
X7938268Y-13328650D01*
X7938268Y-13328650D02*
X7947792Y-13347698D01*
X7947792Y-13347698D02*
X7947792Y-13404841D01*
X7947792Y-13404841D02*
X7938268Y-13423888D01*
X7938268Y-13423888D02*
X7928745Y-13433412D01*
X7928745Y-13433412D02*
X7909697Y-13442936D01*
X7909697Y-13442936D02*
X7871602Y-13442936D01*
X7871602Y-13442936D02*
X7852554Y-13433412D01*
X8033506Y-13423888D02*
X8043030Y-13433412D01*
X8043030Y-13433412D02*
X8033506Y-13442936D01*
X8033506Y-13442936D02*
X8023983Y-13433412D01*
X8023983Y-13433412D02*
X8033506Y-13423888D01*
X8033506Y-13423888D02*
X8033506Y-13442936D01*
X8033506Y-13319126D02*
X8043030Y-13328650D01*
X8043030Y-13328650D02*
X8033506Y-13338174D01*
X8033506Y-13338174D02*
X8023983Y-13328650D01*
X8023983Y-13328650D02*
X8033506Y-13319126D01*
X8033506Y-13319126D02*
X8033506Y-13338174D01*
M02*
