G04 #@! TF.GenerationSoftware,KiCad,Pcbnew,7.0.10-7.0.10~ubuntu23.04.1*
G04 #@! TF.CreationDate,2024-02-26T22:41:54+00:00*
G04 #@! TF.ProjectId,LeChiffre_Plate,4c654368-6966-4667-9265-5f506c617465,rev?*
G04 #@! TF.SameCoordinates,Original*
G04 #@! TF.FileFunction,Profile,NP*
%FSLAX46Y46*%
G04 Gerber Fmt 4.6, Leading zero omitted, Abs format (unit mm)*
G04 Created by KiCad (PCBNEW 7.0.10-7.0.10~ubuntu23.04.1) date 2024-02-26 22:41:54*
%MOMM*%
%LPD*%
G01*
G04 APERTURE LIST*
G04 #@! TA.AperFunction,Profile*
%ADD10C,0.200000*%
G04 #@! TD*
G04 #@! TA.AperFunction,Profile*
%ADD11C,0.010000*%
G04 #@! TD*
G04 APERTURE END LIST*
D10*
X164310499Y-58717706D02*
X164310500Y-104203724D01*
X221950721Y-61959022D02*
G75*
G03*
X222450722Y-61459064I-21J500022D01*
G01*
X227500737Y-104321563D02*
G75*
G03*
X228000721Y-104821563I499963J-37D01*
G01*
X221950721Y-81009063D02*
X208950721Y-81009064D01*
X127210500Y-49670362D02*
X145990359Y-49670363D01*
D11*
X167460499Y-56617706D02*
G75*
G03*
X167160499Y-56617706I-150000J0D01*
G01*
X167160499Y-56617706D02*
G75*
G03*
X167460499Y-56617706I150000J0D01*
G01*
D10*
X160770279Y-71484078D02*
G75*
G03*
X161270278Y-70984063I21J499978D01*
G01*
X219569472Y-123871563D02*
X206569472Y-123871564D01*
D11*
X164460499Y-57217706D02*
G75*
G03*
X164160499Y-57217706I-150000J0D01*
G01*
X164160499Y-57217706D02*
G75*
G03*
X164460499Y-57217706I150000J0D01*
G01*
D10*
X228000721Y-52721564D02*
X241000721Y-52721563D01*
X247050720Y-52721522D02*
G75*
G03*
X246550722Y-53221564I-20J-499978D01*
G01*
X183850721Y-90534063D02*
X170850721Y-90534064D01*
X123170236Y-67509063D02*
G75*
G03*
X122670278Y-67009064I-499936J63D01*
G01*
X202900721Y-66721523D02*
G75*
G03*
X203400723Y-66221564I-21J500023D01*
G01*
X183322042Y-52553611D02*
G75*
G03*
X181222040Y-52553611I-1050001J0D01*
G01*
X181222040Y-52553611D02*
G75*
G03*
X183322042Y-52553611I1050001J0D01*
G01*
X204410500Y-49670300D02*
G75*
G03*
X205610500Y-48470363I0J1200000D01*
G01*
X167310500Y-104203724D02*
X167310501Y-58717706D01*
D11*
X167460500Y-104503724D02*
G75*
G03*
X167160500Y-104503724I-150000J0D01*
G01*
X167160500Y-104503724D02*
G75*
G03*
X167460500Y-104503724I150000J0D01*
G01*
D10*
X109670279Y-86059078D02*
G75*
G03*
X109170278Y-86559063I21J-500022D01*
G01*
X90120237Y-66221564D02*
G75*
G03*
X90620279Y-66721563I500063J64D01*
G01*
X189400737Y-104321563D02*
G75*
G03*
X189900720Y-104821563I499963J-37D01*
G01*
X167310500Y-104203724D02*
X164310500Y-104203724D01*
X72657278Y-107871580D02*
G75*
G03*
X72157280Y-108371563I22J-500020D01*
G01*
X162940436Y-112708120D02*
G75*
G03*
X164181130Y-111550262I41564J1199120D01*
G01*
X168221551Y-53953013D02*
X185341691Y-49705671D01*
X161270237Y-96084063D02*
G75*
G03*
X160770279Y-95584063I-499937J63D01*
G01*
X241500738Y-72271563D02*
G75*
G03*
X241000722Y-71771562I-500038J-37D01*
G01*
X142220278Y-85271563D02*
X142220279Y-72271563D01*
X128220278Y-104321563D02*
X128220280Y-91321563D01*
X208950722Y-47959021D02*
G75*
G03*
X208450721Y-48459064I-22J-499979D01*
G01*
X109670278Y-67009079D02*
G75*
G03*
X109170279Y-67509064I22J-500021D01*
G01*
X227500721Y-66221564D02*
X227500721Y-53221564D01*
X96533278Y-107871579D02*
G75*
G03*
X96033279Y-108371564I22J-500021D01*
G01*
X81095278Y-109871578D02*
G75*
G03*
X80595278Y-110371563I22J-500022D01*
G01*
X237525721Y-109871564D02*
X250525721Y-109871563D01*
X90620279Y-52721563D02*
X103620279Y-52721564D01*
X104120236Y-91321564D02*
G75*
G03*
X103620279Y-90821564I-499936J64D01*
G01*
X203400736Y-91321563D02*
G75*
G03*
X202900721Y-90821564I-500036J-37D01*
G01*
X68010500Y-53212839D02*
X64842310Y-50034123D01*
X123170278Y-61459064D02*
X123170279Y-48459064D01*
X104120236Y-72271564D02*
G75*
G03*
X103620279Y-71771564I-499936J64D01*
G01*
X103620279Y-85771564D02*
X90620279Y-85771563D01*
X65136250Y-127104334D02*
G75*
G03*
X68961166Y-130324648I1912450J-1610166D01*
G01*
X228000721Y-90821522D02*
G75*
G03*
X227500722Y-91321564I-21J-499978D01*
G01*
X260550722Y-72271564D02*
X260550721Y-85271564D01*
X203400720Y-91321563D02*
X203400722Y-104321563D01*
D11*
X164460499Y-58417706D02*
G75*
G03*
X164160499Y-58417706I-150000J0D01*
G01*
X164160499Y-58417706D02*
G75*
G03*
X164460499Y-58417706I150000J0D01*
G01*
X167460500Y-106303724D02*
G75*
G03*
X167160500Y-106303724I-150000J0D01*
G01*
X167160500Y-106303724D02*
G75*
G03*
X167460500Y-106303724I150000J0D01*
G01*
D10*
X227500736Y-85271563D02*
G75*
G03*
X228000721Y-85771564I499964J-37D01*
G01*
X237025721Y-123371564D02*
X237025722Y-110371563D01*
X219569472Y-123871571D02*
G75*
G03*
X220069471Y-123371563I28J499971D01*
G01*
X72657279Y-107871563D02*
X78657278Y-107871563D01*
X252463721Y-122371564D02*
X252463722Y-108371564D01*
X258963721Y-122871564D02*
X252963721Y-122871564D01*
X203400722Y-85271564D02*
X203400721Y-72271564D01*
X205610500Y-48470363D02*
X205610500Y-46357862D01*
X122670278Y-86059064D02*
X109670279Y-86059063D01*
X226710500Y-49670363D02*
X260077189Y-49670363D01*
X78657279Y-122871564D02*
X72657279Y-122871564D01*
X147770279Y-76534079D02*
G75*
G03*
X147270279Y-77034063I21J-500021D01*
G01*
X228000721Y-71771522D02*
G75*
G03*
X227500722Y-72271564I-21J-499978D01*
G01*
X189900721Y-90821520D02*
G75*
G03*
X189400720Y-91321563I-21J-499980D01*
G01*
X220069471Y-110371563D02*
X220069471Y-123371563D01*
X79157237Y-108371563D02*
G75*
G03*
X78657278Y-107871563I-499937J63D01*
G01*
X142220279Y-53221564D02*
X142220278Y-66221563D01*
X189900723Y-52721521D02*
G75*
G03*
X189400721Y-53221564I-23J-499979D01*
G01*
X112051528Y-109871563D02*
X125051528Y-109871564D01*
X196871935Y-111146587D02*
G75*
G03*
X194771933Y-111146587I-1050001J0D01*
G01*
X194771933Y-111146587D02*
G75*
G03*
X196871935Y-111146587I1050001J0D01*
G01*
X208950721Y-61959064D02*
X221950721Y-61959063D01*
X208450721Y-48459064D02*
X208450722Y-61459064D01*
X125551529Y-110371563D02*
X125551529Y-123371563D01*
X208450737Y-99559063D02*
G75*
G03*
X208950722Y-100059063I499963J-37D01*
G01*
X147270237Y-70984064D02*
G75*
G03*
X147770279Y-71484063I500063J64D01*
G01*
X111551537Y-123371563D02*
G75*
G03*
X112051528Y-123871563I499963J-37D01*
G01*
X147770280Y-95584079D02*
G75*
G03*
X147270279Y-96084063I20J-500021D01*
G01*
X208450721Y-86559063D02*
X208450721Y-99559063D01*
X189900721Y-90821564D02*
X202900721Y-90821564D01*
X80595237Y-123371563D02*
G75*
G03*
X81095278Y-123871563I500063J63D01*
G01*
X170850721Y-95584021D02*
G75*
G03*
X170350721Y-96084063I-21J-499979D01*
G01*
D11*
X164460499Y-56617706D02*
G75*
G03*
X164160499Y-56617706I-150000J0D01*
G01*
X164160499Y-56617706D02*
G75*
G03*
X164460499Y-56617706I150000J0D01*
G01*
D10*
X185630641Y-49670356D02*
G75*
G03*
X185341692Y-49705670I-41J-1199444D01*
G01*
X80595279Y-123371564D02*
X80595278Y-110371563D01*
X260050722Y-104821521D02*
G75*
G03*
X260550721Y-104321563I-22J500021D01*
G01*
X131891750Y-126920450D02*
G75*
G03*
X133091750Y-125720363I50J1199950D01*
G01*
X170350722Y-70984063D02*
X170350721Y-57984063D01*
X247050721Y-90821522D02*
G75*
G03*
X246550722Y-91321564I-21J-499978D01*
G01*
X109170279Y-48459064D02*
X109170278Y-61459064D01*
X126010438Y-48470363D02*
G75*
G03*
X127210500Y-49670362I1200062J63D01*
G01*
D11*
X167460499Y-55417706D02*
G75*
G03*
X167160499Y-55417706I-150000J0D01*
G01*
X167160499Y-55417706D02*
G75*
G03*
X167460499Y-55417706I150000J0D01*
G01*
D10*
X125051528Y-123871564D02*
X112051528Y-123871563D01*
X161270279Y-57984063D02*
X161270278Y-70984063D01*
X252963722Y-107871521D02*
G75*
G03*
X252463721Y-108371563I-22J-499979D01*
G01*
D11*
X167460500Y-105103724D02*
G75*
G03*
X167160500Y-105103724I-150000J0D01*
G01*
X167160500Y-105103724D02*
G75*
G03*
X167460500Y-105103724I150000J0D01*
G01*
D10*
X102533279Y-122871580D02*
G75*
G03*
X103033280Y-122371563I21J499980D01*
G01*
X260050722Y-85771563D02*
X247050722Y-85771564D01*
X147770279Y-57484079D02*
G75*
G03*
X147270279Y-57984064I21J-500021D01*
G01*
X107310501Y-45157800D02*
G75*
G03*
X106110500Y-46357862I99J-1200100D01*
G01*
X206069471Y-123371563D02*
X206069471Y-110371563D01*
X160760500Y-112632863D02*
X145410500Y-112632863D01*
X202900721Y-85771522D02*
G75*
G03*
X203400722Y-85271564I-21J500022D01*
G01*
X104910500Y-49670300D02*
G75*
G03*
X106110500Y-48470363I100J1199900D01*
G01*
X128720279Y-52721563D02*
X141720277Y-52721564D01*
X109170278Y-86559063D02*
X109170278Y-99559063D01*
X107310500Y-45157863D02*
X124810500Y-45157863D01*
X198529338Y-125720363D02*
G75*
G03*
X199729250Y-126920362I1199862J-137D01*
G01*
X109170237Y-80509064D02*
G75*
G03*
X109670279Y-81009063I500063J64D01*
G01*
X259463737Y-108371563D02*
G75*
G03*
X258963722Y-107871563I-500037J-37D01*
G01*
X263610500Y-53212839D02*
X263610499Y-123685378D01*
X160770279Y-109584078D02*
G75*
G03*
X161270278Y-109084063I21J499978D01*
G01*
X84570279Y-66721579D02*
G75*
G03*
X85070279Y-66221563I21J499979D01*
G01*
X71070237Y-66221563D02*
G75*
G03*
X71570278Y-66721563I500063J63D01*
G01*
X68383687Y-46504474D02*
G75*
G03*
X64842310Y-50034123I-1770687J-1764826D01*
G01*
X147270279Y-90034063D02*
X147270279Y-77034063D01*
X84570278Y-66721564D02*
X71570278Y-66721563D01*
X103620279Y-85771579D02*
G75*
G03*
X104120279Y-85271563I21J499979D01*
G01*
X123170236Y-48459064D02*
G75*
G03*
X122670278Y-47959064I-499936J64D01*
G01*
D11*
X167460499Y-57817706D02*
G75*
G03*
X167160499Y-57817706I-150000J0D01*
G01*
X167160499Y-57817706D02*
G75*
G03*
X167460499Y-57817706I150000J0D01*
G01*
D10*
X71570279Y-90821563D02*
X84570279Y-90821564D01*
X202900721Y-66721563D02*
X189900721Y-66721564D01*
X228000721Y-52721522D02*
G75*
G03*
X227500722Y-53221564I-21J-499978D01*
G01*
X258963721Y-122871521D02*
G75*
G03*
X259463721Y-122371564I-21J500021D01*
G01*
X141720279Y-66721578D02*
G75*
G03*
X142220278Y-66221563I21J499978D01*
G01*
X167439853Y-111550263D02*
G75*
G03*
X168680565Y-112708137I1199147J41263D01*
G01*
X104120236Y-53221564D02*
G75*
G03*
X103620279Y-52721564I-499936J64D01*
G01*
X222450722Y-61459064D02*
X222450721Y-48459064D01*
X109670278Y-67009062D02*
X122670278Y-67009064D01*
X221950721Y-100059023D02*
G75*
G03*
X222450723Y-99559063I-21J500023D01*
G01*
D11*
X167460499Y-56017706D02*
G75*
G03*
X167160499Y-56017706I-150000J0D01*
G01*
X167160499Y-56017706D02*
G75*
G03*
X167460499Y-56017706I150000J0D01*
G01*
D10*
X266057993Y-48269290D02*
G75*
G03*
X263957993Y-48269290I-1050000J0D01*
G01*
X263957993Y-48269290D02*
G75*
G03*
X266057993Y-48269290I1050000J0D01*
G01*
D11*
X164460500Y-105703724D02*
G75*
G03*
X164160500Y-105703724I-150000J0D01*
G01*
X164160500Y-105703724D02*
G75*
G03*
X164460500Y-105703724I150000J0D01*
G01*
D10*
X122670279Y-61959078D02*
G75*
G03*
X123170278Y-61459064I21J499978D01*
G01*
X250525722Y-123871521D02*
G75*
G03*
X251025721Y-123371563I-22J500021D01*
G01*
X81095279Y-109871563D02*
X94095279Y-109871564D01*
X146279306Y-49705677D02*
G75*
G03*
X145990359Y-49670363I-288906J-1164123D01*
G01*
X128720279Y-90821564D02*
X141720279Y-90821564D01*
X111551529Y-123371563D02*
X111551529Y-110371563D01*
X260050722Y-66721521D02*
G75*
G03*
X260550721Y-66221563I-22J500021D01*
G01*
X241500722Y-53221564D02*
X241500721Y-66221564D01*
X71570278Y-71771578D02*
G75*
G03*
X71070278Y-72271564I22J-500022D01*
G01*
X103620279Y-66721564D02*
X90620279Y-66721563D01*
X220069437Y-110371563D02*
G75*
G03*
X219569472Y-109871563I-500037J-37D01*
G01*
X241500737Y-53221564D02*
G75*
G03*
X241000722Y-52721563I-500037J-36D01*
G01*
X85070235Y-72271564D02*
G75*
G03*
X84570279Y-71771565I-499935J64D01*
G01*
X147270279Y-109084063D02*
X147270279Y-96084063D01*
X164310500Y-107803724D02*
X164181131Y-111550262D01*
X96033279Y-122371564D02*
X96033279Y-108371564D01*
X170850721Y-95584063D02*
X183850721Y-95584064D01*
X167439869Y-111550262D02*
X167310500Y-107803724D01*
X96533278Y-107871564D02*
X102533278Y-107871564D01*
X170850721Y-76534064D02*
X183850721Y-76534063D01*
D11*
X164460500Y-107503724D02*
G75*
G03*
X164160500Y-107503724I-150000J0D01*
G01*
X164160500Y-107503724D02*
G75*
G03*
X164460500Y-107503724I150000J0D01*
G01*
D10*
X109170236Y-99559063D02*
G75*
G03*
X109670279Y-100059064I500064J63D01*
G01*
X208450721Y-80509063D02*
X208450721Y-67509063D01*
X206569472Y-109871564D02*
X219569472Y-109871563D01*
X161270279Y-96084063D02*
X161270278Y-109084063D01*
D11*
X167460499Y-57217706D02*
G75*
G03*
X167160499Y-57217706I-150000J0D01*
G01*
X167160499Y-57217706D02*
G75*
G03*
X167460499Y-57217706I150000J0D01*
G01*
D10*
X246550721Y-85271563D02*
X246550722Y-72271563D01*
X170850721Y-76534021D02*
G75*
G03*
X170350721Y-77034063I-21J-499979D01*
G01*
X145410500Y-112632863D02*
X134080816Y-114655878D01*
X128720279Y-85771563D02*
X141720279Y-85771564D01*
X106110500Y-48470363D02*
X106110500Y-46357862D01*
X247050721Y-90821564D02*
X260050721Y-90821563D01*
X184350737Y-57984064D02*
G75*
G03*
X183850721Y-57484063I-500037J-36D01*
G01*
D11*
X164460500Y-105103724D02*
G75*
G03*
X164160500Y-105103724I-150000J0D01*
G01*
X164160500Y-105103724D02*
G75*
G03*
X164460500Y-105103724I150000J0D01*
G01*
D10*
X123170279Y-99559063D02*
X123170279Y-86559063D01*
X246550736Y-104321563D02*
G75*
G03*
X247050721Y-104821564I499964J-37D01*
G01*
X189900721Y-71771521D02*
G75*
G03*
X189400721Y-72271563I-21J-499979D01*
G01*
X71570278Y-52721578D02*
G75*
G03*
X71070278Y-53221564I22J-500022D01*
G01*
X251025737Y-110371563D02*
G75*
G03*
X250525722Y-109871563I-500037J-37D01*
G01*
X184350737Y-77034063D02*
G75*
G03*
X183850721Y-76534063I-500037J-37D01*
G01*
X141720280Y-104821563D02*
X128720279Y-104821564D01*
X263610499Y-123685378D02*
X264892741Y-125213493D01*
X222450737Y-48459064D02*
G75*
G03*
X221950722Y-47959063I-500037J-36D01*
G01*
X241000721Y-85771563D02*
X228000721Y-85771564D01*
X241500721Y-104321563D02*
X241500722Y-91321562D01*
D11*
X164460499Y-55417706D02*
G75*
G03*
X164160499Y-55417706I-150000J0D01*
G01*
X164160499Y-55417706D02*
G75*
G03*
X164460499Y-55417706I150000J0D01*
G01*
D10*
X141720280Y-104821578D02*
G75*
G03*
X142220278Y-104321563I20J499978D01*
G01*
D11*
X167460499Y-58417706D02*
G75*
G03*
X167160499Y-58417706I-150000J0D01*
G01*
X167160499Y-58417706D02*
G75*
G03*
X167460499Y-58417706I150000J0D01*
G01*
X164460500Y-106303724D02*
G75*
G03*
X164160500Y-106303724I-150000J0D01*
G01*
X164160500Y-106303724D02*
G75*
G03*
X164460500Y-106303724I150000J0D01*
G01*
D10*
X189900721Y-85771564D02*
X202900721Y-85771563D01*
X185630641Y-49670363D02*
X204410500Y-49670362D01*
X198529250Y-125720363D02*
X198529250Y-115837193D01*
X228587720Y-122371563D02*
X228587721Y-108371564D01*
X208950722Y-86059021D02*
G75*
G03*
X208450721Y-86559063I-22J-499979D01*
G01*
X170850721Y-57484064D02*
X183850721Y-57484063D01*
X71827336Y-126920362D02*
X68961166Y-130324648D01*
X90620279Y-104821564D02*
X103620279Y-104821563D01*
X222450736Y-86559063D02*
G75*
G03*
X221950721Y-86059064I-500036J-37D01*
G01*
X247050720Y-52721564D02*
X260050721Y-52721563D01*
X164310494Y-55117706D02*
G75*
G03*
X163399449Y-53953014I-1199994J6D01*
G01*
X184350721Y-57984064D02*
X184350721Y-70984064D01*
X94595278Y-110371563D02*
X94595279Y-123371564D01*
X222450721Y-67509064D02*
X222450722Y-80509064D01*
X71570279Y-52721563D02*
X84570280Y-52721564D01*
X202900721Y-71771562D02*
X189900721Y-71771564D01*
X183850721Y-109584022D02*
G75*
G03*
X184350722Y-109084064I-21J500022D01*
G01*
X68383703Y-46504456D02*
X70128628Y-48255179D01*
X229087722Y-107871521D02*
G75*
G03*
X228587721Y-108371564I-22J-499979D01*
G01*
X237525721Y-109871523D02*
G75*
G03*
X237025723Y-110371564I-21J-499977D01*
G01*
X228000721Y-71771564D02*
X241000721Y-71771563D01*
X189400721Y-72271563D02*
X189400722Y-85271563D01*
X78657279Y-122871579D02*
G75*
G03*
X79157279Y-122371564I21J499979D01*
G01*
X122670279Y-81009079D02*
G75*
G03*
X123170279Y-80509063I21J499979D01*
G01*
X206810500Y-45157863D02*
X224310500Y-45157863D01*
X122670279Y-81009064D02*
X109670279Y-81009063D01*
X208950722Y-67009021D02*
G75*
G03*
X208450721Y-67509063I-22J-499979D01*
G01*
X126010500Y-46357862D02*
X126010500Y-48470363D01*
X141720279Y-85771578D02*
G75*
G03*
X142220278Y-85271563I21J499978D01*
G01*
X142220236Y-53221564D02*
G75*
G03*
X141720277Y-52721564I-499936J64D01*
G01*
X225510438Y-48470363D02*
G75*
G03*
X226710500Y-49670362I1199962J-37D01*
G01*
X133091750Y-115837193D02*
X133091750Y-125720363D01*
X94095279Y-123871579D02*
G75*
G03*
X94595279Y-123371564I21J499979D01*
G01*
X225510500Y-46357862D02*
X225510500Y-48470363D01*
X104120279Y-104321563D02*
X104120279Y-91321563D01*
X71570279Y-71771563D02*
X84570279Y-71771565D01*
X170350736Y-90034063D02*
G75*
G03*
X170850721Y-90534064I499964J-37D01*
G01*
X227500736Y-66221564D02*
G75*
G03*
X228000721Y-66721564I499964J-36D01*
G01*
X147770279Y-57484063D02*
X160770279Y-57484064D01*
X203400721Y-53221564D02*
X203400723Y-66221564D01*
X227500721Y-85271563D02*
X227500721Y-72271563D01*
X104120279Y-72271563D02*
X104120279Y-85271563D01*
X125051529Y-123871529D02*
G75*
G03*
X125551529Y-123371563I71J499929D01*
G01*
X235587721Y-108371564D02*
X235587721Y-122371564D01*
X251025722Y-110371563D02*
X251025721Y-123371564D01*
X65136280Y-127104361D02*
X66728259Y-125213493D01*
X128220236Y-104321564D02*
G75*
G03*
X128720279Y-104821564I500064J64D01*
G01*
X125551536Y-110371563D02*
G75*
G03*
X125051528Y-109871564I-500036J-37D01*
G01*
X90120278Y-91321562D02*
X90120279Y-104321563D01*
X260077189Y-49670363D02*
X261492372Y-48255179D01*
X66728259Y-125213493D02*
X68010501Y-123685378D01*
X189400736Y-66221563D02*
G75*
G03*
X189900721Y-66721564I499964J-37D01*
G01*
X103620279Y-90821564D02*
X90620279Y-90821563D01*
X266778690Y-50034123D02*
X263610500Y-53212839D01*
X72157280Y-122371563D02*
X72157280Y-108371563D01*
X90120237Y-85271564D02*
G75*
G03*
X90620279Y-85771563I500063J64D01*
G01*
X184350736Y-96084063D02*
G75*
G03*
X183850720Y-95584064I-500036J-37D01*
G01*
X237025736Y-123371564D02*
G75*
G03*
X237525721Y-123871564I499964J-36D01*
G01*
X102533279Y-122871563D02*
X96533279Y-122871563D01*
X247050721Y-71771522D02*
G75*
G03*
X246550722Y-72271564I-21J-499978D01*
G01*
X246550736Y-85271563D02*
G75*
G03*
X247050720Y-85771564I499964J-37D01*
G01*
X71070280Y-66221564D02*
X71070278Y-53221564D01*
X85070278Y-91321563D02*
X85070279Y-104321563D01*
X170850721Y-57484021D02*
G75*
G03*
X170350721Y-57984063I-21J-499979D01*
G01*
X134080810Y-114655844D02*
G75*
G03*
X133091750Y-115837193I210990J-1181356D01*
G01*
X109670278Y-47959079D02*
G75*
G03*
X109170279Y-48459064I22J-500021D01*
G01*
X142220280Y-91321563D02*
X142220278Y-104321563D01*
X203400737Y-53221564D02*
G75*
G03*
X202900721Y-52721563I-500037J-36D01*
G01*
D11*
X164460500Y-104503724D02*
G75*
G03*
X164160500Y-104503724I-150000J0D01*
G01*
X164160500Y-104503724D02*
G75*
G03*
X164460500Y-104503724I150000J0D01*
G01*
D10*
X141720279Y-66721564D02*
X128720279Y-66721563D01*
X221950722Y-47959063D02*
X208950722Y-47959064D01*
X221950721Y-86059063D02*
X208950722Y-86059064D01*
X160770279Y-90534078D02*
G75*
G03*
X161270278Y-90034063I21J499978D01*
G01*
D11*
X164460499Y-56017706D02*
G75*
G03*
X164160499Y-56017706I-150000J0D01*
G01*
X164160499Y-56017706D02*
G75*
G03*
X164460499Y-56017706I150000J0D01*
G01*
D10*
X261492372Y-48255179D02*
X263237297Y-46504456D01*
X260550722Y-53221564D02*
X260550720Y-66221564D01*
X170860500Y-112632863D02*
X168680566Y-112708136D01*
X109670279Y-100059064D02*
X122670278Y-100059063D01*
X246550721Y-104321563D02*
X246550722Y-91321563D01*
X122670278Y-47959064D02*
X109670278Y-47959063D01*
X189400722Y-104321563D02*
X189400720Y-91321563D01*
X241000721Y-90821563D02*
X228000721Y-90821564D01*
X170350722Y-109084063D02*
X170350721Y-96084063D01*
X183850721Y-109584064D02*
X170850721Y-109584063D01*
X167310499Y-55117706D02*
X164310499Y-55117706D01*
X126010437Y-46357863D02*
G75*
G03*
X124810500Y-45157863I-1199937J63D01*
G01*
X266778706Y-50034139D02*
G75*
G03*
X263237297Y-46504458I-1770706J1764839D01*
G01*
X150398960Y-52553611D02*
G75*
G03*
X148298958Y-52553611I-1050001J0D01*
G01*
X148298958Y-52553611D02*
G75*
G03*
X150398960Y-52553611I1050001J0D01*
G01*
X246550737Y-66221563D02*
G75*
G03*
X247050721Y-66721563I499963J-37D01*
G01*
X142220236Y-91321563D02*
G75*
G03*
X141720279Y-90821564I-499936J63D01*
G01*
X104120279Y-53221564D02*
X104120279Y-66221564D01*
X198529214Y-115837193D02*
G75*
G03*
X197540184Y-114655879I-1200014J-7D01*
G01*
X90620278Y-71771578D02*
G75*
G03*
X90120278Y-72271563I22J-500022D01*
G01*
X103033236Y-108371564D02*
G75*
G03*
X102533278Y-107871564I-499936J64D01*
G01*
X84570280Y-85771579D02*
G75*
G03*
X85070279Y-85271563I20J499979D01*
G01*
X241500722Y-72271563D02*
X241500721Y-85271564D01*
X260550737Y-53221564D02*
G75*
G03*
X260050722Y-52721563I-500037J-36D01*
G01*
X79157278Y-108371564D02*
X79157279Y-122371564D01*
X146279309Y-49705671D02*
X163399449Y-53953013D01*
X96033237Y-122371564D02*
G75*
G03*
X96533279Y-122871563I500063J64D01*
G01*
X260050722Y-104821564D02*
X247050723Y-104821563D01*
X109170237Y-61459064D02*
G75*
G03*
X109670279Y-61959063I500063J64D01*
G01*
X147270236Y-109084064D02*
G75*
G03*
X147770279Y-109584064I500064J64D01*
G01*
X262659834Y-130324648D02*
X259793664Y-126920362D01*
X90120279Y-85271564D02*
X90120278Y-72271563D01*
X247050721Y-71771565D02*
X260050721Y-71771563D01*
X147270279Y-70984064D02*
X147270279Y-57984064D01*
X85070278Y-72271563D02*
X85070279Y-85271563D01*
X241000721Y-85771521D02*
G75*
G03*
X241500721Y-85271564I-21J500021D01*
G01*
X222450722Y-99559063D02*
X222450722Y-86559063D01*
X202900721Y-104821564D02*
X189900720Y-104821563D01*
X260550737Y-72271564D02*
G75*
G03*
X260050722Y-71771563I-500037J-36D01*
G01*
X206069437Y-123371563D02*
G75*
G03*
X206569471Y-123871563I499963J-37D01*
G01*
X184350721Y-77034063D02*
X184350721Y-90034063D01*
X208950722Y-100059063D02*
X221950721Y-100059064D01*
X136849067Y-111146587D02*
G75*
G03*
X134749065Y-111146587I-1050001J0D01*
G01*
X134749065Y-111146587D02*
G75*
G03*
X136849067Y-111146587I1050001J0D01*
G01*
X71070236Y-104321563D02*
G75*
G03*
X71570278Y-104821564I500064J63D01*
G01*
X90120279Y-66221564D02*
X90120278Y-53221564D01*
X189900723Y-52721564D02*
X202900721Y-52721563D01*
X160770279Y-71484064D02*
X147770279Y-71484063D01*
X225510438Y-46357862D02*
G75*
G03*
X224310499Y-45157862I-1200038J-38D01*
G01*
X168221550Y-53953009D02*
G75*
G03*
X167310501Y-55117706I288950J-1164691D01*
G01*
X259793664Y-126920362D02*
X199729250Y-126920362D01*
X128220277Y-66221564D02*
X128220279Y-53221564D01*
X246550721Y-66221563D02*
X246550722Y-53221563D01*
X235587736Y-108371564D02*
G75*
G03*
X235087722Y-107871564I-500036J-36D01*
G01*
X241000721Y-104821521D02*
G75*
G03*
X241500721Y-104321564I-21J500021D01*
G01*
X265622277Y-128714505D02*
G75*
G03*
X263522277Y-128714505I-1050000J0D01*
G01*
X263522277Y-128714505D02*
G75*
G03*
X265622277Y-128714505I1050000J0D01*
G01*
X85070278Y-53221563D02*
X85070279Y-66221563D01*
X90620279Y-90821578D02*
G75*
G03*
X90120278Y-91321562I21J-500022D01*
G01*
X67663007Y-48269290D02*
G75*
G03*
X65563007Y-48269290I-1050000J0D01*
G01*
X65563007Y-48269290D02*
G75*
G03*
X67663007Y-48269290I1050000J0D01*
G01*
X235087721Y-122871521D02*
G75*
G03*
X235587721Y-122371564I-21J500021D01*
G01*
X147770279Y-95584064D02*
X160770279Y-95584063D01*
D11*
X167460500Y-107503724D02*
G75*
G03*
X167160500Y-107503724I-150000J0D01*
G01*
X167160500Y-107503724D02*
G75*
G03*
X167460500Y-107503724I150000J0D01*
G01*
D10*
X170350722Y-90034063D02*
X170350721Y-77034063D01*
X235087721Y-122871563D02*
X229087721Y-122871563D01*
X128220279Y-72271564D02*
X128220278Y-85271564D01*
X260550736Y-91321563D02*
G75*
G03*
X260050721Y-90821564I-500036J-37D01*
G01*
X103033279Y-108371564D02*
X103033280Y-122371563D01*
X260050722Y-85771521D02*
G75*
G03*
X260550721Y-85271563I-22J500021D01*
G01*
D11*
X164460499Y-57817706D02*
G75*
G03*
X164160499Y-57817706I-150000J0D01*
G01*
X164160499Y-57817706D02*
G75*
G03*
X164460499Y-57817706I150000J0D01*
G01*
D10*
X241000721Y-66721521D02*
G75*
G03*
X241500721Y-66221564I-21J500021D01*
G01*
X206569472Y-109871571D02*
G75*
G03*
X206069471Y-110371563I28J-500029D01*
G01*
X122670278Y-100059079D02*
G75*
G03*
X123170279Y-99559063I22J499979D01*
G01*
X161270236Y-57984063D02*
G75*
G03*
X160770279Y-57484064I-499936J63D01*
G01*
X184350721Y-96084063D02*
X184350721Y-109084063D01*
X260550721Y-91321563D02*
X260550721Y-104321563D01*
X228587737Y-122371563D02*
G75*
G03*
X229087721Y-122871563I499963J-37D01*
G01*
X208450736Y-80509063D02*
G75*
G03*
X208950721Y-81009064I499964J-37D01*
G01*
X264892741Y-125213493D02*
X266484720Y-127104361D01*
X170350736Y-70984063D02*
G75*
G03*
X170850721Y-71484064I499964J-37D01*
G01*
X252463736Y-122371564D02*
G75*
G03*
X252963721Y-122871564I499964J-36D01*
G01*
X112051528Y-109871529D02*
G75*
G03*
X111551529Y-110371563I72J-500071D01*
G01*
X84570278Y-85771564D02*
X71570278Y-85771563D01*
X227500721Y-91321563D02*
X227500721Y-104321563D01*
X186210500Y-112632863D02*
X170860500Y-112632863D01*
X221950721Y-81009022D02*
G75*
G03*
X222450722Y-80509064I-21J500022D01*
G01*
X222450738Y-67509064D02*
G75*
G03*
X221950722Y-67009062I-500038J-36D01*
G01*
X94595236Y-110371564D02*
G75*
G03*
X94095279Y-109871564I-499936J64D01*
G01*
X183850721Y-71484021D02*
G75*
G03*
X184350721Y-70984064I-21J500021D01*
G01*
X189400722Y-66221563D02*
X189400721Y-53221564D01*
X70128628Y-48255179D02*
X71543811Y-49670363D01*
X90120236Y-104321564D02*
G75*
G03*
X90620279Y-104821564I500064J64D01*
G01*
X128720279Y-71771579D02*
G75*
G03*
X128220279Y-72271564I21J-500021D01*
G01*
X109670279Y-61959063D02*
X122670279Y-61959064D01*
X160770279Y-90534064D02*
X147770279Y-90534063D01*
D11*
X167460500Y-106903724D02*
G75*
G03*
X167160500Y-106903724I-150000J0D01*
G01*
X167160500Y-106903724D02*
G75*
G03*
X167460500Y-106903724I150000J0D01*
G01*
D10*
X241000721Y-66721563D02*
X228000721Y-66721564D01*
X170350737Y-109084063D02*
G75*
G03*
X170850721Y-109584063I499963J-37D01*
G01*
X84570277Y-104821563D02*
X71570278Y-104821564D01*
X183850721Y-71484063D02*
X170850721Y-71484064D01*
X90620279Y-71771563D02*
X103620279Y-71771564D01*
X203400738Y-72271564D02*
G75*
G03*
X202900721Y-71771562I-500038J-36D01*
G01*
X71070279Y-104321563D02*
X71070279Y-91321563D01*
X208450736Y-61459064D02*
G75*
G03*
X208950721Y-61959064I499964J-36D01*
G01*
X259463720Y-108371563D02*
X259463720Y-122371563D01*
X128220237Y-85271564D02*
G75*
G03*
X128720279Y-85771563I500063J64D01*
G01*
X68098723Y-128714505D02*
G75*
G03*
X65998723Y-128714505I-1050000J0D01*
G01*
X65998723Y-128714505D02*
G75*
G03*
X68098723Y-128714505I1050000J0D01*
G01*
X162940434Y-112708136D02*
X160760500Y-112632863D01*
X229087722Y-107871564D02*
X235087722Y-107871564D01*
X260050722Y-66721563D02*
X247050722Y-66721564D01*
X252963722Y-107871563D02*
X258963721Y-107871563D01*
X161270236Y-77034063D02*
G75*
G03*
X160770279Y-76534064I-499936J63D01*
G01*
D11*
X167460500Y-105703724D02*
G75*
G03*
X167160500Y-105703724I-150000J0D01*
G01*
X167160500Y-105703724D02*
G75*
G03*
X167460500Y-105703724I150000J0D01*
G01*
D10*
X147270237Y-90034063D02*
G75*
G03*
X147770279Y-90534063I500063J63D01*
G01*
X90620278Y-52721578D02*
G75*
G03*
X90120278Y-53221564I22J-500022D01*
G01*
X85070236Y-91321564D02*
G75*
G03*
X84570279Y-90821564I-499936J64D01*
G01*
X228000721Y-104821563D02*
X241000721Y-104821564D01*
X167310500Y-107803724D02*
X164310500Y-107803724D01*
X197540184Y-114655878D02*
X186210500Y-112632863D01*
X147770279Y-76534063D02*
X160770279Y-76534064D01*
X123170279Y-67509063D02*
X123170279Y-80509063D01*
X109170278Y-80509064D02*
X109170279Y-67509064D01*
X84570279Y-104821579D02*
G75*
G03*
X85070279Y-104321563I21J499979D01*
G01*
X71570279Y-90821579D02*
G75*
G03*
X71070279Y-91321563I21J-500021D01*
G01*
X241500736Y-91321562D02*
G75*
G03*
X241000721Y-90821564I-500036J-38D01*
G01*
X85070236Y-53221564D02*
G75*
G03*
X84570280Y-52721564I-499936J64D01*
G01*
X128220237Y-66221564D02*
G75*
G03*
X128720279Y-66721563I500063J64D01*
G01*
X141720279Y-71771564D02*
X128720279Y-71771562D01*
X189400736Y-85271563D02*
G75*
G03*
X189900721Y-85771564I499964J-37D01*
G01*
X262659866Y-130324621D02*
G75*
G03*
X266484719Y-127104360I1912434J1610121D01*
G01*
X131891750Y-126920362D02*
X71827336Y-126920362D01*
X94095278Y-123871563D02*
X81095278Y-123871563D01*
X161270279Y-77034063D02*
X161270278Y-90034063D01*
X68010501Y-123685378D02*
X68010500Y-53212839D01*
X160770279Y-109584063D02*
X147770279Y-109584064D01*
D11*
X164460500Y-106903724D02*
G75*
G03*
X164160500Y-106903724I-150000J0D01*
G01*
X164160500Y-106903724D02*
G75*
G03*
X164460500Y-106903724I150000J0D01*
G01*
D10*
X183850721Y-90534021D02*
G75*
G03*
X184350721Y-90034063I-21J500021D01*
G01*
X167310499Y-58717706D02*
X164310499Y-58717706D01*
X72157236Y-122371564D02*
G75*
G03*
X72657279Y-122871564I500064J64D01*
G01*
X128720279Y-52721579D02*
G75*
G03*
X128220279Y-53221564I21J-500021D01*
G01*
X208950722Y-67009064D02*
X221950722Y-67009062D01*
X123170236Y-86559063D02*
G75*
G03*
X122670278Y-86059064I-499936J63D01*
G01*
X103620279Y-66721579D02*
G75*
G03*
X104120279Y-66221564I21J499979D01*
G01*
X103620279Y-104821579D02*
G75*
G03*
X104120279Y-104321563I21J499979D01*
G01*
X71543811Y-49670363D02*
X104910500Y-49670363D01*
X142220236Y-72271563D02*
G75*
G03*
X141720279Y-71771564I-499936J63D01*
G01*
X71070279Y-85271564D02*
X71070278Y-72271564D01*
X128720279Y-90821580D02*
G75*
G03*
X128220280Y-91321563I21J-500020D01*
G01*
X71070237Y-85271563D02*
G75*
G03*
X71570278Y-85771563I500063J63D01*
G01*
X206810500Y-45157800D02*
G75*
G03*
X205610500Y-46357863I0J-1200000D01*
G01*
X250525722Y-123871563D02*
X237525722Y-123871563D01*
X202900721Y-104821522D02*
G75*
G03*
X203400722Y-104321564I-21J500022D01*
G01*
M02*
