G04 #@! TF.GenerationSoftware,KiCad,Pcbnew,7.0.10-7.0.10~ubuntu23.04.1*
G04 #@! TF.CreationDate,2024-03-02T17:50:01+00:00*
G04 #@! TF.ProjectId,LeChiffre_Plate,4c654368-6966-4667-9265-5f506c617465,rev?*
G04 #@! TF.SameCoordinates,Original*
G04 #@! TF.FileFunction,Legend,Top*
G04 #@! TF.FilePolarity,Positive*
%FSLAX46Y46*%
G04 Gerber Fmt 4.6, Leading zero omitted, Abs format (unit mm)*
G04 Created by KiCad (PCBNEW 7.0.10-7.0.10~ubuntu23.04.1) date 2024-03-02 17:50:01*
%MOMM*%
%LPD*%
G01*
G04 APERTURE LIST*
%ADD10C,0.150000*%
G04 APERTURE END LIST*
D10*
X162204794Y-108819974D02*
X162776222Y-108819974D01*
X162776222Y-108819974D02*
X162890508Y-108858069D01*
X162890508Y-108858069D02*
X162966699Y-108934260D01*
X162966699Y-108934260D02*
X163004794Y-109048545D01*
X163004794Y-109048545D02*
X163004794Y-109124736D01*
X163004794Y-108058069D02*
X163004794Y-108439021D01*
X163004794Y-108439021D02*
X162204794Y-108439021D01*
X162928603Y-107334259D02*
X162966699Y-107372355D01*
X162966699Y-107372355D02*
X163004794Y-107486640D01*
X163004794Y-107486640D02*
X163004794Y-107562831D01*
X163004794Y-107562831D02*
X162966699Y-107677117D01*
X162966699Y-107677117D02*
X162890508Y-107753307D01*
X162890508Y-107753307D02*
X162814318Y-107791402D01*
X162814318Y-107791402D02*
X162661937Y-107829498D01*
X162661937Y-107829498D02*
X162547651Y-107829498D01*
X162547651Y-107829498D02*
X162395270Y-107791402D01*
X162395270Y-107791402D02*
X162319079Y-107753307D01*
X162319079Y-107753307D02*
X162242889Y-107677117D01*
X162242889Y-107677117D02*
X162204794Y-107562831D01*
X162204794Y-107562831D02*
X162204794Y-107486640D01*
X162204794Y-107486640D02*
X162242889Y-107372355D01*
X162242889Y-107372355D02*
X162280984Y-107334259D01*
X162204794Y-106762831D02*
X162776222Y-106762831D01*
X162776222Y-106762831D02*
X162890508Y-106800926D01*
X162890508Y-106800926D02*
X162966699Y-106877117D01*
X162966699Y-106877117D02*
X163004794Y-106991402D01*
X163004794Y-106991402D02*
X163004794Y-107067593D01*
X163004794Y-106000926D02*
X163004794Y-106381878D01*
X163004794Y-106381878D02*
X162204794Y-106381878D01*
X162928603Y-105277116D02*
X162966699Y-105315212D01*
X162966699Y-105315212D02*
X163004794Y-105429497D01*
X163004794Y-105429497D02*
X163004794Y-105505688D01*
X163004794Y-105505688D02*
X162966699Y-105619974D01*
X162966699Y-105619974D02*
X162890508Y-105696164D01*
X162890508Y-105696164D02*
X162814318Y-105734259D01*
X162814318Y-105734259D02*
X162661937Y-105772355D01*
X162661937Y-105772355D02*
X162547651Y-105772355D01*
X162547651Y-105772355D02*
X162395270Y-105734259D01*
X162395270Y-105734259D02*
X162319079Y-105696164D01*
X162319079Y-105696164D02*
X162242889Y-105619974D01*
X162242889Y-105619974D02*
X162204794Y-105505688D01*
X162204794Y-105505688D02*
X162204794Y-105429497D01*
X162204794Y-105429497D02*
X162242889Y-105315212D01*
X162242889Y-105315212D02*
X162280984Y-105277116D01*
X162204794Y-104705688D02*
X162776222Y-104705688D01*
X162776222Y-104705688D02*
X162890508Y-104743783D01*
X162890508Y-104743783D02*
X162966699Y-104819974D01*
X162966699Y-104819974D02*
X163004794Y-104934259D01*
X163004794Y-104934259D02*
X163004794Y-105010450D01*
X163004794Y-103943783D02*
X163004794Y-104324735D01*
X163004794Y-104324735D02*
X162204794Y-104324735D01*
X162928603Y-103219973D02*
X162966699Y-103258069D01*
X162966699Y-103258069D02*
X163004794Y-103372354D01*
X163004794Y-103372354D02*
X163004794Y-103448545D01*
X163004794Y-103448545D02*
X162966699Y-103562831D01*
X162966699Y-103562831D02*
X162890508Y-103639021D01*
X162890508Y-103639021D02*
X162814318Y-103677116D01*
X162814318Y-103677116D02*
X162661937Y-103715212D01*
X162661937Y-103715212D02*
X162547651Y-103715212D01*
X162547651Y-103715212D02*
X162395270Y-103677116D01*
X162395270Y-103677116D02*
X162319079Y-103639021D01*
X162319079Y-103639021D02*
X162242889Y-103562831D01*
X162242889Y-103562831D02*
X162204794Y-103448545D01*
X162204794Y-103448545D02*
X162204794Y-103372354D01*
X162204794Y-103372354D02*
X162242889Y-103258069D01*
X162242889Y-103258069D02*
X162280984Y-103219973D01*
X162204794Y-102648545D02*
X162776222Y-102648545D01*
X162776222Y-102648545D02*
X162890508Y-102686640D01*
X162890508Y-102686640D02*
X162966699Y-102762831D01*
X162966699Y-102762831D02*
X163004794Y-102877116D01*
X163004794Y-102877116D02*
X163004794Y-102953307D01*
X163004794Y-101886640D02*
X163004794Y-102267592D01*
X163004794Y-102267592D02*
X162204794Y-102267592D01*
X162928603Y-101162830D02*
X162966699Y-101200926D01*
X162966699Y-101200926D02*
X163004794Y-101315211D01*
X163004794Y-101315211D02*
X163004794Y-101391402D01*
X163004794Y-101391402D02*
X162966699Y-101505688D01*
X162966699Y-101505688D02*
X162890508Y-101581878D01*
X162890508Y-101581878D02*
X162814318Y-101619973D01*
X162814318Y-101619973D02*
X162661937Y-101658069D01*
X162661937Y-101658069D02*
X162547651Y-101658069D01*
X162547651Y-101658069D02*
X162395270Y-101619973D01*
X162395270Y-101619973D02*
X162319079Y-101581878D01*
X162319079Y-101581878D02*
X162242889Y-101505688D01*
X162242889Y-101505688D02*
X162204794Y-101391402D01*
X162204794Y-101391402D02*
X162204794Y-101315211D01*
X162204794Y-101315211D02*
X162242889Y-101200926D01*
X162242889Y-101200926D02*
X162280984Y-101162830D01*
%LPC*%
%LPD*%
M02*
