G04 #@! TF.GenerationSoftware,KiCad,Pcbnew,7.0.7-7.0.7~ubuntu23.04.1*
G04 #@! TF.CreationDate,2023-09-08T19:17:54+00:00*
G04 #@! TF.ProjectId,LeChiffre_Plate,4c654368-6966-4667-9265-5f506c617465,rev?*
G04 #@! TF.SameCoordinates,Original*
G04 #@! TF.FileFunction,Profile,NP*
%FSLAX46Y46*%
G04 Gerber Fmt 4.6, Leading zero omitted, Abs format (unit mm)*
G04 Created by KiCad (PCBNEW 7.0.7-7.0.7~ubuntu23.04.1) date 2023-09-08 19:17:54*
%MOMM*%
%LPD*%
G01*
G04 APERTURE LIST*
G04 #@! TA.AperFunction,Profile*
%ADD10C,0.200000*%
G04 #@! TD*
G04 #@! TA.AperFunction,Profile*
%ADD11C,0.010000*%
G04 #@! TD*
G04 APERTURE END LIST*
D10*
X164310499Y-61117706D02*
X164310499Y-95803724D01*
X127210499Y-49670362D02*
X145990358Y-49670363D01*
X160770278Y-71484077D02*
G75*
G03*
X161270277Y-70984063I22J499977D01*
G01*
X251025721Y-110371563D02*
X251025720Y-123371564D01*
X202900720Y-85771521D02*
G75*
G03*
X203400721Y-85271564I-20J500021D01*
G01*
X247050719Y-52721564D02*
X260050720Y-52721563D01*
D11*
X167460499Y-98503724D02*
G75*
G03*
X167460499Y-98503724I-150000J0D01*
G01*
X164460499Y-57217706D02*
G75*
G03*
X164460499Y-57217706I-150000J0D01*
G01*
D10*
X208950721Y-100059063D02*
X221950720Y-100059064D01*
X123170336Y-67509063D02*
G75*
G03*
X122670277Y-67009064I-500036J-37D01*
G01*
X189900720Y-90821564D02*
X202900720Y-90821564D01*
X109670278Y-86059077D02*
G75*
G03*
X109170277Y-86559063I22J-500023D01*
G01*
X90120337Y-66221564D02*
G75*
G03*
X90620278Y-66721563I499963J-36D01*
G01*
D11*
X164460499Y-60217706D02*
G75*
G03*
X164460499Y-60217706I-150000J0D01*
G01*
D10*
X226710499Y-49670363D02*
X260077188Y-49670363D01*
X222450720Y-67509064D02*
X222450721Y-80509064D01*
X72657277Y-107871579D02*
G75*
G03*
X72157279Y-108371563I23J-500021D01*
G01*
X228000720Y-52721521D02*
G75*
G03*
X227500721Y-53221564I-20J-499979D01*
G01*
X162940431Y-112708230D02*
G75*
G03*
X164181130Y-111550262I41369J1199330D01*
G01*
X161270337Y-96084063D02*
G75*
G03*
X160770278Y-95584063I-500037J-37D01*
G01*
X142220277Y-85271563D02*
X142220278Y-72271563D01*
X128220277Y-104321563D02*
X128220279Y-91321563D01*
X260050721Y-66721563D02*
X247050721Y-66721564D01*
X109670277Y-67009078D02*
G75*
G03*
X109170278Y-67509064I23J-500022D01*
G01*
X96533277Y-107871578D02*
G75*
G03*
X96033278Y-108371564I23J-500022D01*
G01*
D11*
X167460499Y-105103724D02*
G75*
G03*
X167460499Y-105103724I-150000J0D01*
G01*
D10*
X81095277Y-109871577D02*
G75*
G03*
X80595277Y-110371563I23J-500023D01*
G01*
D11*
X167460499Y-60817706D02*
G75*
G03*
X167460499Y-60817706I-150000J0D01*
G01*
D10*
X90620278Y-52721563D02*
X103620278Y-52721564D01*
X104120336Y-91321564D02*
G75*
G03*
X103620278Y-90821564I-500036J-36D01*
G01*
X247050719Y-52721521D02*
G75*
G03*
X246550721Y-53221564I-19J-499979D01*
G01*
X68010499Y-53212839D02*
X64842309Y-50034123D01*
X123170277Y-61459064D02*
X123170278Y-48459064D01*
X104120336Y-72271564D02*
G75*
G03*
X103620278Y-71771564I-500036J-36D01*
G01*
X103620278Y-85771564D02*
X90620278Y-85771563D01*
X183850720Y-90534063D02*
X170850720Y-90534064D01*
X65136250Y-127104335D02*
G75*
G03*
X68961164Y-130324647I1912450J-1610165D01*
G01*
X170860499Y-112632863D02*
X168680565Y-112708136D01*
X202900720Y-66721563D02*
X189900720Y-66721564D01*
X241500721Y-72271563D02*
X241500720Y-85271564D01*
X203400736Y-91321563D02*
G75*
G03*
X202900720Y-90821564I-500036J-37D01*
G01*
D11*
X164460499Y-58417706D02*
G75*
G03*
X164460499Y-58417706I-150000J0D01*
G01*
D10*
X72657278Y-107871563D02*
X78657277Y-107871563D01*
D11*
X167460499Y-97903724D02*
G75*
G03*
X167460499Y-97903724I-150000J0D01*
G01*
X167460499Y-100303724D02*
G75*
G03*
X167460499Y-100303724I-150000J0D01*
G01*
D10*
X122670277Y-86059064D02*
X109670278Y-86059063D01*
X78657278Y-122871564D02*
X72657278Y-122871564D01*
X198529249Y-125720363D02*
X198529249Y-115837193D01*
D11*
X167460499Y-106303724D02*
G75*
G03*
X167460499Y-106303724I-150000J0D01*
G01*
D10*
X147770278Y-76534078D02*
G75*
G03*
X147270278Y-77034063I22J-500022D01*
G01*
X246550720Y-66221563D02*
X246550721Y-53221563D01*
X79157337Y-108371563D02*
G75*
G03*
X78657277Y-107871563I-500037J-37D01*
G01*
D11*
X164460499Y-106303724D02*
G75*
G03*
X164460499Y-106303724I-150000J0D01*
G01*
D10*
X170350721Y-109084063D02*
X170350720Y-96084063D01*
X142220278Y-53221564D02*
X142220277Y-66221563D01*
X206810499Y-45157863D02*
X224310499Y-45157863D01*
X112051527Y-109871563D02*
X125051527Y-109871564D01*
X189400720Y-72271563D02*
X189400721Y-85271563D01*
D11*
X167460499Y-57817706D02*
G75*
G03*
X167460499Y-57817706I-150000J0D01*
G01*
D10*
X125551528Y-110371563D02*
X125551528Y-123371563D01*
X189900722Y-52721520D02*
G75*
G03*
X189400720Y-53221564I-22J-499980D01*
G01*
D11*
X164460499Y-59017706D02*
G75*
G03*
X164460499Y-59017706I-150000J0D01*
G01*
D10*
X147270337Y-70984064D02*
G75*
G03*
X147770278Y-71484063I499963J-36D01*
G01*
X167310499Y-95803724D02*
X164310499Y-95803724D01*
X237025720Y-123371564D02*
X237025721Y-110371563D01*
X111551537Y-123371563D02*
G75*
G03*
X112051527Y-123871563I499963J-37D01*
G01*
X147770279Y-95584078D02*
G75*
G03*
X147270278Y-96084063I21J-500022D01*
G01*
D11*
X164460499Y-105703724D02*
G75*
G03*
X164460499Y-105703724I-150000J0D01*
G01*
D10*
X170850720Y-76534020D02*
G75*
G03*
X170350720Y-77034063I-20J-499980D01*
G01*
X80595337Y-123371563D02*
G75*
G03*
X81095277Y-123871563I499963J-37D01*
G01*
X208450736Y-61459064D02*
G75*
G03*
X208950720Y-61959064I499964J-36D01*
G01*
D11*
X164460499Y-56617706D02*
G75*
G03*
X164460499Y-56617706I-150000J0D01*
G01*
D10*
X80595278Y-123371564D02*
X80595277Y-110371563D01*
X131891749Y-126920449D02*
G75*
G03*
X133091749Y-125720363I-49J1200049D01*
G01*
X170350736Y-90034063D02*
G75*
G03*
X170850720Y-90534064I499964J-37D01*
G01*
X109170278Y-48459064D02*
X109170277Y-61459064D01*
D11*
X164460499Y-59617706D02*
G75*
G03*
X164460499Y-59617706I-150000J0D01*
G01*
D10*
X126010538Y-48470363D02*
G75*
G03*
X127210499Y-49670362I1199962J-37D01*
G01*
X251025737Y-110371563D02*
G75*
G03*
X250525721Y-109871563I-500037J-37D01*
G01*
D11*
X164460499Y-97303724D02*
G75*
G03*
X164460499Y-97303724I-150000J0D01*
G01*
D10*
X203400720Y-53221564D02*
X203400722Y-66221564D01*
X125051527Y-123871564D02*
X112051527Y-123871563D01*
X161270278Y-57984063D02*
X161270277Y-70984063D01*
X170850720Y-95584063D02*
X183850720Y-95584064D01*
X260050721Y-104821520D02*
G75*
G03*
X260550720Y-104321563I-21J500020D01*
G01*
D11*
X164460499Y-107503724D02*
G75*
G03*
X164460499Y-107503724I-150000J0D01*
G01*
D10*
X208950721Y-67009020D02*
G75*
G03*
X208450720Y-67509063I-21J-499980D01*
G01*
X102533278Y-122871579D02*
G75*
G03*
X103033279Y-122371563I22J499979D01*
G01*
X185630640Y-49670363D02*
X204410499Y-49670362D01*
X235087720Y-122871520D02*
G75*
G03*
X235587720Y-122371564I-20J500020D01*
G01*
X147770278Y-57484078D02*
G75*
G03*
X147270278Y-57984064I22J-500022D01*
G01*
X241000720Y-85771520D02*
G75*
G03*
X241500720Y-85271564I-20J500020D01*
G01*
X107310500Y-45157899D02*
G75*
G03*
X106110499Y-46357862I0J-1200001D01*
G01*
X208950721Y-86059020D02*
G75*
G03*
X208450720Y-86559063I-21J-499980D01*
G01*
X160760499Y-112632863D02*
X145410499Y-112632863D01*
X104910499Y-49670399D02*
G75*
G03*
X106110499Y-48470363I1J1199999D01*
G01*
X128720278Y-52721563D02*
X141720276Y-52721564D01*
D11*
X164460499Y-97903724D02*
G75*
G03*
X164460499Y-97903724I-150000J0D01*
G01*
X167460499Y-56017706D02*
G75*
G03*
X167460499Y-56017706I-150000J0D01*
G01*
D10*
X189400721Y-104321563D02*
X189400719Y-91321563D01*
X109170277Y-86559063D02*
X109170277Y-99559063D01*
X107310499Y-45157863D02*
X124810499Y-45157863D01*
X221950721Y-47959063D02*
X208950721Y-47959064D01*
D11*
X167460499Y-59017706D02*
G75*
G03*
X167460499Y-59017706I-150000J0D01*
G01*
D10*
X259463737Y-108371563D02*
G75*
G03*
X258963721Y-107871563I-500037J-37D01*
G01*
X109170337Y-80509064D02*
G75*
G03*
X109670278Y-81009063I499963J-36D01*
G01*
X160770278Y-109584077D02*
G75*
G03*
X161270277Y-109084063I22J499977D01*
G01*
X84570278Y-66721578D02*
G75*
G03*
X85070278Y-66221563I22J499978D01*
G01*
X71070337Y-66221563D02*
G75*
G03*
X71570277Y-66721563I499963J-37D01*
G01*
X68383687Y-46504473D02*
G75*
G03*
X64842309Y-50034123I-1770687J-1764827D01*
G01*
X147270278Y-90034063D02*
X147270278Y-77034063D01*
X222450736Y-86559063D02*
G75*
G03*
X221950720Y-86059064I-500036J-37D01*
G01*
X203400738Y-72271564D02*
G75*
G03*
X202900720Y-71771562I-500038J-36D01*
G01*
X84570277Y-66721564D02*
X71570277Y-66721563D01*
X246550720Y-104321563D02*
X246550721Y-91321563D01*
X103620278Y-85771578D02*
G75*
G03*
X104120278Y-85271563I22J499978D01*
G01*
X263610498Y-123685378D02*
X264892740Y-125213493D01*
X123170336Y-48459064D02*
G75*
G03*
X122670277Y-47959064I-500036J-36D01*
G01*
X221950720Y-100059022D02*
G75*
G03*
X222450722Y-99559063I-20J500022D01*
G01*
X241000720Y-90821563D02*
X228000720Y-90821564D01*
X71570278Y-90821563D02*
X84570278Y-90821564D01*
X208450736Y-80509063D02*
G75*
G03*
X208950720Y-81009064I499964J-37D01*
G01*
X228000720Y-90821521D02*
G75*
G03*
X227500721Y-91321564I-20J-499979D01*
G01*
D11*
X164460499Y-102703724D02*
G75*
G03*
X164460499Y-102703724I-150000J0D01*
G01*
D10*
X247050720Y-71771521D02*
G75*
G03*
X246550721Y-72271564I-20J-499979D01*
G01*
X198529338Y-125720363D02*
G75*
G03*
X199729249Y-126920362I1199862J-137D01*
G01*
X141720278Y-66721577D02*
G75*
G03*
X142220277Y-66221563I22J499977D01*
G01*
X189400736Y-66221563D02*
G75*
G03*
X189900720Y-66721564I499964J-37D01*
G01*
X104120336Y-53221564D02*
G75*
G03*
X103620278Y-52721564I-500036J-36D01*
G01*
X183850720Y-109584021D02*
G75*
G03*
X184350721Y-109084064I-20J500021D01*
G01*
X109670277Y-67009062D02*
X122670277Y-67009064D01*
D11*
X164460499Y-98503724D02*
G75*
G03*
X164460499Y-98503724I-150000J0D01*
G01*
D10*
X208950721Y-67009064D02*
X221950721Y-67009062D01*
D11*
X167460499Y-96103724D02*
G75*
G03*
X167460499Y-96103724I-150000J0D01*
G01*
D10*
X122670278Y-61959077D02*
G75*
G03*
X123170277Y-61459064I22J499977D01*
G01*
X229087721Y-107871564D02*
X235087721Y-107871564D01*
X206069437Y-123371563D02*
G75*
G03*
X206569470Y-123871563I499963J-37D01*
G01*
X81095278Y-109871563D02*
X94095278Y-109871564D01*
X146279309Y-49705663D02*
G75*
G03*
X145990358Y-49670363I-288909J-1164637D01*
G01*
X247050720Y-90821564D02*
X260050720Y-90821563D01*
X128720278Y-90821564D02*
X141720278Y-90821564D01*
X111551528Y-123371563D02*
X111551528Y-110371563D01*
X227500720Y-85271563D02*
X227500720Y-72271563D01*
X71570277Y-71771577D02*
G75*
G03*
X71070277Y-72271564I23J-500023D01*
G01*
D11*
X164460499Y-100303724D02*
G75*
G03*
X164460499Y-100303724I-150000J0D01*
G01*
D10*
X103620278Y-66721564D02*
X90620278Y-66721563D01*
D11*
X164460499Y-100903724D02*
G75*
G03*
X164460499Y-100903724I-150000J0D01*
G01*
D10*
X85070335Y-72271564D02*
G75*
G03*
X84570278Y-71771565I-500035J-36D01*
G01*
X147270278Y-109084063D02*
X147270278Y-96084063D01*
X164310499Y-107803724D02*
X164181130Y-111550262D01*
X222450737Y-48459064D02*
G75*
G03*
X221950721Y-47959063I-500037J-36D01*
G01*
X96033278Y-122371564D02*
X96033278Y-108371564D01*
X96533277Y-107871564D02*
X102533277Y-107871564D01*
X109170336Y-99559063D02*
G75*
G03*
X109670278Y-100059064I499964J-37D01*
G01*
X260550720Y-91321563D02*
X260550720Y-104321563D01*
X250525721Y-123871520D02*
G75*
G03*
X251025720Y-123371563I-21J500020D01*
G01*
X265622276Y-128714505D02*
G75*
G03*
X265622276Y-128714505I-1050000J0D01*
G01*
X161270278Y-96084063D02*
X161270277Y-109084063D01*
X145410499Y-112632863D02*
X134080815Y-114655878D01*
D11*
X164460499Y-103903724D02*
G75*
G03*
X164460499Y-103903724I-150000J0D01*
G01*
D10*
X128720278Y-85771563D02*
X141720278Y-85771564D01*
D11*
X167460499Y-55417706D02*
G75*
G03*
X167460499Y-55417706I-150000J0D01*
G01*
D10*
X106110499Y-48470363D02*
X106110499Y-46357862D01*
X208950721Y-47959020D02*
G75*
G03*
X208450720Y-48459064I-21J-499980D01*
G01*
X123170278Y-99559063D02*
X123170278Y-86559063D01*
X71570277Y-52721577D02*
G75*
G03*
X71070277Y-53221564I23J-500023D01*
G01*
X227500736Y-66221564D02*
G75*
G03*
X228000720Y-66721564I499964J-36D01*
G01*
X184350736Y-96084063D02*
G75*
G03*
X183850719Y-95584064I-500036J-37D01*
G01*
X184350737Y-57984064D02*
G75*
G03*
X183850720Y-57484063I-500037J-36D01*
G01*
X228000720Y-71771564D02*
X241000720Y-71771563D01*
X184350720Y-96084063D02*
X184350720Y-109084063D01*
X141720279Y-104821563D02*
X128720278Y-104821564D01*
X225510438Y-48470363D02*
G75*
G03*
X226710499Y-49670362I1199962J-37D01*
G01*
D11*
X164460499Y-55417706D02*
G75*
G03*
X164460499Y-55417706I-150000J0D01*
G01*
D10*
X141720279Y-104821577D02*
G75*
G03*
X142220277Y-104321563I21J499977D01*
G01*
X183850720Y-71484020D02*
G75*
G03*
X184350720Y-70984064I-20J500020D01*
G01*
X189400736Y-85271563D02*
G75*
G03*
X189900720Y-85771564I499964J-37D01*
G01*
X241000720Y-66721520D02*
G75*
G03*
X241500720Y-66221564I-20J500020D01*
G01*
D11*
X164460499Y-101503724D02*
G75*
G03*
X164460499Y-101503724I-150000J0D01*
G01*
X167460499Y-96703724D02*
G75*
G03*
X167460499Y-96703724I-150000J0D01*
G01*
D10*
X71827335Y-126920362D02*
X68961165Y-130324648D01*
X189400721Y-66221563D02*
X189400720Y-53221564D01*
X262659833Y-130324648D02*
X259793663Y-126920362D01*
X205610499Y-48470363D02*
X205610499Y-46357862D01*
X90620278Y-104821564D02*
X103620278Y-104821563D01*
X247050720Y-71771565D02*
X260050720Y-71771563D01*
X225510438Y-46357862D02*
G75*
G03*
X224310498Y-45157862I-1200038J-38D01*
G01*
D11*
X167460499Y-99703724D02*
G75*
G03*
X167460499Y-99703724I-150000J0D01*
G01*
D10*
X164310494Y-55117706D02*
G75*
G03*
X163399448Y-53953013I-1199994J6D01*
G01*
X262659866Y-130324620D02*
G75*
G03*
X266484717Y-127104360I1912434J1610120D01*
G01*
X94595277Y-110371563D02*
X94595278Y-123371564D01*
X260550737Y-72271564D02*
G75*
G03*
X260050721Y-71771563I-500037J-36D01*
G01*
X71570278Y-52721563D02*
X84570279Y-52721564D01*
X189900720Y-71771520D02*
G75*
G03*
X189400720Y-72271563I-20J-499980D01*
G01*
X68383702Y-46504456D02*
X70128627Y-48255179D01*
X228000720Y-71771521D02*
G75*
G03*
X227500721Y-72271564I-20J-499979D01*
G01*
X229087721Y-107871520D02*
G75*
G03*
X228587720Y-108371564I-21J-499980D01*
G01*
X235587720Y-108371564D02*
X235587720Y-122371564D01*
X78657278Y-122871578D02*
G75*
G03*
X79157278Y-122371564I22J499978D01*
G01*
X122670278Y-81009078D02*
G75*
G03*
X123170278Y-80509063I22J499978D01*
G01*
X196871934Y-111146587D02*
G75*
G03*
X196871934Y-111146587I-1050001J0D01*
G01*
X122670278Y-81009064D02*
X109670278Y-81009063D01*
X126010499Y-46357862D02*
X126010499Y-48470363D01*
X141720278Y-85771577D02*
G75*
G03*
X142220277Y-85271563I22J499977D01*
G01*
X142220336Y-53221564D02*
G75*
G03*
X141720276Y-52721564I-500036J-36D01*
G01*
X133091749Y-115837193D02*
X133091749Y-125720363D01*
X94095278Y-123871578D02*
G75*
G03*
X94595278Y-123371564I22J499978D01*
G01*
X170850720Y-95584020D02*
G75*
G03*
X170350720Y-96084063I-20J-499980D01*
G01*
X228000720Y-104821563D02*
X241000720Y-104821564D01*
X104120278Y-104321563D02*
X104120278Y-91321563D01*
X203400737Y-53221564D02*
G75*
G03*
X202900720Y-52721563I-500037J-36D01*
G01*
X71570278Y-71771563D02*
X84570278Y-71771565D01*
X258963720Y-122871520D02*
G75*
G03*
X259463720Y-122371564I-20J500020D01*
G01*
X260550721Y-53221564D02*
X260550719Y-66221564D01*
X170850720Y-57484064D02*
X183850720Y-57484063D01*
X219569471Y-123871563D02*
X206569471Y-123871564D01*
X202900720Y-66721522D02*
G75*
G03*
X203400722Y-66221564I-20J500022D01*
G01*
X170850720Y-76534064D02*
X183850720Y-76534063D01*
X147770278Y-57484063D02*
X160770278Y-57484064D01*
D11*
X167460499Y-101503724D02*
G75*
G03*
X167460499Y-101503724I-150000J0D01*
G01*
D10*
X104120278Y-72271563D02*
X104120278Y-85271563D01*
X125051528Y-123871628D02*
G75*
G03*
X125551528Y-123371563I-28J500028D01*
G01*
X186210499Y-112632863D02*
X170860499Y-112632863D01*
D11*
X167460499Y-102103724D02*
G75*
G03*
X167460499Y-102103724I-150000J0D01*
G01*
D10*
X65136279Y-127104361D02*
X66728258Y-125213493D01*
X189900720Y-90821519D02*
G75*
G03*
X189400719Y-91321563I-20J-499981D01*
G01*
X197540183Y-114655878D02*
X186210499Y-112632863D01*
X128220336Y-104321564D02*
G75*
G03*
X128720278Y-104821564I499964J-36D01*
G01*
D11*
X164460499Y-103303724D02*
G75*
G03*
X164460499Y-103303724I-150000J0D01*
G01*
D10*
X168221550Y-53953013D02*
X185341690Y-49705671D01*
X125551536Y-110371563D02*
G75*
G03*
X125051527Y-109871564I-500036J-37D01*
G01*
X90120277Y-91321562D02*
X90120278Y-104321563D01*
X66728258Y-125213493D02*
X68010500Y-123685378D01*
X237025736Y-123371564D02*
G75*
G03*
X237525720Y-123871564I499964J-36D01*
G01*
X208450737Y-99559063D02*
G75*
G03*
X208950721Y-100059063I499963J-37D01*
G01*
X167310499Y-107803724D02*
X164310499Y-107803724D01*
X103620278Y-90821564D02*
X90620278Y-90821563D01*
X72157279Y-122371563D02*
X72157279Y-108371563D01*
X90120337Y-85271564D02*
G75*
G03*
X90620278Y-85771563I499963J-36D01*
G01*
X102533278Y-122871563D02*
X96533278Y-122871563D01*
X260550737Y-53221564D02*
G75*
G03*
X260050721Y-52721563I-500037J-36D01*
G01*
X71070279Y-66221564D02*
X71070277Y-53221564D01*
X85070277Y-91321563D02*
X85070278Y-104321563D01*
X208450720Y-86559063D02*
X208450720Y-99559063D01*
X134080823Y-114655924D02*
G75*
G03*
X133091749Y-115837193I210877J-1181276D01*
G01*
X109670277Y-47959078D02*
G75*
G03*
X109170278Y-48459064I23J-500022D01*
G01*
X221950720Y-86059063D02*
X208950721Y-86059064D01*
X220069470Y-110371563D02*
X220069470Y-123371563D01*
X142220279Y-91321563D02*
X142220277Y-104321563D01*
X206569471Y-109871564D02*
X219569471Y-109871563D01*
X183850720Y-109584064D02*
X170850720Y-109584063D01*
D11*
X164460499Y-104503724D02*
G75*
G03*
X164460499Y-104503724I-150000J0D01*
G01*
D10*
X141720278Y-66721564D02*
X128720278Y-66721563D01*
X221950720Y-61959021D02*
G75*
G03*
X222450721Y-61459064I-20J500021D01*
G01*
X252963721Y-107871520D02*
G75*
G03*
X252463720Y-108371563I-21J-499980D01*
G01*
D11*
X164460499Y-99703724D02*
G75*
G03*
X164460499Y-99703724I-150000J0D01*
G01*
D10*
X235087720Y-122871563D02*
X229087720Y-122871563D01*
X160770278Y-90534077D02*
G75*
G03*
X161270277Y-90034063I22J499977D01*
G01*
D11*
X167460499Y-97303724D02*
G75*
G03*
X167460499Y-97303724I-150000J0D01*
G01*
X164460499Y-56017706D02*
G75*
G03*
X164460499Y-56017706I-150000J0D01*
G01*
D10*
X241500720Y-104321563D02*
X241500721Y-91321562D01*
X241500721Y-53221564D02*
X241500720Y-66221564D01*
X250525721Y-123871563D02*
X237525721Y-123871563D01*
X109670278Y-100059064D02*
X122670277Y-100059063D01*
X122670277Y-47959064D02*
X109670277Y-47959063D01*
X167310499Y-95803724D02*
X167310499Y-61117706D01*
X183322041Y-52553611D02*
G75*
G03*
X183322041Y-52553611I-1050001J0D01*
G01*
X252463736Y-122371564D02*
G75*
G03*
X252963720Y-122871564I499964J-36D01*
G01*
X260050721Y-85771563D02*
X247050721Y-85771564D01*
X184350720Y-57984064D02*
X184350720Y-70984064D01*
X208450720Y-80509063D02*
X208450720Y-67509063D01*
X167310499Y-55117706D02*
X164310499Y-55117706D01*
X126010537Y-46357863D02*
G75*
G03*
X124810499Y-45157863I-1200037J-37D01*
G01*
X225510499Y-46357862D02*
X225510499Y-48470363D01*
X189400737Y-104321563D02*
G75*
G03*
X189900719Y-104821563I499963J-37D01*
G01*
X150398959Y-52553611D02*
G75*
G03*
X150398959Y-52553611I-1050001J0D01*
G01*
X220069437Y-110371563D02*
G75*
G03*
X219569471Y-109871563I-500037J-37D01*
G01*
X142220336Y-91321563D02*
G75*
G03*
X141720278Y-90821564I-500036J-37D01*
G01*
X104120278Y-53221564D02*
X104120278Y-66221564D01*
X90620277Y-71771577D02*
G75*
G03*
X90120277Y-72271563I23J-500023D01*
G01*
X103033336Y-108371564D02*
G75*
G03*
X102533277Y-107871564I-500036J-36D01*
G01*
X222450721Y-61459064D02*
X222450720Y-48459064D01*
X241500738Y-72271563D02*
G75*
G03*
X241000721Y-71771562I-500038J-37D01*
G01*
X84570279Y-85771578D02*
G75*
G03*
X85070278Y-85271563I21J499978D01*
G01*
X184350720Y-77034063D02*
X184350720Y-90034063D01*
X260077188Y-49670363D02*
X261492371Y-48255179D01*
D11*
X164460499Y-106903724D02*
G75*
G03*
X164460499Y-106903724I-150000J0D01*
G01*
D10*
X79157277Y-108371564D02*
X79157278Y-122371564D01*
X221950720Y-81009021D02*
G75*
G03*
X222450721Y-80509064I-20J500021D01*
G01*
X146279308Y-49705671D02*
X163399448Y-53953013D01*
X96033337Y-122371564D02*
G75*
G03*
X96533278Y-122871563I499963J-36D01*
G01*
X109170337Y-61459064D02*
G75*
G03*
X109670278Y-61959063I499963J-36D01*
G01*
X203400721Y-85271564D02*
X203400720Y-72271564D01*
D11*
X164460499Y-102103724D02*
G75*
G03*
X164460499Y-102103724I-150000J0D01*
G01*
D10*
X147270336Y-109084064D02*
G75*
G03*
X147770278Y-109584064I499964J-36D01*
G01*
X260050721Y-104821564D02*
X247050722Y-104821563D01*
X252463720Y-122371564D02*
X252463721Y-108371564D01*
X90120278Y-85271564D02*
X90120277Y-72271563D01*
D11*
X164460499Y-96703724D02*
G75*
G03*
X164460499Y-96703724I-150000J0D01*
G01*
D10*
X147270278Y-70984064D02*
X147270278Y-57984064D01*
X85070277Y-72271563D02*
X85070278Y-85271563D01*
X228587719Y-122371563D02*
X228587720Y-108371564D01*
X170350721Y-90034063D02*
X170350720Y-77034063D01*
D11*
X167460499Y-56617706D02*
G75*
G03*
X167460499Y-56617706I-150000J0D01*
G01*
D10*
X170850720Y-57484020D02*
G75*
G03*
X170350720Y-57984063I-20J-499980D01*
G01*
D11*
X167460499Y-59617706D02*
G75*
G03*
X167460499Y-59617706I-150000J0D01*
G01*
D10*
X264892740Y-125213493D02*
X266484719Y-127104361D01*
X247050720Y-90821521D02*
G75*
G03*
X246550721Y-91321564I-20J-499979D01*
G01*
X136849066Y-111146587D02*
G75*
G03*
X136849066Y-111146587I-1050001J0D01*
G01*
X71070336Y-104321563D02*
G75*
G03*
X71570277Y-104821564I499964J-37D01*
G01*
X241000720Y-66721563D02*
X228000720Y-66721564D01*
X90120278Y-66221564D02*
X90120277Y-53221564D01*
X160770278Y-71484064D02*
X147770278Y-71484063D01*
D11*
X167460499Y-102703724D02*
G75*
G03*
X167460499Y-102703724I-150000J0D01*
G01*
D10*
X128220276Y-66221564D02*
X128220278Y-53221564D01*
X241000720Y-85771563D02*
X228000720Y-85771564D01*
X227500736Y-85271563D02*
G75*
G03*
X228000720Y-85771564I499964J-37D01*
G01*
X85070277Y-53221563D02*
X85070278Y-66221563D01*
X259463719Y-108371563D02*
X259463719Y-122371563D01*
X90620278Y-90821577D02*
G75*
G03*
X90120277Y-91321562I22J-500023D01*
G01*
X206069470Y-123371563D02*
X206069470Y-110371563D01*
X67663006Y-48269290D02*
G75*
G03*
X67663006Y-48269290I-1050000J0D01*
G01*
X147770278Y-95584064D02*
X160770278Y-95584063D01*
X219569471Y-123871570D02*
G75*
G03*
X220069470Y-123371563I29J499970D01*
G01*
X170350721Y-70984063D02*
X170350720Y-57984063D01*
X259793663Y-126920362D02*
X199729249Y-126920362D01*
X266778689Y-50034123D02*
X263610499Y-53212839D01*
D11*
X164460499Y-99103724D02*
G75*
G03*
X164460499Y-99103724I-150000J0D01*
G01*
D10*
X208450720Y-48459064D02*
X208450721Y-61459064D01*
X183850720Y-71484063D02*
X170850720Y-71484064D01*
X206569471Y-109871570D02*
G75*
G03*
X206069470Y-110371563I29J-500030D01*
G01*
X260550721Y-72271564D02*
X260550720Y-85271564D01*
X168221549Y-53953008D02*
G75*
G03*
X167310500Y-55117706I288951J-1164692D01*
G01*
X128220278Y-72271564D02*
X128220277Y-85271564D01*
D11*
X167460499Y-106903724D02*
G75*
G03*
X167460499Y-106903724I-150000J0D01*
G01*
D10*
X246550720Y-85271563D02*
X246550721Y-72271563D01*
X103033278Y-108371564D02*
X103033279Y-122371563D01*
D11*
X164460499Y-57817706D02*
G75*
G03*
X164460499Y-57817706I-150000J0D01*
G01*
D10*
X260050721Y-85771520D02*
G75*
G03*
X260550720Y-85271563I-21J500020D01*
G01*
X260550736Y-91321563D02*
G75*
G03*
X260050720Y-90821564I-500036J-37D01*
G01*
X227500720Y-66221564D02*
X227500720Y-53221564D01*
X122670277Y-100059078D02*
G75*
G03*
X123170278Y-99559063I23J499978D01*
G01*
X266778705Y-50034139D02*
G75*
G03*
X263237297Y-46504459I-1770705J1764839D01*
G01*
X161270336Y-57984063D02*
G75*
G03*
X160770278Y-57484064I-500036J-37D01*
G01*
X204410499Y-49670299D02*
G75*
G03*
X205610499Y-48470363I1J1199999D01*
G01*
X167439868Y-111550262D02*
X167310499Y-107803724D01*
D11*
X167460499Y-100903724D02*
G75*
G03*
X167460499Y-100903724I-150000J0D01*
G01*
D10*
X206810499Y-45157799D02*
G75*
G03*
X205610499Y-46357863I1J-1200001D01*
G01*
X228587737Y-122371563D02*
G75*
G03*
X229087720Y-122871563I499963J-37D01*
G01*
X258963720Y-122871564D02*
X252963720Y-122871564D01*
X189900720Y-85771564D02*
X202900720Y-85771563D01*
X227500737Y-104321563D02*
G75*
G03*
X228000720Y-104821563I499963J-37D01*
G01*
X221950720Y-81009063D02*
X208950720Y-81009064D01*
X112051527Y-109871628D02*
G75*
G03*
X111551528Y-110371563I-27J-499972D01*
G01*
X84570277Y-85771564D02*
X71570277Y-85771563D01*
D11*
X164460499Y-60817706D02*
G75*
G03*
X164460499Y-60817706I-150000J0D01*
G01*
D10*
X189900722Y-52721564D02*
X202900720Y-52721563D01*
X203400719Y-91321563D02*
X203400721Y-104321563D01*
D11*
X167460499Y-103903724D02*
G75*
G03*
X167460499Y-103903724I-150000J0D01*
G01*
D10*
X94595336Y-110371564D02*
G75*
G03*
X94095278Y-109871564I-500036J-36D01*
G01*
X246550736Y-104321563D02*
G75*
G03*
X247050720Y-104821564I499964J-37D01*
G01*
X70128627Y-48255179D02*
X71543810Y-49670363D01*
X237525720Y-109871564D02*
X250525720Y-109871563D01*
X266057992Y-48269290D02*
G75*
G03*
X266057992Y-48269290I-1050000J0D01*
G01*
X90120336Y-104321564D02*
G75*
G03*
X90620278Y-104821564I499964J-36D01*
G01*
X184350737Y-77034063D02*
G75*
G03*
X183850720Y-76534063I-500037J-37D01*
G01*
X128720278Y-71771578D02*
G75*
G03*
X128220278Y-72271564I22J-500022D01*
G01*
X222450738Y-67509064D02*
G75*
G03*
X221950721Y-67009062I-500038J-36D01*
G01*
X109670278Y-61959063D02*
X122670278Y-61959064D01*
X160770278Y-90534064D02*
X147770278Y-90534063D01*
X227500720Y-91321563D02*
X227500720Y-104321563D01*
X185630640Y-49670356D02*
G75*
G03*
X185341691Y-49705670I-40J-1199444D01*
G01*
X241500737Y-53221564D02*
G75*
G03*
X241000721Y-52721563I-500037J-36D01*
G01*
X84570276Y-104821563D02*
X71570277Y-104821564D01*
X90620278Y-71771563D02*
X103620278Y-71771564D01*
X202900720Y-71771562D02*
X189900720Y-71771564D01*
X71070278Y-104321563D02*
X71070278Y-91321563D01*
D11*
X167460499Y-57217706D02*
G75*
G03*
X167460499Y-57217706I-150000J0D01*
G01*
D10*
X241500736Y-91321562D02*
G75*
G03*
X241000720Y-90821564I-500036J-38D01*
G01*
X128220337Y-85271564D02*
G75*
G03*
X128720278Y-85771563I499963J-36D01*
G01*
D11*
X167460499Y-103303724D02*
G75*
G03*
X167460499Y-103303724I-150000J0D01*
G01*
D10*
X68098722Y-128714505D02*
G75*
G03*
X68098722Y-128714505I-1050000J0D01*
G01*
D11*
X167460499Y-107503724D02*
G75*
G03*
X167460499Y-107503724I-150000J0D01*
G01*
D10*
X241000720Y-104821520D02*
G75*
G03*
X241500720Y-104321564I-20J500020D01*
G01*
D11*
X164460499Y-105103724D02*
G75*
G03*
X164460499Y-105103724I-150000J0D01*
G01*
D10*
X162940433Y-112708136D02*
X160760499Y-112632863D01*
X202900720Y-104821521D02*
G75*
G03*
X203400721Y-104321564I-20J500021D01*
G01*
X161270336Y-77034063D02*
G75*
G03*
X160770278Y-76534064I-500036J-37D01*
G01*
X208950720Y-61959064D02*
X221950720Y-61959063D01*
D11*
X167460499Y-60217706D02*
G75*
G03*
X167460499Y-60217706I-150000J0D01*
G01*
D10*
X252963721Y-107871563D02*
X258963720Y-107871563D01*
X147270337Y-90034063D02*
G75*
G03*
X147770278Y-90534063I499963J-37D01*
G01*
X90620277Y-52721577D02*
G75*
G03*
X90120277Y-53221564I23J-500023D01*
G01*
X170350736Y-70984063D02*
G75*
G03*
X170850720Y-71484064I499964J-37D01*
G01*
X260050721Y-66721520D02*
G75*
G03*
X260550720Y-66221563I-21J500020D01*
G01*
X85070336Y-91321564D02*
G75*
G03*
X84570278Y-90821564I-500036J-36D01*
G01*
X147770278Y-76534063D02*
X160770278Y-76534064D01*
X123170278Y-67509063D02*
X123170278Y-80509063D01*
X109170277Y-80509064D02*
X109170278Y-67509064D01*
X84570278Y-104821578D02*
G75*
G03*
X85070278Y-104321563I22J499978D01*
G01*
D11*
X167460499Y-105703724D02*
G75*
G03*
X167460499Y-105703724I-150000J0D01*
G01*
D10*
X71570278Y-90821578D02*
G75*
G03*
X71070278Y-91321563I22J-500022D01*
G01*
X198529214Y-115837193D02*
G75*
G03*
X197540183Y-114655879I-1200014J-7D01*
G01*
X85070336Y-53221564D02*
G75*
G03*
X84570279Y-52721564I-500036J-36D01*
G01*
X128220337Y-66221564D02*
G75*
G03*
X128720278Y-66721563I499963J-36D01*
G01*
X141720278Y-71771564D02*
X128720278Y-71771562D01*
X131891749Y-126920362D02*
X71827335Y-126920362D01*
X94095277Y-123871563D02*
X81095277Y-123871563D01*
X161270278Y-77034063D02*
X161270277Y-90034063D01*
X183850720Y-90534020D02*
G75*
G03*
X184350720Y-90034063I-20J500020D01*
G01*
X68010500Y-123685378D02*
X68010499Y-53212839D01*
D11*
X164460499Y-96103724D02*
G75*
G03*
X164460499Y-96103724I-150000J0D01*
G01*
X167460499Y-104503724D02*
G75*
G03*
X167460499Y-104503724I-150000J0D01*
G01*
D10*
X160770278Y-109584063D02*
X147770278Y-109584064D01*
X167310499Y-61117706D02*
X164310499Y-61117706D01*
X72157336Y-122371564D02*
G75*
G03*
X72657278Y-122871564I499964J-36D01*
G01*
X128720278Y-52721578D02*
G75*
G03*
X128220278Y-53221564I22J-500022D01*
G01*
X123170336Y-86559063D02*
G75*
G03*
X122670277Y-86059064I-500036J-37D01*
G01*
X228000720Y-52721564D02*
X241000720Y-52721563D01*
X103620278Y-66721578D02*
G75*
G03*
X104120278Y-66221564I22J499978D01*
G01*
X103620278Y-104821578D02*
G75*
G03*
X104120278Y-104321563I22J499978D01*
G01*
X170350737Y-109084063D02*
G75*
G03*
X170850720Y-109584063I499963J-37D01*
G01*
X246550737Y-66221563D02*
G75*
G03*
X247050720Y-66721563I499963J-37D01*
G01*
X71543810Y-49670363D02*
X104910499Y-49670363D01*
X261492371Y-48255179D02*
X263237296Y-46504456D01*
X263610499Y-53212839D02*
X263610498Y-123685378D01*
X246550736Y-85271563D02*
G75*
G03*
X247050719Y-85771564I499964J-37D01*
G01*
X142220336Y-72271563D02*
G75*
G03*
X141720278Y-71771564I-500036J-37D01*
G01*
X71070278Y-85271564D02*
X71070277Y-72271564D01*
D11*
X167460499Y-99103724D02*
G75*
G03*
X167460499Y-99103724I-150000J0D01*
G01*
D10*
X222450721Y-99559063D02*
X222450721Y-86559063D01*
X128720278Y-90821579D02*
G75*
G03*
X128220279Y-91321563I22J-500021D01*
G01*
D11*
X167460499Y-58417706D02*
G75*
G03*
X167460499Y-58417706I-150000J0D01*
G01*
D10*
X235587736Y-108371564D02*
G75*
G03*
X235087721Y-107871564I-500036J-36D01*
G01*
X237525720Y-109871522D02*
G75*
G03*
X237025722Y-110371564I-20J-499978D01*
G01*
X202900720Y-104821564D02*
X189900719Y-104821563D01*
X167439853Y-111550263D02*
G75*
G03*
X168680564Y-112708137I1199147J41263D01*
G01*
X71070337Y-85271563D02*
G75*
G03*
X71570277Y-85771563I499963J-37D01*
G01*
M02*
