G04 #@! TF.GenerationSoftware,KiCad,Pcbnew,7.0.7-7.0.7~ubuntu23.04.1*
G04 #@! TF.CreationDate,2023-09-08T19:18:09+00:00*
G04 #@! TF.ProjectId,plate_alps,706c6174-655f-4616-9c70-732e6b696361,v0.1*
G04 #@! TF.SameCoordinates,PX8bd8a70PY50733a9*
G04 #@! TF.FileFunction,Legend,Top*
G04 #@! TF.FilePolarity,Positive*
%FSLAX46Y46*%
G04 Gerber Fmt 4.6, Leading zero omitted, Abs format (unit mm)*
G04 Created by KiCad (PCBNEW 7.0.7-7.0.7~ubuntu23.04.1) date 2023-09-08 19:18:09*
%MOMM*%
%LPD*%
G01*
G04 APERTURE LIST*
%ADD10C,0.100000*%
G04 APERTURE END LIST*
D10*
X83751854Y-69524710D02*
X83887843Y-69589384D01*
X83887843Y-69589384D02*
X84124164Y-69618400D01*
X84124164Y-69618400D02*
X84224495Y-69582743D01*
X84224495Y-69582743D02*
X84277563Y-69541282D01*
X84277563Y-69541282D02*
X84336433Y-69452557D01*
X84336433Y-69452557D02*
X84348040Y-69358029D01*
X84348040Y-69358029D02*
X84312382Y-69257697D01*
X84312382Y-69257697D02*
X84270922Y-69204630D01*
X84270922Y-69204630D02*
X84182197Y-69145759D01*
X84182197Y-69145759D02*
X83998944Y-69075282D01*
X83998944Y-69075282D02*
X83910219Y-69016411D01*
X83910219Y-69016411D02*
X83868758Y-68963344D01*
X83868758Y-68963344D02*
X83833100Y-68863012D01*
X83833100Y-68863012D02*
X83844707Y-68768484D01*
X83844707Y-68768484D02*
X83903578Y-68679759D01*
X83903578Y-68679759D02*
X83956645Y-68638298D01*
X83956645Y-68638298D02*
X84056977Y-68602641D01*
X84056977Y-68602641D02*
X84293297Y-68631657D01*
X84293297Y-68631657D02*
X84429286Y-68696331D01*
X84765938Y-68689690D02*
X84880389Y-69711253D01*
X84880389Y-69711253D02*
X85156495Y-69025505D01*
X85156495Y-69025505D02*
X85258502Y-69757679D01*
X85258502Y-69757679D02*
X85616692Y-68794150D01*
X85900276Y-68828969D02*
X86514710Y-68904412D01*
X86514710Y-68904412D02*
X86137435Y-69241902D01*
X86137435Y-69241902D02*
X86279227Y-69259312D01*
X86279227Y-69259312D02*
X86367952Y-69318183D01*
X86367952Y-69318183D02*
X86409413Y-69371250D01*
X86409413Y-69371250D02*
X86445070Y-69471582D01*
X86445070Y-69471582D02*
X86416054Y-69707902D01*
X86416054Y-69707902D02*
X86357183Y-69796627D01*
X86357183Y-69796627D02*
X86304116Y-69838088D01*
X86304116Y-69838088D02*
X86203784Y-69873745D01*
X86203784Y-69873745D02*
X85920199Y-69838926D01*
X85920199Y-69838926D02*
X85831475Y-69780055D01*
X85831475Y-69780055D02*
X85790014Y-69726987D01*
X99285201Y-95423294D02*
X99421190Y-95487968D01*
X99421190Y-95487968D02*
X99657510Y-95516985D01*
X99657510Y-95516985D02*
X99757842Y-95481327D01*
X99757842Y-95481327D02*
X99810909Y-95439867D01*
X99810909Y-95439867D02*
X99869780Y-95351142D01*
X99869780Y-95351142D02*
X99881386Y-95256614D01*
X99881386Y-95256614D02*
X99845729Y-95156282D01*
X99845729Y-95156282D02*
X99804268Y-95103215D01*
X99804268Y-95103215D02*
X99715543Y-95044344D01*
X99715543Y-95044344D02*
X99532290Y-94973867D01*
X99532290Y-94973867D02*
X99443565Y-94914996D01*
X99443565Y-94914996D02*
X99402104Y-94861929D01*
X99402104Y-94861929D02*
X99366447Y-94761597D01*
X99366447Y-94761597D02*
X99378053Y-94667069D01*
X99378053Y-94667069D02*
X99436924Y-94578344D01*
X99436924Y-94578344D02*
X99489991Y-94536883D01*
X99489991Y-94536883D02*
X99590323Y-94501226D01*
X99590323Y-94501226D02*
X99826644Y-94530242D01*
X99826644Y-94530242D02*
X99962633Y-94594916D01*
X100299285Y-94588275D02*
X100413736Y-95609838D01*
X100413736Y-95609838D02*
X100689842Y-94924089D01*
X100689842Y-94924089D02*
X100791849Y-95656264D01*
X100791849Y-95656264D02*
X101150038Y-94692735D01*
X101926187Y-95795543D02*
X101359018Y-95725904D01*
X101642602Y-95760724D02*
X101764472Y-94768177D01*
X101764472Y-94768177D02*
X101652534Y-94898363D01*
X101652534Y-94898363D02*
X101546399Y-94981285D01*
X101546399Y-94981285D02*
X101446067Y-95016942D01*
X102858187Y-95238305D02*
X102776941Y-95900003D01*
X102668293Y-94831176D02*
X102344923Y-95511121D01*
X102344923Y-95511121D02*
X102959356Y-95586564D01*
X229047460Y-72105119D02*
X228899864Y-72075264D01*
X228899864Y-72075264D02*
X228663544Y-72104281D01*
X228663544Y-72104281D02*
X228574819Y-72163152D01*
X228574819Y-72163152D02*
X228533358Y-72216219D01*
X228533358Y-72216219D02*
X228497700Y-72316551D01*
X228497700Y-72316551D02*
X228509307Y-72411079D01*
X228509307Y-72411079D02*
X228568178Y-72499804D01*
X228568178Y-72499804D02*
X228621245Y-72541265D01*
X228621245Y-72541265D02*
X228721577Y-72576922D01*
X228721577Y-72576922D02*
X228916436Y-72600973D01*
X228916436Y-72600973D02*
X229016768Y-72636630D01*
X229016768Y-72636630D02*
X229069835Y-72678091D01*
X229069835Y-72678091D02*
X229128706Y-72766816D01*
X229128706Y-72766816D02*
X229140313Y-72861344D01*
X229140313Y-72861344D02*
X229104655Y-72961676D01*
X229104655Y-72961676D02*
X229063194Y-73014743D01*
X229063194Y-73014743D02*
X228974469Y-73073614D01*
X228974469Y-73073614D02*
X228738149Y-73102630D01*
X228738149Y-73102630D02*
X228590553Y-73072776D01*
X228265508Y-73160663D02*
X227907318Y-72197134D01*
X227907318Y-72197134D02*
X227805311Y-72929309D01*
X227805311Y-72929309D02*
X227529205Y-72243560D01*
X227529205Y-72243560D02*
X227414754Y-73265123D01*
X226867508Y-72324806D02*
X226678451Y-72348020D01*
X226678451Y-72348020D02*
X226589727Y-72406890D01*
X226589727Y-72406890D02*
X226548266Y-72459958D01*
X226548266Y-72459958D02*
X226471147Y-72613357D01*
X226471147Y-72613357D02*
X226447097Y-72808216D01*
X226447097Y-72808216D02*
X226493523Y-73186329D01*
X226493523Y-73186329D02*
X226552394Y-73275054D01*
X226552394Y-73275054D02*
X226605461Y-73316515D01*
X226605461Y-73316515D02*
X226705793Y-73352172D01*
X226705793Y-73352172D02*
X226894849Y-73328959D01*
X226894849Y-73328959D02*
X226983574Y-73270089D01*
X226983574Y-73270089D02*
X227025035Y-73217021D01*
X227025035Y-73217021D02*
X227060692Y-73116690D01*
X227060692Y-73116690D02*
X227031676Y-72880369D01*
X227031676Y-72880369D02*
X226972805Y-72791644D01*
X226972805Y-72791644D02*
X226919738Y-72750183D01*
X226919738Y-72750183D02*
X226819406Y-72714526D01*
X226819406Y-72714526D02*
X226630350Y-72737739D01*
X226630350Y-72737739D02*
X226541625Y-72796610D01*
X226541625Y-72796610D02*
X226500164Y-72849677D01*
X226500164Y-72849677D02*
X226464506Y-72950009D01*
X219940430Y-130802512D02*
X219792835Y-130772657D01*
X219792835Y-130772657D02*
X219556514Y-130801674D01*
X219556514Y-130801674D02*
X219467789Y-130860545D01*
X219467789Y-130860545D02*
X219426329Y-130913612D01*
X219426329Y-130913612D02*
X219390671Y-131013944D01*
X219390671Y-131013944D02*
X219402278Y-131108472D01*
X219402278Y-131108472D02*
X219461148Y-131197197D01*
X219461148Y-131197197D02*
X219514216Y-131238657D01*
X219514216Y-131238657D02*
X219614547Y-131274315D01*
X219614547Y-131274315D02*
X219809407Y-131298366D01*
X219809407Y-131298366D02*
X219909738Y-131334023D01*
X219909738Y-131334023D02*
X219962806Y-131375484D01*
X219962806Y-131375484D02*
X220021677Y-131464209D01*
X220021677Y-131464209D02*
X220033283Y-131558737D01*
X220033283Y-131558737D02*
X219997626Y-131659069D01*
X219997626Y-131659069D02*
X219956165Y-131712136D01*
X219956165Y-131712136D02*
X219867440Y-131771007D01*
X219867440Y-131771007D02*
X219631119Y-131800023D01*
X219631119Y-131800023D02*
X219483524Y-131770169D01*
X219158478Y-131858056D02*
X218800289Y-130894527D01*
X218800289Y-130894527D02*
X218698282Y-131626702D01*
X218698282Y-131626702D02*
X218422176Y-130940953D01*
X218422176Y-130940953D02*
X218307725Y-131962516D01*
X218024140Y-131997336D02*
X217409707Y-132072779D01*
X217409707Y-132072779D02*
X217694129Y-131654043D01*
X217694129Y-131654043D02*
X217552337Y-131671453D01*
X217552337Y-131671453D02*
X217452005Y-131635795D01*
X217452005Y-131635795D02*
X217398938Y-131594334D01*
X217398938Y-131594334D02*
X217340067Y-131505609D01*
X217340067Y-131505609D02*
X217311051Y-131269289D01*
X217311051Y-131269289D02*
X217346708Y-131168957D01*
X217346708Y-131168957D02*
X217388169Y-131115890D01*
X217388169Y-131115890D02*
X217476894Y-131057019D01*
X217476894Y-131057019D02*
X217760478Y-131022199D01*
X217760478Y-131022199D02*
X217860810Y-131057857D01*
X217860810Y-131057857D02*
X217913877Y-131099318D01*
X216518330Y-131846389D02*
X216437083Y-131184692D01*
X216801077Y-132195486D02*
X216950348Y-131457508D01*
X216950348Y-131457508D02*
X216335914Y-131532950D01*
X64263445Y-71930098D02*
X64399434Y-71994772D01*
X64399434Y-71994772D02*
X64635755Y-72023788D01*
X64635755Y-72023788D02*
X64736086Y-71988131D01*
X64736086Y-71988131D02*
X64789154Y-71946670D01*
X64789154Y-71946670D02*
X64848024Y-71857945D01*
X64848024Y-71857945D02*
X64859631Y-71763417D01*
X64859631Y-71763417D02*
X64823973Y-71663085D01*
X64823973Y-71663085D02*
X64782513Y-71610018D01*
X64782513Y-71610018D02*
X64693788Y-71551147D01*
X64693788Y-71551147D02*
X64510535Y-71480670D01*
X64510535Y-71480670D02*
X64421810Y-71421799D01*
X64421810Y-71421799D02*
X64380349Y-71368732D01*
X64380349Y-71368732D02*
X64344691Y-71268400D01*
X64344691Y-71268400D02*
X64356298Y-71173872D01*
X64356298Y-71173872D02*
X64415169Y-71085147D01*
X64415169Y-71085147D02*
X64468236Y-71043686D01*
X64468236Y-71043686D02*
X64568568Y-71008029D01*
X64568568Y-71008029D02*
X64804888Y-71037045D01*
X64804888Y-71037045D02*
X64940877Y-71101719D01*
X65277529Y-71095078D02*
X65391980Y-72116641D01*
X65391980Y-72116641D02*
X65668086Y-71430893D01*
X65668086Y-71430893D02*
X65770093Y-72163067D01*
X65770093Y-72163067D02*
X66128283Y-71199538D01*
X66447525Y-71334689D02*
X66500592Y-71293228D01*
X66500592Y-71293228D02*
X66600924Y-71257571D01*
X66600924Y-71257571D02*
X66837244Y-71286587D01*
X66837244Y-71286587D02*
X66925969Y-71345458D01*
X66925969Y-71345458D02*
X66967430Y-71398525D01*
X66967430Y-71398525D02*
X67003088Y-71498857D01*
X67003088Y-71498857D02*
X66991481Y-71593385D01*
X66991481Y-71593385D02*
X66926807Y-71729374D01*
X66926807Y-71729374D02*
X66289998Y-72226904D01*
X66289998Y-72226904D02*
X66904431Y-72302347D01*
X212353304Y-88549698D02*
X212205709Y-88519843D01*
X212205709Y-88519843D02*
X211969388Y-88548860D01*
X211969388Y-88548860D02*
X211880663Y-88607731D01*
X211880663Y-88607731D02*
X211839203Y-88660798D01*
X211839203Y-88660798D02*
X211803545Y-88761130D01*
X211803545Y-88761130D02*
X211815152Y-88855658D01*
X211815152Y-88855658D02*
X211874022Y-88944383D01*
X211874022Y-88944383D02*
X211927090Y-88985843D01*
X211927090Y-88985843D02*
X212027421Y-89021501D01*
X212027421Y-89021501D02*
X212222281Y-89045552D01*
X212222281Y-89045552D02*
X212322612Y-89081209D01*
X212322612Y-89081209D02*
X212375680Y-89122670D01*
X212375680Y-89122670D02*
X212434551Y-89211395D01*
X212434551Y-89211395D02*
X212446157Y-89305923D01*
X212446157Y-89305923D02*
X212410500Y-89406255D01*
X212410500Y-89406255D02*
X212369039Y-89459322D01*
X212369039Y-89459322D02*
X212280314Y-89518193D01*
X212280314Y-89518193D02*
X212043993Y-89547209D01*
X212043993Y-89547209D02*
X211896398Y-89517355D01*
X211571352Y-89605242D02*
X211213163Y-88641713D01*
X211213163Y-88641713D02*
X211111156Y-89373888D01*
X211111156Y-89373888D02*
X210835050Y-88688139D01*
X210835050Y-88688139D02*
X210720599Y-89709702D01*
X209700711Y-88827418D02*
X210267881Y-88757779D01*
X209984296Y-88792599D02*
X210106165Y-89785145D01*
X210106165Y-89785145D02*
X210183284Y-89631746D01*
X210183284Y-89631746D02*
X210266205Y-89525611D01*
X210266205Y-89525611D02*
X210354930Y-89466740D01*
X209203182Y-89464227D02*
X209303513Y-89499885D01*
X209303513Y-89499885D02*
X209356581Y-89541346D01*
X209356581Y-89541346D02*
X209415451Y-89630070D01*
X209415451Y-89630070D02*
X209421255Y-89677335D01*
X209421255Y-89677335D02*
X209385597Y-89777666D01*
X209385597Y-89777666D02*
X209344136Y-89830733D01*
X209344136Y-89830733D02*
X209255411Y-89889604D01*
X209255411Y-89889604D02*
X209066355Y-89912817D01*
X209066355Y-89912817D02*
X208966024Y-89877160D01*
X208966024Y-89877160D02*
X208912956Y-89835699D01*
X208912956Y-89835699D02*
X208854085Y-89746974D01*
X208854085Y-89746974D02*
X208848282Y-89699710D01*
X208848282Y-89699710D02*
X208883940Y-89599379D01*
X208883940Y-89599379D02*
X208925400Y-89546311D01*
X208925400Y-89546311D02*
X209014125Y-89487440D01*
X209014125Y-89487440D02*
X209203182Y-89464227D01*
X209203182Y-89464227D02*
X209291907Y-89405357D01*
X209291907Y-89405357D02*
X209333367Y-89352289D01*
X209333367Y-89352289D02*
X209369025Y-89251958D01*
X209369025Y-89251958D02*
X209345812Y-89062901D01*
X209345812Y-89062901D02*
X209286941Y-88974176D01*
X209286941Y-88974176D02*
X209233874Y-88932716D01*
X209233874Y-88932716D02*
X209133542Y-88897058D01*
X209133542Y-88897058D02*
X208944486Y-88920271D01*
X208944486Y-88920271D02*
X208855761Y-88979142D01*
X208855761Y-88979142D02*
X208814300Y-89032209D01*
X208814300Y-89032209D02*
X208778643Y-89132541D01*
X208778643Y-89132541D02*
X208801856Y-89321597D01*
X208801856Y-89321597D02*
X208860726Y-89410322D01*
X208860726Y-89410322D02*
X208913794Y-89451783D01*
X208913794Y-89451783D02*
X209014125Y-89487440D01*
X253651730Y-112268486D02*
X253504135Y-112238631D01*
X253504135Y-112238631D02*
X253267814Y-112267648D01*
X253267814Y-112267648D02*
X253179089Y-112326519D01*
X253179089Y-112326519D02*
X253137629Y-112379586D01*
X253137629Y-112379586D02*
X253101971Y-112479918D01*
X253101971Y-112479918D02*
X253113578Y-112574446D01*
X253113578Y-112574446D02*
X253172448Y-112663171D01*
X253172448Y-112663171D02*
X253225516Y-112704631D01*
X253225516Y-112704631D02*
X253325847Y-112740289D01*
X253325847Y-112740289D02*
X253520707Y-112764340D01*
X253520707Y-112764340D02*
X253621038Y-112799997D01*
X253621038Y-112799997D02*
X253674106Y-112841458D01*
X253674106Y-112841458D02*
X253732977Y-112930183D01*
X253732977Y-112930183D02*
X253744583Y-113024711D01*
X253744583Y-113024711D02*
X253708926Y-113125043D01*
X253708926Y-113125043D02*
X253667465Y-113178110D01*
X253667465Y-113178110D02*
X253578740Y-113236981D01*
X253578740Y-113236981D02*
X253342419Y-113265997D01*
X253342419Y-113265997D02*
X253194824Y-113236143D01*
X252869778Y-113324030D02*
X252511589Y-112360501D01*
X252511589Y-112360501D02*
X252409582Y-113092676D01*
X252409582Y-113092676D02*
X252133476Y-112406927D01*
X252133476Y-112406927D02*
X252019025Y-113428490D01*
X251735440Y-113463310D02*
X251121007Y-113538753D01*
X251121007Y-113538753D02*
X251405429Y-113120017D01*
X251405429Y-113120017D02*
X251263637Y-113137427D01*
X251263637Y-113137427D02*
X251163305Y-113101769D01*
X251163305Y-113101769D02*
X251110238Y-113060308D01*
X251110238Y-113060308D02*
X251051367Y-112971583D01*
X251051367Y-112971583D02*
X251022351Y-112735263D01*
X251022351Y-112735263D02*
X251058008Y-112634931D01*
X251058008Y-112634931D02*
X251099469Y-112581864D01*
X251099469Y-112581864D02*
X251188194Y-112522993D01*
X251188194Y-112522993D02*
X251471778Y-112488173D01*
X251471778Y-112488173D02*
X251572110Y-112523831D01*
X251572110Y-112523831D02*
X251625177Y-112565292D01*
X250506573Y-113614195D02*
X250412045Y-113625802D01*
X250412045Y-113625802D02*
X250311714Y-113590145D01*
X250311714Y-113590145D02*
X250258646Y-113548684D01*
X250258646Y-113548684D02*
X250199776Y-113459959D01*
X250199776Y-113459959D02*
X250129298Y-113276706D01*
X250129298Y-113276706D02*
X250100282Y-113040385D01*
X250100282Y-113040385D02*
X250124333Y-112845526D01*
X250124333Y-112845526D02*
X250159990Y-112745194D01*
X250159990Y-112745194D02*
X250201451Y-112692127D01*
X250201451Y-112692127D02*
X250290176Y-112633256D01*
X250290176Y-112633256D02*
X250384704Y-112621649D01*
X250384704Y-112621649D02*
X250485036Y-112657307D01*
X250485036Y-112657307D02*
X250538103Y-112698768D01*
X250538103Y-112698768D02*
X250596974Y-112787493D01*
X250596974Y-112787493D02*
X250667451Y-112970746D01*
X250667451Y-112970746D02*
X250696467Y-113207066D01*
X250696467Y-113207066D02*
X250672417Y-113401926D01*
X250672417Y-113401926D02*
X250636759Y-113502257D01*
X250636759Y-113502257D02*
X250595298Y-113555325D01*
X250595298Y-113555325D02*
X250506573Y-113614195D01*
X39659175Y-112093464D02*
X39795164Y-112158138D01*
X39795164Y-112158138D02*
X40031484Y-112187155D01*
X40031484Y-112187155D02*
X40131816Y-112151497D01*
X40131816Y-112151497D02*
X40184883Y-112110037D01*
X40184883Y-112110037D02*
X40243754Y-112021312D01*
X40243754Y-112021312D02*
X40255360Y-111926784D01*
X40255360Y-111926784D02*
X40219703Y-111826452D01*
X40219703Y-111826452D02*
X40178242Y-111773385D01*
X40178242Y-111773385D02*
X40089517Y-111714514D01*
X40089517Y-111714514D02*
X39906264Y-111644037D01*
X39906264Y-111644037D02*
X39817539Y-111585166D01*
X39817539Y-111585166D02*
X39776078Y-111532099D01*
X39776078Y-111532099D02*
X39740421Y-111431767D01*
X39740421Y-111431767D02*
X39752027Y-111337239D01*
X39752027Y-111337239D02*
X39810898Y-111248514D01*
X39810898Y-111248514D02*
X39863965Y-111207053D01*
X39863965Y-111207053D02*
X39964297Y-111171396D01*
X39964297Y-111171396D02*
X40200618Y-111200412D01*
X40200618Y-111200412D02*
X40336607Y-111265086D01*
X40673259Y-111258445D02*
X40787710Y-112280008D01*
X40787710Y-112280008D02*
X41063816Y-111594259D01*
X41063816Y-111594259D02*
X41165823Y-112326434D01*
X41165823Y-112326434D02*
X41524012Y-111362905D01*
X41843254Y-111498056D02*
X41896322Y-111456595D01*
X41896322Y-111456595D02*
X41996653Y-111420938D01*
X41996653Y-111420938D02*
X42232974Y-111449954D01*
X42232974Y-111449954D02*
X42321699Y-111508825D01*
X42321699Y-111508825D02*
X42363160Y-111561892D01*
X42363160Y-111561892D02*
X42398817Y-111662224D01*
X42398817Y-111662224D02*
X42387210Y-111756752D01*
X42387210Y-111756752D02*
X42322536Y-111892741D01*
X42322536Y-111892741D02*
X41685728Y-112390271D01*
X41685728Y-112390271D02*
X42300161Y-112465713D01*
X43245443Y-112581779D02*
X42678274Y-112512140D01*
X42961858Y-112546960D02*
X43083728Y-111554414D01*
X43083728Y-111554414D02*
X42971790Y-111684599D01*
X42971790Y-111684599D02*
X42865655Y-111767521D01*
X42865655Y-111767521D02*
X42765323Y-111803178D01*
X41980791Y-93185461D02*
X42116780Y-93250135D01*
X42116780Y-93250135D02*
X42353100Y-93279152D01*
X42353100Y-93279152D02*
X42453432Y-93243494D01*
X42453432Y-93243494D02*
X42506499Y-93202034D01*
X42506499Y-93202034D02*
X42565370Y-93113309D01*
X42565370Y-93113309D02*
X42576976Y-93018781D01*
X42576976Y-93018781D02*
X42541319Y-92918449D01*
X42541319Y-92918449D02*
X42499858Y-92865382D01*
X42499858Y-92865382D02*
X42411133Y-92806511D01*
X42411133Y-92806511D02*
X42227880Y-92736034D01*
X42227880Y-92736034D02*
X42139155Y-92677163D01*
X42139155Y-92677163D02*
X42097694Y-92624096D01*
X42097694Y-92624096D02*
X42062037Y-92523764D01*
X42062037Y-92523764D02*
X42073643Y-92429236D01*
X42073643Y-92429236D02*
X42132514Y-92340511D01*
X42132514Y-92340511D02*
X42185581Y-92299050D01*
X42185581Y-92299050D02*
X42285913Y-92263393D01*
X42285913Y-92263393D02*
X42522234Y-92292409D01*
X42522234Y-92292409D02*
X42658223Y-92357083D01*
X42994875Y-92350442D02*
X43109326Y-93372005D01*
X43109326Y-93372005D02*
X43385432Y-92686256D01*
X43385432Y-92686256D02*
X43487439Y-93418431D01*
X43487439Y-93418431D02*
X43845628Y-92454902D01*
X44621777Y-93557710D02*
X44054608Y-93488071D01*
X44338192Y-93522891D02*
X44460062Y-92530344D01*
X44460062Y-92530344D02*
X44348124Y-92660530D01*
X44348124Y-92660530D02*
X44241989Y-92743452D01*
X44241989Y-92743452D02*
X44141657Y-92779109D01*
X45567059Y-93673776D02*
X44999890Y-93604137D01*
X45283474Y-93638957D02*
X45405344Y-92646411D01*
X45405344Y-92646411D02*
X45293406Y-92776596D01*
X45293406Y-92776596D02*
X45187271Y-92859518D01*
X45187271Y-92859518D02*
X45086939Y-92895175D01*
X44775038Y-74335489D02*
X44911027Y-74400163D01*
X44911027Y-74400163D02*
X45147348Y-74429179D01*
X45147348Y-74429179D02*
X45247679Y-74393522D01*
X45247679Y-74393522D02*
X45300747Y-74352061D01*
X45300747Y-74352061D02*
X45359617Y-74263336D01*
X45359617Y-74263336D02*
X45371224Y-74168808D01*
X45371224Y-74168808D02*
X45335566Y-74068476D01*
X45335566Y-74068476D02*
X45294106Y-74015409D01*
X45294106Y-74015409D02*
X45205381Y-73956538D01*
X45205381Y-73956538D02*
X45022128Y-73886061D01*
X45022128Y-73886061D02*
X44933403Y-73827190D01*
X44933403Y-73827190D02*
X44891942Y-73774123D01*
X44891942Y-73774123D02*
X44856284Y-73673791D01*
X44856284Y-73673791D02*
X44867891Y-73579263D01*
X44867891Y-73579263D02*
X44926762Y-73490538D01*
X44926762Y-73490538D02*
X44979829Y-73449077D01*
X44979829Y-73449077D02*
X45080161Y-73413420D01*
X45080161Y-73413420D02*
X45316481Y-73442436D01*
X45316481Y-73442436D02*
X45452470Y-73507110D01*
X45789122Y-73500469D02*
X45903573Y-74522032D01*
X45903573Y-74522032D02*
X46179679Y-73836284D01*
X46179679Y-73836284D02*
X46281686Y-74568458D01*
X46281686Y-74568458D02*
X46639876Y-73604929D01*
X47416024Y-74707738D02*
X46848855Y-74638098D01*
X47132440Y-74672918D02*
X47254309Y-73680372D01*
X47254309Y-73680372D02*
X47142371Y-73810557D01*
X47142371Y-73810557D02*
X47036236Y-73893479D01*
X47036236Y-73893479D02*
X46935905Y-73929136D01*
X96963590Y-114331298D02*
X97099579Y-114395972D01*
X97099579Y-114395972D02*
X97335899Y-114424989D01*
X97335899Y-114424989D02*
X97436231Y-114389331D01*
X97436231Y-114389331D02*
X97489298Y-114347871D01*
X97489298Y-114347871D02*
X97548169Y-114259146D01*
X97548169Y-114259146D02*
X97559775Y-114164618D01*
X97559775Y-114164618D02*
X97524118Y-114064286D01*
X97524118Y-114064286D02*
X97482657Y-114011219D01*
X97482657Y-114011219D02*
X97393932Y-113952348D01*
X97393932Y-113952348D02*
X97210679Y-113881871D01*
X97210679Y-113881871D02*
X97121954Y-113823000D01*
X97121954Y-113823000D02*
X97080493Y-113769933D01*
X97080493Y-113769933D02*
X97044836Y-113669601D01*
X97044836Y-113669601D02*
X97056442Y-113575073D01*
X97056442Y-113575073D02*
X97115313Y-113486348D01*
X97115313Y-113486348D02*
X97168380Y-113444887D01*
X97168380Y-113444887D02*
X97268712Y-113409230D01*
X97268712Y-113409230D02*
X97505033Y-113438246D01*
X97505033Y-113438246D02*
X97641022Y-113502920D01*
X97977674Y-113496279D02*
X98092125Y-114517842D01*
X98092125Y-114517842D02*
X98368231Y-113832093D01*
X98368231Y-113832093D02*
X98470238Y-114564268D01*
X98470238Y-114564268D02*
X98828427Y-113600739D01*
X99147669Y-113735890D02*
X99200737Y-113694429D01*
X99200737Y-113694429D02*
X99301068Y-113658772D01*
X99301068Y-113658772D02*
X99537389Y-113687788D01*
X99537389Y-113687788D02*
X99626114Y-113746659D01*
X99626114Y-113746659D02*
X99667575Y-113799726D01*
X99667575Y-113799726D02*
X99703232Y-113900058D01*
X99703232Y-113900058D02*
X99691625Y-113994586D01*
X99691625Y-113994586D02*
X99626951Y-114130575D01*
X99626951Y-114130575D02*
X98990143Y-114628105D01*
X98990143Y-114628105D02*
X99604576Y-114703547D01*
X100536576Y-114146309D02*
X100455330Y-114808007D01*
X100346682Y-113739180D02*
X100023312Y-114419125D01*
X100023312Y-114419125D02*
X100637745Y-114494568D01*
X175117697Y-97919926D02*
X174970102Y-97890071D01*
X174970102Y-97890071D02*
X174733781Y-97919088D01*
X174733781Y-97919088D02*
X174645056Y-97977959D01*
X174645056Y-97977959D02*
X174603596Y-98031026D01*
X174603596Y-98031026D02*
X174567938Y-98131358D01*
X174567938Y-98131358D02*
X174579545Y-98225886D01*
X174579545Y-98225886D02*
X174638415Y-98314611D01*
X174638415Y-98314611D02*
X174691483Y-98356071D01*
X174691483Y-98356071D02*
X174791814Y-98391729D01*
X174791814Y-98391729D02*
X174986674Y-98415780D01*
X174986674Y-98415780D02*
X175087005Y-98451437D01*
X175087005Y-98451437D02*
X175140073Y-98492898D01*
X175140073Y-98492898D02*
X175198944Y-98581623D01*
X175198944Y-98581623D02*
X175210550Y-98676151D01*
X175210550Y-98676151D02*
X175174893Y-98776483D01*
X175174893Y-98776483D02*
X175133432Y-98829550D01*
X175133432Y-98829550D02*
X175044707Y-98888421D01*
X175044707Y-98888421D02*
X174808386Y-98917437D01*
X174808386Y-98917437D02*
X174660791Y-98887583D01*
X174335745Y-98975470D02*
X173977556Y-98011941D01*
X173977556Y-98011941D02*
X173875549Y-98744116D01*
X173875549Y-98744116D02*
X173599443Y-98058367D01*
X173599443Y-98058367D02*
X173484992Y-99079930D01*
X172465104Y-98197646D02*
X173032274Y-98128007D01*
X172748689Y-98162827D02*
X172870558Y-99155373D01*
X172870558Y-99155373D02*
X172947677Y-99001974D01*
X172947677Y-99001974D02*
X173030598Y-98895839D01*
X173030598Y-98895839D02*
X173119323Y-98836968D01*
X171736220Y-99294652D02*
X171925276Y-99271439D01*
X171925276Y-99271439D02*
X172014001Y-99212568D01*
X172014001Y-99212568D02*
X172055462Y-99159501D01*
X172055462Y-99159501D02*
X172132580Y-99006102D01*
X172132580Y-99006102D02*
X172156631Y-98811242D01*
X172156631Y-98811242D02*
X172110205Y-98433129D01*
X172110205Y-98433129D02*
X172051334Y-98344404D01*
X172051334Y-98344404D02*
X171998267Y-98302944D01*
X171998267Y-98302944D02*
X171897935Y-98267286D01*
X171897935Y-98267286D02*
X171708879Y-98290499D01*
X171708879Y-98290499D02*
X171620154Y-98349370D01*
X171620154Y-98349370D02*
X171578693Y-98402437D01*
X171578693Y-98402437D02*
X171543036Y-98502769D01*
X171543036Y-98502769D02*
X171572052Y-98739089D01*
X171572052Y-98739089D02*
X171630923Y-98827814D01*
X171630923Y-98827814D02*
X171683990Y-98869275D01*
X171683990Y-98869275D02*
X171784322Y-98904933D01*
X171784322Y-98904933D02*
X171973378Y-98881719D01*
X171973378Y-98881719D02*
X172062103Y-98822849D01*
X172062103Y-98822849D02*
X172103564Y-98769781D01*
X172103564Y-98769781D02*
X172139221Y-98669450D01*
X196347315Y-114506320D02*
X196199720Y-114476465D01*
X196199720Y-114476465D02*
X195963399Y-114505482D01*
X195963399Y-114505482D02*
X195874674Y-114564353D01*
X195874674Y-114564353D02*
X195833214Y-114617420D01*
X195833214Y-114617420D02*
X195797556Y-114717752D01*
X195797556Y-114717752D02*
X195809163Y-114812280D01*
X195809163Y-114812280D02*
X195868033Y-114901005D01*
X195868033Y-114901005D02*
X195921101Y-114942465D01*
X195921101Y-114942465D02*
X196021432Y-114978123D01*
X196021432Y-114978123D02*
X196216292Y-115002174D01*
X196216292Y-115002174D02*
X196316623Y-115037831D01*
X196316623Y-115037831D02*
X196369691Y-115079292D01*
X196369691Y-115079292D02*
X196428562Y-115168017D01*
X196428562Y-115168017D02*
X196440168Y-115262545D01*
X196440168Y-115262545D02*
X196404511Y-115362877D01*
X196404511Y-115362877D02*
X196363050Y-115415944D01*
X196363050Y-115415944D02*
X196274325Y-115474815D01*
X196274325Y-115474815D02*
X196038004Y-115503831D01*
X196038004Y-115503831D02*
X195890409Y-115473977D01*
X195565363Y-115561864D02*
X195207174Y-114598335D01*
X195207174Y-114598335D02*
X195105167Y-115330510D01*
X195105167Y-115330510D02*
X194829061Y-114644761D01*
X194829061Y-114644761D02*
X194714610Y-115666324D01*
X194372154Y-115612419D02*
X194330694Y-115665486D01*
X194330694Y-115665486D02*
X194241969Y-115724357D01*
X194241969Y-115724357D02*
X194005648Y-115753373D01*
X194005648Y-115753373D02*
X193905317Y-115717716D01*
X193905317Y-115717716D02*
X193852249Y-115676255D01*
X193852249Y-115676255D02*
X193793379Y-115587530D01*
X193793379Y-115587530D02*
X193781772Y-115493002D01*
X193781772Y-115493002D02*
X193811626Y-115345406D01*
X193811626Y-115345406D02*
X194309156Y-114708597D01*
X194309156Y-114708597D02*
X193694722Y-114784040D01*
X193485743Y-115817210D02*
X192824046Y-115898456D01*
X192824046Y-115898456D02*
X193127553Y-114853680D01*
X231841710Y-90955094D02*
X231694115Y-90925239D01*
X231694115Y-90925239D02*
X231457794Y-90954256D01*
X231457794Y-90954256D02*
X231369069Y-91013127D01*
X231369069Y-91013127D02*
X231327609Y-91066194D01*
X231327609Y-91066194D02*
X231291951Y-91166526D01*
X231291951Y-91166526D02*
X231303558Y-91261054D01*
X231303558Y-91261054D02*
X231362428Y-91349779D01*
X231362428Y-91349779D02*
X231415496Y-91391239D01*
X231415496Y-91391239D02*
X231515827Y-91426897D01*
X231515827Y-91426897D02*
X231710687Y-91450948D01*
X231710687Y-91450948D02*
X231811018Y-91486605D01*
X231811018Y-91486605D02*
X231864086Y-91528066D01*
X231864086Y-91528066D02*
X231922957Y-91616791D01*
X231922957Y-91616791D02*
X231934563Y-91711319D01*
X231934563Y-91711319D02*
X231898906Y-91811651D01*
X231898906Y-91811651D02*
X231857445Y-91864718D01*
X231857445Y-91864718D02*
X231768720Y-91923589D01*
X231768720Y-91923589D02*
X231532399Y-91952605D01*
X231532399Y-91952605D02*
X231384804Y-91922751D01*
X231059758Y-92010638D02*
X230701569Y-91047109D01*
X230701569Y-91047109D02*
X230599562Y-91779284D01*
X230599562Y-91779284D02*
X230323456Y-91093535D01*
X230323456Y-91093535D02*
X230209005Y-92115098D01*
X229189117Y-91232814D02*
X229756287Y-91163175D01*
X229472702Y-91197995D02*
X229594571Y-92190541D01*
X229594571Y-92190541D02*
X229671690Y-92037142D01*
X229671690Y-92037142D02*
X229754611Y-91931007D01*
X229754611Y-91931007D02*
X229843336Y-91872136D01*
X228716476Y-91290847D02*
X228527420Y-91314061D01*
X228527420Y-91314061D02*
X228438695Y-91372931D01*
X228438695Y-91372931D02*
X228397234Y-91425999D01*
X228397234Y-91425999D02*
X228320116Y-91579398D01*
X228320116Y-91579398D02*
X228296065Y-91774257D01*
X228296065Y-91774257D02*
X228342491Y-92152370D01*
X228342491Y-92152370D02*
X228401362Y-92241095D01*
X228401362Y-92241095D02*
X228454430Y-92282556D01*
X228454430Y-92282556D02*
X228554761Y-92318213D01*
X228554761Y-92318213D02*
X228743817Y-92295000D01*
X228743817Y-92295000D02*
X228832542Y-92236129D01*
X228832542Y-92236129D02*
X228874003Y-92183062D01*
X228874003Y-92183062D02*
X228909661Y-92082731D01*
X228909661Y-92082731D02*
X228880644Y-91846410D01*
X228880644Y-91846410D02*
X228821773Y-91757685D01*
X228821773Y-91757685D02*
X228768706Y-91716224D01*
X228768706Y-91716224D02*
X228668375Y-91680567D01*
X228668375Y-91680567D02*
X228479318Y-91703780D01*
X228479318Y-91703780D02*
X228390593Y-91762651D01*
X228390593Y-91762651D02*
X228349132Y-91815718D01*
X228349132Y-91815718D02*
X228313475Y-91916050D01*
X118193208Y-97744904D02*
X118329197Y-97809578D01*
X118329197Y-97809578D02*
X118565517Y-97838595D01*
X118565517Y-97838595D02*
X118665849Y-97802937D01*
X118665849Y-97802937D02*
X118718916Y-97761477D01*
X118718916Y-97761477D02*
X118777787Y-97672752D01*
X118777787Y-97672752D02*
X118789393Y-97578224D01*
X118789393Y-97578224D02*
X118753736Y-97477892D01*
X118753736Y-97477892D02*
X118712275Y-97424825D01*
X118712275Y-97424825D02*
X118623550Y-97365954D01*
X118623550Y-97365954D02*
X118440297Y-97295477D01*
X118440297Y-97295477D02*
X118351572Y-97236606D01*
X118351572Y-97236606D02*
X118310111Y-97183539D01*
X118310111Y-97183539D02*
X118274454Y-97083207D01*
X118274454Y-97083207D02*
X118286060Y-96988679D01*
X118286060Y-96988679D02*
X118344931Y-96899954D01*
X118344931Y-96899954D02*
X118397998Y-96858493D01*
X118397998Y-96858493D02*
X118498330Y-96822836D01*
X118498330Y-96822836D02*
X118734651Y-96851852D01*
X118734651Y-96851852D02*
X118870640Y-96916526D01*
X119207292Y-96909885D02*
X119321743Y-97931448D01*
X119321743Y-97931448D02*
X119597849Y-97245699D01*
X119597849Y-97245699D02*
X119699856Y-97977874D01*
X119699856Y-97977874D02*
X120058045Y-97014345D01*
X120834194Y-98117153D02*
X120267025Y-98047514D01*
X120550609Y-98082334D02*
X120672479Y-97089787D01*
X120672479Y-97089787D02*
X120560541Y-97219973D01*
X120560541Y-97219973D02*
X120454406Y-97302895D01*
X120454406Y-97302895D02*
X120354074Y-97338552D01*
X121854081Y-97234870D02*
X121381440Y-97176837D01*
X121381440Y-97176837D02*
X121276143Y-97643675D01*
X121276143Y-97643675D02*
X121329210Y-97602214D01*
X121329210Y-97602214D02*
X121429542Y-97566556D01*
X121429542Y-97566556D02*
X121665863Y-97595573D01*
X121665863Y-97595573D02*
X121754587Y-97654444D01*
X121754587Y-97654444D02*
X121796048Y-97707511D01*
X121796048Y-97707511D02*
X121831706Y-97807843D01*
X121831706Y-97807843D02*
X121802689Y-98044163D01*
X121802689Y-98044163D02*
X121743818Y-98132888D01*
X121743818Y-98132888D02*
X121690751Y-98174349D01*
X121690751Y-98174349D02*
X121590420Y-98210006D01*
X121590420Y-98210006D02*
X121354099Y-98180990D01*
X121354099Y-98180990D02*
X121265374Y-98122119D01*
X121265374Y-98122119D02*
X121223913Y-98069052D01*
X78635991Y-107282685D02*
X78771980Y-107347359D01*
X78771980Y-107347359D02*
X79008300Y-107376376D01*
X79008300Y-107376376D02*
X79108632Y-107340718D01*
X79108632Y-107340718D02*
X79161699Y-107299258D01*
X79161699Y-107299258D02*
X79220570Y-107210533D01*
X79220570Y-107210533D02*
X79232176Y-107116005D01*
X79232176Y-107116005D02*
X79196519Y-107015673D01*
X79196519Y-107015673D02*
X79155058Y-106962606D01*
X79155058Y-106962606D02*
X79066333Y-106903735D01*
X79066333Y-106903735D02*
X78883080Y-106833258D01*
X78883080Y-106833258D02*
X78794355Y-106774387D01*
X78794355Y-106774387D02*
X78752894Y-106721320D01*
X78752894Y-106721320D02*
X78717237Y-106620988D01*
X78717237Y-106620988D02*
X78728843Y-106526460D01*
X78728843Y-106526460D02*
X78787714Y-106437735D01*
X78787714Y-106437735D02*
X78840781Y-106396274D01*
X78840781Y-106396274D02*
X78941113Y-106360617D01*
X78941113Y-106360617D02*
X79177434Y-106389633D01*
X79177434Y-106389633D02*
X79313423Y-106454307D01*
X79650075Y-106447666D02*
X79764526Y-107469229D01*
X79764526Y-107469229D02*
X80040632Y-106783480D01*
X80040632Y-106783480D02*
X80142639Y-107515655D01*
X80142639Y-107515655D02*
X80500828Y-106552126D01*
X80820070Y-106687277D02*
X80873138Y-106645816D01*
X80873138Y-106645816D02*
X80973469Y-106610159D01*
X80973469Y-106610159D02*
X81209790Y-106639175D01*
X81209790Y-106639175D02*
X81298515Y-106698046D01*
X81298515Y-106698046D02*
X81339976Y-106751113D01*
X81339976Y-106751113D02*
X81375633Y-106851445D01*
X81375633Y-106851445D02*
X81364026Y-106945973D01*
X81364026Y-106945973D02*
X81299352Y-107081962D01*
X81299352Y-107081962D02*
X80662544Y-107579492D01*
X80662544Y-107579492D02*
X81276977Y-107654934D01*
X81729695Y-106703011D02*
X82344128Y-106778454D01*
X82344128Y-106778454D02*
X81966853Y-107115944D01*
X81966853Y-107115944D02*
X82108646Y-107133354D01*
X82108646Y-107133354D02*
X82197370Y-107192225D01*
X82197370Y-107192225D02*
X82238831Y-107245292D01*
X82238831Y-107245292D02*
X82274489Y-107345624D01*
X82274489Y-107345624D02*
X82245472Y-107581944D01*
X82245472Y-107581944D02*
X82186601Y-107670669D01*
X82186601Y-107670669D02*
X82133534Y-107712130D01*
X82133534Y-107712130D02*
X82033203Y-107747787D01*
X82033203Y-107747787D02*
X81749618Y-107712967D01*
X81749618Y-107712967D02*
X81660893Y-107654097D01*
X81660893Y-107654097D02*
X81619432Y-107601029D01*
X115871595Y-116652909D02*
X116007584Y-116717583D01*
X116007584Y-116717583D02*
X116243904Y-116746600D01*
X116243904Y-116746600D02*
X116344236Y-116710942D01*
X116344236Y-116710942D02*
X116397303Y-116669482D01*
X116397303Y-116669482D02*
X116456174Y-116580757D01*
X116456174Y-116580757D02*
X116467780Y-116486229D01*
X116467780Y-116486229D02*
X116432123Y-116385897D01*
X116432123Y-116385897D02*
X116390662Y-116332830D01*
X116390662Y-116332830D02*
X116301937Y-116273959D01*
X116301937Y-116273959D02*
X116118684Y-116203482D01*
X116118684Y-116203482D02*
X116029959Y-116144611D01*
X116029959Y-116144611D02*
X115988498Y-116091544D01*
X115988498Y-116091544D02*
X115952841Y-115991212D01*
X115952841Y-115991212D02*
X115964447Y-115896684D01*
X115964447Y-115896684D02*
X116023318Y-115807959D01*
X116023318Y-115807959D02*
X116076385Y-115766498D01*
X116076385Y-115766498D02*
X116176717Y-115730841D01*
X116176717Y-115730841D02*
X116413038Y-115759857D01*
X116413038Y-115759857D02*
X116549027Y-115824531D01*
X116885679Y-115817890D02*
X117000130Y-116839453D01*
X117000130Y-116839453D02*
X117276236Y-116153704D01*
X117276236Y-116153704D02*
X117378243Y-116885879D01*
X117378243Y-116885879D02*
X117736432Y-115922350D01*
X118055674Y-116057501D02*
X118108742Y-116016040D01*
X118108742Y-116016040D02*
X118209073Y-115980383D01*
X118209073Y-115980383D02*
X118445394Y-116009399D01*
X118445394Y-116009399D02*
X118534119Y-116068270D01*
X118534119Y-116068270D02*
X118575580Y-116121337D01*
X118575580Y-116121337D02*
X118611237Y-116221669D01*
X118611237Y-116221669D02*
X118599630Y-116316197D01*
X118599630Y-116316197D02*
X118534956Y-116452186D01*
X118534956Y-116452186D02*
X117898148Y-116949716D01*
X117898148Y-116949716D02*
X118512581Y-117025158D01*
X119532468Y-116142875D02*
X119059827Y-116084842D01*
X119059827Y-116084842D02*
X118954530Y-116551680D01*
X118954530Y-116551680D02*
X119007597Y-116510219D01*
X119007597Y-116510219D02*
X119107929Y-116474561D01*
X119107929Y-116474561D02*
X119344250Y-116503578D01*
X119344250Y-116503578D02*
X119432974Y-116562449D01*
X119432974Y-116562449D02*
X119474435Y-116615516D01*
X119474435Y-116615516D02*
X119510093Y-116715848D01*
X119510093Y-116715848D02*
X119481076Y-116952168D01*
X119481076Y-116952168D02*
X119422205Y-117040893D01*
X119422205Y-117040893D02*
X119369138Y-117082354D01*
X119369138Y-117082354D02*
X119268807Y-117118011D01*
X119268807Y-117118011D02*
X119032486Y-117088995D01*
X119032486Y-117088995D02*
X118943761Y-117030124D01*
X118943761Y-117030124D02*
X118902300Y-116977057D01*
X59147584Y-109688077D02*
X59283573Y-109752751D01*
X59283573Y-109752751D02*
X59519893Y-109781768D01*
X59519893Y-109781768D02*
X59620225Y-109746110D01*
X59620225Y-109746110D02*
X59673292Y-109704650D01*
X59673292Y-109704650D02*
X59732163Y-109615925D01*
X59732163Y-109615925D02*
X59743769Y-109521397D01*
X59743769Y-109521397D02*
X59708112Y-109421065D01*
X59708112Y-109421065D02*
X59666651Y-109367998D01*
X59666651Y-109367998D02*
X59577926Y-109309127D01*
X59577926Y-109309127D02*
X59394673Y-109238650D01*
X59394673Y-109238650D02*
X59305948Y-109179779D01*
X59305948Y-109179779D02*
X59264487Y-109126712D01*
X59264487Y-109126712D02*
X59228830Y-109026380D01*
X59228830Y-109026380D02*
X59240436Y-108931852D01*
X59240436Y-108931852D02*
X59299307Y-108843127D01*
X59299307Y-108843127D02*
X59352374Y-108801666D01*
X59352374Y-108801666D02*
X59452706Y-108766009D01*
X59452706Y-108766009D02*
X59689027Y-108795025D01*
X59689027Y-108795025D02*
X59825016Y-108859699D01*
X60161668Y-108853058D02*
X60276119Y-109874621D01*
X60276119Y-109874621D02*
X60552225Y-109188872D01*
X60552225Y-109188872D02*
X60654232Y-109921047D01*
X60654232Y-109921047D02*
X61012421Y-108957518D01*
X61331663Y-109092669D02*
X61384731Y-109051208D01*
X61384731Y-109051208D02*
X61485062Y-109015551D01*
X61485062Y-109015551D02*
X61721383Y-109044567D01*
X61721383Y-109044567D02*
X61810108Y-109103438D01*
X61810108Y-109103438D02*
X61851569Y-109156505D01*
X61851569Y-109156505D02*
X61887226Y-109256837D01*
X61887226Y-109256837D02*
X61875619Y-109351365D01*
X61875619Y-109351365D02*
X61810945Y-109487354D01*
X61810945Y-109487354D02*
X61174137Y-109984884D01*
X61174137Y-109984884D02*
X61788570Y-110060326D01*
X62276945Y-109208735D02*
X62330013Y-109167274D01*
X62330013Y-109167274D02*
X62430344Y-109131617D01*
X62430344Y-109131617D02*
X62666665Y-109160633D01*
X62666665Y-109160633D02*
X62755390Y-109219504D01*
X62755390Y-109219504D02*
X62796851Y-109272571D01*
X62796851Y-109272571D02*
X62832508Y-109372903D01*
X62832508Y-109372903D02*
X62820902Y-109467431D01*
X62820902Y-109467431D02*
X62756228Y-109603420D01*
X62756228Y-109603420D02*
X62119419Y-110100950D01*
X62119419Y-110100950D02*
X62733852Y-110176392D01*
X102079453Y-76573322D02*
X102215442Y-76637996D01*
X102215442Y-76637996D02*
X102451763Y-76667012D01*
X102451763Y-76667012D02*
X102552094Y-76631355D01*
X102552094Y-76631355D02*
X102605162Y-76589894D01*
X102605162Y-76589894D02*
X102664032Y-76501169D01*
X102664032Y-76501169D02*
X102675639Y-76406641D01*
X102675639Y-76406641D02*
X102639981Y-76306309D01*
X102639981Y-76306309D02*
X102598521Y-76253242D01*
X102598521Y-76253242D02*
X102509796Y-76194371D01*
X102509796Y-76194371D02*
X102326543Y-76123894D01*
X102326543Y-76123894D02*
X102237818Y-76065023D01*
X102237818Y-76065023D02*
X102196357Y-76011956D01*
X102196357Y-76011956D02*
X102160699Y-75911624D01*
X102160699Y-75911624D02*
X102172306Y-75817096D01*
X102172306Y-75817096D02*
X102231177Y-75728371D01*
X102231177Y-75728371D02*
X102284244Y-75686910D01*
X102284244Y-75686910D02*
X102384576Y-75651253D01*
X102384576Y-75651253D02*
X102620896Y-75680269D01*
X102620896Y-75680269D02*
X102756885Y-75744943D01*
X103093537Y-75738302D02*
X103207988Y-76759865D01*
X103207988Y-76759865D02*
X103484094Y-76074117D01*
X103484094Y-76074117D02*
X103586101Y-76806291D01*
X103586101Y-76806291D02*
X103944291Y-75842762D01*
X104707157Y-76272266D02*
X104625911Y-76933964D01*
X104517263Y-75865137D02*
X104193893Y-76545082D01*
X104193893Y-76545082D02*
X104808327Y-76620525D01*
X80957601Y-88374676D02*
X81093590Y-88439350D01*
X81093590Y-88439350D02*
X81329910Y-88468367D01*
X81329910Y-88468367D02*
X81430242Y-88432709D01*
X81430242Y-88432709D02*
X81483309Y-88391249D01*
X81483309Y-88391249D02*
X81542180Y-88302524D01*
X81542180Y-88302524D02*
X81553786Y-88207996D01*
X81553786Y-88207996D02*
X81518129Y-88107664D01*
X81518129Y-88107664D02*
X81476668Y-88054597D01*
X81476668Y-88054597D02*
X81387943Y-87995726D01*
X81387943Y-87995726D02*
X81204690Y-87925249D01*
X81204690Y-87925249D02*
X81115965Y-87866378D01*
X81115965Y-87866378D02*
X81074504Y-87813311D01*
X81074504Y-87813311D02*
X81038847Y-87712979D01*
X81038847Y-87712979D02*
X81050453Y-87618451D01*
X81050453Y-87618451D02*
X81109324Y-87529726D01*
X81109324Y-87529726D02*
X81162391Y-87488265D01*
X81162391Y-87488265D02*
X81262723Y-87452608D01*
X81262723Y-87452608D02*
X81499044Y-87481624D01*
X81499044Y-87481624D02*
X81635033Y-87546298D01*
X81971685Y-87539657D02*
X82086136Y-88561220D01*
X82086136Y-88561220D02*
X82362242Y-87875471D01*
X82362242Y-87875471D02*
X82464249Y-88607646D01*
X82464249Y-88607646D02*
X82822438Y-87644117D01*
X83598587Y-88746925D02*
X83031418Y-88677286D01*
X83315002Y-88712106D02*
X83436872Y-87719559D01*
X83436872Y-87719559D02*
X83324934Y-87849745D01*
X83324934Y-87849745D02*
X83218799Y-87932667D01*
X83218799Y-87932667D02*
X83118467Y-87968324D01*
X84051305Y-87795002D02*
X84665738Y-87870445D01*
X84665738Y-87870445D02*
X84288463Y-88207935D01*
X84288463Y-88207935D02*
X84430256Y-88225345D01*
X84430256Y-88225345D02*
X84518980Y-88284216D01*
X84518980Y-88284216D02*
X84560441Y-88337283D01*
X84560441Y-88337283D02*
X84596099Y-88437615D01*
X84596099Y-88437615D02*
X84567082Y-88673935D01*
X84567082Y-88673935D02*
X84508211Y-88762660D01*
X84508211Y-88762660D02*
X84455144Y-88804121D01*
X84455144Y-88804121D02*
X84354813Y-88839778D01*
X84354813Y-88839778D02*
X84071228Y-88804958D01*
X84071228Y-88804958D02*
X83982503Y-88746088D01*
X83982503Y-88746088D02*
X83941042Y-88693020D01*
X249008508Y-74452477D02*
X248860913Y-74422622D01*
X248860913Y-74422622D02*
X248624592Y-74451639D01*
X248624592Y-74451639D02*
X248535867Y-74510510D01*
X248535867Y-74510510D02*
X248494407Y-74563577D01*
X248494407Y-74563577D02*
X248458749Y-74663909D01*
X248458749Y-74663909D02*
X248470356Y-74758437D01*
X248470356Y-74758437D02*
X248529226Y-74847162D01*
X248529226Y-74847162D02*
X248582294Y-74888622D01*
X248582294Y-74888622D02*
X248682625Y-74924280D01*
X248682625Y-74924280D02*
X248877485Y-74948331D01*
X248877485Y-74948331D02*
X248977816Y-74983988D01*
X248977816Y-74983988D02*
X249030884Y-75025449D01*
X249030884Y-75025449D02*
X249089755Y-75114174D01*
X249089755Y-75114174D02*
X249101361Y-75208702D01*
X249101361Y-75208702D02*
X249065704Y-75309034D01*
X249065704Y-75309034D02*
X249024243Y-75362101D01*
X249024243Y-75362101D02*
X248935518Y-75420972D01*
X248935518Y-75420972D02*
X248699197Y-75449988D01*
X248699197Y-75449988D02*
X248551602Y-75420134D01*
X248226556Y-75508021D02*
X247868367Y-74544492D01*
X247868367Y-74544492D02*
X247766360Y-75276667D01*
X247766360Y-75276667D02*
X247490254Y-74590918D01*
X247490254Y-74590918D02*
X247375803Y-75612481D01*
X246355915Y-74730197D02*
X246923085Y-74660558D01*
X246639500Y-74695378D02*
X246761369Y-75687924D01*
X246761369Y-75687924D02*
X246838488Y-75534525D01*
X246838488Y-75534525D02*
X246921409Y-75428390D01*
X246921409Y-75428390D02*
X247010134Y-75369519D01*
X245863351Y-75798186D02*
X245768823Y-75809793D01*
X245768823Y-75809793D02*
X245668492Y-75774136D01*
X245668492Y-75774136D02*
X245615424Y-75732675D01*
X245615424Y-75732675D02*
X245556554Y-75643950D01*
X245556554Y-75643950D02*
X245486076Y-75460697D01*
X245486076Y-75460697D02*
X245457060Y-75224376D01*
X245457060Y-75224376D02*
X245481111Y-75029517D01*
X245481111Y-75029517D02*
X245516768Y-74929185D01*
X245516768Y-74929185D02*
X245558229Y-74876118D01*
X245558229Y-74876118D02*
X245646954Y-74817247D01*
X245646954Y-74817247D02*
X245741482Y-74805640D01*
X245741482Y-74805640D02*
X245841814Y-74841298D01*
X245841814Y-74841298D02*
X245894881Y-74882759D01*
X245894881Y-74882759D02*
X245953752Y-74971484D01*
X245953752Y-74971484D02*
X246024229Y-75154737D01*
X246024229Y-75154737D02*
X246053245Y-75391057D01*
X246053245Y-75391057D02*
X246029195Y-75585917D01*
X246029195Y-75585917D02*
X245993537Y-75686248D01*
X245993537Y-75686248D02*
X245952076Y-75739316D01*
X245952076Y-75739316D02*
X245863351Y-75798186D01*
X234163321Y-109863100D02*
X234015726Y-109833245D01*
X234015726Y-109833245D02*
X233779405Y-109862262D01*
X233779405Y-109862262D02*
X233690680Y-109921133D01*
X233690680Y-109921133D02*
X233649220Y-109974200D01*
X233649220Y-109974200D02*
X233613562Y-110074532D01*
X233613562Y-110074532D02*
X233625169Y-110169060D01*
X233625169Y-110169060D02*
X233684039Y-110257785D01*
X233684039Y-110257785D02*
X233737107Y-110299245D01*
X233737107Y-110299245D02*
X233837438Y-110334903D01*
X233837438Y-110334903D02*
X234032298Y-110358954D01*
X234032298Y-110358954D02*
X234132629Y-110394611D01*
X234132629Y-110394611D02*
X234185697Y-110436072D01*
X234185697Y-110436072D02*
X234244568Y-110524797D01*
X234244568Y-110524797D02*
X234256174Y-110619325D01*
X234256174Y-110619325D02*
X234220517Y-110719657D01*
X234220517Y-110719657D02*
X234179056Y-110772724D01*
X234179056Y-110772724D02*
X234090331Y-110831595D01*
X234090331Y-110831595D02*
X233854010Y-110860611D01*
X233854010Y-110860611D02*
X233706415Y-110830757D01*
X233381369Y-110918644D02*
X233023180Y-109955115D01*
X233023180Y-109955115D02*
X232921173Y-110687290D01*
X232921173Y-110687290D02*
X232645067Y-110001541D01*
X232645067Y-110001541D02*
X232530616Y-111023104D01*
X232188160Y-110969199D02*
X232146700Y-111022266D01*
X232146700Y-111022266D02*
X232057975Y-111081137D01*
X232057975Y-111081137D02*
X231821654Y-111110153D01*
X231821654Y-111110153D02*
X231721323Y-111074496D01*
X231721323Y-111074496D02*
X231668255Y-111033035D01*
X231668255Y-111033035D02*
X231609385Y-110944310D01*
X231609385Y-110944310D02*
X231597778Y-110849782D01*
X231597778Y-110849782D02*
X231627632Y-110702186D01*
X231627632Y-110702186D02*
X232125162Y-110065377D01*
X232125162Y-110065377D02*
X231510728Y-110140820D01*
X231038087Y-110198853D02*
X230849031Y-110222067D01*
X230849031Y-110222067D02*
X230760306Y-110280937D01*
X230760306Y-110280937D02*
X230718845Y-110334005D01*
X230718845Y-110334005D02*
X230641727Y-110487404D01*
X230641727Y-110487404D02*
X230617676Y-110682263D01*
X230617676Y-110682263D02*
X230664102Y-111060376D01*
X230664102Y-111060376D02*
X230722973Y-111149101D01*
X230722973Y-111149101D02*
X230776041Y-111190562D01*
X230776041Y-111190562D02*
X230876372Y-111226219D01*
X230876372Y-111226219D02*
X231065428Y-111203006D01*
X231065428Y-111203006D02*
X231154153Y-111144135D01*
X231154153Y-111144135D02*
X231195614Y-111091068D01*
X231195614Y-111091068D02*
X231231272Y-110990737D01*
X231231272Y-110990737D02*
X231202255Y-110754416D01*
X231202255Y-110754416D02*
X231143384Y-110665691D01*
X231143384Y-110665691D02*
X231090317Y-110624230D01*
X231090317Y-110624230D02*
X230989986Y-110588573D01*
X230989986Y-110588573D02*
X230800929Y-110611786D01*
X230800929Y-110611786D02*
X230712204Y-110670657D01*
X230712204Y-110670657D02*
X230670743Y-110723724D01*
X230670743Y-110723724D02*
X230635086Y-110824056D01*
X73370475Y-130627490D02*
X73506464Y-130692164D01*
X73506464Y-130692164D02*
X73742784Y-130721181D01*
X73742784Y-130721181D02*
X73843116Y-130685523D01*
X73843116Y-130685523D02*
X73896183Y-130644063D01*
X73896183Y-130644063D02*
X73955054Y-130555338D01*
X73955054Y-130555338D02*
X73966660Y-130460810D01*
X73966660Y-130460810D02*
X73931003Y-130360478D01*
X73931003Y-130360478D02*
X73889542Y-130307411D01*
X73889542Y-130307411D02*
X73800817Y-130248540D01*
X73800817Y-130248540D02*
X73617564Y-130178063D01*
X73617564Y-130178063D02*
X73528839Y-130119192D01*
X73528839Y-130119192D02*
X73487378Y-130066125D01*
X73487378Y-130066125D02*
X73451721Y-129965793D01*
X73451721Y-129965793D02*
X73463327Y-129871265D01*
X73463327Y-129871265D02*
X73522198Y-129782540D01*
X73522198Y-129782540D02*
X73575265Y-129741079D01*
X73575265Y-129741079D02*
X73675597Y-129705422D01*
X73675597Y-129705422D02*
X73911918Y-129734438D01*
X73911918Y-129734438D02*
X74047907Y-129799112D01*
X74384559Y-129792471D02*
X74499010Y-130814034D01*
X74499010Y-130814034D02*
X74775116Y-130128285D01*
X74775116Y-130128285D02*
X74877123Y-130860460D01*
X74877123Y-130860460D02*
X75235312Y-129896931D01*
X75518897Y-129931750D02*
X76133330Y-130007193D01*
X76133330Y-130007193D02*
X75756055Y-130344683D01*
X75756055Y-130344683D02*
X75897847Y-130362093D01*
X75897847Y-130362093D02*
X75986572Y-130420964D01*
X75986572Y-130420964D02*
X76028033Y-130474031D01*
X76028033Y-130474031D02*
X76063691Y-130574363D01*
X76063691Y-130574363D02*
X76034674Y-130810683D01*
X76034674Y-130810683D02*
X75975803Y-130899408D01*
X75975803Y-130899408D02*
X75922736Y-130940869D01*
X75922736Y-130940869D02*
X75822404Y-130976526D01*
X75822404Y-130976526D02*
X75538820Y-130941706D01*
X75538820Y-130941706D02*
X75450095Y-130882836D01*
X75450095Y-130882836D02*
X75408634Y-130829768D01*
X76956743Y-131115805D02*
X76389574Y-131046166D01*
X76673158Y-131080986D02*
X76795028Y-130088440D01*
X76795028Y-130088440D02*
X76683090Y-130218625D01*
X76683090Y-130218625D02*
X76576955Y-130301547D01*
X76576955Y-130301547D02*
X76476623Y-130337204D01*
X189214925Y-134575127D02*
X189067330Y-134545272D01*
X189067330Y-134545272D02*
X188831009Y-134574289D01*
X188831009Y-134574289D02*
X188742284Y-134633160D01*
X188742284Y-134633160D02*
X188700824Y-134686227D01*
X188700824Y-134686227D02*
X188665166Y-134786559D01*
X188665166Y-134786559D02*
X188676773Y-134881087D01*
X188676773Y-134881087D02*
X188735643Y-134969812D01*
X188735643Y-134969812D02*
X188788711Y-135011272D01*
X188788711Y-135011272D02*
X188889042Y-135046930D01*
X188889042Y-135046930D02*
X189083902Y-135070981D01*
X189083902Y-135070981D02*
X189184233Y-135106638D01*
X189184233Y-135106638D02*
X189237301Y-135148099D01*
X189237301Y-135148099D02*
X189296172Y-135236824D01*
X189296172Y-135236824D02*
X189307778Y-135331352D01*
X189307778Y-135331352D02*
X189272121Y-135431684D01*
X189272121Y-135431684D02*
X189230660Y-135484751D01*
X189230660Y-135484751D02*
X189141935Y-135543622D01*
X189141935Y-135543622D02*
X188905614Y-135572638D01*
X188905614Y-135572638D02*
X188758019Y-135542784D01*
X188432973Y-135630671D02*
X188074784Y-134667142D01*
X188074784Y-134667142D02*
X187972777Y-135399317D01*
X187972777Y-135399317D02*
X187696671Y-134713568D01*
X187696671Y-134713568D02*
X187582220Y-135735131D01*
X187298635Y-135769951D02*
X186684202Y-135845394D01*
X186684202Y-135845394D02*
X186968624Y-135426658D01*
X186968624Y-135426658D02*
X186826832Y-135444068D01*
X186826832Y-135444068D02*
X186726500Y-135408410D01*
X186726500Y-135408410D02*
X186673433Y-135366949D01*
X186673433Y-135366949D02*
X186614562Y-135278224D01*
X186614562Y-135278224D02*
X186585546Y-135041904D01*
X186585546Y-135041904D02*
X186621203Y-134941572D01*
X186621203Y-134941572D02*
X186662664Y-134888505D01*
X186662664Y-134888505D02*
X186751389Y-134829634D01*
X186751389Y-134829634D02*
X187034973Y-134794814D01*
X187034973Y-134794814D02*
X187135305Y-134830472D01*
X187135305Y-134830472D02*
X187188372Y-134871933D01*
X186353353Y-135886017D02*
X185738920Y-135961460D01*
X185738920Y-135961460D02*
X186023342Y-135542724D01*
X186023342Y-135542724D02*
X185881550Y-135560134D01*
X185881550Y-135560134D02*
X185781218Y-135524476D01*
X185781218Y-135524476D02*
X185728151Y-135483015D01*
X185728151Y-135483015D02*
X185669280Y-135394290D01*
X185669280Y-135394290D02*
X185640264Y-135157970D01*
X185640264Y-135157970D02*
X185675921Y-135057638D01*
X185675921Y-135057638D02*
X185717382Y-135004571D01*
X185717382Y-135004571D02*
X185806107Y-134945700D01*
X185806107Y-134945700D02*
X186089691Y-134910880D01*
X186089691Y-134910880D02*
X186190023Y-134946538D01*
X186190023Y-134946538D02*
X186243090Y-134987999D01*
X191231452Y-76748343D02*
X191083856Y-76718488D01*
X191083856Y-76718488D02*
X190847536Y-76747505D01*
X190847536Y-76747505D02*
X190758811Y-76806376D01*
X190758811Y-76806376D02*
X190717350Y-76859443D01*
X190717350Y-76859443D02*
X190681692Y-76959775D01*
X190681692Y-76959775D02*
X190693299Y-77054303D01*
X190693299Y-77054303D02*
X190752170Y-77143028D01*
X190752170Y-77143028D02*
X190805237Y-77184489D01*
X190805237Y-77184489D02*
X190905569Y-77220146D01*
X190905569Y-77220146D02*
X191100428Y-77244197D01*
X191100428Y-77244197D02*
X191200760Y-77279854D01*
X191200760Y-77279854D02*
X191253827Y-77321315D01*
X191253827Y-77321315D02*
X191312698Y-77410040D01*
X191312698Y-77410040D02*
X191324305Y-77504568D01*
X191324305Y-77504568D02*
X191288647Y-77604900D01*
X191288647Y-77604900D02*
X191247186Y-77657967D01*
X191247186Y-77657967D02*
X191158461Y-77716838D01*
X191158461Y-77716838D02*
X190922141Y-77745854D01*
X190922141Y-77745854D02*
X190774545Y-77716000D01*
X190449500Y-77803887D02*
X190091310Y-76840358D01*
X190091310Y-76840358D02*
X189989303Y-77572533D01*
X189989303Y-77572533D02*
X189713197Y-76886784D01*
X189713197Y-76886784D02*
X189598746Y-77908347D01*
X189315162Y-77943167D02*
X188653464Y-78024413D01*
X188653464Y-78024413D02*
X188956972Y-76979637D01*
X61469195Y-90780072D02*
X61605184Y-90844746D01*
X61605184Y-90844746D02*
X61841504Y-90873763D01*
X61841504Y-90873763D02*
X61941836Y-90838105D01*
X61941836Y-90838105D02*
X61994903Y-90796645D01*
X61994903Y-90796645D02*
X62053774Y-90707920D01*
X62053774Y-90707920D02*
X62065380Y-90613392D01*
X62065380Y-90613392D02*
X62029723Y-90513060D01*
X62029723Y-90513060D02*
X61988262Y-90459993D01*
X61988262Y-90459993D02*
X61899537Y-90401122D01*
X61899537Y-90401122D02*
X61716284Y-90330645D01*
X61716284Y-90330645D02*
X61627559Y-90271774D01*
X61627559Y-90271774D02*
X61586098Y-90218707D01*
X61586098Y-90218707D02*
X61550441Y-90118375D01*
X61550441Y-90118375D02*
X61562047Y-90023847D01*
X61562047Y-90023847D02*
X61620918Y-89935122D01*
X61620918Y-89935122D02*
X61673985Y-89893661D01*
X61673985Y-89893661D02*
X61774317Y-89858004D01*
X61774317Y-89858004D02*
X62010638Y-89887020D01*
X62010638Y-89887020D02*
X62146627Y-89951694D01*
X62483279Y-89945053D02*
X62597730Y-90966616D01*
X62597730Y-90966616D02*
X62873836Y-90280867D01*
X62873836Y-90280867D02*
X62975843Y-91013042D01*
X62975843Y-91013042D02*
X63334032Y-90049513D01*
X64110181Y-91152321D02*
X63543012Y-91082682D01*
X63826596Y-91117502D02*
X63948466Y-90124955D01*
X63948466Y-90124955D02*
X63836528Y-90255141D01*
X63836528Y-90255141D02*
X63730393Y-90338063D01*
X63730393Y-90338063D02*
X63630061Y-90373720D01*
X64598556Y-90300730D02*
X64651624Y-90259269D01*
X64651624Y-90259269D02*
X64751955Y-90223612D01*
X64751955Y-90223612D02*
X64988276Y-90252628D01*
X64988276Y-90252628D02*
X65077001Y-90311499D01*
X65077001Y-90311499D02*
X65118462Y-90364566D01*
X65118462Y-90364566D02*
X65154119Y-90464898D01*
X65154119Y-90464898D02*
X65142513Y-90559426D01*
X65142513Y-90559426D02*
X65077839Y-90695415D01*
X65077839Y-90695415D02*
X64441030Y-91192945D01*
X64441030Y-91192945D02*
X65055463Y-91268387D01*
X209559051Y-69699731D02*
X209411455Y-69669876D01*
X209411455Y-69669876D02*
X209175135Y-69698893D01*
X209175135Y-69698893D02*
X209086410Y-69757764D01*
X209086410Y-69757764D02*
X209044949Y-69810831D01*
X209044949Y-69810831D02*
X209009291Y-69911163D01*
X209009291Y-69911163D02*
X209020898Y-70005691D01*
X209020898Y-70005691D02*
X209079769Y-70094416D01*
X209079769Y-70094416D02*
X209132836Y-70135877D01*
X209132836Y-70135877D02*
X209233168Y-70171534D01*
X209233168Y-70171534D02*
X209428027Y-70195585D01*
X209428027Y-70195585D02*
X209528359Y-70231242D01*
X209528359Y-70231242D02*
X209581426Y-70272703D01*
X209581426Y-70272703D02*
X209640297Y-70361428D01*
X209640297Y-70361428D02*
X209651904Y-70455956D01*
X209651904Y-70455956D02*
X209616246Y-70556288D01*
X209616246Y-70556288D02*
X209574785Y-70609355D01*
X209574785Y-70609355D02*
X209486060Y-70668226D01*
X209486060Y-70668226D02*
X209249740Y-70697242D01*
X209249740Y-70697242D02*
X209102144Y-70667388D01*
X208777099Y-70755275D02*
X208418909Y-69791746D01*
X208418909Y-69791746D02*
X208316902Y-70523921D01*
X208316902Y-70523921D02*
X208040796Y-69838172D01*
X208040796Y-69838172D02*
X207926345Y-70859735D01*
X207354210Y-70498194D02*
X207454542Y-70533852D01*
X207454542Y-70533852D02*
X207507609Y-70575313D01*
X207507609Y-70575313D02*
X207566480Y-70664038D01*
X207566480Y-70664038D02*
X207572283Y-70711302D01*
X207572283Y-70711302D02*
X207536626Y-70811633D01*
X207536626Y-70811633D02*
X207495165Y-70864701D01*
X207495165Y-70864701D02*
X207406440Y-70923571D01*
X207406440Y-70923571D02*
X207217384Y-70946784D01*
X207217384Y-70946784D02*
X207117052Y-70911127D01*
X207117052Y-70911127D02*
X207063985Y-70869666D01*
X207063985Y-70869666D02*
X207005114Y-70780941D01*
X207005114Y-70780941D02*
X206999311Y-70733677D01*
X206999311Y-70733677D02*
X207034968Y-70633346D01*
X207034968Y-70633346D02*
X207076429Y-70580278D01*
X207076429Y-70580278D02*
X207165154Y-70521408D01*
X207165154Y-70521408D02*
X207354210Y-70498194D01*
X207354210Y-70498194D02*
X207442935Y-70439324D01*
X207442935Y-70439324D02*
X207484396Y-70386256D01*
X207484396Y-70386256D02*
X207520053Y-70285925D01*
X207520053Y-70285925D02*
X207496840Y-70096868D01*
X207496840Y-70096868D02*
X207437970Y-70008143D01*
X207437970Y-70008143D02*
X207384902Y-69966683D01*
X207384902Y-69966683D02*
X207284571Y-69931025D01*
X207284571Y-69931025D02*
X207095514Y-69954238D01*
X207095514Y-69954238D02*
X207006789Y-70013109D01*
X207006789Y-70013109D02*
X206965329Y-70066176D01*
X206965329Y-70066176D02*
X206929671Y-70166508D01*
X206929671Y-70166508D02*
X206952884Y-70355564D01*
X206952884Y-70355564D02*
X207011755Y-70444289D01*
X207011755Y-70444289D02*
X207064822Y-70485750D01*
X207064822Y-70485750D02*
X207165154Y-70521408D01*
X120987457Y-78894932D02*
X121123446Y-78959606D01*
X121123446Y-78959606D02*
X121359767Y-78988622D01*
X121359767Y-78988622D02*
X121460098Y-78952965D01*
X121460098Y-78952965D02*
X121513166Y-78911504D01*
X121513166Y-78911504D02*
X121572036Y-78822779D01*
X121572036Y-78822779D02*
X121583643Y-78728251D01*
X121583643Y-78728251D02*
X121547985Y-78627919D01*
X121547985Y-78627919D02*
X121506525Y-78574852D01*
X121506525Y-78574852D02*
X121417800Y-78515981D01*
X121417800Y-78515981D02*
X121234547Y-78445504D01*
X121234547Y-78445504D02*
X121145822Y-78386633D01*
X121145822Y-78386633D02*
X121104361Y-78333566D01*
X121104361Y-78333566D02*
X121068703Y-78233234D01*
X121068703Y-78233234D02*
X121080310Y-78138706D01*
X121080310Y-78138706D02*
X121139181Y-78049981D01*
X121139181Y-78049981D02*
X121192248Y-78008520D01*
X121192248Y-78008520D02*
X121292580Y-77972863D01*
X121292580Y-77972863D02*
X121528900Y-78001879D01*
X121528900Y-78001879D02*
X121664889Y-78066553D01*
X122001541Y-78059912D02*
X122115992Y-79081475D01*
X122115992Y-79081475D02*
X122392098Y-78395727D01*
X122392098Y-78395727D02*
X122494105Y-79127901D01*
X122494105Y-79127901D02*
X122852295Y-78164372D01*
X123703049Y-78268831D02*
X123230408Y-78210798D01*
X123230408Y-78210798D02*
X123125111Y-78677636D01*
X123125111Y-78677636D02*
X123178178Y-78636175D01*
X123178178Y-78636175D02*
X123278509Y-78600517D01*
X123278509Y-78600517D02*
X123514830Y-78629534D01*
X123514830Y-78629534D02*
X123603555Y-78688405D01*
X123603555Y-78688405D02*
X123645016Y-78741472D01*
X123645016Y-78741472D02*
X123680673Y-78841804D01*
X123680673Y-78841804D02*
X123651657Y-79078124D01*
X123651657Y-79078124D02*
X123592786Y-79166849D01*
X123592786Y-79166849D02*
X123539719Y-79208310D01*
X123539719Y-79208310D02*
X123439387Y-79243967D01*
X123439387Y-79243967D02*
X123203067Y-79214951D01*
X123203067Y-79214951D02*
X123114342Y-79156080D01*
X123114342Y-79156080D02*
X123072881Y-79103013D01*
X172323448Y-79069953D02*
X172175852Y-79040098D01*
X172175852Y-79040098D02*
X171939532Y-79069115D01*
X171939532Y-79069115D02*
X171850807Y-79127986D01*
X171850807Y-79127986D02*
X171809346Y-79181053D01*
X171809346Y-79181053D02*
X171773688Y-79281385D01*
X171773688Y-79281385D02*
X171785295Y-79375913D01*
X171785295Y-79375913D02*
X171844166Y-79464638D01*
X171844166Y-79464638D02*
X171897233Y-79506099D01*
X171897233Y-79506099D02*
X171997565Y-79541756D01*
X171997565Y-79541756D02*
X172192424Y-79565807D01*
X172192424Y-79565807D02*
X172292756Y-79601464D01*
X172292756Y-79601464D02*
X172345823Y-79642925D01*
X172345823Y-79642925D02*
X172404694Y-79731650D01*
X172404694Y-79731650D02*
X172416301Y-79826178D01*
X172416301Y-79826178D02*
X172380643Y-79926510D01*
X172380643Y-79926510D02*
X172339182Y-79979577D01*
X172339182Y-79979577D02*
X172250457Y-80038448D01*
X172250457Y-80038448D02*
X172014137Y-80067464D01*
X172014137Y-80067464D02*
X171866541Y-80037610D01*
X171541496Y-80125497D02*
X171183306Y-79161968D01*
X171183306Y-79161968D02*
X171081299Y-79894143D01*
X171081299Y-79894143D02*
X170805193Y-79208394D01*
X170805193Y-79208394D02*
X170690742Y-80229957D01*
X169887252Y-80328613D02*
X170076309Y-80305400D01*
X170076309Y-80305400D02*
X170165034Y-80246529D01*
X170165034Y-80246529D02*
X170206495Y-80193462D01*
X170206495Y-80193462D02*
X170283613Y-80040063D01*
X170283613Y-80040063D02*
X170307664Y-79845203D01*
X170307664Y-79845203D02*
X170261237Y-79467090D01*
X170261237Y-79467090D02*
X170202367Y-79378365D01*
X170202367Y-79378365D02*
X170149299Y-79336905D01*
X170149299Y-79336905D02*
X170048968Y-79301247D01*
X170048968Y-79301247D02*
X169859911Y-79324460D01*
X169859911Y-79324460D02*
X169771186Y-79383331D01*
X169771186Y-79383331D02*
X169729726Y-79436398D01*
X169729726Y-79436398D02*
X169694068Y-79536730D01*
X169694068Y-79536730D02*
X169723085Y-79773050D01*
X169723085Y-79773050D02*
X169781955Y-79861775D01*
X169781955Y-79861775D02*
X169835023Y-79903236D01*
X169835023Y-79903236D02*
X169935354Y-79938894D01*
X169935354Y-79938894D02*
X170124411Y-79915680D01*
X170124411Y-79915680D02*
X170213135Y-79856810D01*
X170213135Y-79856810D02*
X170254596Y-79803742D01*
X170254596Y-79803742D02*
X170290254Y-79703411D01*
X194025704Y-95598316D02*
X193878109Y-95568461D01*
X193878109Y-95568461D02*
X193641788Y-95597478D01*
X193641788Y-95597478D02*
X193553063Y-95656349D01*
X193553063Y-95656349D02*
X193511603Y-95709416D01*
X193511603Y-95709416D02*
X193475945Y-95809748D01*
X193475945Y-95809748D02*
X193487552Y-95904276D01*
X193487552Y-95904276D02*
X193546422Y-95993001D01*
X193546422Y-95993001D02*
X193599490Y-96034461D01*
X193599490Y-96034461D02*
X193699821Y-96070119D01*
X193699821Y-96070119D02*
X193894681Y-96094170D01*
X193894681Y-96094170D02*
X193995012Y-96129827D01*
X193995012Y-96129827D02*
X194048080Y-96171288D01*
X194048080Y-96171288D02*
X194106951Y-96260013D01*
X194106951Y-96260013D02*
X194118557Y-96354541D01*
X194118557Y-96354541D02*
X194082900Y-96454873D01*
X194082900Y-96454873D02*
X194041439Y-96507940D01*
X194041439Y-96507940D02*
X193952714Y-96566811D01*
X193952714Y-96566811D02*
X193716393Y-96595827D01*
X193716393Y-96595827D02*
X193568798Y-96565973D01*
X193243752Y-96653860D02*
X192885563Y-95690331D01*
X192885563Y-95690331D02*
X192783556Y-96422506D01*
X192783556Y-96422506D02*
X192507450Y-95736757D01*
X192507450Y-95736757D02*
X192392999Y-96758320D01*
X191373111Y-95876036D02*
X191940281Y-95806397D01*
X191656696Y-95841217D02*
X191778565Y-96833763D01*
X191778565Y-96833763D02*
X191855684Y-96680364D01*
X191855684Y-96680364D02*
X191938605Y-96574229D01*
X191938605Y-96574229D02*
X192027330Y-96515358D01*
X191164132Y-96909206D02*
X190502435Y-96990452D01*
X190502435Y-96990452D02*
X190805942Y-95945676D01*
X251330114Y-93360483D02*
X251182519Y-93330628D01*
X251182519Y-93330628D02*
X250946198Y-93359645D01*
X250946198Y-93359645D02*
X250857473Y-93418516D01*
X250857473Y-93418516D02*
X250816013Y-93471583D01*
X250816013Y-93471583D02*
X250780355Y-93571915D01*
X250780355Y-93571915D02*
X250791962Y-93666443D01*
X250791962Y-93666443D02*
X250850832Y-93755168D01*
X250850832Y-93755168D02*
X250903900Y-93796628D01*
X250903900Y-93796628D02*
X251004231Y-93832286D01*
X251004231Y-93832286D02*
X251199091Y-93856337D01*
X251199091Y-93856337D02*
X251299422Y-93891994D01*
X251299422Y-93891994D02*
X251352490Y-93933455D01*
X251352490Y-93933455D02*
X251411361Y-94022180D01*
X251411361Y-94022180D02*
X251422967Y-94116708D01*
X251422967Y-94116708D02*
X251387310Y-94217040D01*
X251387310Y-94217040D02*
X251345849Y-94270107D01*
X251345849Y-94270107D02*
X251257124Y-94328978D01*
X251257124Y-94328978D02*
X251020803Y-94357994D01*
X251020803Y-94357994D02*
X250873208Y-94328140D01*
X250548162Y-94416027D02*
X250189973Y-93452498D01*
X250189973Y-93452498D02*
X250087966Y-94184673D01*
X250087966Y-94184673D02*
X249811860Y-93498924D01*
X249811860Y-93498924D02*
X249697409Y-94520487D01*
X249354953Y-94466582D02*
X249313493Y-94519649D01*
X249313493Y-94519649D02*
X249224768Y-94578520D01*
X249224768Y-94578520D02*
X248988447Y-94607536D01*
X248988447Y-94607536D02*
X248888116Y-94571879D01*
X248888116Y-94571879D02*
X248835048Y-94530418D01*
X248835048Y-94530418D02*
X248776178Y-94441693D01*
X248776178Y-94441693D02*
X248764571Y-94347165D01*
X248764571Y-94347165D02*
X248794425Y-94199569D01*
X248794425Y-94199569D02*
X249291955Y-93562760D01*
X249291955Y-93562760D02*
X248677521Y-93638203D01*
X248184957Y-94706192D02*
X248090429Y-94717799D01*
X248090429Y-94717799D02*
X247990098Y-94682142D01*
X247990098Y-94682142D02*
X247937030Y-94640681D01*
X247937030Y-94640681D02*
X247878160Y-94551956D01*
X247878160Y-94551956D02*
X247807682Y-94368703D01*
X247807682Y-94368703D02*
X247778666Y-94132382D01*
X247778666Y-94132382D02*
X247802717Y-93937523D01*
X247802717Y-93937523D02*
X247838374Y-93837191D01*
X247838374Y-93837191D02*
X247879835Y-93784124D01*
X247879835Y-93784124D02*
X247968560Y-93725253D01*
X247968560Y-93725253D02*
X248063088Y-93713646D01*
X248063088Y-93713646D02*
X248163420Y-93749304D01*
X248163420Y-93749304D02*
X248216487Y-93790765D01*
X248216487Y-93790765D02*
X248275358Y-93879490D01*
X248275358Y-93879490D02*
X248345835Y-94062743D01*
X248345835Y-94062743D02*
X248374851Y-94299063D01*
X248374851Y-94299063D02*
X248350801Y-94493923D01*
X248350801Y-94493923D02*
X248315143Y-94594254D01*
X248315143Y-94594254D02*
X248273682Y-94647322D01*
X248273682Y-94647322D02*
X248184957Y-94706192D01*
X214674914Y-107457707D02*
X214527319Y-107427852D01*
X214527319Y-107427852D02*
X214290998Y-107456869D01*
X214290998Y-107456869D02*
X214202273Y-107515740D01*
X214202273Y-107515740D02*
X214160813Y-107568807D01*
X214160813Y-107568807D02*
X214125155Y-107669139D01*
X214125155Y-107669139D02*
X214136762Y-107763667D01*
X214136762Y-107763667D02*
X214195632Y-107852392D01*
X214195632Y-107852392D02*
X214248700Y-107893852D01*
X214248700Y-107893852D02*
X214349031Y-107929510D01*
X214349031Y-107929510D02*
X214543891Y-107953561D01*
X214543891Y-107953561D02*
X214644222Y-107989218D01*
X214644222Y-107989218D02*
X214697290Y-108030679D01*
X214697290Y-108030679D02*
X214756161Y-108119404D01*
X214756161Y-108119404D02*
X214767767Y-108213932D01*
X214767767Y-108213932D02*
X214732110Y-108314264D01*
X214732110Y-108314264D02*
X214690649Y-108367331D01*
X214690649Y-108367331D02*
X214601924Y-108426202D01*
X214601924Y-108426202D02*
X214365603Y-108455218D01*
X214365603Y-108455218D02*
X214218008Y-108425364D01*
X213892962Y-108513251D02*
X213534773Y-107549722D01*
X213534773Y-107549722D02*
X213432766Y-108281897D01*
X213432766Y-108281897D02*
X213156660Y-107596148D01*
X213156660Y-107596148D02*
X213042209Y-108617711D01*
X212699753Y-108563806D02*
X212658293Y-108616873D01*
X212658293Y-108616873D02*
X212569568Y-108675744D01*
X212569568Y-108675744D02*
X212333247Y-108704760D01*
X212333247Y-108704760D02*
X212232916Y-108669103D01*
X212232916Y-108669103D02*
X212179848Y-108627642D01*
X212179848Y-108627642D02*
X212120978Y-108538917D01*
X212120978Y-108538917D02*
X212109371Y-108444389D01*
X212109371Y-108444389D02*
X212139225Y-108296793D01*
X212139225Y-108296793D02*
X212636755Y-107659984D01*
X212636755Y-107659984D02*
X212022321Y-107735427D01*
X211524792Y-108372236D02*
X211625123Y-108407894D01*
X211625123Y-108407894D02*
X211678191Y-108449355D01*
X211678191Y-108449355D02*
X211737061Y-108538079D01*
X211737061Y-108538079D02*
X211742865Y-108585344D01*
X211742865Y-108585344D02*
X211707207Y-108685675D01*
X211707207Y-108685675D02*
X211665746Y-108738742D01*
X211665746Y-108738742D02*
X211577021Y-108797613D01*
X211577021Y-108797613D02*
X211387965Y-108820826D01*
X211387965Y-108820826D02*
X211287634Y-108785169D01*
X211287634Y-108785169D02*
X211234566Y-108743708D01*
X211234566Y-108743708D02*
X211175695Y-108654983D01*
X211175695Y-108654983D02*
X211169892Y-108607719D01*
X211169892Y-108607719D02*
X211205550Y-108507388D01*
X211205550Y-108507388D02*
X211247010Y-108454320D01*
X211247010Y-108454320D02*
X211335735Y-108395449D01*
X211335735Y-108395449D02*
X211524792Y-108372236D01*
X211524792Y-108372236D02*
X211613517Y-108313366D01*
X211613517Y-108313366D02*
X211654977Y-108260298D01*
X211654977Y-108260298D02*
X211690635Y-108159967D01*
X211690635Y-108159967D02*
X211667422Y-107970910D01*
X211667422Y-107970910D02*
X211608551Y-107882185D01*
X211608551Y-107882185D02*
X211555484Y-107840725D01*
X211555484Y-107840725D02*
X211455152Y-107805067D01*
X211455152Y-107805067D02*
X211266096Y-107828280D01*
X211266096Y-107828280D02*
X211177371Y-107887151D01*
X211177371Y-107887151D02*
X211135910Y-107940218D01*
X211135910Y-107940218D02*
X211100253Y-108040550D01*
X211100253Y-108040550D02*
X211123466Y-108229606D01*
X211123466Y-108229606D02*
X211182336Y-108318331D01*
X211182336Y-108318331D02*
X211235404Y-108359792D01*
X211235404Y-108359792D02*
X211335735Y-108395449D01*
X177439310Y-116827931D02*
X177291715Y-116798076D01*
X177291715Y-116798076D02*
X177055394Y-116827093D01*
X177055394Y-116827093D02*
X176966669Y-116885964D01*
X176966669Y-116885964D02*
X176925209Y-116939031D01*
X176925209Y-116939031D02*
X176889551Y-117039363D01*
X176889551Y-117039363D02*
X176901158Y-117133891D01*
X176901158Y-117133891D02*
X176960028Y-117222616D01*
X176960028Y-117222616D02*
X177013096Y-117264076D01*
X177013096Y-117264076D02*
X177113427Y-117299734D01*
X177113427Y-117299734D02*
X177308287Y-117323785D01*
X177308287Y-117323785D02*
X177408618Y-117359442D01*
X177408618Y-117359442D02*
X177461686Y-117400903D01*
X177461686Y-117400903D02*
X177520557Y-117489628D01*
X177520557Y-117489628D02*
X177532163Y-117584156D01*
X177532163Y-117584156D02*
X177496506Y-117684488D01*
X177496506Y-117684488D02*
X177455045Y-117737555D01*
X177455045Y-117737555D02*
X177366320Y-117796426D01*
X177366320Y-117796426D02*
X177129999Y-117825442D01*
X177129999Y-117825442D02*
X176982404Y-117795588D01*
X176657358Y-117883475D02*
X176299169Y-116919946D01*
X176299169Y-116919946D02*
X176197162Y-117652121D01*
X176197162Y-117652121D02*
X175921056Y-116966372D01*
X175921056Y-116966372D02*
X175806605Y-117987935D01*
X175464149Y-117934030D02*
X175422689Y-117987097D01*
X175422689Y-117987097D02*
X175333964Y-118045968D01*
X175333964Y-118045968D02*
X175097643Y-118074984D01*
X175097643Y-118074984D02*
X174997312Y-118039327D01*
X174997312Y-118039327D02*
X174944244Y-117997866D01*
X174944244Y-117997866D02*
X174885374Y-117909141D01*
X174885374Y-117909141D02*
X174873767Y-117814613D01*
X174873767Y-117814613D02*
X174903621Y-117667017D01*
X174903621Y-117667017D02*
X175401151Y-117030208D01*
X175401151Y-117030208D02*
X174786717Y-117105651D01*
X174057833Y-118202657D02*
X174246889Y-118179444D01*
X174246889Y-118179444D02*
X174335614Y-118120573D01*
X174335614Y-118120573D02*
X174377075Y-118067506D01*
X174377075Y-118067506D02*
X174454193Y-117914107D01*
X174454193Y-117914107D02*
X174478244Y-117719247D01*
X174478244Y-117719247D02*
X174431818Y-117341134D01*
X174431818Y-117341134D02*
X174372947Y-117252409D01*
X174372947Y-117252409D02*
X174319880Y-117210949D01*
X174319880Y-117210949D02*
X174219548Y-117175291D01*
X174219548Y-117175291D02*
X174030492Y-117198504D01*
X174030492Y-117198504D02*
X173941767Y-117257375D01*
X173941767Y-117257375D02*
X173900306Y-117310442D01*
X173900306Y-117310442D02*
X173864649Y-117410774D01*
X173864649Y-117410774D02*
X173893665Y-117647094D01*
X173893665Y-117647094D02*
X173952536Y-117735819D01*
X173952536Y-117735819D02*
X174005603Y-117777280D01*
X174005603Y-117777280D02*
X174105935Y-117812938D01*
X174105935Y-117812938D02*
X174294991Y-117789724D01*
X174294991Y-117789724D02*
X174383716Y-117730854D01*
X174383716Y-117730854D02*
X174425177Y-117677786D01*
X174425177Y-117677786D02*
X174460834Y-117577455D01*
X144829948Y-84267857D02*
X144972805Y-84315476D01*
X144972805Y-84315476D02*
X145210900Y-84315476D01*
X145210900Y-84315476D02*
X145306138Y-84267857D01*
X145306138Y-84267857D02*
X145353757Y-84220237D01*
X145353757Y-84220237D02*
X145401376Y-84124999D01*
X145401376Y-84124999D02*
X145401376Y-84029761D01*
X145401376Y-84029761D02*
X145353757Y-83934523D01*
X145353757Y-83934523D02*
X145306138Y-83886904D01*
X145306138Y-83886904D02*
X145210900Y-83839285D01*
X145210900Y-83839285D02*
X145020424Y-83791666D01*
X145020424Y-83791666D02*
X144925186Y-83744047D01*
X144925186Y-83744047D02*
X144877567Y-83696428D01*
X144877567Y-83696428D02*
X144829948Y-83601190D01*
X144829948Y-83601190D02*
X144829948Y-83505952D01*
X144829948Y-83505952D02*
X144877567Y-83410714D01*
X144877567Y-83410714D02*
X144925186Y-83363095D01*
X144925186Y-83363095D02*
X145020424Y-83315476D01*
X145020424Y-83315476D02*
X145258519Y-83315476D01*
X145258519Y-83315476D02*
X145401376Y-83363095D01*
X145734710Y-83315476D02*
X145972805Y-84315476D01*
X145972805Y-84315476D02*
X146163281Y-83601190D01*
X146163281Y-83601190D02*
X146353757Y-84315476D01*
X146353757Y-84315476D02*
X146591853Y-83315476D01*
X146877567Y-83315476D02*
X147496614Y-83315476D01*
X147496614Y-83315476D02*
X147163281Y-83696428D01*
X147163281Y-83696428D02*
X147306138Y-83696428D01*
X147306138Y-83696428D02*
X147401376Y-83744047D01*
X147401376Y-83744047D02*
X147448995Y-83791666D01*
X147448995Y-83791666D02*
X147496614Y-83886904D01*
X147496614Y-83886904D02*
X147496614Y-84124999D01*
X147496614Y-84124999D02*
X147448995Y-84220237D01*
X147448995Y-84220237D02*
X147401376Y-84267857D01*
X147401376Y-84267857D02*
X147306138Y-84315476D01*
X147306138Y-84315476D02*
X147020424Y-84315476D01*
X147020424Y-84315476D02*
X146925186Y-84267857D01*
X146925186Y-84267857D02*
X146877567Y-84220237D01*
X148401376Y-83315476D02*
X147925186Y-83315476D01*
X147925186Y-83315476D02*
X147877567Y-83791666D01*
X147877567Y-83791666D02*
X147925186Y-83744047D01*
X147925186Y-83744047D02*
X148020424Y-83696428D01*
X148020424Y-83696428D02*
X148258519Y-83696428D01*
X148258519Y-83696428D02*
X148353757Y-83744047D01*
X148353757Y-83744047D02*
X148401376Y-83791666D01*
X148401376Y-83791666D02*
X148448995Y-83886904D01*
X148448995Y-83886904D02*
X148448995Y-84124999D01*
X148448995Y-84124999D02*
X148401376Y-84220237D01*
X148401376Y-84220237D02*
X148353757Y-84267857D01*
X148353757Y-84267857D02*
X148258519Y-84315476D01*
X148258519Y-84315476D02*
X148020424Y-84315476D01*
X148020424Y-84315476D02*
X147925186Y-84267857D01*
X147925186Y-84267857D02*
X147877567Y-84220237D01*
X104095980Y-134400105D02*
X104231969Y-134464779D01*
X104231969Y-134464779D02*
X104468289Y-134493796D01*
X104468289Y-134493796D02*
X104568621Y-134458138D01*
X104568621Y-134458138D02*
X104621688Y-134416678D01*
X104621688Y-134416678D02*
X104680559Y-134327953D01*
X104680559Y-134327953D02*
X104692165Y-134233425D01*
X104692165Y-134233425D02*
X104656508Y-134133093D01*
X104656508Y-134133093D02*
X104615047Y-134080026D01*
X104615047Y-134080026D02*
X104526322Y-134021155D01*
X104526322Y-134021155D02*
X104343069Y-133950678D01*
X104343069Y-133950678D02*
X104254344Y-133891807D01*
X104254344Y-133891807D02*
X104212883Y-133838740D01*
X104212883Y-133838740D02*
X104177226Y-133738408D01*
X104177226Y-133738408D02*
X104188832Y-133643880D01*
X104188832Y-133643880D02*
X104247703Y-133555155D01*
X104247703Y-133555155D02*
X104300770Y-133513694D01*
X104300770Y-133513694D02*
X104401102Y-133478037D01*
X104401102Y-133478037D02*
X104637423Y-133507053D01*
X104637423Y-133507053D02*
X104773412Y-133571727D01*
X105110064Y-133565086D02*
X105224515Y-134586649D01*
X105224515Y-134586649D02*
X105500621Y-133900900D01*
X105500621Y-133900900D02*
X105602628Y-134633075D01*
X105602628Y-134633075D02*
X105960817Y-133669546D01*
X106244402Y-133704365D02*
X106858835Y-133779808D01*
X106858835Y-133779808D02*
X106481560Y-134117298D01*
X106481560Y-134117298D02*
X106623352Y-134134708D01*
X106623352Y-134134708D02*
X106712077Y-134193579D01*
X106712077Y-134193579D02*
X106753538Y-134246646D01*
X106753538Y-134246646D02*
X106789196Y-134346978D01*
X106789196Y-134346978D02*
X106760179Y-134583298D01*
X106760179Y-134583298D02*
X106701308Y-134672023D01*
X106701308Y-134672023D02*
X106648241Y-134713484D01*
X106648241Y-134713484D02*
X106547909Y-134749141D01*
X106547909Y-134749141D02*
X106264325Y-134714321D01*
X106264325Y-134714321D02*
X106175600Y-134655451D01*
X106175600Y-134655451D02*
X106134139Y-134602383D01*
X107225341Y-133920763D02*
X107278409Y-133879302D01*
X107278409Y-133879302D02*
X107378740Y-133843645D01*
X107378740Y-133843645D02*
X107615061Y-133872661D01*
X107615061Y-133872661D02*
X107703786Y-133931532D01*
X107703786Y-133931532D02*
X107745247Y-133984599D01*
X107745247Y-133984599D02*
X107780904Y-134084931D01*
X107780904Y-134084931D02*
X107769298Y-134179459D01*
X107769298Y-134179459D02*
X107704624Y-134315448D01*
X107704624Y-134315448D02*
X107067815Y-134812978D01*
X107067815Y-134812978D02*
X107682248Y-134888420D01*
%LPC*%
%LPD*%
M02*
