  0
SECTION
  2
HEADER
  9
$ANGBASE
  50
0.0
  9
$ANGDIR
  70
1
  9
$MEASUREMENT
  70
1
  0
ENDSEC
  0
SECTION
  2
TABLES
  0
TABLE
  2
LTYPE
  70
4
  0
LTYPE
  5
40F
  2
CONTINUOUS
  70
0
  3
Solid line
  72
65
  73
0
  40
0.0
  0
LTYPE
  5
410
  2
DASHDOT
 70
0
  3
Dash Dot ____ _ ____ _
 72
65
 73
4
 40
2.0
 49
1.25
 49
-0.25
 49
0.25
 49
-0.25
  0
LTYPE
  5
411
  2
DASHED
 70
0
  3
Dashed __ __ __ __ __
 72
65
 73
2
 40
0.75
 49
0.5
 49
-0.25
  0
LTYPE
  5
43B
  2
DOTTED
 70
0
  3
Dotted .  .  .  .
 72
65
 73
2
 40
0.2
 49
0.0
 49
-0.2
  0
ENDTAB
  0
TABLE
  2
STYLE
  70
4
  0
STYLE
  2
KICAD
  70
0
  40
0
  41
1
  42
1
  50
0
  71
0
  3
isocp.shx
  0
STYLE
  2
KICADB
  70
0
  40
0
  41
1
  42
1
  50
0
  71
0
  3
isocp.shx
  0
STYLE
  2
KICADI
  70
0
  40
0
  41
1
  42
1
  50
15
  71
0
  3
isocp.shx
  0
STYLE
  2
KICADBI
  70
0
  40
0
  41
1
  42
1
  50
15
  71
0
  3
isocp.shx
  0
ENDTAB
  0
TABLE
  2
LAYER
  70
1
  0
LAYER
  2
BLACK
  70
0
  62
7
  6
CONTINUOUS
  0
ENDTAB
  0
ENDSEC
  0
SECTION
  2
ENTITIES
0
ARC
8
BLACK
10
8.01003
20
7.99996
40
2.00004
50
0.00123188
51
90.001
0
LINE
8
BLACK
6
CONTINUOUS
10
-68.9566
20
25.3624
11
-51.587
21
23.2297
0
LINE
8
BLACK
6
CONTINUOUS
10
-16.6368
20
14.392
11
-15.0597
21
15.6242
0
ARC
8
BLACK
10
97.8466
20
-38.0616
40
1.00006
50
-172.997
51
-83.0053
0
LINE
8
BLACK
6
CONTINUOUS
10
26.8045
20
-62.1869
11
83.3861
21
-55.2395
0
LINE
8
BLACK
6
CONTINUOUS
10
-96.4422
20
-34.9155
11
-96.844
21
-38.1876
0
ARC
8
BLACK
10
-110.813
20
-32.4425
40
4.99984
50
-187.002
51
-96.998
0
ARC
8
BLACK
10
-11.5721
20
15.1817
40
2.50001
50
-51.9038
51
128.094
0
ARC
8
BLACK
10
21.8183
20
-64.6067
40
2.49998
50
-213.096
51
-33.0944
0
CIRCLE
8
BLACK
10
-11.572
20
15.1817
40
1.05
0
LINE
8
BLACK
6
CONTINUOUS
10
-89.6983
20
20.0947
11
-89.4249
21
22.3217
0
ARC
8
BLACK
10
-95.4498
20
-35.0372
40
0.999903
50
82.9945
51
173.008
0
ARC
8
BLACK
10
-12.2624
20
8.93216
40
1.99975
50
127.998
51
173.005
0
LINE
8
BLACK
6
CONTINUOUS
10
-85.0813
20
-36.3105
11
-85.4238
21
-39.0999
0
ARC
8
BLACK
10
-12
20
-4.24334
40
1.99997
50
-108.076
51
-0.00131782
0
LINE
8
BLACK
6
CONTINUOUS
10
-23.9027
20
-65.9759
11
-26.0786
21
-62.6375
0
LINE
8
BLACK
6
CONTINUOUS
10
-90.8928
20
19.2339
11
-90.8127
21
19.2241
0
ARC
8
BLACK
10
110.823
20
-32.4384
40
4.99986
50
-83.0016
51
7.00133
0
LINE
8
BLACK
6
CONTINUOUS
10
-50.5422
20
21.8924
11
-50.7996
21
19.7957
0
ARC
8
BLACK
10
83.1423
20
-53.2544
40
2
50
-83.0001
51
6.99982
0
LINE
8
BLACK
6
CONTINUOUS
10
-19.4337
20
-54.7918
11
19.4432
21
-54.7883
0
LINE
8
BLACK
6
CONTINUOUS
10
96.854
20
-38.1836
11
96.4522
21
-34.9115
0
ARC
8
BLACK
10
-90.7709
20
20.2265
40
1.00002
50
-186.999
51
-97.0004
0
LINE
8
BLACK
6
CONTINUOUS
10
-85.1174
20
-53.0148
11
-83.0963
21
-36.5542
0
ARC
8
BLACK
10
-91.0367
20
-35.5793
40
1.00011
50
-6.994
51
82.9978
0
LINE
8
BLACK
6
CONTINUOUS
10
-90.3866
20
-38.4906
11
-90.0441
21
-35.7011
0
ARC
8
BLACK
10
71.7525
20
22.3715
40
1.20027
50
-172.987
51
-83.0101
0
LINE
8
BLACK
6
CONTINUOUS
10
-83.3761
20
-55.2436
11
-26.7945
21
-62.1909
0
ARC
8
BLACK
10
94.2234
20
21.0164
40
2.51267
50
-353
51
-173
0
LINE
8
BLACK
6
CONTINUOUS
10
85.4338
20
-39.0959
11
85.0913
21
-36.3064
0
ARC
8
BLACK
10
49.6187
20
19.6534
40
1.19986
50
-83.0069
51
7.0065
0
ARC
8
BLACK
10
13.6552
20
-2.32604
40
1.99971
50
-37.8364
51
7.00312
0
ARC
8
BLACK
10
87.9152
20
-38.7912
40
2.49998
50
-173.001
51
7.00103
0
ARC
8
BLACK
10
12.2724
20
8.93616
40
1.99971
50
6.99706
51
52.0042
0
LINE
8
BLACK
6
CONTINUOUS
10
-70.5513
20
22.2209
11
-70.2939
21
24.3176
0
ARC
8
BLACK
10
-71.7427
20
22.3675
40
1.20036
50
-96.9832
51
-7.01501
0
ARC
8
BLACK
10
-49.6088
20
19.6493
40
1.19982
50
-187.009
51
-96.9917
0
ARC
8
BLACK
10
-51.7334
20
22.0386
40
1.20012
50
-6.99447
51
82.9943
0
LINE
8
BLACK
6
CONTINUOUS
10
12.8436
20
-6.07109
11
12.6306
21
-6.14062
0
LINE
8
BLACK
6
CONTINUOUS
10
109.849
20
16.523
11
115.786
21
-31.829
0
CIRCLE
8
BLACK
10
11.582
20
15.1858
40
1.05
0
LINE
8
BLACK
6
CONTINUOUS
10
8.00122
20
-9.99007
11
8.00122
21
-50.9901
0
ARC
8
BLACK
10
-88.4324
20
22.2
40
0.999939
50
82.9965
51
173.006
0
LINE
8
BLACK
6
CONTINUOUS
10
-8
20
10
11
8.00999
21
10
0
LINE
8
BLACK
6
CONTINUOUS
10
96.8836
20
19.9686
11
104.277
21
20.8764
0
ARC
8
BLACK
10
12.01
20
-4.23934
40
1.99998
50
-180
51
-71.9248
0
LINE
8
BLACK
6
CONTINUOUS
10
7.00122
20
-51.9901
11
-6.99878
21
-51.9901
0
ARC
8
BLACK
10
-94.2134
20
21.0123
40
2.51265
50
-6.99993
51
173
0
ARC
8
BLACK
10
-12.2132
20
-4.17414
40
1.99968
50
-142.171
51
-108.075
0
LINE
8
BLACK
6
CONTINUOUS
10
71.8986
20
21.1801
11
88.3204
21
23.1965
0
ARC
8
BLACK
10
-87.9052
20
-38.7953
40
2.5
50
-187
51
-7.00015
0
LINE
8
BLACK
6
CONTINUOUS
10
-15.0597
20
15.6242
11
-13.1145
21
17.1492
0
ARC
8
BLACK
10
-7.99997
20
7.99996
40
2.00003
50
90.0008
51
179.999
0
LINE
8
BLACK
6
CONTINUOUS
10
15.0697
20
15.6282
11
16.6468
21
14.396
0
LINE
8
BLACK
6
CONTINUOUS
10
-104.267
20
20.8724
11
-96.8736
21
19.9646
0
LINE
8
BLACK
6
CONTINUOUS
10
-13.7926
20
-5.40058
11
-15.2245
21
-3.55675
0
ARC
8
BLACK
10
-19.4336
20
-55.7918
40
1.00002
50
90.0063
51
172.364
0
ARC
8
BLACK
10
91.0465
20
-35.5751
40
0.99992
50
-263.005
51
-172.997
0
LINE
8
BLACK
6
CONTINUOUS
10
13.1245
20
17.1532
11
15.0697
21
15.6282
0
ARC
8
BLACK
10
-104.876
20
15.9095
40
5.00015
50
83.0017
51
172.998
0
LINE
8
BLACK
6
CONTINUOUS
10
-88.3105
20
23.1924
11
-71.8886
21
21.176
0
ARC
8
BLACK
10
-6.99847
20
-50.9898
40
1.00023
50
-179.987
51
-90.0176
0
LINE
8
BLACK
6
CONTINUOUS
10
50.8096
20
19.7997
11
50.5522
21
21.8965
0
LINE
8
BLACK
6
CONTINUOUS
10
90.0541
20
-35.6971
11
90.3966
21
-38.4865
0
CIRCLE
8
BLACK
10
87.9152
20
-38.7912
40
1.05
0
ARC
8
BLACK
10
-13.6453
20
-2.33014
40
1.99967
50
-187.004
51
-142.164
0
LINE
8
BLACK
6
CONTINUOUS
10
-10.0296
20
13.2142
11
-13.4935
21
10.508
0
LINE
8
BLACK
6
CONTINUOUS
10
-10
20
8
11
-10
21
-4.24339
0
LINE
8
BLACK
6
CONTINUOUS
10
111.433
20
-37.4011
11
97.9684
21
-39.0543
0
ARC
8
BLACK
10
88.4423
20
22.204
40
0.999955
50
6.99745
51
97.001
0
LINE
8
BLACK
6
CONTINUOUS
10
26.0886
20
-62.6334
11
23.9127
21
-65.9718
0
LINE
8
BLACK
6
CONTINUOUS
10
-12.6206
20
-6.14468
11
-12.8336
21
-6.07515
0
ARC
8
BLACK
10
-97.8366
20
-38.0657
40
1.00002
50
-96.9986
51
-7.00154
0
ARC
8
BLACK
10
-90.6909
20
20.2167
40
1.00002
50
-96.9987
51
-7.00236
0
LINE
8
BLACK
6
CONTINUOUS
10
10.01
20
-4.23933
11
10.01
21
8
0
LINE
8
BLACK
6
CONTINUOUS
10
20.4344
20
-55.6553
11
21.1077
21
-60.6745
0
ARC
8
BLACK
10
90.7009
20
20.2208
40
1.00007
50
-172.996
51
-83.0052
0
LINE
8
BLACK
6
CONTINUOUS
10
-6.99878
20
-8.99007
11
7.00122
21
-8.99007
0
ARC
8
BLACK
10
19.4432
20
-55.7883
40
1.00004
50
7.64278
51
90.0036
0
LINE
8
BLACK
6
CONTINUOUS
10
51.597
20
23.2338
11
68.9665
21
25.3665
0
CIRCLE
8
BLACK
10
-21.8083
20
-64.6108
40
1.05
0
CIRCLE
8
BLACK
10
94.2234
20
21.0163
40
1.05
0
LINE
8
BLACK
6
CONTINUOUS
10
91.7295
20
20.7101
11
91.7734
21
20.3524
0
LINE
8
BLACK
6
CONTINUOUS
10
89.4349
20
22.3258
11
89.7083
21
20.0988
0
ARC
8
BLACK
10
-6.99877
20
-9.99004
40
1.00001
50
-270
51
-179.998
0
ARC
8
BLACK
10
104.886
20
15.9136
40
5.00013
50
7.00149
51
96.9991
0
ARC
8
BLACK
10
-21.8083
20
-64.6108
40
2.5
50
-146.906
51
33.0962
0
LINE
8
BLACK
6
CONTINUOUS
10
-49.7548
20
18.4584
11
-16.6368
21
14.392
0
LINE
8
BLACK
6
CONTINUOUS
10
16.6468
20
14.396
11
49.7648
21
18.4624
0
LINE
8
BLACK
6
CONTINUOUS
10
14.2572
20
9.17976
11
15.64
21
-2.08223
0
ARC
8
BLACK
10
95.4597
20
-35.0332
40
0.999921
50
6.9955
51
97.0031
0
ARC
8
BLACK
10
7.00123
20
-9.99004
40
0.999968
50
-0.00183348
51
90.0005
0
LINE
8
BLACK
6
CONTINUOUS
10
19.7239
20
-63.2416
11
20.9544
21
-61.3533
0
LINE
8
BLACK
6
CONTINUOUS
10
-15.63
20
-2.08629
11
-14.2472
21
9.1757
0
ARC
8
BLACK
10
11.582
20
15.1858
40
2.49999
50
-308.095
51
-128.095
0
CIRCLE
8
BLACK
10
21.8183
20
-64.6067
40
1.05
0
LINE
8
BLACK
6
CONTINUOUS
10
-97.9584
20
-39.0583
11
-111.423
21
-37.4051
0
LINE
8
BLACK
6
CONTINUOUS
10
90.9247
20
-34.5826
11
95.3378
21
-34.0408
0
LINE
8
BLACK
6
CONTINUOUS
10
-95.3278
20
-34.0448
11
-90.9148
21
-34.5867
0
ARC
8
BLACK
10
-20.1066
20
-60.8114
40
1
50
-187.639
51
-146.913
0
LINE
8
BLACK
6
CONTINUOUS
10
-20.9444
20
-61.3574
11
-19.7139
21
-63.2457
0
LINE
8
BLACK
6
CONTINUOUS
10
-91.7634
20
20.3483
11
-91.7195
21
20.7061
0
ARC
8
BLACK
10
26.9263
20
-63.1794
40
0.999986
50
96.9986
51
146.904
0
LINE
8
BLACK
6
CONTINUOUS
10
70.3038
20
24.3217
11
70.5613
21
22.2249
0
ARC
8
BLACK
10
84.0988
20
-36.4282
40
0.999971
50
-352.999
51
-173.001
0
LINE
8
BLACK
6
CONTINUOUS
10
96.8831
20
19.9723
11
96.7173
21
21.3226
0
ARC
8
BLACK
10
20.1166
20
-60.8073
40
0.999963
50
-33.0907
51
7.63674
0
ARC
8
BLACK
10
-83.1324
20
-53.2585
40
1.99996
50
-187.001
51
-96.999
0
LINE
8
BLACK
6
CONTINUOUS
10
-7.99878
20
-50.9901
11
-7.99878
21
-9.99007
0
ARC
8
BLACK
10
51.7433
20
22.0427
40
1.20009
50
-262.996
51
-173.003
0
LINE
8
BLACK
6
CONTINUOUS
10
90.8227
20
19.2281
11
90.9027
21
19.238
0
CIRCLE
8
BLACK
10
-87.9052
20
-38.7953
40
1.05
0
LINE
8
BLACK
6
CONTINUOUS
10
-21.0977
20
-60.6785
11
-20.4247
21
-55.659
0
LINE
8
BLACK
6
CONTINUOUS
10
15.2345
20
-3.55269
11
13.8026
21
-5.39652
0
ARC
8
BLACK
10
-26.9164
20
-63.1835
40
1.00005
50
33.097
51
82.9996
0
LINE
8
BLACK
6
CONTINUOUS
10
13.5035
20
10.512
11
10.0396
21
13.2183
0
CIRCLE
8
BLACK
10
-94.2134
20
21.0123
40
1.05
0
ARC
8
BLACK
10
7.00113
20
-50.99
40
1.00009
50
-89.9947
51
-0.00171872
0
LINE
8
BLACK
6
CONTINUOUS
10
-115.776
20
-31.8331
11
-109.839
21
16.519
0
LINE
8
BLACK
6
CONTINUOUS
10
-96.7073
20
21.3185
11
-96.8731
21
19.9682
0
ARC
8
BLACK
10
69.1127
20
24.1753
40
1.20016
50
7.00779
51
96.9961
0
ARC
8
BLACK
10
12.2231
20
-4.16994
40
1.99982
50
-71.9257
51
-37.8315
0
ARC
8
BLACK
10
90.7808
20
20.2306
40
1.00004
50
-82.9978
51
6.99637
0
LINE
8
BLACK
6
CONTINUOUS
10
83.1063
20
-36.5501
11
85.1274
21
-53.0107
0
ARC
8
BLACK
10
-84.0889
20
-36.4323
40
0.999928
50
-6.99668
51
172.997
0
ARC
8
BLACK
10
-69.1026
20
24.1712
40
1.20025
50
83.012
51
172.991
0
LINE
8
BLACK
6
CONTINUOUS
10
-68.5371
20
21.8842
11
-53.0534
21
19.983
0
LINE
8
BLACK
6
CONTINUOUS
10
-53.0534
20
19.983
11
-54.6133
21
7.27845
0
LINE
8
BLACK
6
CONTINUOUS
10
-54.6133
20
7.27845
11
-70.097
21
9.17961
0
LINE
8
BLACK
6
CONTINUOUS
10
-70.097
20
9.17961
11
-68.5371
21
21.8842
0
LINE
8
BLACK
6
CONTINUOUS
10
-52.5311
20
-4.07241
11
-37.0474
21
-5.97358
0
LINE
8
BLACK
6
CONTINUOUS
10
-37.0474
20
-5.97358
11
-38.6073
21
-18.6782
0
LINE
8
BLACK
6
CONTINUOUS
10
-38.6073
20
-18.6782
11
-54.0911
21
-16.777
0
LINE
8
BLACK
6
CONTINUOUS
10
-54.0911
20
-16.777
11
-52.5311
21
-4.07241
0
LINE
8
BLACK
6
CONTINUOUS
10
89.5954
20
6.77826
11
74.1117
21
4.8771
0
LINE
8
BLACK
6
CONTINUOUS
10
74.1117
20
4.8771
11
72.5518
21
17.5817
0
LINE
8
BLACK
6
CONTINUOUS
10
72.5518
20
17.5817
11
88.0355
21
19.4828
0
LINE
8
BLACK
6
CONTINUOUS
10
88.0355
20
19.4828
11
89.5954
21
6.77826
0
LINE
8
BLACK
6
CONTINUOUS
10
80.0158
20
-51.9772
11
64.532
21
-53.8783
0
LINE
8
BLACK
6
CONTINUOUS
10
64.532
20
-53.8783
11
62.9721
21
-41.1737
0
LINE
8
BLACK
6
CONTINUOUS
10
62.9721
20
-41.1737
11
78.4558
21
-39.2726
0
LINE
8
BLACK
6
CONTINUOUS
10
78.4558
20
-39.2726
11
80.0158
21
-51.9772
0
LINE
8
BLACK
6
CONTINUOUS
10
-88.0255
20
19.4788
11
-72.5418
21
17.5777
0
LINE
8
BLACK
6
CONTINUOUS
10
-72.5418
20
17.5777
11
-74.1017
21
4.87306
0
LINE
8
BLACK
6
CONTINUOUS
10
-74.1017
20
4.87306
11
-89.5854
21
6.77422
0
LINE
8
BLACK
6
CONTINUOUS
10
-89.5854
20
6.77422
11
-88.0255
21
19.4788
0
LINE
8
BLACK
6
CONTINUOUS
10
72.4286
20
-9.72435
11
56.9449
21
-11.6255
0
LINE
8
BLACK
6
CONTINUOUS
10
56.9449
20
-11.6255
11
55.385
21
1.07908
0
LINE
8
BLACK
6
CONTINUOUS
10
55.385
20
1.07908
11
70.8687
21
2.98024
0
LINE
8
BLACK
6
CONTINUOUS
10
70.8687
20
2.98024
11
72.4286
21
-9.72435
0
LINE
8
BLACK
6
CONTINUOUS
10
113.727
20
-33.4431
11
98.2433
21
-35.3443
0
LINE
8
BLACK
6
CONTINUOUS
10
98.2433
20
-35.3443
11
96.6834
21
-22.6397
0
LINE
8
BLACK
6
CONTINUOUS
10
96.6834
20
-22.6397
11
112.167
21
-20.7386
0
LINE
8
BLACK
6
CONTINUOUS
10
112.167
20
-20.7386
11
113.727
21
-33.4431
0
LINE
8
BLACK
6
CONTINUOUS
10
-112.157
20
-20.7426
11
-96.6734
21
-22.6437
0
LINE
8
BLACK
6
CONTINUOUS
10
-96.6734
20
-22.6437
11
-98.2334
21
-35.3483
0
LINE
8
BLACK
6
CONTINUOUS
10
-98.2334
20
-35.3483
11
-113.717
21
-33.4472
0
LINE
8
BLACK
6
CONTINUOUS
10
-113.717
20
-33.4472
11
-112.157
21
-20.7426
0
LINE
8
BLACK
6
CONTINUOUS
10
-109.836
20
-1.83458
11
-94.3518
21
-3.73574
0
LINE
8
BLACK
6
CONTINUOUS
10
-94.3518
20
-3.73574
11
-95.9117
21
-16.4403
0
LINE
8
BLACK
6
CONTINUOUS
10
-95.9117
20
-16.4403
11
-111.395
21
-14.5392
0
LINE
8
BLACK
6
CONTINUOUS
10
-111.395
20
-14.5392
11
-109.836
21
-1.83458
0
LINE
8
BLACK
6
CONTINUOUS
10
-107.514
20
17.0734
11
-92.0302
21
15.1723
0
LINE
8
BLACK
6
CONTINUOUS
10
-92.0302
20
15.1723
11
-93.5901
21
2.46767
0
LINE
8
BLACK
6
CONTINUOUS
10
-93.5901
20
2.46767
11
-109.074
21
4.36883
0
LINE
8
BLACK
6
CONTINUOUS
10
-109.074
20
4.36883
11
-107.514
21
17.0734
0
LINE
8
BLACK
6
CONTINUOUS
10
-54.8527
20
-22.9804
11
-39.369
21
-24.8816
0
LINE
8
BLACK
6
CONTINUOUS
10
-39.369
20
-24.8816
11
-40.9289
21
-37.5862
0
LINE
8
BLACK
6
CONTINUOUS
10
-40.9289
20
-37.5862
11
-56.4127
21
-35.685
0
LINE
8
BLACK
6
CONTINUOUS
10
-56.4127
20
-35.685
11
-54.8527
21
-22.9804
0
LINE
8
BLACK
6
CONTINUOUS
10
35.193
20
-19.0946
11
19.7093
21
-20.9957
0
LINE
8
BLACK
6
CONTINUOUS
10
19.7093
20
-20.9957
11
18.1494
21
-8.29115
0
LINE
8
BLACK
6
CONTINUOUS
10
18.1494
20
-8.29115
11
33.6331
21
-6.38999
0
LINE
8
BLACK
6
CONTINUOUS
10
33.6331
20
-6.38999
11
35.193
21
-19.0946
0
LINE
8
BLACK
6
CONTINUOUS
10
56.4226
20
-35.681
11
40.9389
21
-37.5821
0
LINE
8
BLACK
6
CONTINUOUS
10
40.9389
20
-37.5821
11
39.379
21
-24.8775
0
LINE
8
BLACK
6
CONTINUOUS
10
39.379
20
-24.8775
11
54.8627
21
-22.9764
0
LINE
8
BLACK
6
CONTINUOUS
10
54.8627
20
-22.9764
11
56.4226
21
-35.681
0
LINE
8
BLACK
6
CONTINUOUS
10
91.917
20
-12.1297
11
76.4333
21
-14.0309
0
LINE
8
BLACK
6
CONTINUOUS
10
76.4333
20
-14.0309
11
74.8734
21
-1.32632
0
LINE
8
BLACK
6
CONTINUOUS
10
74.8734
20
-1.32632
11
90.3571
21
0.574841
0
LINE
8
BLACK
6
CONTINUOUS
10
90.3571
20
0.574841
11
91.917
21
-12.1297
0
LINE
8
BLACK
6
CONTINUOUS
10
-33.6231
20
-6.39403
11
-18.1394
21
-8.29519
0
LINE
8
BLACK
6
CONTINUOUS
10
-18.1394
20
-8.29519
11
-19.6993
21
-20.9998
0
LINE
8
BLACK
6
CONTINUOUS
10
-19.6993
20
-20.9998
11
-35.183
21
-19.0986
0
LINE
8
BLACK
6
CONTINUOUS
10
-35.183
20
-19.0986
11
-33.6231
21
-6.39403
0
LINE
8
BLACK
6
CONTINUOUS
10
-73.1803
20
-15.9318
11
-57.6966
21
-17.833
0
LINE
8
BLACK
6
CONTINUOUS
10
-57.6966
20
-17.833
11
-59.2565
21
-30.5376
0
LINE
8
BLACK
6
CONTINUOUS
10
-59.2565
20
-30.5376
11
-74.7403
21
-28.6364
0
LINE
8
BLACK
6
CONTINUOUS
10
-74.7403
20
-28.6364
11
-73.1803
21
-15.9318
0
LINE
8
BLACK
6
CONTINUOUS
10
-35.9447
20
-25.302
11
-20.461
21
-27.2032
0
LINE
8
BLACK
6
CONTINUOUS
10
-20.461
20
-27.2032
11
-22.0209
21
-39.9078
0
LINE
8
BLACK
6
CONTINUOUS
10
-22.0209
20
-39.9078
11
-37.5047
21
-38.0066
0
LINE
8
BLACK
6
CONTINUOUS
10
-37.5047
20
-38.0066
11
-35.9447
21
-25.302
0
LINE
8
BLACK
6
CONTINUOUS
10
-92.6687
20
-18.3372
11
-77.185
21
-20.2384
0
LINE
8
BLACK
6
CONTINUOUS
10
-77.185
20
-20.2384
11
-78.7449
21
-32.9429
0
LINE
8
BLACK
6
CONTINUOUS
10
-78.7449
20
-32.9429
11
-94.2287
21
-31.0418
0
LINE
8
BLACK
6
CONTINUOUS
10
-94.2287
20
-31.0418
11
-92.6687
21
-18.3372
0
LINE
8
BLACK
6
CONTINUOUS
10
-50.2095
20
14.8356
11
-34.7258
21
12.9344
0
LINE
8
BLACK
6
CONTINUOUS
10
-34.7258
20
12.9344
11
-36.2857
21
0.229839
0
LINE
8
BLACK
6
CONTINUOUS
10
-36.2857
20
0.229839
11
-51.7694
21
2.131
0
LINE
8
BLACK
6
CONTINUOUS
10
-51.7694
20
2.131
11
-50.2095
21
14.8356
0
LINE
8
BLACK
6
CONTINUOUS
10
-70.8587
20
2.9762
11
-55.375
21
1.07504
0
LINE
8
BLACK
6
CONTINUOUS
10
-55.375
20
1.07504
11
-56.9349
21
-11.6295
0
LINE
8
BLACK
6
CONTINUOUS
10
-56.9349
20
-11.6295
11
-72.4187
21
-9.72839
0
LINE
8
BLACK
6
CONTINUOUS
10
-72.4187
20
-9.72839
11
-70.8587
21
2.9762
0
LINE
8
BLACK
6
CONTINUOUS
10
109.084
20
4.37287
11
93.6001
21
2.47171
0
LINE
8
BLACK
6
CONTINUOUS
10
93.6001
20
2.47171
11
92.0402
21
15.1763
0
LINE
8
BLACK
6
CONTINUOUS
10
92.0402
20
15.1763
11
107.524
21
17.0775
0
LINE
8
BLACK
6
CONTINUOUS
10
107.524
20
17.0775
11
109.084
21
4.37287
0
LINE
8
BLACK
6
CONTINUOUS
10
94.2386
20
-31.0378
11
78.7549
21
-32.9389
0
LINE
8
BLACK
6
CONTINUOUS
10
78.7549
20
-32.9389
11
77.195
21
-20.2343
0
LINE
8
BLACK
6
CONTINUOUS
10
77.195
20
-20.2343
11
92.6787
21
-18.3332
0
LINE
8
BLACK
6
CONTINUOUS
10
92.6787
20
-18.3332
11
94.2386
21
-31.0378
0
LINE
8
BLACK
6
CONTINUOUS
10
-78.4458
20
-39.2766
11
-62.9621
21
-41.1778
0
LINE
8
BLACK
6
CONTINUOUS
10
-62.9621
20
-41.1778
11
-64.5221
21
-53.8824
0
LINE
8
BLACK
6
CONTINUOUS
10
-64.5221
20
-53.8824
11
-80.0058
21
-51.9812
0
LINE
8
BLACK
6
CONTINUOUS
10
-80.0058
20
-51.9812
11
-78.4458
21
-39.2766
0
LINE
8
BLACK
6
CONTINUOUS
10
55.0558
20
-40.03
11
56.7619
21
-53.9256
0
LINE
8
BLACK
6
CONTINUOUS
10
56.3266
20
-54.4828
11
50.3713
21
-55.214
0
LINE
8
BLACK
6
CONTINUOUS
10
48.5433
20
-40.3258
11
54.4986
21
-39.5946
0
LINE
8
BLACK
6
CONTINUOUS
10
49.8141
20
-54.7787
11
48.1079
21
-40.8831
0
LINE
8
BLACK
6
CONTINUOUS
10
46.9244
20
-43.0434
11
48.5087
21
-55.9465
0
LINE
8
BLACK
6
CONTINUOUS
10
48.0734
20
-56.5037
11
35.1703
21
-58.088
0
LINE
8
BLACK
6
CONTINUOUS
10
33.4641
20
-44.1924
11
46.3672
21
-42.6081
0
LINE
8
BLACK
6
CONTINUOUS
10
34.6131
20
-57.6527
11
33.0287
21
-44.7496
0
LINE
8
BLACK
6
CONTINUOUS
10
31.3577
20
-42.9397
11
33.0639
21
-56.8354
0
LINE
8
BLACK
6
CONTINUOUS
10
32.6286
20
-57.3926
11
26.6733
21
-58.1238
0
LINE
8
BLACK
6
CONTINUOUS
10
24.8452
20
-43.2356
11
30.8005
21
-42.5044
0
LINE
8
BLACK
6
CONTINUOUS
10
26.1161
20
-57.6885
11
24.4099
21
-43.7928
0
ARC
8
BLACK
10
56.2657
20
-53.9866
40
0.499952
50
-83.0056
51
7.00556
0
ARC
8
BLACK
10
54.5595
20
-40.0908
40
0.499935
50
6.99263
51
97.0075
0
ARC
8
BLACK
10
50.3104
20
-54.7177
40
0.500062
50
-172.993
51
-83.0073
0
ARC
8
BLACK
10
48.6043
20
-40.8222
40
0.500045
50
-262.995
51
-173.005
0
ARC
8
BLACK
10
48.0125
20
-56.0075
40
0.499954
50
-83.0053
51
7.0053
0
ARC
8
BLACK
10
46.4282
20
-43.1043
40
0.499936
50
6.99274
51
97.0072
0
ARC
8
BLACK
10
35.1094
20
-57.5916
40
0.500099
50
-172.989
51
-83.0115
0
ARC
8
BLACK
10
33.5251
20
-44.6887
40
0.50005
50
-262.994
51
-173.006
0
ARC
8
BLACK
10
32.5677
20
-56.8963
40
0.499951
50
-83.0056
51
7.00557
0
ARC
8
BLACK
10
30.8615
20
-43.0005
40
0.4999
50
6.9885
51
97.0115
0
ARC
8
BLACK
10
26.6124
20
-57.6274
40
0.5001
50
-172.988
51
-83.0112
0
ARC
8
BLACK
10
24.9062
20
-43.7319
40
0.500048
50
-262.994
51
-173.006
0
LINE
8
BLACK
6
CONTINUOUS
10
51.7794
20
2.13503
11
36.2957
21
0.233873
0
LINE
8
BLACK
6
CONTINUOUS
10
36.2957
20
0.233873
11
34.7358
21
12.9385
0
LINE
8
BLACK
6
CONTINUOUS
10
34.7358
20
12.9385
11
50.2195
21
14.8396
0
LINE
8
BLACK
6
CONTINUOUS
10
50.2195
20
14.8396
11
51.7794
21
2.13503
0
LINE
8
BLACK
6
CONTINUOUS
10
-90.3471
20
0.570807
11
-74.8634
21
-1.33035
0
LINE
8
BLACK
6
CONTINUOUS
10
-74.8634
20
-1.33035
11
-76.4233
21
-14.0349
0
LINE
8
BLACK
6
CONTINUOUS
10
-76.4233
20
-14.0349
11
-91.9071
21
-12.1338
0
LINE
8
BLACK
6
CONTINUOUS
10
-91.9071
20
-12.1338
11
-90.3471
21
0.570807
0
LINE
8
BLACK
6
CONTINUOUS
10
70.107
20
9.18365
11
54.6233
21
7.28248
0
LINE
8
BLACK
6
CONTINUOUS
10
54.6233
20
7.28248
11
53.0634
21
19.9871
0
LINE
8
BLACK
6
CONTINUOUS
10
53.0634
20
19.9871
11
68.5471
21
21.8882
0
LINE
8
BLACK
6
CONTINUOUS
10
68.5471
20
21.8882
11
70.107
21
9.18365
0
LINE
8
BLACK
6
CONTINUOUS
10
-31.3015
20
12.514
11
-15.8178
21
10.6128
0
LINE
8
BLACK
6
CONTINUOUS
10
-15.8178
20
10.6128
11
-17.3777
21
-2.09177
0
LINE
8
BLACK
6
CONTINUOUS
10
-17.3777
20
-2.09177
11
-32.8614
21
-0.190609
0
LINE
8
BLACK
6
CONTINUOUS
10
-32.8614
20
-0.190609
11
-31.3015
21
12.514
0
LINE
8
BLACK
6
CONTINUOUS
10
32.8714
20
-0.186575
11
17.3877
21
-2.08774
0
LINE
8
BLACK
6
CONTINUOUS
10
17.3877
20
-2.08774
11
15.8278
21
10.6169
0
LINE
8
BLACK
6
CONTINUOUS
10
15.8278
20
10.6169
11
31.3115
21
12.518
0
LINE
8
BLACK
6
CONTINUOUS
10
31.3115
20
12.518
11
32.8714
21
-0.186575
0
LINE
8
BLACK
6
CONTINUOUS
10
54.101
20
-16.773
11
38.6173
21
-18.6741
0
LINE
8
BLACK
6
CONTINUOUS
10
38.6173
20
-18.6741
11
37.0574
21
-5.96954
0
LINE
8
BLACK
6
CONTINUOUS
10
37.0574
20
-5.96954
11
52.5411
21
-4.06838
0
LINE
8
BLACK
6
CONTINUOUS
10
52.5411
20
-4.06838
11
54.101
21
-16.773
0
LINE
8
BLACK
6
CONTINUOUS
10
111.405
20
-14.5351
11
95.9217
21
-16.4363
0
LINE
8
BLACK
6
CONTINUOUS
10
95.9217
20
-16.4363
11
94.3618
21
-3.73171
0
LINE
8
BLACK
6
CONTINUOUS
10
94.3618
20
-3.73171
11
109.846
21
-1.83055
0
LINE
8
BLACK
6
CONTINUOUS
10
109.846
20
-1.83055
11
111.405
21
-14.5351
0
LINE
8
BLACK
6
CONTINUOUS
10
74.7502
20
-28.6324
11
59.2665
21
-30.5335
0
LINE
8
BLACK
6
CONTINUOUS
10
59.2665
20
-30.5335
11
57.7066
21
-17.8289
0
LINE
8
BLACK
6
CONTINUOUS
10
57.7066
20
-17.8289
11
73.1903
21
-15.9278
0
LINE
8
BLACK
6
CONTINUOUS
10
73.1903
20
-15.9278
11
74.7502
21
-28.6324
0
LINE
8
BLACK
6
CONTINUOUS
10
37.5146
20
-38.0026
11
22.0309
21
-39.9037
0
LINE
8
BLACK
6
CONTINUOUS
10
22.0309
20
-39.9037
11
20.471
21
-27.1992
0
LINE
8
BLACK
6
CONTINUOUS
10
20.471
20
-27.1992
11
35.9547
21
-25.298
0
LINE
8
BLACK
6
CONTINUOUS
10
35.9547
20
-25.298
11
37.5146
21
-38.0026
0
LINE
8
BLACK
6
CONTINUOUS
10
-7.8
20
6.4
11
7.8
21
6.4
0
LINE
8
BLACK
6
CONTINUOUS
10
7.8
20
6.4
11
7.8
21
-6.4
0
LINE
8
BLACK
6
CONTINUOUS
10
7.8
20
-6.4
11
-7.8
21
-6.4
0
LINE
8
BLACK
6
CONTINUOUS
10
-7.8
20
-6.4
11
-7.8
21
6.4
0
LINE
8
BLACK
6
CONTINUOUS
10
-24.3993
20
-43.7969
11
-26.1055
21
-57.6926
0
LINE
8
BLACK
6
CONTINUOUS
10
-26.6627
20
-58.1279
11
-32.618
21
-57.3967
0
LINE
8
BLACK
6
CONTINUOUS
10
-30.7899
20
-42.5085
11
-24.8347
21
-43.2397
0
LINE
8
BLACK
6
CONTINUOUS
10
-33.0533
20
-56.8395
11
-31.3472
21
-42.9438
0
LINE
8
BLACK
6
CONTINUOUS
10
-33.0182
20
-44.7537
11
-34.6025
21
-57.6568
0
LINE
8
BLACK
6
CONTINUOUS
10
-35.1597
20
-58.0921
11
-48.0628
21
-56.5078
0
LINE
8
BLACK
6
CONTINUOUS
10
-46.3566
20
-42.6122
11
-33.4535
21
-44.1965
0
LINE
8
BLACK
6
CONTINUOUS
10
-48.4981
20
-55.9506
11
-46.9138
21
-43.0475
0
LINE
8
BLACK
6
CONTINUOUS
10
-48.0974
20
-40.8872
11
-49.8035
21
-54.7828
0
LINE
8
BLACK
6
CONTINUOUS
10
-50.3607
20
-55.2181
11
-56.316
21
-54.4869
0
LINE
8
BLACK
6
CONTINUOUS
10
-54.488
20
-39.5987
11
-48.5327
21
-40.33
0
LINE
8
BLACK
6
CONTINUOUS
10
-56.7514
20
-53.9297
11
-55.0452
21
-40.0341
0
ARC
8
BLACK
10
-26.6017
20
-57.6317
40
0.499951
50
-97.0057
51
-6.9946
0
ARC
8
BLACK
10
-24.8955
20
-43.7359
40
0.499936
50
-7.00729
51
83.0075
0
ARC
8
BLACK
10
-32.557
20
-56.9004
40
0.500063
50
-186.993
51
-97.0072
0
ARC
8
BLACK
10
-30.8508
20
-43.0048
40
0.500046
50
83.0055
51
172.995
0
ARC
8
BLACK
10
-35.0987
20
-57.5959
40
0.499953
50
-97.0053
51
-6.99468
0
ARC
8
BLACK
10
-33.5144
20
-44.6927
40
0.499935
50
-7.00743
51
83.0073
0
ARC
8
BLACK
10
-48.0017
20
-56.0115
40
0.500099
50
-186.989
51
-97.0114
0
ARC
8
BLACK
10
-46.4175
20
-43.1085
40
0.50005
50
83.0057
51
172.994
0
ARC
8
BLACK
10
-50.2998
20
-54.7219
40
0.499951
50
-97.0056
51
-6.99437
0
ARC
8
BLACK
10
-48.5935
20
-40.8261
40
0.499899
50
-7.01147
51
83.0115
0
ARC
8
BLACK
10
-56.255
20
-53.9906
40
0.5001
50
-186.988
51
-97.0112
0
ARC
8
BLACK
10
-54.5489
20
-40.0951
40
0.500047
50
83.0059
51
172.994
  0
ENDSEC
  0
EOF
