  0
SECTION
  2
HEADER
  9
$ANGBASE
  50
0.0
  9
$ANGDIR
  70
1
  9
$MEASUREMENT
  70
1
  0
ENDSEC
  0
SECTION
  2
TABLES
  0
TABLE
  2
LTYPE
  70
4
  0
LTYPE
  5
40F
  2
CONTINUOUS
  70
0
  3
Solid line
  72
65
  73
0
  40
0.0
  0
LTYPE
  5
410
  2
DASHDOT
 70
0
  3
Dash Dot ____ _ ____ _
 72
65
 73
4
 40
2.0
 49
1.25
 49
-0.25
 49
0.25
 49
-0.25
  0
LTYPE
  5
411
  2
DASHED
 70
0
  3
Dashed __ __ __ __ __
 72
65
 73
2
 40
0.75
 49
0.5
 49
-0.25
  0
LTYPE
  5
43B
  2
DOTTED
 70
0
  3
Dotted .  .  .  .
 72
65
 73
2
 40
0.2
 49
0.0
 49
-0.2
  0
ENDTAB
  0
TABLE
  2
STYLE
  70
4
  0
STYLE
  2
KICAD
  70
0
  40
0
  41
1
  42
1
  50
0
  71
0
  3
isocp.shx
  0
STYLE
  2
KICADB
  70
0
  40
0
  41
1
  42
1
  50
0
  71
0
  3
isocp.shx
  0
STYLE
  2
KICADI
  70
0
  40
0
  41
1
  42
1
  50
15
  71
0
  3
isocp.shx
  0
STYLE
  2
KICADBI
  70
0
  40
0
  41
1
  42
1
  50
15
  71
0
  3
isocp.shx
  0
ENDTAB
  0
TABLE
  2
LAYER
  70
1
  0
LAYER
  2
BLACK
  70
0
  62
7
  6
CONTINUOUS
  0
ENDTAB
  0
ENDSEC
  0
SECTION
  2
ENTITIES
0
ARC
8
BLACK
10
120.9300169999999923
20
87.0374829999999946
40
3.0000030000014997
50
0.00005730
51
89.99994270
0
ARC
8
BLACK
10
33.1119389999999996
20
83.9482979999999941
40
5.4999963586900176
50
88.24625164
51
170.21009068
0
ARC
8
BLACK
10
221.318792000000002
20
80.8469059999999899
40
5.4999915064618197
50
5.13258358
51
97.43902586
0
LINE
8
BLACK
6
CONTINUOUS
10
87.3144729999999925
20
5.1619419999999998
11
117.1894729999999925
21
5.1619419999999998
0
LINE
8
BLACK
6
CONTINUOUS
10
132.7470209999999895
20
81.8240259999999893
11
160.7648439999999823
21
87.0393399999999957
0
LINE
8
BLACK
6
CONTINUOUS
10
120.930019999999999
20
90.0374860000000012
11
117.1894729999999925
21
90.0374860000000012
0
ARC
8
BLACK
10
179.045693
20
-11.276800999999999
40
100.0004441650020937
50
91.75373366
51
100.53074711
0
LINE
8
BLACK
6
CONTINUOUS
10
175.9853149999999857
20
88.676801999999995
11
201.0986839999999916
21
89.4457189999999969
0
ARC
8
BLACK
10
113.4489069999999913
20
87.0375049999999959
40
2.999981000060167
50
-270.00036288
51
-179.99963712
0
LINE
8
BLACK
6
CONTINUOUS
10
117.1894729999999925
20
5.1619419999999998
11
147.0644729999999925
21
5.1619419999999998
0
LINE
8
BLACK
6
CONTINUOUS
10
7.5822149999999997
20
81.3389389999999963
11
3.5355239999999997
21
36.2868289999999973
0
ARC
8
BLACK
10
13.0601589999999987
20
80.8468979999999959
40
5.4999984386211711
50
82.56104932
51
174.86734124
0
ARC
8
BLACK
10
101.4487960000000015
20
80.8408050000000031
40
1.0001299319106531
50
0.00619129
51
79.44932236
0
LINE
8
BLACK
6
CONTINUOUS
10
206.6869109999999807
20
84.8834949999999964
11
206.7544729999999902
21
84.4919419999999946
0
LINE
8
BLACK
6
CONTINUOUS
10
206.7544729999999902
20
84.4919419999999946
11
220.6067029999999818
21
86.3006049999999902
0
LINE
8
BLACK
6
CONTINUOUS
10
102.4489260000000002
20
80.1919479999999965
11
102.4489260000000002
21
80.8409130000000005
0
LINE
8
BLACK
6
CONTINUOUS
10
131.9300199999999847
20
80.8409130000000005
11
131.9300199999999847
21
80.1919479999999965
0
LINE
8
BLACK
6
CONTINUOUS
10
117.1894729999999925
20
90.0374860000000012
11
113.4489260000000002
21
90.0374860000000012
0
ARC
8
BLACK
10
132.9301229999999805
20
80.8408269999999902
40
1.0001039038316144
50
100.54943871
51
179.99504765
0
ARC
8
BLACK
10
124.9299859999999995
20
80.191913999999997
40
0.9999660005780197
50
-180.00194812
51
-89.99805188
0
LINE
8
BLACK
6
CONTINUOUS
10
197.6944729999999879
20
30.9419419999999974
11
198.906866999999977
21
16.9594839999999998
0
ARC
8
BLACK
10
193.4275069999999914
20
16.4843069999999976
40
5.4999252771976028
50
-82.89461473
51
4.95636646
0
LINE
8
BLACK
6
CONTINUOUS
10
194.1078189999999779
20
11.0266190000000002
11
147.0644729999999925
21
5.1619419999999998
0
ARC
8
BLACK
10
103.4489879999999999
20
80.1920119999999912
40
1.0000630019471191
50
-179.99639059
51
-90.00355211
0
ARC
8
BLACK
10
55.3331769999999992
20
-11.2774979999999996
40
100.0011428000855318
50
79.46928361
51
88.24623562
0
ARC
8
BLACK
10
201.2670039999999858
20
83.9482959999999991
40
5.4999982683581736
50
9.78992660
51
91.75373108
0
LINE
8
BLACK
6
CONTINUOUS
10
123.930019999999999
20
87.0374860000000012
11
123.930019999999999
21
80.1919479999999965
0
ARC
8
BLACK
10
130.9299350000000004
20
80.1920339999999925
40
1.000085003552948
50
-89.99518757
51
-0.00486973
0
LINE
8
BLACK
6
CONTINUOUS
10
87.3144729999999925
20
5.1619419999999998
11
40.2711269999999999
21
11.0266190000000002
0
LINE
8
BLACK
6
CONTINUOUS
10
225.2365800000000036
20
30.2962959999999981
11
197.6944729999999879
21
30.9419419999999974
0
ARC
8
BLACK
10
40.9515209999999996
20
16.484373999999999
40
5.5000019326104432
50
-184.95559732
51
-97.10615441
0
ARC
8
BLACK
10
9.0134670000000003
20
35.7947829999999954
40
5.4999975345251864
50
-185.13271292
51
-88.65708593
0
LINE
8
BLACK
6
CONTINUOUS
10
13.7722429999999996
20
86.3006049999999902
11
27.6244729999999983
21
84.4919419999999946
0
LINE
8
BLACK
6
CONTINUOUS
10
73.6141020000000026
20
87.0393399999999957
11
101.6319249999999954
21
81.8240259999999893
0
LINE
8
BLACK
6
CONTINUOUS
10
35.4720790000000008
20
16.9594839999999998
11
36.684472999999997
21
30.9419419999999974
0
LINE
8
BLACK
6
CONTINUOUS
10
110.4489260000000002
20
80.1919479999999965
11
110.4489260000000002
21
87.0374860000000012
0
LINE
8
BLACK
6
CONTINUOUS
10
33.2802620000000005
20
89.4457189999999969
11
58.3936309999999992
21
88.676801999999995
0
ARC
8
BLACK
10
109.4489879999999999
20
80.1918859999999967
40
0.9999380019221191
50
-90.00355256
51
0.00355256
0
LINE
8
BLACK
6
CONTINUOUS
10
36.684472999999997
20
30.9419419999999974
11
9.1423659999999991
21
30.2962959999999981
0
LINE
8
BLACK
6
CONTINUOUS
10
109.4489260000000002
20
79.1919479999999965
11
103.4489269999999976
21
79.1919479999999965
0
ARC
8
BLACK
10
225.3654819999999859
20
35.7947799999999958
40
5.499993993947994
50
-91.34295537
51
5.13275423
0
LINE
8
BLACK
6
CONTINUOUS
10
27.6244729999999983
20
84.4919419999999946
11
27.6920349999999971
21
84.8834949999999964
0
LINE
8
BLACK
6
CONTINUOUS
10
230.8434219999999755
20
36.2868289999999973
11
226.7967309999999941
21
81.3389389999999963
0
LINE
8
BLACK
6
CONTINUOUS
10
130.9300189999999873
20
79.1919479999999965
11
124.930019999999999
21
79.1919479999999965
  0
ENDSEC
  0
EOF
