  0
SECTION
  2
HEADER
  9
$ANGBASE
  50
0.0
  9
$ANGDIR
  70
1
  9
$MEASUREMENT
  70
1
  0
ENDSEC
  0
SECTION
  2
TABLES
  0
TABLE
  2
LTYPE
  70
4
  0
LTYPE
  5
40F
  2
CONTINUOUS
  70
0
  3
Solid line
  72
65
  73
0
  40
0.0
  0
LTYPE
  5
410
  2
DASHDOT
 70
0
  3
Dash Dot ____ _ ____ _
 72
65
 73
4
 40
2.0
 49
1.25
 49
-0.25
 49
0.25
 49
-0.25
  0
LTYPE
  5
411
  2
DASHED
 70
0
  3
Dashed __ __ __ __ __
 72
65
 73
2
 40
0.75
 49
0.5
 49
-0.25
  0
LTYPE
  5
43B
  2
DOTTED
 70
0
  3
Dotted .  .  .  .
 72
65
 73
2
 40
0.2
 49
0.0
 49
-0.2
  0
ENDTAB
  0
TABLE
  2
STYLE
  70
4
  0
STYLE
  2
KICAD
  70
0
  40
0
  41
1
  42
1
  50
0
  71
0
  3
isocp.shx
  0
STYLE
  2
KICADB
  70
0
  40
0
  41
1
  42
1
  50
0
  71
0
  3
isocp.shx
  0
STYLE
  2
KICADI
  70
0
  40
0
  41
1
  42
1
  50
15
  71
0
  3
isocp.shx
  0
STYLE
  2
KICADBI
  70
0
  40
0
  41
1
  42
1
  50
15
  71
0
  3
isocp.shx
  0
ENDTAB
  0
TABLE
  2
LAYER
  70
1
  0
LAYER
  2
BLACK
  70
0
  62
7
  6
CONTINUOUS
  0
ENDTAB
  0
ENDSEC
  0
SECTION
  2
ENTITIES
0
ARC
8
BLACK
10
8.0099879999999999
20
7.9999969999999996
40
2.0000035000030625
50
0.00010027
51
89.99989973
0
LINE
8
BLACK
6
CONTINUOUS
10
-68.9565549999999945
20
25.3624249999999982
11
-51.5869949999999946
21
23.2297119999999993
0
LINE
8
BLACK
6
CONTINUOUS
10
-16.6368410000000004
20
14.3919829999999997
11
-15.0597389999999987
21
15.6241519999999987
0
ARC
8
BLACK
10
97.8466090000000008
20
-38.0616279999999989
40
1.0000764369787154
50
-172.99563541
51
-83.00435164
0
LINE
8
BLACK
6
CONTINUOUS
10
26.8044820000000001
20
-62.1868869999999987
11
83.3860650000000021
21
-55.2395429999999976
0
LINE
8
BLACK
6
CONTINUOUS
10
-96.4422390000000007
20
-34.9155170000000012
11
-96.8440049999999957
21
-38.1876419999999968
0
ARC
8
BLACK
10
-110.813367999999997
20
-32.4425479999999951
40
4.9998338957348993
50
-187.00190954
51
-96.99809623
0
ARC
8
BLACK
10
-11.572080999999999
20
15.1816689999999994
40
2.4999997019708755
50
-51.90383053
51
128.09389954
0
ARC
8
BLACK
10
21.8183070000000008
20
-64.6067290000000014
40
2.5000007897457297
50
-213.09574612
51
-33.09438702
0
CIRCLE
8
BLACK
10
-11.5720419999999997
20
15.1816999999999993
40
1.05
0
LINE
8
BLACK
6
CONTINUOUS
10
-89.6983079999999973
20
20.0947439999999986
11
-89.4248699999999985
21
22.3217210000000001
0
ARC
8
BLACK
10
-95.4497929999999997
20
-35.0372580000000013
40
0.9998858026929788
50
82.99342847
51
173.00655858
0
ARC
8
BLACK
10
-12.2624019999999998
20
8.932105
40
1.9997230982802383
50
127.99668361
51
173.00324396
0
LINE
8
BLACK
6
CONTINUOUS
10
-85.0813440000000014
20
-36.3104599999999991
11
-85.4238479999999925
21
-39.099933
0
ARC
8
BLACK
10
-12.0000129999999992
20
-4.2433719999999999
40
2.0000123262212077
50
-108.07558856
51
-0.00047963
0
LINE
8
BLACK
6
CONTINUOUS
10
-23.9027309999999993
20
-65.9758609999999948
11
-26.0785920000000004
21
-62.6374629999999968
0
LINE
8
BLACK
6
CONTINUOUS
10
-90.8927509999999899
20
19.2338929999999984
11
-90.8127240000000029
21
19.224066999999998
0
ARC
8
BLACK
10
110.8233169999999888
20
-32.4384559999999951
40
4.9998718029702154
50
-83.00146935
51
7.00147511
0
LINE
8
BLACK
6
CONTINUOUS
10
-50.5421829999999943
20
21.8924139999999987
11
-50.799633
21
19.7956590000000006
0
ARC
8
BLACK
10
83.1423229999999904
20
-53.2544479999999965
40
2.0000021663715799
50
-82.99992394
51
6.99996881
0
LINE
8
BLACK
6
CONTINUOUS
10
-19.4336819999999975
20
-54.791844999999995
11
19.443165999999998
21
-54.7883069999999961
0
LINE
8
BLACK
6
CONTINUOUS
10
96.8539969999999926
20
-38.1835829999999987
11
96.4522309999999976
21
-34.9114579999999961
0
ARC
8
BLACK
10
-90.7708669999999955
20
20.2264510000000008
40
1.0000127805474766
50
-186.99930210
51
-97.00077469
0
LINE
8
BLACK
6
CONTINUOUS
10
-85.1174259999999947
20
-53.0147699999999986
11
-83.0963169999999991
21
-36.5541550000000015
0
ARC
8
BLACK
10
-91.0367019999999911
20
-35.579304999999998
40
1.0000718225575977
50
-6.99591269
51
82.99589974
0
LINE
8
BLACK
6
CONTINUOUS
10
-90.3865789999999976
20
-38.4905860000000004
11
-90.0440749999999923
21
-35.7011129999999994
0
ARC
8
BLACK
10
71.7525579999999934
20
22.3714329999999997
40
1.2002432185195235
50
-172.98831348
51
-83.01138790
0
LINE
8
BLACK
6
CONTINUOUS
10
-83.376072999999991
20
-55.2436019999999957
11
-26.7944899999999997
21
-62.1909459999999967
0
ARC
8
BLACK
10
94.2234119999999962
20
21.0163559999999983
40
2.5126509045918874
50
-353.00014204
51
-172.99986328
0
LINE
8
BLACK
6
CONTINUOUS
10
85.4338399999999893
20
-39.0958739999999949
11
85.0913359999999983
21
-36.306401000000001
0
ARC
8
BLACK
10
49.6187249999999977
20
19.6533549999999977
40
1.1998596372196011
50
-83.00673306
51
7.00662263
0
ARC
8
BLACK
10
13.6552249999999997
20
-2.3260510000000001
40
1.9997172827572274
50
-37.83617923
51
7.00336140
0
ARC
8
BLACK
10
87.9152100000000019
20
-38.7912449999999964
40
2.5000001376421603
50
-173.00102673
51
7.00103249
0
ARC
8
BLACK
10
12.2724159999999998
20
8.9361769999999989
40
1.9996984777573388
50
6.99646379
51
52.00360863
0
LINE
8
BLACK
6
CONTINUOUS
10
-70.5512999999999977
20
22.2208579999999998
11
-70.2938510000000036
21
24.317613999999999
0
ARC
8
BLACK
10
-71.7426480000000026
20
22.3674769999999974
40
1.2003353217393364
50
-96.98421766
51
-7.01608096
0
ARC
8
BLACK
10
-49.6087769999999963
20
19.6492629999999977
40
1.199821733876693
50
-187.00843310
51
-96.99145647
0
ARC
8
BLACK
10
-51.7333709999999982
20
22.0385549999999988
40
1.2001181748292391
50
-6.99436698
51
82.99444748
0
LINE
8
BLACK
6
CONTINUOUS
10
12.8435769999999998
20
-6.0710920000000002
11
12.6305509999999988
21
-6.1406209999999994
0
LINE
8
BLACK
6
CONTINUOUS
10
109.8490209999999934
20
16.5230420000000002
11
115.7859049999999996
21
-31.8289979999999986
0
CIRCLE
8
BLACK
10
11.5820340000000002
20
15.1857589999999991
40
1.05
0
LINE
8
BLACK
6
CONTINUOUS
10
8.00122
20
-9.9900749999999992
11
8.001218999999999
21
-50.9900729999999953
0
ARC
8
BLACK
10
-88.4323940000000022
20
22.199940999999999
40
0.9999204687062926
50
82.99541527
51
173.00457179
0
LINE
8
BLACK
6
CONTINUOUS
10
-8.
20
10.
11
8.0099920000000004
21
10.
0
LINE
8
BLACK
6
CONTINUOUS
10
96.8835770000000025
20
19.968634999999999
11
104.2769429999999886
21
20.8764259999999986
0
ARC
8
BLACK
10
12.0099979999999995
20
-4.2393209999999995
40
2.0000063531892507
50
-179.99975622
51
-71.92417560
0
LINE
8
BLACK
6
CONTINUOUS
10
7.00122
20
-51.9900759999999948
11
-6.99878
21
-51.9900759999999948
0
ARC
8
BLACK
10
-94.2134219999999942
20
21.0122870000000006
40
2.5126509045863519
50
-6.99992666
51
172.99993199
0
ARC
8
BLACK
10
-12.2132069999999988
20
-4.174118
40
1.9996982291978238
50
-142.16985904
51
-108.07346037
0
LINE
8
BLACK
6
CONTINUOUS
10
71.8985950000000003
20
21.1801069999999996
11
88.3204459999999898
21
23.1964569999999988
0
ARC
8
BLACK
10
-87.9052129999999892
20
-38.7952519999999978
40
2.500000137247302
50
-186.99985083
51
-7.00015493
0
LINE
8
BLACK
6
CONTINUOUS
10
-15.0597389999999987
20
15.6241519999999987
11
-13.1144609999999986
21
17.1491729999999976
0
ARC
8
BLACK
10
-7.9999649999999995
20
7.9999649999999995
40
2.0000355003150569
50
90.00101698
51
179.99898302
0
LINE
8
BLACK
6
CONTINUOUS
10
15.0697309999999991
20
15.6282109999999985
11
16.6468330000000009
21
14.3960419999999996
0
LINE
8
BLACK
6
CONTINUOUS
10
-104.2669509999999917
20
20.8723670000000006
11
-96.8735849999999914
21
19.9645759999999974
0
LINE
8
BLACK
6
CONTINUOUS
10
-13.7926329999999986
20
-5.4005789999999996
11
-15.2245460000000001
21
-3.5567489999999999
0
ARC
8
BLACK
10
-19.4335839999999997
20
-55.7918529999999961
40
1.0000082557447489
50
90.00563121
51
172.36307561
0
ARC
8
BLACK
10
91.0465399999999931
20
-35.5751270000000019
40
0.9999346591973208
50
-263.00375855
51
-172.99622850
0
LINE
8
BLACK
6
CONTINUOUS
10
13.124452999999999
20
17.1532319999999991
11
15.0697309999999991
21
15.6282109999999985
0
ARC
8
BLACK
10
-104.8761639999999886
20
15.9094639999999998
40
5.0001548696929277
50
83.00176857
51
172.99822567
0
LINE
8
BLACK
6
CONTINUOUS
10
-88.3104539999999929
20
23.1923979999999972
11
-71.8886030000000034
21
21.176047999999998
0
ARC
8
BLACK
10
-6.9985099999999996
20
-50.9898049999999969
40
1.0002705364590134
50
-179.98456297
51
-90.01549433
0
LINE
8
BLACK
6
CONTINUOUS
10
50.8096249999999969
20
19.7997179999999986
11
50.5521749999999983
21
21.8964730000000003
0
LINE
8
BLACK
6
CONTINUOUS
10
90.0540669999999892
20
-35.6970540000000014
11
90.3965709999999945
21
-38.4865269999999953
0
CIRCLE
8
BLACK
10
87.9152059999999977
20
-38.7911999999999964
40
1.050001
0
ARC
8
BLACK
10
-13.6452779999999994
20
-2.3301219999999998
40
1.9996751260046877
50
-187.00385975
51
-142.16332242
0
LINE
8
BLACK
6
CONTINUOUS
10
-10.0296229999999991
20
13.2142279999999985
11
-13.4934630000000002
21
10.5079789999999988
0
LINE
8
BLACK
6
CONTINUOUS
10
-10.
20
8.
11
-10.
21
-4.2433889999999996
0
LINE
8
BLACK
6
CONTINUOUS
10
111.4325209999999942
20
-37.4010759999999962
11
97.9684129999999982
21
-39.0542599999999993
0
ARC
8
BLACK
10
88.4423419999999965
20
22.2039459999999984
40
0.9999690134458594
50
6.99821009
51
97.00180286
0
LINE
8
BLACK
6
CONTINUOUS
10
26.0885839999999973
20
-62.6334039999999987
11
23.9127229999999997
21
-65.9718019999999967
0
LINE
8
BLACK
6
CONTINUOUS
10
-12.6205590000000001
20
-6.1446800000000001
11
-12.8335849999999994
21
-6.075151
0
ARC
8
BLACK
10
-97.8365739999999988
20
-38.0657439999999951
40
1.0000257272337922
50
-96.99855337
51
-7.00145957
0
ARC
8
BLACK
10
-90.6908829999999995
20
20.2166499999999978
40
1.0000322223137252
50
-96.99818126
51
-7.00183168
0
LINE
8
BLACK
6
CONTINUOUS
10
10.0099919999999987
20
-4.2393299999999998
11
10.0099919999999987
21
8.
0
LINE
8
BLACK
6
CONTINUOUS
10
20.4343779999999988
20
-55.6553419999999974
11
21.107721999999999
21
-60.6744559999999993
0
ARC
8
BLACK
10
90.7009180000000015
20
20.2207650000000001
40
1.0000829323879441
50
-172.99526334
51
-83.00472371
0
LINE
8
BLACK
6
CONTINUOUS
10
-6.99878
20
-8.9900749999999992
11
7.00122
21
-8.9900749999999992
0
ARC
8
BLACK
10
19.4432259999999992
20
-55.7883409999999955
40
1.0000348977999212
50
7.64271112
51
90.00347990
0
LINE
8
BLACK
6
CONTINUOUS
10
51.5969869999999986
20
23.2337709999999973
11
68.9665469999999914
21
25.3664839999999998
0
CIRCLE
8
BLACK
10
-21.8083320000000001
20
-64.6107650000000007
40
1.050001
0
CIRCLE
8
BLACK
10
94.2234129999999936
20
21.0163489999999982
40
1.05
0
LINE
8
BLACK
6
CONTINUOUS
10
91.7294909999999959
20
20.710134
11
91.7734189999999899
21
20.3523679999999985
0
LINE
8
BLACK
6
CONTINUOUS
10
89.4348619999999954
20
22.3257799999999982
11
89.7082999999999942
21
20.0988030000000002
0
ARC
8
BLACK
10
-6.9987919999999999
20
-9.9900629999999992
40
0.9999880000720008
50
-270.00068756
51
-179.99931244
0
ARC
8
BLACK
10
104.8861989999999906
20
15.9135799999999996
40
5.0001041612076929
50
7.00119330
51
96.99881246
0
ARC
8
BLACK
10
-21.8083059999999982
20
-64.6108049999999992
40
2.5000007900511347
50
-146.90605766
51
33.09619080
0
LINE
8
BLACK
6
CONTINUOUS
10
-49.7548199999999952
20
18.458361
11
-16.6368410000000004
21
14.3919829999999997
0
LINE
8
BLACK
6
CONTINUOUS
10
16.6468330000000009
20
14.3960419999999996
11
49.7648119999999992
21
18.4624199999999981
0
LINE
8
BLACK
6
CONTINUOUS
10
14.257225
20
9.1797559999999994
11
15.6400229999999993
21
-2.0822309999999997
0
ARC
8
BLACK
10
95.459740999999994
20
-35.0332529999999949
40
0.9999343457490697
50
6.99622348
51
97.00378946
0
ARC
8
BLACK
10
7.0012399999999992
20
-9.9900549999999999
40
0.9999800002000039
50
-0.00114594
51
90.00114594
0
LINE
8
BLACK
6
CONTINUOUS
10
19.723908999999999
20
-63.2416319999999956
11
20.9544099999999993
21
-61.3532930000000007
0
LINE
8
BLACK
6
CONTINUOUS
10
-15.6300309999999989
20
-2.08629
11
-14.2472329999999996
21
9.1756969999999995
0
ARC
8
BLACK
10
11.5820299999999996
20
15.1857609999999994
40
2.4999997014837572
50
-308.09512858
51
-128.09494042
0
CIRCLE
8
BLACK
10
21.8183240000000005
20
-64.6067060000000026
40
1.050001
0
LINE
8
BLACK
6
CONTINUOUS
10
-97.9584210000000013
20
-39.0583189999999973
11
-111.4225289999999973
21
-37.4051350000000014
0
LINE
8
BLACK
6
CONTINUOUS
10
90.9247439999999898
20
-34.5826379999999958
11
95.337814999999992
21
-34.0407809999999955
0
LINE
8
BLACK
6
CONTINUOUS
10
-95.3278229999999951
20
-34.0448400000000007
11
-90.9147519999999929
21
-34.5866970000000009
0
ARC
8
BLACK
10
-20.1065819999999995
20
-60.8113989999999944
40
1.000016646422222
50
-187.63620466
51
-146.91087171
0
LINE
8
BLACK
6
CONTINUOUS
10
-20.9444179999999989
20
-61.3573519999999988
11
-19.7139169999999986
21
-63.2456909999999937
0
LINE
8
BLACK
6
CONTINUOUS
10
-91.763426999999993
20
20.3483090000000004
11
-91.719498999999999
21
20.7060749999999985
0
ARC
8
BLACK
10
26.9263479999999973
20
-63.1794299999999964
40
0.9999968646877068
50
96.99984316
51
146.90505259
0
LINE
8
BLACK
6
CONTINUOUS
10
70.3038430000000005
20
24.3216730000000005
11
70.5612919999999946
21
22.2249169999999978
0
ARC
8
BLACK
10
84.0988219999999984
20
-36.4282429999999948
40
0.9999651383422942
50
-352.99921336
51
-173.00073987
0
LINE
8
BLACK
6
CONTINUOUS
10
96.8831330000000008
20
19.9722519999999975
11
96.7173349999999914
21
21.3225639999999999
0
ARC
8
BLACK
10
20.1166249999999991
20
-60.8073519999999945
40
0.9999665877998432
50
-33.09019285
51
7.63726923
0
ARC
8
BLACK
10
-83.1323739999999987
20
-53.2585399999999964
40
1.9999642583446877
50
-187.00105482
51
-96.99899005
0
LINE
8
BLACK
6
CONTINUOUS
10
-7.99878
20
-50.9900749999999974
11
-7.99878
21
-9.9900749999999992
0
ARC
8
BLACK
10
51.7433189999999996
20
22.0426469999999988
40
1.2000802633691905
50
-262.99625718
51
-173.00382333
0
LINE
8
BLACK
6
CONTINUOUS
10
90.8227159999999998
20
19.2281259999999996
11
90.902743000000001
21
19.2379519999999999
0
CIRCLE
8
BLACK
10
-87.9052140000000009
20
-38.7952590000000015
40
1.050001
0
LINE
8
BLACK
6
CONTINUOUS
10
-21.0977299999999985
20
-60.6785149999999973
11
-20.4247219999999992
21
-55.6589570000000009
0
LINE
8
BLACK
6
CONTINUOUS
10
15.2345379999999988
20
-3.5526899999999997
11
13.802624999999999
21
-5.3965199999999998
0
ARC
8
BLACK
10
-26.9163849999999982
20
-63.1835349999999991
40
1.0000456791272971
50
33.09624873
51
82.99885553
0
LINE
8
BLACK
6
CONTINUOUS
10
13.5034549999999989
20
10.5120379999999987
11
10.0396149999999995
21
13.2182870000000001
0
CIRCLE
8
BLACK
10
-94.2134209999999968
20
21.0122900000000001
40
1.05
0
ARC
8
BLACK
10
7.0011559999999999
20
-50.9900139999999951
40
1.0000620019203943
50
-89.99639058
51
-0.00338024
0
LINE
8
BLACK
6
CONTINUOUS
10
-115.7759129999999885
20
-31.8330570000000002
11
-109.8390289999999965
21
16.5189829999999986
0
LINE
8
BLACK
6
CONTINUOUS
10
-96.7073429999999945
20
21.3185049999999983
11
-96.8731409999999897
21
19.9681929999999994
0
ARC
8
BLACK
10
69.1126809999999949
20
24.1752929999999999
40
1.2001214394612987
50
7.00582056
51
96.99408064
0
ARC
8
BLACK
10
12.2231199999999998
20
-4.1699479999999998
40
1.9998282915733909
50
-71.92539695
51
-37.83128364
0
ARC
8
BLACK
10
90.7808160000000015
20
20.2305430000000008
40
1.0000506901017536
50
-82.99705345
51
6.99713025
0
LINE
8
BLACK
6
CONTINUOUS
10
83.106308999999996
20
-36.5500959999999964
11
85.1274179999999916
21
-53.0107110000000006
0
ARC
8
BLACK
10
-84.0888360000000006
20
-36.432347
40
0.9999651399590662
50
-6.99667705
51
172.99663027
0
ARC
8
BLACK
10
-69.1026080000000036
20
24.1711290000000005
40
1.2002156938942927
50
83.01041777
51
172.98968103
0
LINE
8
BLACK
6
CONTINUOUS
10
-68.5371119999999934
20
21.8842029999999994
11
-53.0533919999999952
21
19.9830410000000001
0
LINE
8
BLACK
6
CONTINUOUS
10
-53.0533919999999952
20
19.9830410000000001
11
-54.6133199999999945
21
7.2784509999999996
0
LINE
8
BLACK
6
CONTINUOUS
10
-54.6133199999999945
20
7.2784509999999996
11
-70.0970399999999927
21
9.1796129999999998
0
LINE
8
BLACK
6
CONTINUOUS
10
-70.0970399999999927
20
9.1796129999999998
11
-68.5371119999999934
21
21.8842029999999994
0
LINE
8
BLACK
6
CONTINUOUS
10
-52.5311239999999984
20
-4.0724149999999995
11
-37.0474040000000002
21
-5.9735769999999997
0
LINE
8
BLACK
6
CONTINUOUS
10
-37.0474040000000002
20
-5.9735769999999997
11
-38.6073319999999995
21
-18.6781669999999984
0
LINE
8
BLACK
6
CONTINUOUS
10
-38.6073319999999995
20
-18.6781669999999984
11
-54.0910519999999977
21
-16.7770049999999991
0
LINE
8
BLACK
6
CONTINUOUS
10
-54.0910519999999977
20
-16.7770049999999991
11
-52.5311239999999984
21
-4.0724149999999995
0
LINE
8
BLACK
6
CONTINUOUS
10
89.5954249999999917
20
6.7782589999999994
11
74.1117050000000006
21
4.877097
0
LINE
8
BLACK
6
CONTINUOUS
10
74.1117050000000006
20
4.877097
11
72.5517770000000013
21
17.5816869999999987
0
LINE
8
BLACK
6
CONTINUOUS
10
72.5517770000000013
20
17.5816869999999987
11
88.0354969999999923
21
19.4828489999999981
0
LINE
8
BLACK
6
CONTINUOUS
10
88.0354969999999923
20
19.4828489999999981
11
89.5954249999999917
21
6.7782589999999994
0
LINE
8
BLACK
6
CONTINUOUS
10
80.0157540000000012
20
-51.9771669999999943
11
64.5320339999999959
21
-53.8783290000000008
0
LINE
8
BLACK
6
CONTINUOUS
10
64.5320339999999959
20
-53.8783290000000008
11
62.9721059999999966
21
-41.1737389999999976
0
LINE
8
BLACK
6
CONTINUOUS
10
62.9721059999999966
20
-41.1737389999999976
11
78.4558260000000018
21
-39.2725769999999983
0
LINE
8
BLACK
6
CONTINUOUS
10
78.4558260000000018
20
-39.2725769999999983
11
80.0157540000000012
21
-51.9771669999999943
0
LINE
8
BLACK
6
CONTINUOUS
10
-88.0255209999999977
20
19.4788150000000009
11
-72.5418009999999924
21
17.577652999999998
0
LINE
8
BLACK
6
CONTINUOUS
10
-72.5418009999999924
20
17.577652999999998
11
-74.1017289999999917
21
4.8730630000000001
0
LINE
8
BLACK
6
CONTINUOUS
10
-74.1017289999999917
20
4.8730630000000001
11
-89.585448999999997
21
6.7742249999999995
0
LINE
8
BLACK
6
CONTINUOUS
10
-89.585448999999997
20
6.7742249999999995
11
-88.0255209999999977
21
19.4788150000000009
0
LINE
8
BLACK
6
CONTINUOUS
10
72.4286280000000033
20
-9.7243529999999989
11
56.9449079999999981
21
-11.625515
0
LINE
8
BLACK
6
CONTINUOUS
10
56.9449079999999981
20
-11.625515
11
55.3849799999999988
21
1.079075
0
LINE
8
BLACK
6
CONTINUOUS
10
55.3849799999999988
20
1.079075
11
70.8686999999999898
21
2.9802369999999998
0
LINE
8
BLACK
6
CONTINUOUS
10
70.8686999999999898
20
2.9802369999999998
11
72.4286280000000033
21
-9.7243529999999989
0
LINE
8
BLACK
6
CONTINUOUS
10
113.7270539999999954
20
-33.4431409999999971
11
98.2433339999999902
21
-35.3443029999999965
0
LINE
8
BLACK
6
CONTINUOUS
10
98.2433339999999902
20
-35.3443029999999965
11
96.6834059999999909
21
-22.6397130000000004
0
LINE
8
BLACK
6
CONTINUOUS
10
96.6834059999999909
20
-22.6397130000000004
11
112.1671259999999961
21
-20.7385509999999975
0
LINE
8
BLACK
6
CONTINUOUS
10
112.1671259999999961
20
-20.7385509999999975
11
113.7270539999999954
21
-33.4431409999999971
0
LINE
8
BLACK
6
CONTINUOUS
10
-112.1571500000000015
20
-20.7425849999999983
11
-96.6734299999999962
21
-22.6437469999999976
0
LINE
8
BLACK
6
CONTINUOUS
10
-96.6734299999999962
20
-22.6437469999999976
11
-98.2333579999999955
21
-35.3483370000000008
0
LINE
8
BLACK
6
CONTINUOUS
10
-98.2333579999999955
20
-35.3483370000000008
11
-113.7170780000000008
21
-33.4471750000000014
0
LINE
8
BLACK
6
CONTINUOUS
10
-113.7170780000000008
20
-33.4471750000000014
11
-112.1571500000000015
21
-20.7425849999999983
0
LINE
8
BLACK
6
CONTINUOUS
10
-109.8355339999999956
20
-1.8345819999999999
11
-94.3518139999999903
21
-3.735744
0
LINE
8
BLACK
6
CONTINUOUS
10
-94.3518139999999903
20
-3.735744
11
-95.9117419999999896
21
-16.440334
0
LINE
8
BLACK
6
CONTINUOUS
10
-95.9117419999999896
20
-16.440334
11
-111.3954619999999949
21
-14.5391719999999989
0
LINE
8
BLACK
6
CONTINUOUS
10
-111.3954619999999949
20
-14.5391719999999989
11
-109.8355339999999956
21
-1.8345819999999999
0
LINE
8
BLACK
6
CONTINUOUS
10
-107.5139279999999928
20
17.0734239999999993
11
-92.0302080000000018
21
15.1722619999999999
0
LINE
8
BLACK
6
CONTINUOUS
10
-92.0302080000000018
20
15.1722619999999999
11
-93.5901360000000011
21
2.4676719999999999
0
LINE
8
BLACK
6
CONTINUOUS
10
-93.5901360000000011
20
2.4676719999999999
11
-109.0738559999999922
21
4.3688339999999997
0
LINE
8
BLACK
6
CONTINUOUS
10
-109.0738559999999922
20
4.3688339999999997
11
-107.5139279999999928
21
17.0734239999999993
0
LINE
8
BLACK
6
CONTINUOUS
10
-54.8527349999999956
20
-22.9804189999999977
11
-39.3690149999999974
21
-24.8815810000000006
0
LINE
8
BLACK
6
CONTINUOUS
10
-39.3690149999999974
20
-24.8815810000000006
11
-40.9289429999999967
21
-37.5861710000000002
0
LINE
8
BLACK
6
CONTINUOUS
10
-40.9289429999999967
20
-37.5861710000000002
11
-56.4126629999999949
21
-35.6850090000000009
0
LINE
8
BLACK
6
CONTINUOUS
10
-56.4126629999999949
20
-35.6850090000000009
11
-54.8527349999999956
21
-22.9804189999999977
0
LINE
8
BLACK
6
CONTINUOUS
10
35.1930210000000017
20
-19.094580999999998
11
19.709301
21
-20.9957429999999974
0
LINE
8
BLACK
6
CONTINUOUS
10
19.709301
20
-20.9957429999999974
11
18.1493730000000006
21
-8.2911529999999996
0
LINE
8
BLACK
6
CONTINUOUS
10
18.1493730000000006
20
-8.2911529999999996
11
33.6330929999999952
21
-6.3899909999999993
0
LINE
8
BLACK
6
CONTINUOUS
10
33.6330929999999952
20
-6.3899909999999993
11
35.1930210000000017
21
-19.094580999999998
0
LINE
8
BLACK
6
CONTINUOUS
10
56.4226389999999967
20
-35.6809749999999966
11
40.9389189999999985
21
-37.5821369999999959
0
LINE
8
BLACK
6
CONTINUOUS
10
40.9389189999999985
20
-37.5821369999999959
11
39.3789909999999992
21
-24.8775469999999999
0
LINE
8
BLACK
6
CONTINUOUS
10
39.3789909999999992
20
-24.8775469999999999
11
54.8627109999999973
21
-22.9763850000000005
0
LINE
8
BLACK
6
CONTINUOUS
10
54.8627109999999973
20
-22.9763850000000005
11
56.4226389999999967
21
-35.6809749999999966
0
LINE
8
BLACK
6
CONTINUOUS
10
91.917034000000001
20
-12.1297490000000003
11
76.4333139999999958
21
-14.0309109999999997
0
LINE
8
BLACK
6
CONTINUOUS
10
76.4333139999999958
20
-14.0309109999999997
11
74.8733859999999964
21
-1.3263209999999999
0
LINE
8
BLACK
6
CONTINUOUS
10
74.8733859999999964
20
-1.3263209999999999
11
90.3571060000000017
21
0.5748409999999999
0
LINE
8
BLACK
6
CONTINUOUS
10
90.3571060000000017
20
0.5748409999999999
11
91.917034000000001
21
-12.1297490000000003
0
LINE
8
BLACK
6
CONTINUOUS
10
-33.6231170000000006
20
-6.3940250000000001
11
-18.1393969999999989
21
-8.2951870000000003
0
LINE
8
BLACK
6
CONTINUOUS
10
-18.1393969999999989
20
-8.2951870000000003
11
-19.6993249999999982
21
-20.9997769999999981
0
LINE
8
BLACK
6
CONTINUOUS
10
-19.6993249999999982
20
-20.9997769999999981
11
-35.1830449999999999
21
-19.0986149999999988
0
LINE
8
BLACK
6
CONTINUOUS
10
-35.1830449999999999
20
-19.0986149999999988
11
-33.6231170000000006
21
-6.3940250000000001
0
LINE
8
BLACK
6
CONTINUOUS
10
-73.180334000000002
20
-15.9318059999999999
11
-57.6966139999999967
21
-17.8329679999999975
0
LINE
8
BLACK
6
CONTINUOUS
10
-57.6966139999999967
20
-17.8329679999999975
11
-59.2565419999999961
21
-30.5375579999999971
0
LINE
8
BLACK
6
CONTINUOUS
10
-59.2565419999999961
20
-30.5375579999999971
11
-74.7402620000000013
21
-28.6363959999999977
0
LINE
8
BLACK
6
CONTINUOUS
10
-74.7402620000000013
20
-28.6363959999999977
11
-73.180334000000002
21
-15.9318059999999999
0
LINE
8
BLACK
6
CONTINUOUS
10
-35.9447299999999998
20
-25.3020299999999985
11
-20.4610099999999981
21
-27.2031919999999978
0
LINE
8
BLACK
6
CONTINUOUS
10
-20.4610099999999981
20
-27.2031919999999978
11
-22.0209379999999975
21
-39.9077819999999974
0
LINE
8
BLACK
6
CONTINUOUS
10
-22.0209379999999975
20
-39.9077819999999974
11
-37.5046579999999992
21
-38.0066199999999981
0
LINE
8
BLACK
6
CONTINUOUS
10
-37.5046579999999992
20
-38.0066199999999981
11
-35.9447299999999998
21
-25.3020299999999985
0
LINE
8
BLACK
6
CONTINUOUS
10
-92.6687409999999971
20
-18.3371980000000008
11
-77.1850209999999919
21
-20.2383600000000001
0
LINE
8
BLACK
6
CONTINUOUS
10
-77.1850209999999919
20
-20.2383600000000001
11
-78.7449489999999912
21
-32.9429499999999962
0
LINE
8
BLACK
6
CONTINUOUS
10
-78.7449489999999912
20
-32.9429499999999962
11
-94.2286689999999965
21
-31.0417879999999968
0
LINE
8
BLACK
6
CONTINUOUS
10
-94.2286689999999965
20
-31.0417879999999968
11
-92.6687409999999971
21
-18.3371980000000008
0
LINE
8
BLACK
6
CONTINUOUS
10
-50.2095130000000012
20
14.8355909999999991
11
-34.7257929999999959
21
12.9344289999999997
0
LINE
8
BLACK
6
CONTINUOUS
10
-34.7257929999999959
20
12.9344289999999997
11
-36.2857209999999952
21
0.229839
0
LINE
8
BLACK
6
CONTINUOUS
10
-36.2857209999999952
20
0.229839
11
-51.7694410000000005
21
2.1310009999999999
0
LINE
8
BLACK
6
CONTINUOUS
10
-51.7694410000000005
20
2.1310009999999999
11
-50.2095130000000012
21
14.8355909999999991
0
LINE
8
BLACK
6
CONTINUOUS
10
-70.8587239999999952
20
2.9762029999999999
11
-55.375003999999997
21
1.0750409999999999
0
LINE
8
BLACK
6
CONTINUOUS
10
-55.375003999999997
20
1.0750409999999999
11
-56.9349319999999963
21
-11.629548999999999
0
LINE
8
BLACK
6
CONTINUOUS
10
-56.9349319999999963
20
-11.629548999999999
11
-72.4186519999999945
21
-9.7283869999999997
0
LINE
8
BLACK
6
CONTINUOUS
10
-72.4186519999999945
20
-9.7283869999999997
11
-70.8587239999999952
21
2.9762029999999999
0
LINE
8
BLACK
6
CONTINUOUS
10
109.083832000000001
20
4.3728679999999995
11
93.6001119999999958
21
2.4717059999999997
0
LINE
8
BLACK
6
CONTINUOUS
10
93.6001119999999958
20
2.4717059999999997
11
92.0401839999999964
21
15.1762959999999989
0
LINE
8
BLACK
6
CONTINUOUS
10
92.0401839999999964
20
15.1762959999999989
11
107.5239040000000017
21
17.077458
0
LINE
8
BLACK
6
CONTINUOUS
10
107.5239040000000017
20
17.077458
11
109.083832000000001
21
4.3728679999999995
0
LINE
8
BLACK
6
CONTINUOUS
10
94.2386449999999911
20
-31.0377549999999971
11
78.7549250000000001
21
-32.9389169999999964
0
LINE
8
BLACK
6
CONTINUOUS
10
78.7549250000000001
20
-32.9389169999999964
11
77.1949970000000008
21
-20.2343270000000004
0
LINE
8
BLACK
6
CONTINUOUS
10
77.1949970000000008
20
-20.2343270000000004
11
92.6787169999999918
21
-18.3331649999999975
0
LINE
8
BLACK
6
CONTINUOUS
10
92.6787169999999918
20
-18.3331649999999975
11
94.2386449999999911
21
-31.0377549999999971
0
LINE
8
BLACK
6
CONTINUOUS
10
-78.445849999999993
20
-39.2766109999999955
11
-62.9621299999999948
21
-41.1777729999999949
0
LINE
8
BLACK
6
CONTINUOUS
10
-62.9621299999999948
20
-41.1777729999999949
11
-64.5220580000000012
21
-53.882362999999998
0
LINE
8
BLACK
6
CONTINUOUS
10
-64.5220580000000012
20
-53.882362999999998
11
-80.0057779999999923
21
-51.9812009999999987
0
LINE
8
BLACK
6
CONTINUOUS
10
-80.0057779999999923
20
-51.9812009999999987
11
-78.445849999999993
21
-39.2766109999999955
0
LINE
8
BLACK
6
CONTINUOUS
10
49.2902489999999958
20
-55.7497819999999962
11
33.8065289999999976
21
-57.6509439999999955
0
LINE
8
BLACK
6
CONTINUOUS
10
33.8065289999999976
20
-57.6509439999999955
11
32.2466009999999983
21
-44.9463539999999995
0
LINE
8
BLACK
6
CONTINUOUS
10
32.2466009999999983
20
-44.9463539999999995
11
47.7303209999999964
21
-43.0451920000000001
0
LINE
8
BLACK
6
CONTINUOUS
10
47.7303209999999964
20
-43.0451920000000001
11
49.2902489999999958
21
-55.7497819999999962
0
LINE
8
BLACK
6
CONTINUOUS
10
51.7794169999999951
20
2.1350349999999998
11
36.295696999999997
21
0.233873
0
LINE
8
BLACK
6
CONTINUOUS
10
36.295696999999997
20
0.233873
11
34.7357689999999977
21
12.9384629999999987
0
LINE
8
BLACK
6
CONTINUOUS
10
34.7357689999999977
20
12.9384629999999987
11
50.2194889999999958
21
14.8396249999999998
0
LINE
8
BLACK
6
CONTINUOUS
10
50.2194889999999958
20
14.8396249999999998
11
51.7794169999999951
21
2.1350349999999998
0
LINE
8
BLACK
6
CONTINUOUS
10
-90.3471299999999928
20
0.570807
11
-74.8634100000000018
21
-1.330355
0
LINE
8
BLACK
6
CONTINUOUS
10
-74.8634100000000018
20
-1.330355
11
-76.4233380000000011
21
-14.0349449999999987
0
LINE
8
BLACK
6
CONTINUOUS
10
-76.4233380000000011
20
-14.0349449999999987
11
-91.9070579999999921
21
-12.1337829999999993
0
LINE
8
BLACK
6
CONTINUOUS
10
-91.9070579999999921
20
-12.1337829999999993
11
-90.3471299999999928
21
0.570807
0
LINE
8
BLACK
6
CONTINUOUS
10
70.1070160000000016
20
9.1836469999999988
11
54.6232959999999963
21
7.2824849999999994
0
LINE
8
BLACK
6
CONTINUOUS
10
54.6232959999999963
20
7.2824849999999994
11
53.063367999999997
21
19.9870750000000008
0
LINE
8
BLACK
6
CONTINUOUS
10
53.063367999999997
20
19.9870750000000008
11
68.5470880000000022
21
21.8882370000000002
0
LINE
8
BLACK
6
CONTINUOUS
10
68.5470880000000022
20
21.8882370000000002
11
70.1070160000000016
21
9.1836469999999988
0
LINE
8
BLACK
6
CONTINUOUS
10
-31.3015089999999994
20
12.5139809999999994
11
-15.8177889999999994
21
10.612819
0
LINE
8
BLACK
6
CONTINUOUS
10
-15.8177889999999994
20
10.612819
11
-17.3777170000000005
21
-2.091771
0
LINE
8
BLACK
6
CONTINUOUS
10
-17.3777170000000005
20
-2.091771
11
-32.8614369999999951
21
-0.190609
0
LINE
8
BLACK
6
CONTINUOUS
10
-32.8614369999999951
20
-0.190609
11
-31.3015089999999994
21
12.5139809999999994
0
LINE
8
BLACK
6
CONTINUOUS
10
32.8714129999999969
20
-0.186575
11
17.3876929999999987
21
-2.0877369999999997
0
LINE
8
BLACK
6
CONTINUOUS
10
17.3876929999999987
20
-2.0877369999999997
11
15.8277649999999994
21
10.616852999999999
0
LINE
8
BLACK
6
CONTINUOUS
10
15.8277649999999994
20
10.616852999999999
11
31.3114849999999976
21
12.5180150000000001
0
LINE
8
BLACK
6
CONTINUOUS
10
31.3114849999999976
20
12.5180150000000001
11
32.8714129999999969
21
-0.186575
0
LINE
8
BLACK
6
CONTINUOUS
10
54.1010279999999995
20
-16.7729709999999983
11
38.6173080000000013
21
-18.6741329999999977
0
LINE
8
BLACK
6
CONTINUOUS
10
38.6173080000000013
20
-18.6741329999999977
11
37.0573799999999949
21
-5.9695429999999998
0
LINE
8
BLACK
6
CONTINUOUS
10
37.0573799999999949
20
-5.9695429999999998
11
52.5411000000000001
21
-4.0683809999999996
0
LINE
8
BLACK
6
CONTINUOUS
10
52.5411000000000001
20
-4.0683809999999996
11
54.1010279999999995
21
-16.7729709999999983
0
LINE
8
BLACK
6
CONTINUOUS
10
111.4054379999999895
20
-14.5351379999999999
11
95.9217179999999985
21
-16.4362999999999992
0
LINE
8
BLACK
6
CONTINUOUS
10
95.9217179999999985
20
-16.4362999999999992
11
94.3617899999999992
21
-3.7317099999999996
0
LINE
8
BLACK
6
CONTINUOUS
10
94.3617899999999992
20
-3.7317099999999996
11
109.8455099999999902
21
-1.8305479999999998
0
LINE
8
BLACK
6
CONTINUOUS
10
109.8455099999999902
20
-1.8305479999999998
11
111.4054379999999895
21
-14.5351379999999999
0
LINE
8
BLACK
6
CONTINUOUS
10
74.750237999999996
20
-28.632361999999997
11
59.2665179999999978
21
-30.5335239999999999
0
LINE
8
BLACK
6
CONTINUOUS
10
59.2665179999999978
20
-30.5335239999999999
11
57.7065899999999985
21
-17.8289340000000003
0
LINE
8
BLACK
6
CONTINUOUS
10
57.7065899999999985
20
-17.8289340000000003
11
73.1903099999999966
21
-15.9277719999999992
0
LINE
8
BLACK
6
CONTINUOUS
10
73.1903099999999966
20
-15.9277719999999992
11
74.750237999999996
21
-28.632361999999997
0
LINE
8
BLACK
6
CONTINUOUS
10
37.5146340000000009
20
-38.0025860000000009
11
22.0309139999999992
21
-39.9037480000000002
0
LINE
8
BLACK
6
CONTINUOUS
10
22.0309139999999992
20
-39.9037480000000002
11
20.4709859999999999
21
-27.1991579999999971
0
LINE
8
BLACK
6
CONTINUOUS
10
20.4709859999999999
20
-27.1991579999999971
11
35.9547060000000016
21
-25.2979959999999977
0
LINE
8
BLACK
6
CONTINUOUS
10
35.9547060000000016
20
-25.2979959999999977
11
37.5146340000000009
21
-38.0025860000000009
0
LINE
8
BLACK
6
CONTINUOUS
10
-7.7999999999999998
20
6.3999999999999995
11
7.7999999999999998
21
6.3999999999999995
0
LINE
8
BLACK
6
CONTINUOUS
10
7.7999999999999998
20
6.3999999999999995
11
7.7999999999999998
21
-6.3999999999999995
0
LINE
8
BLACK
6
CONTINUOUS
10
7.7999999999999998
20
-6.3999999999999995
11
-7.7999999999999998
21
-6.3999999999999995
0
LINE
8
BLACK
6
CONTINUOUS
10
-7.7999999999999998
20
-6.3999999999999995
11
-7.7999999999999998
21
6.3999999999999995
0
LINE
8
BLACK
6
CONTINUOUS
10
-47.7203449999999947
20
-43.0492259999999973
11
-32.2366249999999965
21
-44.9503879999999967
0
LINE
8
BLACK
6
CONTINUOUS
10
-32.2366249999999965
20
-44.9503879999999967
11
-33.7965529999999958
21
-57.6549779999999998
0
LINE
8
BLACK
6
CONTINUOUS
10
-33.7965529999999958
20
-57.6549779999999998
11
-49.2802730000000011
21
-55.7538160000000005
0
LINE
8
BLACK
6
CONTINUOUS
10
-49.2802730000000011
20
-55.7538160000000005
11
-47.7203449999999947
21
-43.0492259999999973
  0
ENDSEC
  0
EOF
