  0
SECTION
  2
HEADER
  9
$ANGBASE
  50
0.0
  9
$ANGDIR
  70
1
  9
$MEASUREMENT
  70
1
  0
ENDSEC
  0
SECTION
  2
TABLES
  0
TABLE
  2
LTYPE
  70
4
  0
LTYPE
  5
40F
  2
CONTINUOUS
  70
0
  3
Solid line
  72
65
  73
0
  40
0.0
  0
LTYPE
  5
410
  2
DASHDOT
 70
0
  3
Dash Dot ____ _ ____ _
 72
65
 73
4
 40
2.0
 49
1.25
 49
-0.25
 49
0.25
 49
-0.25
  0
LTYPE
  5
411
  2
DASHED
 70
0
  3
Dashed __ __ __ __ __
 72
65
 73
2
 40
0.75
 49
0.5
 49
-0.25
  0
LTYPE
  5
43B
  2
DOTTED
 70
0
  3
Dotted .  .  .  .
 72
65
 73
2
 40
0.2
 49
0.0
 49
-0.2
  0
ENDTAB
  0
TABLE
  2
STYLE
  70
4
  0
STYLE
  2
KICAD
  70
0
  40
0
  41
1
  42
1
  50
0
  71
0
  3
isocp.shx
  0
STYLE
  2
KICADB
  70
0
  40
0
  41
1
  42
1
  50
0
  71
0
  3
isocp.shx
  0
STYLE
  2
KICADI
  70
0
  40
0
  41
1
  42
1
  50
15
  71
0
  3
isocp.shx
  0
STYLE
  2
KICADBI
  70
0
  40
0
  41
1
  42
1
  50
15
  71
0
  3
isocp.shx
  0
ENDTAB
  0
TABLE
  2
LAYER
  70
1
  0
LAYER
  2
BLACK
  70
0
  62
7
  6
CONTINUOUS
  0
ENDTAB
  0
ENDSEC
  0
SECTION
  2
ENTITIES
0
ARC
8
BLACK
10
120.93
20
87.0375
40
2.99999
50
-0.00024828
51
89.9996
0
ARC
8
BLACK
10
33.1119
20
83.9483
40
5.5
50
88.2463
51
170.21
0
ARC
8
BLACK
10
221.319
20
80.8469
40
5.5
50
5.13266
51
97.4391
0
LINE
8
BLACK
6
CONTINUOUS
10
87.3145
20
5.16194
11
117.189
21
5.16194
0
LINE
8
BLACK
6
CONTINUOUS
10
132.747
20
81.824
11
160.765
21
87.0393
0
LINE
8
BLACK
6
CONTINUOUS
10
120.93
20
90.0375
11
117.189
21
90.0375
0
ARC
8
BLACK
10
179.046
20
-11.2768
40
100
50
91.7537
51
100.531
0
LINE
8
BLACK
6
CONTINUOUS
10
175.985
20
88.6768
11
201.099
21
89.4457
0
ARC
8
BLACK
10
113.449
20
87.0375
40
2.99998
50
-270
51
-180
0
LINE
8
BLACK
6
CONTINUOUS
10
117.189
20
5.16194
11
147.064
21
5.16194
0
LINE
8
BLACK
6
CONTINUOUS
10
7.58221
20
81.3389
11
3.53552
21
36.2868
0
ARC
8
BLACK
10
13.0602
20
80.8469
40
5.5
50
82.5611
51
174.867
0
ARC
8
BLACK
10
101.449
20
80.8408
40
1.00013
50
0.0065309
51
79.4497
0
LINE
8
BLACK
6
CONTINUOUS
10
206.687
20
84.8835
11
206.754
21
84.4919
0
LINE
8
BLACK
6
CONTINUOUS
10
206.754
20
84.4919
11
220.607
21
86.3006
0
LINE
8
BLACK
6
CONTINUOUS
10
102.449
20
80.1919
11
102.449
21
80.8409
0
LINE
8
BLACK
6
CONTINUOUS
10
131.93
20
80.8409
11
131.93
21
80.1919
0
LINE
8
BLACK
6
CONTINUOUS
10
117.189
20
90.0375
11
113.449
21
90.0375
0
ARC
8
BLACK
10
132.93
20
80.8408
40
1.00008
50
100.548
51
179.993
0
ARC
8
BLACK
10
124.93
20
80.1919
40
0.999951
50
-180.003
51
-89.9989
0
LINE
8
BLACK
6
CONTINUOUS
10
197.694
20
30.9419
11
198.907
21
16.9595
0
ARC
8
BLACK
10
193.428
20
16.4843
40
5.49993
50
-82.8945
51
4.95644
0
LINE
8
BLACK
6
CONTINUOUS
10
194.108
20
11.0266
11
147.064
21
5.16194
0
ARC
8
BLACK
10
103.449
20
80.192
40
1.00005
50
-179.997
51
-90.0042
0
ARC
8
BLACK
10
55.3332
20
-11.2775
40
100.001
50
79.4693
51
88.2462
0
ARC
8
BLACK
10
201.267
20
83.9483
40
5.5
50
9.78989
51
91.7537
0
LINE
8
BLACK
6
CONTINUOUS
10
123.93
20
87.0375
11
123.93
21
80.1919
0
ARC
8
BLACK
10
130.93
20
80.192
40
1.00012
50
-89.9932
51
-0.00292174
0
LINE
8
BLACK
6
CONTINUOUS
10
87.3145
20
5.16194
11
40.2711
21
11.0266
0
LINE
8
BLACK
6
CONTINUOUS
10
225.237
20
30.2963
11
197.694
21
30.9419
0
ARC
8
BLACK
10
40.9515
20
16.4844
40
5.50002
50
-184.955
51
-97.1059
0
ARC
8
BLACK
10
9.01347
20
35.7948
40
5.49999
50
-185.133
51
-88.6571
0
LINE
8
BLACK
6
CONTINUOUS
10
13.7722
20
86.3006
11
27.6245
21
84.4919
0
LINE
8
BLACK
6
CONTINUOUS
10
73.6141
20
87.0393
11
101.632
21
81.824
0
LINE
8
BLACK
6
CONTINUOUS
10
35.4721
20
16.9595
11
36.6845
21
30.9419
0
LINE
8
BLACK
6
CONTINUOUS
10
110.449
20
80.1919
11
110.449
21
87.0375
0
LINE
8
BLACK
6
CONTINUOUS
10
33.2803
20
89.4457
11
58.3936
21
88.6768
0
ARC
8
BLACK
10
109.449
20
80.1919
40
0.999925
50
-90.0043
51
0.0028077
0
LINE
8
BLACK
6
CONTINUOUS
10
36.6845
20
30.9419
11
9.14237
21
30.2963
0
LINE
8
BLACK
6
CONTINUOUS
10
109.449
20
79.1919
11
103.449
21
79.1919
0
ARC
8
BLACK
10
225.366
20
35.7948
40
5.49997
50
-91.3431
51
5.13257
0
LINE
8
BLACK
6
CONTINUOUS
10
27.6245
20
84.4919
11
27.692
21
84.8835
0
LINE
8
BLACK
6
CONTINUOUS
10
230.843
20
36.2868
11
226.797
21
81.3389
0
LINE
8
BLACK
6
CONTINUOUS
10
130.93
20
79.1919
11
124.93
21
79.1919
  0
ENDSEC
  0
EOF
