  0
SECTION
  2
HEADER
  9
$ANGBASE
  50
0.0
  9
$ANGDIR
  70
1
  9
$MEASUREMENT
  70
1
  0
ENDSEC
  0
SECTION
  2
TABLES
  0
TABLE
  2
LTYPE
  70
4
  0
LTYPE
  5
40F
  2
CONTINUOUS
  70
0
  3
Solid line
  72
65
  73
0
  40
0.0
  0
LTYPE
  5
410
  2
DASHDOT
 70
0
  3
Dash Dot ____ _ ____ _
 72
65
 73
4
 40
2.0
 49
1.25
 49
-0.25
 49
0.25
 49
-0.25
  0
LTYPE
  5
411
  2
DASHED
 70
0
  3
Dashed __ __ __ __ __
 72
65
 73
2
 40
0.75
 49
0.5
 49
-0.25
  0
LTYPE
  5
43B
  2
DOTTED
 70
0
  3
Dotted .  .  .  .
 72
65
 73
2
 40
0.2
 49
0.0
 49
-0.2
  0
ENDTAB
  0
TABLE
  2
STYLE
  70
4
  0
STYLE
  2
KICAD
  70
0
  40
0
  41
1
  42
1
  50
0
  71
0
  3
isocp.shx
  0
STYLE
  2
KICADB
  70
0
  40
0
  41
1
  42
1
  50
0
  71
0
  3
isocp.shx
  0
STYLE
  2
KICADI
  70
0
  40
0
  41
1
  42
1
  50
15
  71
0
  3
isocp.shx
  0
STYLE
  2
KICADBI
  70
0
  40
0
  41
1
  42
1
  50
15
  71
0
  3
isocp.shx
  0
ENDTAB
  0
TABLE
  2
LAYER
  70
1
  0
LAYER
  2
BLACK
  70
0
  62
7
  6
CONTINUOUS
  0
ENDTAB
  0
ENDSEC
  0
SECTION
  2
ENTITIES
0
LINE
8
BLACK
6
CONTINUOUS
10
36.1264
20
30.9289
11
9.14237
21
30.2963
0
ARC
8
BLACK
10
33.1119
20
83.9483
40
5.5
50
88.2463
51
170.21
0
LINE
8
BLACK
6
CONTINUOUS
10
27.6571
20
84.6811
11
27.692
21
84.8835
0
ARC
8
BLACK
10
225.357
20
35.6899
40
5.49998
50
-91.2974
51
5.12324
0
ARC
8
BLACK
10
93.6071
20
105.151
40
99.9999
50
-97.1062
51
-90.0959
0
ARC
8
BLACK
10
206.724
20
84.8034
40
0.199982
50
-168.694
51
-82.8743
0
ARC
8
BLACK
10
132.915
20
80.8287
40
1.00013
50
100.407
51
179.995
0
LINE
8
BLACK
6
CONTINUOUS
10
153.304
20
5.84164
11
194.165
21
10.9394
0
LINE
8
BLACK
6
CONTINUOUS
10
73.6096
20
87.0393
11
101.627
21
81.824
0
ARC
8
BLACK
10
120.915
20
87.0375
40
2.99998
50
-0.000286482
51
90.0856
0
LINE
8
BLACK
6
CONTINUOUS
10
110.444
20
80.1919
11
110.444
21
87.0264
0
ARC
8
BLACK
10
36.1381
20
30.429
40
0.499997
50
-4.95577
51
91.3407
0
ARC
8
BLACK
10
140.924
20
105.072
40
99.9996
50
-90.0959
51
-82.8884
0
LINE
8
BLACK
6
CONTINUOUS
10
109.444
20
79.1919
11
103.444
21
79.1919
0
LINE
8
BLACK
6
CONTINUOUS
10
226.783
20
81.3702
11
230.835
21
36.181
0
LINE
8
BLACK
6
CONTINUOUS
10
140.756
20
5.07248
11
93.4397
21
5.15169
0
LINE
8
BLACK
6
CONTINUOUS
10
206.528
20
84.7642
11
206.497
21
84.921
0
ARC
8
BLACK
10
221.305
20
80.8789
40
5.50012
50
5.12498
51
97.1131
0
LINE
8
BLACK
6
CONTINUOUS
10
81.2363
20
5.91968
11
40.2711
21
11.0266
0
ARC
8
BLACK
10
40.9516
20
16.4845
40
5.50014
50
-184.954
51
-97.1068
0
LINE
8
BLACK
6
CONTINUOUS
10
102.444
20
80.1919
11
102.444
21
80.8409
0
ARC
8
BLACK
10
124.914
20
80.1819
40
0.999958
50
-180.002
51
-89.9959
0
ARC
8
BLACK
10
9.01348
20
35.7948
40
5.5
50
-185.133
51
-88.6572
0
ARC
8
BLACK
10
130.915
20
80.1819
40
0.999973
50
-90.0016
51
0.00246379
0
LINE
8
BLACK
6
CONTINUOUS
10
198.379
20
30.7994
11
225.232
21
30.1913
0
ARC
8
BLACK
10
198.368
20
30.2996
40
0.49991
50
-271.309
51
-175.319
0
ARC
8
BLACK
10
101.444
20
80.8409
40
1.00002
50
0.000458333
51
79.4515
0
LINE
8
BLACK
6
CONTINUOUS
10
35.4721
20
16.9595
11
36.6363
21
30.3858
0
LINE
8
BLACK
6
CONTINUOUS
10
132.734
20
81.8124
11
160.841
21
86.9715
0
LINE
8
BLACK
6
CONTINUOUS
10
7.58221
20
81.3389
11
3.53553
21
36.2868
0
LINE
8
BLACK
6
CONTINUOUS
10
198.965
20
16.8449
11
197.87
21
30.2588
0
LINE
8
BLACK
6
CONTINUOUS
10
130.914
20
79.1819
11
124.914
21
79.1819
0
LINE
8
BLACK
6
CONTINUOUS
10
220.624
20
86.3367
11
206.749
21
84.605
0
ARC
8
BLACK
10
201.104
20
83.8424
40
5.49999
50
11.3098
51
91.7515
0
ARC
8
BLACK
10
55.3331
20
-11.2782
40
100.002
50
79.4693
51
88.2462
0
ARC
8
BLACK
10
27.46
20
84.7152
40
0.20004
50
-97.4286
51
-9.81346
0
LINE
8
BLACK
6
CONTINUOUS
10
13.7722
20
86.3006
11
27.4341
21
84.5168
0
ARC
8
BLACK
10
193.484
20
16.3971
40
5.49994
50
-82.8891
51
4.67039
0
ARC
8
BLACK
10
178.925
20
-11.381
40
100.001
50
91.7511
51
100.418
0
ARC
8
BLACK
10
13.0602
20
80.8469
40
5.49999
50
82.5609
51
174.867
0
LINE
8
BLACK
6
CONTINUOUS
10
200.935
20
89.3398
11
175.869
21
88.5735
0
LINE
8
BLACK
6
CONTINUOUS
10
131.914
20
80.1819
11
131.914
21
80.8288
0
ARC
8
BLACK
10
109.445
20
80.1919
40
0.999972
50
-90.0016
51
0.00246379
0
ARC
8
BLACK
10
103.445
20
80.192
40
1.00006
50
-179.997
51
-90.0015
0
LINE
8
BLACK
6
CONTINUOUS
10
113.44
20
90.0264
11
120.91
21
90.0375
0
LINE
8
BLACK
6
CONTINUOUS
10
33.2803
20
89.4457
11
58.3936
21
88.6768
0
LINE
8
BLACK
6
CONTINUOUS
10
123.914
20
80.1819
11
123.914
21
87.0375
0
ARC
8
BLACK
10
113.445
20
87.0264
40
3.00003
50
-269.914
51
-180
  0
ENDSEC
  0
EOF
