  0
SECTION
  2
HEADER
  9
$ANGBASE
  50
0.0
  9
$ANGDIR
  70
1
  9
$MEASUREMENT
  70
1
  0
ENDSEC
  0
SECTION
  2
TABLES
  0
TABLE
  2
LTYPE
  70
4
  0
LTYPE
  5
40F
  2
CONTINUOUS
  70
0
  3
Solid line
  72
65
  73
0
  40
0.0
  0
LTYPE
  5
410
  2
DASHDOT
 70
0
  3
Dash Dot ____ _ ____ _
 72
65
 73
4
 40
2.0
 49
1.25
 49
-0.25
 49
0.25
 49
-0.25
  0
LTYPE
  5
411
  2
DASHED
 70
0
  3
Dashed __ __ __ __ __
 72
65
 73
2
 40
0.75
 49
0.5
 49
-0.25
  0
LTYPE
  5
43B
  2
DOTTED
 70
0
  3
Dotted .  .  .  .
 72
65
 73
2
 40
0.2
 49
0.0
 49
-0.2
  0
ENDTAB
  0
TABLE
  2
STYLE
  70
4
  0
STYLE
  2
KICAD
  70
0
  40
0
  41
1
  42
1
  50
0
  71
0
  3
isocp.shx
  0
STYLE
  2
KICADB
  70
0
  40
0
  41
1
  42
1
  50
0
  71
0
  3
isocp.shx
  0
STYLE
  2
KICADI
  70
0
  40
0
  41
1
  42
1
  50
15
  71
0
  3
isocp.shx
  0
STYLE
  2
KICADBI
  70
0
  40
0
  41
1
  42
1
  50
15
  71
0
  3
isocp.shx
  0
ENDTAB
  0
TABLE
  2
LAYER
  70
1
  0
LAYER
  2
BLACK
  70
0
  62
7
  6
CONTINUOUS
  0
ENDTAB
  0
ENDSEC
  0
SECTION
  2
ENTITIES
0
ARC
8
BLACK
10
178.925
20
-11.3821
40
100.002
50
91.7511
51
100.418
0
ARC
8
BLACK
10
33.1119
20
83.9483
40
5.5
50
88.2463
51
170.21
0
LINE
8
BLACK
6
CONTINUOUS
10
226.783
20
81.3702
11
230.835
21
36.181
0
ARC
8
BLACK
10
113.449
20
87.0264
40
3.00007
50
90.0865
51
180
0
LINE
8
BLACK
6
CONTINUOUS
10
220.624
20
86.3367
11
206.564
21
84.5819
0
LINE
8
BLACK
6
CONTINUOUS
10
130.919
20
79.1819
11
124.919
21
79.1819
0
LINE
8
BLACK
6
CONTINUOUS
10
131.919
20
80.1819
11
131.919
21
80.8288
0
LINE
8
BLACK
6
CONTINUOUS
10
7.58221
20
81.3389
11
3.53552
21
36.2868
0
ARC
8
BLACK
10
13.0602
20
80.8469
40
5.5
50
82.5611
51
174.867
0
ARC
8
BLACK
10
101.449
20
80.8408
40
1.00013
50
0.0065309
51
79.4497
0
ARC
8
BLACK
10
225.357
20
35.6899
40
5.49998
50
-91.2975
51
5.12325
0
LINE
8
BLACK
6
CONTINUOUS
10
197.824
20
30.8119
11
225.232
21
30.1913
0
LINE
8
BLACK
6
CONTINUOUS
10
102.449
20
80.1919
11
102.449
21
80.8409
0
ARC
8
BLACK
10
130.919
20
80.1819
40
0.999926
50
-90.0043
51
0.0028077
0
LINE
8
BLACK
6
CONTINUOUS
10
113.444
20
90.0264
11
120.914
21
90.0375
0
LINE
8
BLACK
6
CONTINUOUS
10
200.935
20
89.3398
11
175.869
21
88.5735
0
LINE
8
BLACK
6
CONTINUOUS
10
123.919
20
80.1819
11
123.919
21
87.0375
0
LINE
8
BLACK
6
CONTINUOUS
10
132.738
20
81.8124
11
160.846
21
86.9715
0
ARC
8
BLACK
10
103.449
20
80.192
40
1.00005
50
-179.997
51
-90.0042
0
ARC
8
BLACK
10
120.919
20
87.0376
40
2.99989
50
-0.0020818
51
90.0865
0
ARC
8
BLACK
10
55.3332
20
-11.2775
40
100.001
50
79.4693
51
88.2462
0
LINE
8
BLACK
6
CONTINUOUS
10
198.965
20
16.8449
11
197.824
21
30.8119
0
LINE
8
BLACK
6
CONTINUOUS
10
87.3145
20
5.16194
11
40.2711
21
11.0266
0
ARC
8
BLACK
10
40.9515
20
16.4844
40
5.50002
50
-184.955
51
-97.1059
0
ARC
8
BLACK
10
9.01347
20
35.7948
40
5.49999
50
-185.133
51
-88.6571
0
LINE
8
BLACK
6
CONTINUOUS
10
13.7722
20
86.3006
11
27.6245
21
84.4919
0
LINE
8
BLACK
6
CONTINUOUS
10
73.6141
20
87.0393
11
101.632
21
81.824
0
LINE
8
BLACK
6
CONTINUOUS
10
35.4721
20
16.9595
11
36.6845
21
30.9419
0
LINE
8
BLACK
6
CONTINUOUS
10
110.449
20
80.1919
11
110.449
21
87.0264
0
LINE
8
BLACK
6
CONTINUOUS
10
33.2803
20
89.4457
11
58.3936
21
88.6768
0
ARC
8
BLACK
10
109.449
20
80.1919
40
0.999925
50
-90.0043
51
0.0028077
0
LINE
8
BLACK
6
CONTINUOUS
10
36.6845
20
30.9419
11
9.14237
21
30.2963
0
LINE
8
BLACK
6
CONTINUOUS
10
109.449
20
79.1919
11
103.449
21
79.1919
0
ARC
8
BLACK
10
132.919
20
80.8287
40
1.00018
50
100.41
51
179.995
0
LINE
8
BLACK
6
CONTINUOUS
10
27.6245
20
84.4919
11
27.692
21
84.8835
0
ARC
8
BLACK
10
124.919
20
80.182
40
1.00005
50
-179.997
51
-89.9986
0
ARC
8
BLACK
10
221.305
20
80.879
40
5.50003
50
5.12404
51
97.1142
0
ARC
8
BLACK
10
193.484
20
16.3971
40
5.50004
50
-82.888
51
4.67026
0
ARC
8
BLACK
10
201.104
20
83.8424
40
5.49998
50
11.3098
51
91.7515
0
LINE
8
BLACK
6
CONTINUOUS
10
147.054
20
5.06194
11
87.3145
21
5.16194
0
LINE
8
BLACK
6
CONTINUOUS
10
206.564
20
84.5819
11
206.497
21
84.921
0
LINE
8
BLACK
6
CONTINUOUS
10
147.054
20
5.06194
11
194.165
21
10.9394
  0
ENDSEC
  0
EOF
